  0
SECTION
  2
HEADER
  9
$ACADVER
  1
AC1009
  9
$DWGCODEPAGE
  3
ansi_1252
  9
$INSBASE
 10
0.0
 20
0.0
 30
0.0
  9
$EXTMIN
 10
-28.328125
 20
-3.0
 30
0.0
  9
$EXTMAX
 10
28.328125
 20
3.0
 30
0.0
  9
$LIMMIN
 10
0.0
 20
0.0
  9
$LIMMAX
 10
12.0
 20
9.0
  9
$ORTHOMODE
 70
     0
  9
$REGENMODE
 70
     1
  9
$FILLMODE
 70
     1
  9
$QTEXTMODE
 70
     0
  9
$MIRRTEXT
 70
     1
  9
$DRAGMODE
 70
     2
  9
$LTSCALE
 40
1.0
  9
$OSMODE
 70
    37
  9
$ATTMODE
 70
     1
  9
$TEXTSIZE
 40
0.1377952756
  9
$TRACEWID
 40
0.05
  9
$TEXTSTYLE
  7
STANDARD
  9
$CLAYER
  8
0
  9
$CELTYPE
  6
BYLAYER
  9
$CECOLOR
 62
   256
  9
$DIMSCALE
 40
1.0
  9
$DIMASZ
 40
0.13
  9
$DIMEXO
 40
0.0393700787
  9
$DIMDLI
 40
0.38
  9
$DIMRND
 40
0.0
  9
$DIMDLE
 40
0.0
  9
$DIMEXE
 40
0.0393700787
  9
$DIMTP
 40
0.0
  9
$DIMTM
 40
0.0
  9
$DIMTXT
 40
0.1377952756
  9
$DIMCEN
 40
0.09
  9
$DIMTSZ
 40
0.0
  9
$DIMTOL
 70
     0
  9
$DIMLIM
 70
     0
  9
$DIMTIH
 70
     1
  9
$DIMTOH
 70
     1
  9
$DIMSE1
 70
     0
  9
$DIMSE2
 70
     0
  9
$DIMTAD
 70
     1
  9
$DIMZIN
 70
     0
  9
$DIMBLK
  1

  9
$DIMASO
 70
     1
  9
$DIMSHO
 70
     1
  9
$DIMPOST
  1

  9
$DIMAPOST
  1

  9
$DIMALT
 70
     0
  9
$DIMALTD
 70
     2
  9
$DIMALTF
 40
25.4
  9
$DIMLFAC
 40
1.0
  9
$DIMTOFL
 70
     0
  9
$DIMTVP
 40
0.0
  9
$DIMTIX
 70
     0
  9
$DIMSOXD
 70
     0
  9
$DIMSAH
 70
     0
  9
$DIMBLK1
  1

  9
$DIMBLK2
  1

  9
$DIMSTYLE
  2
STANDARD
  9
$DIMCLRD
 70
     0
  9
$DIMCLRE
 70
     0
  9
$DIMCLRT
 70
     0
  9
$DIMTFAC
 40
1.0
  9
$DIMGAP
 40
0.06
  9
$LUNITS
 70
     2
  9
$LUPREC
 70
     2
  9
$SKETCHINC
 40
0.1
  9
$FILLETRAD
 40
0.5
  9
$AUNITS
 70
     0
  9
$AUPREC
 70
     2
  9
$MENU
  1
.
  9
$ELEVATION
 40
0.0
  9
$PELEVATION
 40
0.0
  9
$THICKNESS
 40
0.0
  9
$LIMCHECK
 70
     0
  9
$CHAMFERA
 40
0.0
  9
$CHAMFERB
 40
0.0
  9
$SKPOLY
 70
     0
  9
$TDCREATE
 40
2457848.919734884
  9
$TDUPDATE
 40
2457848.919766632
  9
$TDINDWG
 40
0.0000000116
  9
$TDUSRTIMER
 40
0.0000000116
  9
$USRTIMER
 70
     1
  9
$ANGBASE
 50
0.0
  9
$ANGDIR
 70
     0
  9
$PDMODE
 70
     0
  9
$PDSIZE
 40
-1.0
  9
$PLINEWID
 40
0.0
  9
$COORDS
 70
     1
  9
$SPLFRAME
 70
     0
  9
$SPLINETYPE
 70
     6
  9
$SPLINESEGS
 70
     8
  9
$ATTDIA
 70
     0
  9
$ATTREQ
 70
     1
  9
$HANDLING
 70
     1
  9
$HANDSEED
  5
1ED
  9
$SURFTAB1
 70
     6
  9
$SURFTAB2
 70
     6
  9
$SURFTYPE
 70
     6
  9
$SURFU
 70
     6
  9
$SURFV
 70
     6
  9
$UCSNAME
  2

  9
$UCSORG
 10
0.0
 20
0.0
 30
0.0
  9
$UCSXDIR
 10
1.0
 20
0.0
 30
0.0
  9
$UCSYDIR
 10
0.0
 20
1.0
 30
0.0
  9
$PUCSNAME
  2

  9
$PUCSORG
 10
0.0
 20
0.0
 30
0.0
  9
$PUCSXDIR
 10
1.0
 20
0.0
 30
0.0
  9
$PUCSYDIR
 10
0.0
 20
1.0
 30
0.0
  9
$USERI1
 70
     0
  9
$USERI2
 70
     0
  9
$USERI3
 70
     0
  9
$USERI4
 70
     0
  9
$USERI5
 70
     0
  9
$USERR1
 40
0.0
  9
$USERR2
 40
0.0
  9
$USERR3
 40
0.0
  9
$USERR4
 40
0.0
  9
$USERR5
 40
0.0
  9
$WORLDVIEW
 70
     1
  9
$SHADEDGE
 70
     3
  9
$SHADEDIF
 70
    70
  9
$TILEMODE
 70
     1
  9
$MAXACTVP
 70
    64
  9
$PLIMCHECK
 70
     0
  9
$PEXTMIN
 10
1.0000000000E+20
 20
1.0000000000E+20
 30
1.0000000000E+20
  9
$PEXTMAX
 10
-1.0000000000E+20
 20
-1.0000000000E+20
 30
-1.0000000000E+20
  9
$PLIMMIN
 10
0.0
 20
0.0
  9
$PLIMMAX
 10
12.0
 20
9.0
  9
$UNITMODE
 70
     0
  9
$VISRETAIN
 70
     1
  9
$PLINEGEN
 70
     0
  9
$PSLTSCALE
 70
     1
  0
ENDSEC
  0
SECTION
  2
TABLES
  0
TABLE
  2
VPORT
 70
     1
  0
VPORT
  2
*ACTIVE
 70
     0
 10
0.0
 20
0.0
 11
1.0
 21
1.0
 12
0.0
 22
0.0
 13
0.0
 23
0.0
 14
0.5
 24
0.5
 15
0.5
 25
0.5
 16
0.0
 26
0.0
 36
1.0
 17
0.0
 27
0.0
 37
0.0
 40
6.12
 41
9.4427083333
 42
50.0
 43
0.0
 44
0.0
 50
0.0
 51
0.0
 71
     0
 72
   100
 73
     1
 74
     3
 75
     0
 76
     0
 77
     0
 78
     0
  0
ENDTAB
  0
TABLE
  2
LTYPE
 70
     6
  0
LTYPE
  2
CONTINUOUS
 70
     0
  3
Solid line
 72
    65
 73
     0
 40
0.0
  0
LTYPE
  2
HIDDEN
 70
     0
  3
Hidden __ __ __ __ __ __ __ __ __ __ __ __ __ __
 72
    65
 73
     2
 40
0.075
 49
0.05
 49
-0.025
  0
LTYPE
  2
PHANTOM
 70
     0
  3
Phantom ______  __  __  ______  __  __  ______
 72
    65
 73
     6
 40
0.5
 49
0.25
 49
-0.05
 49
0.05
 49
-0.05
 49
0.05
 49
-0.05
  0
LTYPE
  2
CENTER
 70
     0
  3
Center ____ _ ____ _ ____ _ ____ _ ____ _ ____
 72
    65
 73
     4
 40
0.4
 49
0.25
 49
-0.05
 49
0.05
 49
-0.05
  0
LTYPE
  2
CENTERX2
 70
     0
  3
Center (2x) ________  __  ________  __  _____
 72
    65
 73
     4
 40
0.8
 49
0.5
 49
-0.1
 49
0.1
 49
-0.1
  0
LTYPE
  2
DOT2
 70
     0
  3
Dot (.5x) ........................................
 72
    65
 73
     2
 40
0.025
 49
0.0
 49
-0.025
  0
ENDTAB
  0
TABLE
  2
LAYER
 70
     1
  0
LAYER
  2
0
 70
     0
 62
     7
  6
CONTINUOUS
  0
ENDTAB
  0
TABLE
  2
STYLE
 70
     1
  0
STYLE
  2
STANDARD
 70
     0
 40
0.0
 41
1.0
 50
0.0
 71
     0
 42
0.1377952756
  3
txt
  4

  0
ENDTAB
  0
TABLE
  2
VIEW
 70
     0
  0
ENDTAB
  0
TABLE
  2
UCS
 70
     0
  0
ENDTAB
  0
TABLE
  2
APPID
 70
     1
  0
APPID
  2
ACAD
 70
     0
  0
ENDTAB
  0
TABLE
  2
DIMSTYLE
 70
     1
  0
DIMSTYLE
  2
STANDARD
 70
     0
  3

  4

  5

  6

  7

 40
1.0
 41
0.18
 42
0.0625
 43
0.38
 44
0.18
 45
0.0
 46
0.0
 47
0.0
 48
0.0
140
0.18
141
0.09
142
0.0
143
25.4
144
1.0
145
0.0
146
1.0
147
0.09
 71
     0
 72
     0
 73
     1
 74
     1
 75
     0
 76
     0
 77
     0
 78
     0
170
     0
171
     2
172
     0
173
     0
174
     0
175
     0
176
     0
177
     0
178
     0
  0
ENDTAB
  0
ENDSEC
  0
SECTION
  2
BLOCKS
  0
BLOCK
  8
0
  2
$MODEL_SPACE
 70
     0
 10
0.0
 20
0.0
 30
0.0
  3
$MODEL_SPACE
  1

  0
ENDBLK
  5
21
  8
0
  0
BLOCK
 67
     1
  8
0
  2
$PAPER_SPACE
 70
     0
 10
0.0
 20
0.0
 30
0.0
  3
$PAPER_SPACE
  1

  0
ENDBLK
  5
1D
 67
     1
  8
0
  0
ENDSEC
  0
SECTION
  2
ENTITIES
  0
CIRCLE
  5
73
  8
0
  6
CONTINUOUS
 62
     7
 10
27.195625
 20
1.5
 30
0.0
 40
0.1004999999999983
  0
CIRCLE
  5
86
  8
0
  6
CONTINUOUS
 62
     7
 10
27.195625
 20
-1.5
 30
0.0
 40
0.100499999999998
  0
CIRCLE
  5
87
  8
0
  6
CONTINUOUS
 62
     7
 10
-27.195625
 20
-1.5
 30
0.0
 40
0.1004999999999958
  0
CIRCLE
  5
88
  8
0
  6
CONTINUOUS
 62
     7
 10
-27.195625
 20
1.5
 30
0.0
 40
0.1004999999999956
  0
POLYLINE
  5
9B
  8
0
  6
CONTINUOUS
 62
     7
 66
     1
 10
0.0
 20
0.0
 30
0.0
 70
   128
  0
VERTEX
  5
104
  8
0
  6
CONTINUOUS
 62
     7
 10
-22.8201407121
 20
-1.0538054426
 30
0.0
  0
VERTEX
  5
105
  8
0
  6
CONTINUOUS
 62
     7
 10
-22.6239673266
 20
-1.038310358
 30
0.0
  0
VERTEX
  5
106
  8
0
  6
CONTINUOUS
 62
     7
 10
-22.4328022014
 20
-0.9917264724
 30
0.0
  0
VERTEX
  5
107
  8
0
  6
CONTINUOUS
 62
     7
 10
-22.2533261671
 20
-0.9111910845
 30
0.0
  0
VERTEX
  5
108
  8
0
  6
CONTINUOUS
 62
     7
 10
-22.0917277861
 20
-0.7989907267
 30
0.0
  0
VERTEX
  5
109
  8
0
  6
CONTINUOUS
 62
     7
 10
-21.9538994992
 20
-0.6586777144
 30
0.0
  0
VERTEX
  5
10A
  8
0
  6
CONTINUOUS
 62
     7
 10
-21.8499769323
 20
-0.4958717451
 30
0.0
  0
VERTEX
  5
10B
  8
0
  6
CONTINUOUS
 62
     7
 10
-21.7791206208
 20
-0.3161156848
 30
0.0
  0
VERTEX
  5
10C
  8
0
  6
CONTINUOUS
 62
     7
 10
-21.7388312413
 20
-0.127039802
 30
0.0
  0
VERTEX
  5
10D
  8
0
  6
CONTINUOUS
 62
     7
 10
-21.7236378609
 20
0.0656948961
 30
0.0
  0
SEQEND
  5
1D2
  8
0
  6
CONTINUOUS
 62
     7
  0
POLYLINE
  5
9C
  8
0
  6
CONTINUOUS
 62
     7
 66
     1
 10
0.0
 20
0.0
 30
0.0
 70
   128
  0
VERTEX
  5
10E
  8
0
  6
CONTINUOUS
 62
     7
 10
-20.5624816956
 20
0.4974401818
 30
0.0
  0
VERTEX
  5
10F
  8
0
  6
CONTINUOUS
 62
     7
 10
-20.7070903506
 20
0.4822646385
 30
0.0
  0
VERTEX
  5
110
  8
0
  6
CONTINUOUS
 62
     7
 10
-20.8443122188
 20
0.434659476
 30
0.0
  0
VERTEX
  5
111
  8
0
  6
CONTINUOUS
 62
     7
 10
-20.939556104
 20
0.3716266848
 30
0.0
  0
VERTEX
  5
112
  8
0
  6
CONTINUOUS
 62
     7
 10
-21.0128853203
 20
0.2843879855
 30
0.0
  0
SEQEND
  5
1D3
  8
0
  6
CONTINUOUS
 62
     7
  0
POLYLINE
  5
9D
  8
0
  6
CONTINUOUS
 62
     7
 66
     1
 10
0.0
 20
0.0
 30
0.0
 70
   128
  0
VERTEX
  5
113
  8
0
  6
CONTINUOUS
 62
     7
 10
-13.411998718
 20
0.4948366926
 30
0.0
  0
VERTEX
  5
114
  8
0
  6
CONTINUOUS
 62
     7
 10
-13.563826715
 20
0.4768348819
 30
0.0
  0
VERTEX
  5
115
  8
0
  6
CONTINUOUS
 62
     7
 10
-13.708022138
 20
0.4263367158
 30
0.0
  0
VERTEX
  5
116
  8
0
  6
CONTINUOUS
 62
     7
 10
-13.8354985903
 20
0.3422509238
 30
0.0
  0
VERTEX
  5
117
  8
0
  6
CONTINUOUS
 62
     7
 10
-13.9387108097
 20
0.2295546756
 30
0.0
  0
VERTEX
  5
118
  8
0
  6
CONTINUOUS
 62
     7
 10
-14.0187541542
 20
0.0909334219
 30
0.0
  0
VERTEX
  5
119
  8
0
  6
CONTINUOUS
 62
     7
 10
-14.0666074314
 20
-0.0618146737
 30
0.0
  0
VERTEX
  5
11A
  8
0
  6
CONTINUOUS
 62
     7
 10
-14.0832650064
 20
-0.2211228263
 30
0.0
  0
SEQEND
  5
1D4
  8
0
  6
CONTINUOUS
 62
     7
  0
POLYLINE
  5
9F
  8
0
  6
CONTINUOUS
 62
     7
 66
     1
 10
0.0
 20
0.0
 30
0.0
 70
   128
  0
VERTEX
  5
11B
  8
0
  6
CONTINUOUS
 62
     7
 10
-18.22454843
 20
-0.2363098464
 30
0.0
  0
VERTEX
  5
11C
  8
0
  6
CONTINUOUS
 62
     7
 10
-18.2368272671
 20
-0.0707989817
 30
0.0
  0
VERTEX
  5
11D
  8
0
  6
CONTINUOUS
 62
     7
 10
-18.2768675042
 20
0.0901609113
 30
0.0
  0
VERTEX
  5
11E
  8
0
  6
CONTINUOUS
 62
     7
 10
-18.3511067155
 20
0.2383409182
 30
0.0
  0
VERTEX
  5
11F
  8
0
  6
CONTINUOUS
 62
     7
 10
-18.4608539039
 20
0.3624010018
 30
0.0
  0
VERTEX
  5
120
  8
0
  6
CONTINUOUS
 62
     7
 10
-18.607085479
 20
0.455698331
 30
0.0
  0
VERTEX
  5
121
  8
0
  6
CONTINUOUS
 62
     7
 10
-18.7730806221
 20
0.5066608015
 30
0.0
  0
VERTEX
  5
122
  8
0
  6
CONTINUOUS
 62
     7
 10
-18.9461488422
 20
0.5226072437
 30
0.0
  0
SEQEND
  5
1D5
  8
0
  6
CONTINUOUS
 62
     7
  0
POLYLINE
  5
A0
  8
0
  6
CONTINUOUS
 62
     7
 66
     1
 10
0.0
 20
0.0
 30
0.0
 70
   128
  0
VERTEX
  5
123
  8
0
  6
CONTINUOUS
 62
     7
 10
-18.2300147403
 20
-0.3588916419
 30
0.0
  0
VERTEX
  5
124
  8
0
  6
CONTINUOUS
 62
     7
 10
-18.2254732891
 20
-0.2903050346
 30
0.0
  0
VERTEX
  5
125
  8
0
  6
CONTINUOUS
 62
     7
 10
-18.22454843
 20
-0.2363098464
 30
0.0
  0
SEQEND
  5
1D6
  8
0
  6
CONTINUOUS
 62
     7
  0
POLYLINE
  5
A2
  8
0
  6
CONTINUOUS
 62
     7
 66
     1
 10
0.0
 20
0.0
 30
0.0
 70
   128
  0
VERTEX
  5
126
  8
0
  6
CONTINUOUS
 62
     7
 10
-19.8907814923
 20
-0.2597412489
 30
0.0
  0
VERTEX
  5
127
  8
0
  6
CONTINUOUS
 62
     7
 10
-19.9028263627
 20
-0.1009775064
 30
0.0
  0
VERTEX
  5
128
  8
0
  6
CONTINUOUS
 62
     7
 10
-19.9404803298
 20
0.0536735972
 30
0.0
  0
VERTEX
  5
129
  8
0
  6
CONTINUOUS
 62
     7
 10
-20.0083491987
 20
0.1975727237
 30
0.0
  0
VERTEX
  5
12A
  8
0
  6
CONTINUOUS
 62
     7
 10
-20.106243836
 20
0.3228985936
 30
0.0
  0
VERTEX
  5
12B
  8
0
  6
CONTINUOUS
 62
     7
 10
-20.2402947777
 20
0.4214907943
 30
0.0
  0
VERTEX
  5
12C
  8
0
  6
CONTINUOUS
 62
     7
 10
-20.3968865947
 20
0.4780881155
 30
0.0
  0
VERTEX
  5
12D
  8
0
  6
CONTINUOUS
 62
     7
 10
-20.5624816956
 20
0.4974401818
 30
0.0
  0
SEQEND
  5
1D7
  8
0
  6
CONTINUOUS
 62
     7
  0
POLYLINE
  5
A7
  8
0
  6
CONTINUOUS
 62
     7
 66
     1
 10
0.0
 20
0.0
 30
0.0
 70
   128
  0
VERTEX
  5
12E
  8
0
  6
CONTINUOUS
 62
     7
 10
-22.8201407121
 20
1.1917039578
 30
0.0
  0
VERTEX
  5
12F
  8
0
  6
CONTINUOUS
 62
     7
 10
-23.0165854025
 20
1.1760840568
 30
0.0
  0
VERTEX
  5
130
  8
0
  6
CONTINUOUS
 62
     7
 10
-23.2078111838
 20
1.1285436189
 30
0.0
  0
VERTEX
  5
131
  8
0
  6
CONTINUOUS
 62
     7
 10
-23.3869748976
 20
1.0466812198
 30
0.0
  0
VERTEX
  5
132
  8
0
  6
CONTINUOUS
 62
     7
 10
-23.5481154623
 20
0.9333747176
 30
0.0
  0
VERTEX
  5
133
  8
0
  6
CONTINUOUS
 62
     7
 10
-23.6852558224
 20
0.7919786843
 30
0.0
  0
VERTEX
  5
134
  8
0
  6
CONTINUOUS
 62
     7
 10
-23.7885527897
 20
0.6284491384
 30
0.0
  0
VERTEX
  5
135
  8
0
  6
CONTINUOUS
 62
     7
 10
-23.858473641
 20
0.4480214202
 30
0.0
  0
VERTEX
  5
136
  8
0
  6
CONTINUOUS
 62
     7
 10
-23.8989841623
 20
0.2587233255
 30
0.0
  0
VERTEX
  5
137
  8
0
  6
CONTINUOUS
 62
     7
 10
-23.9140400741
 20
0.0656948961
 30
0.0
  0
SEQEND
  5
1D8
  8
0
  6
CONTINUOUS
 62
     7
  0
POLYLINE
  5
A9
  8
0
  6
CONTINUOUS
 62
     7
 66
     1
 10
0.0
 20
0.0
 30
0.0
 70
   128
  0
VERTEX
  5
138
  8
0
  6
CONTINUOUS
 62
     7
 10
-12.990956383
 20
0.2977927343
 30
0.0
  0
VERTEX
  5
139
  8
0
  6
CONTINUOUS
 62
     7
 10
-13.081497585
 20
0.3982235381
 30
0.0
  0
VERTEX
  5
13A
  8
0
  6
CONTINUOUS
 62
     7
 10
-13.20115895
 20
0.4623895446
 30
0.0
  0
VERTEX
  5
13B
  8
0
  6
CONTINUOUS
 62
     7
 10
-13.3053006138
 20
0.4867717463
 30
0.0
  0
VERTEX
  5
13C
  8
0
  6
CONTINUOUS
 62
     7
 10
-13.411998718
 20
0.4948366926
 30
0.0
  0
SEQEND
  5
1D9
  8
0
  6
CONTINUOUS
 62
     7
  0
POLYLINE
  5
AA
  8
0
  6
CONTINUOUS
 62
     7
 66
     1
 10
0.0
 20
0.0
 30
0.0
 70
   128
  0
VERTEX
  5
13D
  8
0
  6
CONTINUOUS
 62
     7
 10
-17.2213372737
 20
0.1424978263
 30
0.0
  0
VERTEX
  5
13E
  8
0
  6
CONTINUOUS
 62
     7
 10
-17.1367734704
 20
0.1329642555
 30
0.0
  0
VERTEX
  5
13F
  8
0
  6
CONTINUOUS
 62
     7
 10
-17.0579304794
 20
0.1015372827
 30
0.0
  0
VERTEX
  5
140
  8
0
  6
CONTINUOUS
 62
     7
 10
-16.9969489172
 20
0.0427119548
 30
0.0
  0
VERTEX
  5
141
  8
0
  6
CONTINUOUS
 62
     7
 10
-16.9549640144
 20
-0.0481758387
 30
0.0
  0
VERTEX
  5
142
  8
0
  6
CONTINUOUS
 62
     7
 10
-16.9436317634
 20
-0.147791215
 30
0.0
  0
SEQEND
  5
1DA
  8
0
  6
CONTINUOUS
 62
     7
  0
POLYLINE
  5
AB
  8
0
  6
CONTINUOUS
 62
     7
 66
     1
 10
0.0
 20
0.0
 30
0.0
 70
   128
  0
VERTEX
  5
143
  8
0
  6
CONTINUOUS
 62
     7
 10
-16.5578818766
 20
-0.0793949614
 30
0.0
  0
VERTEX
  5
144
  8
0
  6
CONTINUOUS
 62
     7
 10
-16.5664462179
 20
0.0433664944
 30
0.0
  0
VERTEX
  5
145
  8
0
  6
CONTINUOUS
 62
     7
 10
-16.5949953385
 20
0.1629764353
 30
0.0
  0
VERTEX
  5
146
  8
0
  6
CONTINUOUS
 62
     7
 10
-16.647093752
 20
0.2743253659
 30
0.0
  0
VERTEX
  5
147
  8
0
  6
CONTINUOUS
 62
     7
 10
-16.7235422262
 20
0.3704745825
 30
0.0
  0
VERTEX
  5
148
  8
0
  6
CONTINUOUS
 62
     7
 10
-16.8299579372
 20
0.442549427
 30
0.0
  0
VERTEX
  5
149
  8
0
  6
CONTINUOUS
 62
     7
 10
-16.9525357646
 20
0.4817952708
 30
0.0
  0
VERTEX
  5
14A
  8
0
  6
CONTINUOUS
 62
     7
 10
-17.0807488591
 20
0.4948366926
 30
0.0
  0
SEQEND
  5
1DB
  8
0
  6
CONTINUOUS
 62
     7
  0
POLYLINE
  5
AC
  8
0
  6
CONTINUOUS
 62
     7
 66
     1
 10
0.0
 20
0.0
 30
0.0
 70
   128
  0
VERTEX
  5
14B
  8
0
  6
CONTINUOUS
 62
     7
 10
-13.3820585926
 20
-1.6343835253
 30
0.0
  0
VERTEX
  5
14C
  8
0
  6
CONTINUOUS
 62
     7
 10
-13.2079636759
 20
-1.6186556787
 30
0.0
  0
VERTEX
  5
14D
  8
0
  6
CONTINUOUS
 62
     7
 10
-13.0391570847
 20
-1.573800289
 30
0.0
  0
VERTEX
  5
14E
  8
0
  6
CONTINUOUS
 62
     7
 10
-12.8862565219
 20
-1.489855731
 30
0.0
  0
VERTEX
  5
14F
  8
0
  6
CONTINUOUS
 62
     7
 10
-12.766223666
 20
-1.3634819685
 30
0.0
  0
VERTEX
  5
150
  8
0
  6
CONTINUOUS
 62
     7
 10
-12.6780523829
 20
-1.2032588431
 30
0.0
  0
VERTEX
  5
151
  8
0
  6
CONTINUOUS
 62
     7
 10
-12.6285746387
 20
-1.0271523529
 30
0.0
  0
VERTEX
  5
152
  8
0
  6
CONTINUOUS
 62
     7
 10
-12.6148971202
 20
-0.8446584801
 30
0.0
  0
SEQEND
  5
1DC
  8
0
  6
CONTINUOUS
 62
     7
  0
POLYLINE
  5
AE
  8
0
  6
CONTINUOUS
 62
     7
 66
     1
 10
0.0
 20
0.0
 30
0.0
 70
   128
  0
VERTEX
  5
153
  8
0
  6
CONTINUOUS
 62
     7
 10
-19.6651457652
 20
-0.2480255477
 30
0.0
  0
VERTEX
  5
154
  8
0
  6
CONTINUOUS
 62
     7
 10
-19.6487371531
 20
-0.4198686552
 30
0.0
  0
VERTEX
  5
155
  8
0
  6
CONTINUOUS
 62
     7
 10
-19.6038144449
 20
-0.5864372583
 30
0.0
  0
VERTEX
  5
156
  8
0
  6
CONTINUOUS
 62
     7
 10
-19.5236080291
 20
-0.7390269296
 30
0.0
  0
VERTEX
  5
157
  8
0
  6
CONTINUOUS
 62
     7
 10
-19.4085448579
 20
-0.8673691436
 30
0.0
  0
VERTEX
  5
158
  8
0
  6
CONTINUOUS
 62
     7
 10
-19.2594405131
 20
-0.9692528839
 30
0.0
  0
VERTEX
  5
159
  8
0
  6
CONTINUOUS
 62
     7
 10
-19.0896636322
 20
-1.0308323636
 30
0.0
  0
VERTEX
  5
15A
  8
0
  6
CONTINUOUS
 62
     7
 10
-18.9101339088
 20
-1.0512019535
 30
0.0
  0
SEQEND
  5
1DD
  8
0
  6
CONTINUOUS
 62
     7
  0
POLYLINE
  5
AF
  8
0
  6
CONTINUOUS
 62
     7
 66
     1
 10
0.0
 20
0.0
 30
0.0
 70
   128
  0
VERTEX
  5
15B
  8
0
  6
CONTINUOUS
 62
     7
 10
-12.9997800247
 20
-0.8566686841
 30
0.0
  0
VERTEX
  5
15C
  8
0
  6
CONTINUOUS
 62
     7
 10
-13.0054345866
 20
-0.9496321678
 30
0.0
  0
VERTEX
  5
15D
  8
0
  6
CONTINUOUS
 62
     7
 10
-13.0241333693
 20
-1.040809496
 30
0.0
  0
VERTEX
  5
15E
  8
0
  6
CONTINUOUS
 62
     7
 10
-13.0609089725
 20
-1.1261833222
 30
0.0
  0
VERTEX
  5
15F
  8
0
  6
CONTINUOUS
 62
     7
 10
-13.1205344625
 20
-1.1972919052
 30
0.0
  0
VERTEX
  5
160
  8
0
  6
CONTINUOUS
 62
     7
 10
-13.2031573343
 20
-1.2486326469
 30
0.0
  0
VERTEX
  5
161
  8
0
  6
CONTINUOUS
 62
     7
 10
-13.2969885239
 20
-1.274780235
 30
0.0
  0
VERTEX
  5
162
  8
0
  6
CONTINUOUS
 62
     7
 10
-13.3942082087
 20
-1.282044659
 30
0.0
  0
SEQEND
  5
1DE
  8
0
  6
CONTINUOUS
 62
     7
  0
POLYLINE
  5
B0
  8
0
  6
CONTINUOUS
 62
     7
 66
     1
 10
0.0
 20
0.0
 30
0.0
 70
   128
  0
VERTEX
  5
163
  8
0
  6
CONTINUOUS
 62
     7
 10
-18.9461488422
 20
0.5226072437
 30
0.0
  0
VERTEX
  5
164
  8
0
  6
CONTINUOUS
 62
     7
 10
-19.1090443771
 20
0.5030997313
 30
0.0
  0
VERTEX
  5
165
  8
0
  6
CONTINUOUS
 62
     7
 10
-19.2629897561
 20
0.4466118814
 30
0.0
  0
VERTEX
  5
166
  8
0
  6
CONTINUOUS
 62
     7
 10
-19.3993010425
 20
0.3554140929
 30
0.0
  0
VERTEX
  5
167
  8
0
  6
CONTINUOUS
 62
     7
 10
-19.5125100911
 20
0.2367333924
 30
0.0
  0
VERTEX
  5
168
  8
0
  6
CONTINUOUS
 62
     7
 10
-19.5979375366
 20
0.0877285097
 30
0.0
  0
VERTEX
  5
169
  8
0
  6
CONTINUOUS
 62
     7
 10
-19.6470369254
 20
-0.0769923728
 30
0.0
  0
VERTEX
  5
16A
  8
0
  6
CONTINUOUS
 62
     7
 10
-19.6651457652
 20
-0.2480255477
 30
0.0
  0
SEQEND
  5
1DF
  8
0
  6
CONTINUOUS
 62
     7
  0
POLYLINE
  5
B2
  8
0
  6
CONTINUOUS
 62
     7
 66
     1
 10
0.0
 20
0.0
 30
0.0
 70
   128
  0
VERTEX
  5
16B
  8
0
  6
CONTINUOUS
 62
     7
 10
-21.7236378609
 20
0.0656948961
 30
0.0
  0
VERTEX
  5
16C
  8
0
  6
CONTINUOUS
 62
     7
 10
-21.7392728789
 20
0.2624829415
 30
0.0
  0
VERTEX
  5
16D
  8
0
  6
CONTINUOUS
 62
     7
 10
-21.7809103626
 20
0.4554303146
 30
0.0
  0
VERTEX
  5
16E
  8
0
  6
CONTINUOUS
 62
     7
 10
-21.8542164784
 20
0.6385815287
 30
0.0
  0
VERTEX
  5
16F
  8
0
  6
CONTINUOUS
 62
     7
 10
-21.9619181556
 20
0.8037802778
 30
0.0
  0
VERTEX
  5
170
  8
0
  6
CONTINUOUS
 62
     7
 10
-22.1013664349
 20
0.9433141015
 30
0.0
  0
VERTEX
  5
171
  8
0
  6
CONTINUOUS
 62
     7
 10
-22.261439185
 20
1.0524984953
 30
0.0
  0
VERTEX
  5
172
  8
0
  6
CONTINUOUS
 62
     7
 10
-22.4385123453
 20
1.1311097197
 30
0.0
  0
VERTEX
  5
173
  8
0
  6
CONTINUOUS
 62
     7
 10
-22.6268880901
 20
1.1767172857
 30
0.0
  0
VERTEX
  5
174
  8
0
  6
CONTINUOUS
 62
     7
 10
-22.8201407121
 20
1.1917039578
 30
0.0
  0
SEQEND
  5
1E0
  8
0
  6
CONTINUOUS
 62
     7
  0
POLYLINE
  5
B3
  8
0
  6
CONTINUOUS
 62
     7
 66
     1
 10
0.0
 20
0.0
 30
0.0
 70
   128
  0
VERTEX
  5
175
  8
0
  6
CONTINUOUS
 62
     7
 10
-14.0828315152
 20
-1.0924200515
 30
0.0
  0
VERTEX
  5
176
  8
0
  6
CONTINUOUS
 62
     7
 10
-14.0488370887
 20
-1.2234613611
 30
0.0
  0
VERTEX
  5
177
  8
0
  6
CONTINUOUS
 62
     7
 10
-13.9857180746
 20
-1.3432067568
 30
0.0
  0
VERTEX
  5
178
  8
0
  6
CONTINUOUS
 62
     7
 10
-13.8973892949
 20
-1.4459120323
 30
0.0
  0
VERTEX
  5
179
  8
0
  6
CONTINUOUS
 62
     7
 10
-13.7900259678
 20
-1.528483646
 30
0.0
  0
VERTEX
  5
17A
  8
0
  6
CONTINUOUS
 62
     7
 10
-13.6614817
 20
-1.5885271722
 30
0.0
  0
VERTEX
  5
17B
  8
0
  6
CONTINUOUS
 62
     7
 10
-13.5235586612
 20
-1.6222146448
 30
0.0
  0
VERTEX
  5
17C
  8
0
  6
CONTINUOUS
 62
     7
 10
-13.3820585926
 20
-1.6343835253
 30
0.0
  0
SEQEND
  5
1E1
  8
0
  6
CONTINUOUS
 62
     7
  0
POLYLINE
  5
B4
  8
0
  6
CONTINUOUS
 62
     7
 66
     1
 10
0.0
 20
0.0
 30
0.0
 70
   128
  0
VERTEX
  5
17D
  8
0
  6
CONTINUOUS
 62
     7
 10
-20.5772348008
 20
-1.0260348916
 30
0.0
  0
VERTEX
  5
17E
  8
0
  6
CONTINUOUS
 62
     7
 10
-20.4172945161
 20
-1.0071287501
 30
0.0
  0
VERTEX
  5
17F
  8
0
  6
CONTINUOUS
 62
     7
 10
-20.2655801431
 20
-0.9534029282
 30
0.0
  0
VERTEX
  5
180
  8
0
  6
CONTINUOUS
 62
     7
 10
-20.1332822066
 20
-0.8618891545
 30
0.0
  0
VERTEX
  5
181
  8
0
  6
CONTINUOUS
 62
     7
 10
-20.0279091437
 20
-0.7401861768
 30
0.0
  0
VERTEX
  5
182
  8
0
  6
CONTINUOUS
 62
     7
 10
-19.9498289957
 20
-0.5906962522
 30
0.0
  0
VERTEX
  5
183
  8
0
  6
CONTINUOUS
 62
     7
 10
-19.9052866969
 20
-0.4279548157
 30
0.0
  0
VERTEX
  5
184
  8
0
  6
CONTINUOUS
 62
     7
 10
-19.8907814923
 20
-0.2597412489
 30
0.0
  0
SEQEND
  5
1E2
  8
0
  6
CONTINUOUS
 62
     7
  0
POLYLINE
  5
B5
  8
0
  6
CONTINUOUS
 62
     7
 66
     1
 10
0.0
 20
0.0
 30
0.0
 70
   128
  0
VERTEX
  5
185
  8
0
  6
CONTINUOUS
 62
     7
 10
-14.0832650064
 20
-0.2211228263
 30
0.0
  0
VERTEX
  5
186
  8
0
  6
CONTINUOUS
 62
     7
 10
-14.0686352328
 20
-0.3740502803
 30
0.0
  0
VERTEX
  5
187
  8
0
  6
CONTINUOUS
 62
     7
 10
-14.0266256186
 20
-0.5217472386
 30
0.0
  0
VERTEX
  5
188
  8
0
  6
CONTINUOUS
 62
     7
 10
-13.9544559058
 20
-0.6572218295
 30
0.0
  0
VERTEX
  5
189
  8
0
  6
CONTINUOUS
 62
     7
 10
-13.853938175
 20
-0.7731972793
 30
0.0
  0
VERTEX
  5
18A
  8
0
  6
CONTINUOUS
 62
     7
 10
-13.7225356405
 20
-0.8656743964
 30
0.0
  0
VERTEX
  5
18B
  8
0
  6
CONTINUOUS
 62
     7
 10
-13.5716199419
 20
-0.920887386
 30
0.0
  0
VERTEX
  5
18C
  8
0
  6
CONTINUOUS
 62
     7
 10
-13.411998718
 20
-0.9405536642
 30
0.0
  0
SEQEND
  5
1E3
  8
0
  6
CONTINUOUS
 62
     7
  0
POLYLINE
  5
B6
  8
0
  6
CONTINUOUS
 62
     7
 66
     1
 10
0.0
 20
0.0
 30
0.0
 70
   128
  0
VERTEX
  5
18D
  8
0
  6
CONTINUOUS
 62
     7
 10
-23.913606583
 20
0.0660135523
 30
0.0
  0
VERTEX
  5
18E
  8
0
  6
CONTINUOUS
 62
     7
 10
-23.8984963031
 20
-0.1299942188
 30
0.0
  0
VERTEX
  5
18F
  8
0
  6
CONTINUOUS
 62
     7
 10
-23.8563350811
 20
-0.3219913159
 30
0.0
  0
VERTEX
  5
190
  8
0
  6
CONTINUOUS
 62
     7
 10
-23.7833268293
 20
-0.5044073531
 30
0.0
  0
VERTEX
  5
191
  8
0
  6
CONTINUOUS
 62
     7
 10
-23.675669379
 20
-0.6686582451
 30
0.0
  0
VERTEX
  5
192
  8
0
  6
CONTINUOUS
 62
     7
 10
-23.5362121271
 20
-0.8069901854
 30
0.0
  0
VERTEX
  5
193
  8
0
  6
CONTINUOUS
 62
     7
 10
-23.3767688955
 20
-0.9156890955
 30
0.0
  0
VERTEX
  5
194
  8
0
  6
CONTINUOUS
 62
     7
 10
-23.2002424018
 20
-0.993648212
 30
0.0
  0
VERTEX
  5
195
  8
0
  6
CONTINUOUS
 62
     7
 10
-23.012583473
 20
-1.0387816683
 30
0.0
  0
VERTEX
  5
196
  8
0
  6
CONTINUOUS
 62
     7
 10
-22.8201407121
 20
-1.0538054426
 30
0.0
  0
SEQEND
  5
1E4
  8
0
  6
CONTINUOUS
 62
     7
  0
POLYLINE
  5
BF
  8
0
  6
CONTINUOUS
 62
     7
 66
     1
 10
0.0
 20
0.0
 30
0.0
 70
   128
  0
VERTEX
  5
197
  8
0
  6
CONTINUOUS
 62
     7
 10
-18.9400740341
 20
0.1980389284
 30
0.0
  0
VERTEX
  5
198
  8
0
  6
CONTINUOUS
 62
     7
 10
-18.84952485
 20
0.1890598234
 30
0.0
  0
VERTEX
  5
199
  8
0
  6
CONTINUOUS
 62
     7
 10
-18.7629392195
 20
0.1615421612
 30
0.0
  0
VERTEX
  5
19A
  8
0
  6
CONTINUOUS
 62
     7
 10
-18.6897414354
 20
0.1081510316
 30
0.0
  0
VERTEX
  5
19B
  8
0
  6
CONTINUOUS
 62
     7
 10
-18.6472604027
 20
0.0506444165
 30
0.0
  0
VERTEX
  5
19C
  8
0
  6
CONTINUOUS
 62
     7
 10
-18.6197674022
 20
-0.0153835613
 30
0.0
  0
VERTEX
  5
19D
  8
0
  6
CONTINUOUS
 62
     7
 10
-18.6098648257
 20
-0.0861753049
 30
0.0
  0
SEQEND
  5
1E5
  8
0
  6
CONTINUOUS
 62
     7
  0
POLYLINE
  5
C3
  8
0
  6
CONTINUOUS
 62
     7
 66
     1
 10
0.0
 20
0.0
 30
0.0
 70
   128
  0
VERTEX
  5
19E
  8
0
  6
CONTINUOUS
 62
     7
 10
-20.6401524555
 20
0.140328252
 30
0.0
  0
VERTEX
  5
19F
  8
0
  6
CONTINUOUS
 62
     7
 10
-20.5279170201
 20
0.1238317261
 30
0.0
  0
VERTEX
  5
1A0
  8
0
  6
CONTINUOUS
 62
     7
 10
-20.4265659535
 20
0.0731258408
 30
0.0
  0
VERTEX
  5
1A1
  8
0
  6
CONTINUOUS
 62
     7
 10
-20.3473368292
 20
-0.0080407623
 30
0.0
  0
VERTEX
  5
1A2
  8
0
  6
CONTINUOUS
 62
     7
 10
-20.3062917764
 20
-0.0872688831
 30
0.0
  0
VERTEX
  5
1A3
  8
0
  6
CONTINUOUS
 62
     7
 10
-20.2836478251
 20
-0.1736889027
 30
0.0
  0
VERTEX
  5
1A4
  8
0
  6
CONTINUOUS
 62
     7
 10
-20.276097888
 20
-0.2627786529
 30
0.0
  0
SEQEND
  5
1E6
  8
0
  6
CONTINUOUS
 62
     7
  0
POLYLINE
  5
C4
  8
0
  6
CONTINUOUS
 62
     7
 66
     1
 10
0.0
 20
0.0
 30
0.0
 70
   128
  0
VERTEX
  5
1A5
  8
0
  6
CONTINUOUS
 62
     7
 10
-20.2756648206
 20
-0.257620829
 30
0.0
  0
VERTEX
  5
1A6
  8
0
  6
CONTINUOUS
 62
     7
 10
-20.287873449
 20
-0.3719939386
 30
0.0
  0
VERTEX
  5
1A7
  8
0
  6
CONTINUOUS
 62
     7
 10
-20.3250052946
 20
-0.4806612497
 30
0.0
  0
VERTEX
  5
1A8
  8
0
  6
CONTINUOUS
 62
     7
 10
-20.3935849416
 20
-0.5725564566
 30
0.0
  0
VERTEX
  5
1A9
  8
0
  6
CONTINUOUS
 62
     7
 10
-20.4662527483
 20
-0.6260196876
 30
0.0
  0
VERTEX
  5
1AA
  8
0
  6
CONTINUOUS
 62
     7
 10
-20.5504343098
 20
-0.6584208252
 30
0.0
  0
VERTEX
  5
1AB
  8
0
  6
CONTINUOUS
 62
     7
 10
-20.6401524555
 20
-0.6689229618
 30
0.0
  0
SEQEND
  5
1E7
  8
0
  6
CONTINUOUS
 62
     7
  0
POLYLINE
  5
C5
  8
0
  6
CONTINUOUS
 62
     7
 66
     1
 10
0.0
 20
0.0
 30
0.0
 70
   128
  0
VERTEX
  5
1AC
  8
0
  6
CONTINUOUS
 62
     7
 10
-20.6401524555
 20
-0.6689229618
 30
0.0
  0
VERTEX
  5
1AD
  8
0
  6
CONTINUOUS
 62
     7
 10
-20.7537839059
 20
-0.6516882417
 30
0.0
  0
VERTEX
  5
1AE
  8
0
  6
CONTINUOUS
 62
     7
 10
-20.8558034809
 20
-0.5991400842
 30
0.0
  0
VERTEX
  5
1AF
  8
0
  6
CONTINUOUS
 62
     7
 10
-20.9351767665
 20
-0.5161623152
 30
0.0
  0
VERTEX
  5
1B0
  8
0
  6
CONTINUOUS
 62
     7
 10
-20.9900898091
 20
-0.3925425346
 30
0.0
  0
VERTEX
  5
1B1
  8
0
  6
CONTINUOUS
 62
     7
 10
-21.0072444271
 20
-0.2580055894
 30
0.0
  0
SEQEND
  5
1E8
  8
0
  6
CONTINUOUS
 62
     7
  0
POLYLINE
  5
C7
  8
0
  6
CONTINUOUS
 62
     7
 66
     1
 10
0.0
 20
0.0
 30
0.0
 70
   128
  0
VERTEX
  5
1B2
  8
0
  6
CONTINUOUS
 62
     7
 10
-22.1367248076
 20
0.0687323001
 30
0.0
  0
VERTEX
  5
1B3
  8
0
  6
CONTINUOUS
 62
     7
 10
-22.1510044895
 20
-0.0883928344
 30
0.0
  0
VERTEX
  5
1B4
  8
0
  6
CONTINUOUS
 62
     7
 10
-22.1898132191
 20
-0.2412332486
 30
0.0
  0
VERTEX
  5
1B5
  8
0
  6
CONTINUOUS
 62
     7
 10
-22.2602541174
 20
-0.3821326962
 30
0.0
  0
VERTEX
  5
1B6
  8
0
  6
CONTINUOUS
 62
     7
 10
-22.3651250671
 20
-0.4995244803
 30
0.0
  0
VERTEX
  5
1B7
  8
0
  6
CONTINUOUS
 62
     7
 10
-22.5015963645
 20
-0.5923747974
 30
0.0
  0
VERTEX
  5
1B8
  8
0
  6
CONTINUOUS
 62
     7
 10
-22.6561479068
 20
-0.6501144669
 30
0.0
  0
VERTEX
  5
1B9
  8
0
  6
CONTINUOUS
 62
     7
 10
-22.8201407121
 20
-0.668489047
 30
0.0
  0
SEQEND
  5
1E9
  8
0
  6
CONTINUOUS
 62
     7
  0
POLYLINE
  5
C8
  8
0
  6
CONTINUOUS
 62
     7
 66
     1
 10
0.0
 20
0.0
 30
0.0
 70
   128
  0
VERTEX
  5
1BA
  8
0
  6
CONTINUOUS
 62
     7
 10
-23.5005192125
 20
0.0691390953
 30
0.0
  0
VERTEX
  5
1BB
  8
0
  6
CONTINUOUS
 62
     7
 10
-23.4862974519
 20
0.2258913122
 30
0.0
  0
VERTEX
  5
1BC
  8
0
  6
CONTINUOUS
 62
     7
 10
-23.4477075812
 20
0.3783994611
 30
0.0
  0
VERTEX
  5
1BD
  8
0
  6
CONTINUOUS
 62
     7
 10
-23.3779475539
 20
0.5192456987
 30
0.0
  0
VERTEX
  5
1BE
  8
0
  6
CONTINUOUS
 62
     7
 10
-23.2735614586
 20
0.6366192329
 30
0.0
  0
VERTEX
  5
1BF
  8
0
  6
CONTINUOUS
 62
     7
 10
-23.137741268
 20
0.729793592
 30
0.0
  0
VERTEX
  5
1C0
  8
0
  6
CONTINUOUS
 62
     7
 10
-22.9837181964
 20
0.7878351719
 30
0.0
  0
VERTEX
  5
1C1
  8
0
  6
CONTINUOUS
 62
     7
 10
-22.8201407121
 20
0.8063875621
 30
0.0
  0
SEQEND
  5
1EA
  8
0
  6
CONTINUOUS
 62
     7
  0
POLYLINE
  5
C9
  8
0
  6
CONTINUOUS
 62
     7
 66
     1
 10
0.0
 20
0.0
 30
0.0
 70
   128
  0
VERTEX
  5
1C2
  8
0
  6
CONTINUOUS
 62
     7
 10
-22.8201407121
 20
-0.668489047
 30
0.0
  0
VERTEX
  5
1C3
  8
0
  6
CONTINUOUS
 62
     7
 10
-22.9764164452
 20
-0.6516692664
 30
0.0
  0
VERTEX
  5
1C4
  8
0
  6
CONTINUOUS
 62
     7
 10
-23.124415791
 20
-0.5988007636
 30
0.0
  0
VERTEX
  5
1C5
  8
0
  6
CONTINUOUS
 62
     7
 10
-23.2562831253
 20
-0.5131544118
 30
0.0
  0
VERTEX
  5
1C6
  8
0
  6
CONTINUOUS
 62
     7
 10
-23.3650881899
 20
-0.3998363025
 30
0.0
  0
VERTEX
  5
1C7
  8
0
  6
CONTINUOUS
 62
     7
 10
-23.4424878716
 20
-0.2545857759
 30
0.0
  0
VERTEX
  5
1C8
  8
0
  6
CONTINUOUS
 62
     7
 10
-23.4850606985
 20
-0.0954132175
 30
0.0
  0
VERTEX
  5
1C9
  8
0
  6
CONTINUOUS
 62
     7
 10
-23.5005192125
 20
0.0687323001
 30
0.0
  0
SEQEND
  5
1EB
  8
0
  6
CONTINUOUS
 62
     7
  0
POLYLINE
  5
CA
  8
0
  6
CONTINUOUS
 62
     7
 66
     1
 10
0.0
 20
0.0
 30
0.0
 70
   128
  0
VERTEX
  5
1CA
  8
0
  6
CONTINUOUS
 62
     7
 10
-22.8201407121
 20
0.8063875621
 30
0.0
  0
VERTEX
  5
1CB
  8
0
  6
CONTINUOUS
 62
     7
 10
-22.663406078
 20
0.7897306816
 30
0.0
  0
VERTEX
  5
1CC
  8
0
  6
CONTINUOUS
 62
     7
 10
-22.5148802012
 20
0.7370723027
 30
0.0
  0
VERTEX
  5
1CD
  8
0
  6
CONTINUOUS
 62
     7
 10
-22.3823223763
 20
0.6517378187
 30
0.0
  0
VERTEX
  5
1CE
  8
0
  6
CONTINUOUS
 62
     7
 10
-22.272979685
 20
0.5383835633
 30
0.0
  0
VERTEX
  5
1CF
  8
0
  6
CONTINUOUS
 62
     7
 10
-22.1949376073
 20
0.3929512624
 30
0.0
  0
VERTEX
  5
1D0
  8
0
  6
CONTINUOUS
 62
     7
 10
-22.1521944862
 20
0.2333459411
 30
0.0
  0
VERTEX
  5
1D1
  8
0
  6
CONTINUOUS
 62
     7
 10
-22.1367248076
 20
0.0687323001
 30
0.0
  0
SEQEND
  5
1EC
  8
0
  6
CONTINUOUS
 62
     7
  0
LINE
  5
CB
  8
0
  6
CONTINUOUS
 62
     7
 10
-12.6148971202
 20
-0.8446584801
 30
0.0
 11
-12.6144636291
 21
0.4701035456
 31
0.0
  0
LINE
  5
CC
  8
0
  6
CONTINUOUS
 62
     7
 10
-12.6144636291
 20
0.4701035456
 30
0.0
 11
-12.990956383
 21
0.4701035456
 31
0.0
  0
LINE
  5
CD
  8
0
  6
CONTINUOUS
 62
     7
 10
-12.990956383
 20
0.4701035456
 30
0.0
 11
-12.990956383
 21
0.2977927343
 31
0.0
  0
LINE
  5
CE
  8
0
  6
CONTINUOUS
 62
     7
 10
-13.7378687778
 20
-0.9930573622
 30
0.0
 11
-14.0828315152
 21
-1.0924200515
 31
0.0
  0
LINE
  5
CF
  8
0
  6
CONTINUOUS
 62
     7
 10
-15.7169095372
 20
-0.5235619075
 30
0.0
 11
-14.8531206494
 21
-0.5235619075
 31
0.0
  0
LINE
  5
D0
  8
0
  6
CONTINUOUS
 62
     7
 10
-14.8531206494
 20
-0.5235619075
 30
0.0
 11
-14.6761638981
 21
-0.9982647643
 31
0.0
  0
LINE
  5
D1
  8
0
  6
CONTINUOUS
 62
     7
 10
-16.9436317634
 20
-0.147791215
 30
0.0
 11
-16.9431982722
 21
-0.9982647643
 31
0.0
  0
LINE
  5
D2
  8
0
  6
CONTINUOUS
 62
     7
 10
-16.9431982722
 20
-0.9982647643
 30
0.0
 11
-16.5578818766
 21
-0.9982647643
 31
0.0
  0
LINE
  5
D3
  8
0
  6
CONTINUOUS
 62
     7
 10
-16.5578818766
 20
-0.9982647643
 30
0.0
 11
-16.5578818766
 21
-0.0793949614
 31
0.0
  0
LINE
  5
D4
  8
0
  6
CONTINUOUS
 62
     7
 10
-17.5136653759
 20
0.4701031219
 30
0.0
 11
-17.8873970076
 21
0.4701031219
 31
0.0
  0
LINE
  5
D5
  8
0
  6
CONTINUOUS
 62
     7
 10
-17.8873970076
 20
0.4701031219
 30
0.0
 11
-17.8873970076
 21
-0.9982647643
 31
0.0
  0
LINE
  5
D6
  8
0
  6
CONTINUOUS
 62
     7
 10
-17.8873970076
 20
-0.9982647643
 30
0.0
 11
-17.5020801881
 21
-0.9982647643
 31
0.0
  0
LINE
  5
D7
  8
0
  6
CONTINUOUS
 62
     7
 10
-17.5020801881
 20
-0.9982647643
 30
0.0
 11
-17.5020801881
 21
-0.1594255572
 31
0.0
  0
LINE
  5
D8
  8
0
  6
CONTINUOUS
 62
     7
 10
-21.001169619
 20
-1.5814463361
 30
0.0
 11
-21.001169619
 21
-0.8457623358
 31
0.0
  0
LINE
  5
D9
  8
0
  6
CONTINUOUS
 62
     7
 10
-21.0127548068
 20
0.4701035456
 30
0.0
 11
-21.3864864385
 21
0.4701035456
 31
0.0
  0
LINE
  5
DA
  8
0
  6
CONTINUOUS
 62
     7
 10
-17.5137958894
 20
0.2778792626
 30
0.0
 11
-17.5136653759
 21
0.4701031219
 31
0.0
  0
LINE
  5
DB
  8
0
  6
CONTINUOUS
 62
     7
 10
-21.3864864385
 20
-1.5814463361
 30
0.0
 11
-21.001169619
 21
-1.5814463361
 31
0.0
  0
LINE
  5
DC
  8
0
  6
CONTINUOUS
 62
     7
 10
28.328125
 20
-2.95
 30
0.0
 11
28.328125
 21
2.95
 31
0.0
  0
LINE
  5
DD
  8
0
  6
CONTINUOUS
 62
     7
 10
-13.0002135158
 20
-0.7457258921
 30
0.0
 11
-12.9997800247
 21
-0.8566686841
 31
0.0
  0
LINE
  5
DE
  8
0
  6
CONTINUOUS
 62
     7
 10
-14.6761638981
 20
-0.9982647643
 30
0.0
 11
-14.2262738523
 21
-0.9982647643
 31
0.0
  0
LINE
  5
DF
  8
0
  6
CONTINUOUS
 62
     7
 10
-15.5159586501
 20
1.1365963468
 30
0.0
 11
-16.3317592664
 21
-0.9982647643
 31
0.0
  0
LINE
  5
E0
  8
0
  6
CONTINUOUS
 62
     7
 10
-21.3864864385
 20
0.4701035456
 30
0.0
 11
-21.3864864385
 21
-1.5814463361
 31
0.0
  0
LINE
  5
E1
  8
0
  6
CONTINUOUS
 62
     7
 10
-15.0360759347
 20
1.1365963468
 30
0.0
 11
-15.5159586501
 21
1.1365963468
 31
0.0
  0
LINE
  5
E2
  8
0
  6
CONTINUOUS
 62
     7
 10
-28.328125
 20
2.95
 30
0.0
 11
-28.328125
 21
-2.95
 31
0.0
  0
LINE
  5
E3
  8
0
  6
CONTINUOUS
 62
     7
 10
-16.3317592664
 20
-0.9982647643
 30
0.0
 11
-15.8938662885
 21
-0.9982647643
 31
0.0
  0
LINE
  5
E4
  8
0
  6
CONTINUOUS
 62
     7
 10
-15.8938662885
 20
-0.9982647643
 30
0.0
 11
-15.7169095372
 21
-0.5235619075
 31
0.0
  0
LINE
  5
E5
  8
0
  6
CONTINUOUS
 62
     7
 10
-19.2793954546
 20
-0.3591077518
 30
0.0
 11
-18.2300147403
 21
-0.3588916419
 31
0.0
  0
LINE
  5
E6
  8
0
  6
CONTINUOUS
 62
     7
 10
-28.278125
 20
-3.0
 30
0.0
 11
28.278125
 21
-3.0
 31
0.0
  0
LINE
  5
E7
  8
0
  6
CONTINUOUS
 62
     7
 10
28.278125
 20
3.0
 30
0.0
 11
-28.278125
 21
3.0
 31
0.0
  0
LINE
  5
E8
  8
0
  6
CONTINUOUS
 62
     7
 10
-14.2262738523
 20
-0.9982647643
 30
0.0
 11
-15.0360759347
 21
1.1365963468
 31
0.0
  0
LINE
  5
E9
  8
0
  6
CONTINUOUS
 62
     7
 10
-21.0128853203
 20
0.2843879855
 30
0.0
 11
-21.0127548068
 21
0.4701035456
 31
0.0
  0
LINE
  5
EA
  8
0
  6
CONTINUOUS
 62
     7
 10
-18.2449424284
 20
-0.5717260332
 30
0.0
 11
-18.5711955537
 21
-0.47121669
 31
0.0
  0
LINE
  5
EB
  8
0
  6
CONTINUOUS
 62
     7
 10
-23.9140400741
 20
0.0656948961
 30
0.0
 11
-23.913606583
 21
0.0660135523
 31
0.0
  0
LINE
  5
EC
  8
0
  6
CONTINUOUS
 62
     7
 10
-15.5789432565
 20
-0.1434520664
 30
0.0
 11
-15.2850150933
 21
0.6713671565
 31
0.0
  0
LINE
  5
ED
  8
0
  6
CONTINUOUS
 62
     7
 10
-15.2850150933
 20
0.6713671565
 30
0.0
 11
-14.9910869301
 21
-0.1434520664
 31
0.0
  0
LINE
  5
EE
  8
0
  6
CONTINUOUS
 62
     7
 10
-14.9910869301
 20
-0.1434520664
 30
0.0
 11
-15.5789432565
 21
-0.1434520664
 31
0.0
  0
LINE
  5
EF
  8
0
  6
CONTINUOUS
 62
     7
 10
-18.6098648257
 20
-0.0861753049
 30
0.0
 11
-19.2703823989
 21
-0.0859583474
 31
0.0
  0
LINE
  5
F0
  8
0
  6
CONTINUOUS
 62
     7
 10
-20.276097888
 20
-0.2627786529
 30
0.0
 11
-20.2756648206
 21
-0.257620829
 31
0.0
  0
LINE
  5
F1
  8
0
  6
CONTINUOUS
 62
     7
 10
-23.5005192125
 20
0.0687323001
 30
0.0
 11
-23.5005192125
 21
0.0691390953
 31
0.0
  0
ARC
  5
F2
  8
0
  6
CONTINUOUS
 62
     7
 10
-28.278125
 20
2.95
 30
0.0
 40
0.0500000000000012
 50
90.0
 51
180.0
  0
ARC
  5
F3
  8
0
  6
CONTINUOUS
 62
     7
 10
28.278125
 20
2.95
 30
0.0
 40
0.0499999999999972
 50
360.0
 51
90.0
  0
ARC
  5
F4
  8
0
  6
CONTINUOUS
 62
     7
 10
28.278125
 20
-2.95
 30
0.0
 40
0.0499999999999989
 50
270.0
 51
0.0
  0
ARC
  5
F5
  8
0
  6
CONTINUOUS
 62
     7
 10
-28.278125
 20
-2.95
 30
0.0
 40
0.0499999999999972
 50
180.0
 51
270.0
  0
ARC
  5
F6
  8
0
  6
CONTINUOUS
 62
     7
 10
-13.4059127395
 20
-0.9471311953
 30
0.0
 40
0.3351179257910736
 50
187.8768770551
 51
272.0015540292
  0
ARC
  5
F7
  8
0
  6
CONTINUOUS
 62
     7
 10
-17.1032704513
 20
-0.0008698606
 30
0.0
 40
0.4962179048260463
 50
87.3986516871
 51
145.8232708069
  0
ARC
  5
F8
  8
0
  6
CONTINUOUS
 62
     7
 10
-17.2224142442
 20
-0.137986593
 30
0.0
 40
0.280486486979749
 50
89.7800036099
 51
184.3836742622
  0
ARC
  5
F9
  8
0
  6
CONTINUOUS
 62
     7
 10
-18.8845658667
 20
-0.3855151596
 30
0.0
 40
0.6661776281679122
 50
267.8004353059
 51
343.7683602113
  0
ARC
  5
FA
  8
0
  6
CONTINUOUS
 62
     7
 10
-20.6026350469
 20
-0.497161192
 30
0.0
 40
0.5294832977818046
 50
221.1764290717
 51
272.7496347336
  0
ARC
  5
FB
  8
0
  6
CONTINUOUS
 62
     7
 10
-18.8854650901
 20
-0.3691405276
 30
0.0
 40
0.3304313611143378
 50
266.2464951276
 51
342.0059697197
  0
ARC
  5
FC
  8
0
  6
CONTINUOUS
 62
     7
 10
-13.3817200587
 20
-0.4719646539
 30
0.0
 40
0.4695662442506179
 50
266.3028776201
 51
324.3375571058
  0
ARC
  5
FD
  8
0
  6
CONTINUOUS
 62
     7
 10
-18.9182135109
 20
-0.3371873885
 30
0.0
 40
0.3618465127830911
 50
183.4730575344
 51
271.7605745967
  0
ARC
  5
FE
  8
0
  6
CONTINUOUS
 62
     7
 10
-13.3493256049
 20
-0.2059637999
 30
0.0
 40
0.3485189221753495
 50
88.9610552362
 51
182.4928986021
  0
ARC
  5
FF
  8
0
  6
CONTINUOUS
 62
     7
 10
-13.3523487073
 20
-0.2421047339
 30
0.0
 40
0.3458031233277961
 50
176.5213916796
 51
271.5773826093
  0
ARC
  5
100
  8
0
  6
CONTINUOUS
 62
     7
 10
-13.3369568107
 20
-0.2442309748
 30
0.0
 40
0.3435960392616746
 50
269.0206168599
 51
3.8562711879
  0
ARC
  5
101
  8
0
  6
CONTINUOUS
 62
     7
 10
-13.3404717537
 20
-0.2042373387
 30
0.0
 40
0.346744428075379
 50
357.2087512239
 51
90.4188027828
  0
ARC
  5
102
  8
0
  6
CONTINUOUS
 62
     7
 10
-18.9544416699
 20
-0.1193348342
 30
0.0
 40
0.3176988104092383
 50
87.4079671506
 51
173.9695489086
  0
ARC
  5
103
  8
0
  6
CONTINUOUS
 62
     7
 10
-20.6368081633
 20
-0.2310708857
 30
0.0
 40
0.3714141943688367
 50
90.5159103284
 51
184.1587013899
  0
ENDSEC
  0
EOF
