  0
SECTION
  2
HEADER
  9
$ACADVER
  1
AC1009
  9
$DWGCODEPAGE
  3
ansi_1252
  9
$INSBASE
 10
0.0
 20
0.0
 30
0.0
  9
$EXTMIN
 10
-12.530833335
 20
-0.625
 30
0.0
  9
$EXTMAX
 10
12.530833335
 20
10.075
 30
0.0
  9
$LIMMIN
 10
0.0
 20
0.0
  9
$LIMMAX
 10
12.0
 20
9.0
  9
$ORTHOMODE
 70
     0
  9
$REGENMODE
 70
     1
  9
$FILLMODE
 70
     1
  9
$QTEXTMODE
 70
     0
  9
$MIRRTEXT
 70
     1
  9
$DRAGMODE
 70
     2
  9
$LTSCALE
 40
1.0
  9
$OSMODE
 70
    37
  9
$ATTMODE
 70
     1
  9
$TEXTSIZE
 40
0.1377952756
  9
$TRACEWID
 40
0.05
  9
$TEXTSTYLE
  7
STANDARD
  9
$CLAYER
  8
0
  9
$CELTYPE
  6
BYLAYER
  9
$CECOLOR
 62
   256
  9
$DIMSCALE
 40
1.0
  9
$DIMASZ
 40
0.13
  9
$DIMEXO
 40
0.0393700787
  9
$DIMDLI
 40
0.38
  9
$DIMRND
 40
0.0
  9
$DIMDLE
 40
0.0
  9
$DIMEXE
 40
0.0393700787
  9
$DIMTP
 40
0.0
  9
$DIMTM
 40
0.0
  9
$DIMTXT
 40
0.1377952756
  9
$DIMCEN
 40
0.09
  9
$DIMTSZ
 40
0.0
  9
$DIMTOL
 70
     0
  9
$DIMLIM
 70
     0
  9
$DIMTIH
 70
     1
  9
$DIMTOH
 70
     1
  9
$DIMSE1
 70
     0
  9
$DIMSE2
 70
     0
  9
$DIMTAD
 70
     1
  9
$DIMZIN
 70
     0
  9
$DIMBLK
  1

  9
$DIMASO
 70
     1
  9
$DIMSHO
 70
     1
  9
$DIMPOST
  1

  9
$DIMAPOST
  1

  9
$DIMALT
 70
     0
  9
$DIMALTD
 70
     2
  9
$DIMALTF
 40
25.4
  9
$DIMLFAC
 40
1.0
  9
$DIMTOFL
 70
     0
  9
$DIMTVP
 40
0.0
  9
$DIMTIX
 70
     0
  9
$DIMSOXD
 70
     0
  9
$DIMSAH
 70
     0
  9
$DIMBLK1
  1

  9
$DIMBLK2
  1

  9
$DIMSTYLE
  2
STANDARD
  9
$DIMCLRD
 70
     0
  9
$DIMCLRE
 70
     0
  9
$DIMCLRT
 70
     0
  9
$DIMTFAC
 40
1.0
  9
$DIMGAP
 40
0.06
  9
$LUNITS
 70
     2
  9
$LUPREC
 70
     2
  9
$SKETCHINC
 40
0.1
  9
$FILLETRAD
 40
0.5
  9
$AUNITS
 70
     0
  9
$AUPREC
 70
     2
  9
$MENU
  1
.
  9
$ELEVATION
 40
0.0
  9
$PELEVATION
 40
0.0
  9
$THICKNESS
 40
0.0
  9
$LIMCHECK
 70
     0
  9
$CHAMFERA
 40
0.0
  9
$CHAMFERB
 40
0.0
  9
$SKPOLY
 70
     0
  9
$TDCREATE
 40
2457847.746936968
  9
$TDUPDATE
 40
2457847.746973935
  9
$TDINDWG
 40
0.0000000116
  9
$TDUSRTIMER
 40
0.0000000116
  9
$USRTIMER
 70
     1
  9
$ANGBASE
 50
0.0
  9
$ANGDIR
 70
     0
  9
$PDMODE
 70
     0
  9
$PDSIZE
 40
-1.0
  9
$PLINEWID
 40
0.0
  9
$COORDS
 70
     1
  9
$SPLFRAME
 70
     0
  9
$SPLINETYPE
 70
     6
  9
$SPLINESEGS
 70
     8
  9
$ATTDIA
 70
     0
  9
$ATTREQ
 70
     1
  9
$HANDLING
 70
     1
  9
$HANDSEED
  5
CB
  9
$SURFTAB1
 70
     6
  9
$SURFTAB2
 70
     6
  9
$SURFTYPE
 70
     6
  9
$SURFU
 70
     6
  9
$SURFV
 70
     6
  9
$UCSNAME
  2

  9
$UCSORG
 10
0.0
 20
0.0
 30
0.0
  9
$UCSXDIR
 10
1.0
 20
0.0
 30
0.0
  9
$UCSYDIR
 10
0.0
 20
1.0
 30
0.0
  9
$PUCSNAME
  2

  9
$PUCSORG
 10
0.0
 20
0.0
 30
0.0
  9
$PUCSXDIR
 10
1.0
 20
0.0
 30
0.0
  9
$PUCSYDIR
 10
0.0
 20
1.0
 30
0.0
  9
$USERI1
 70
     0
  9
$USERI2
 70
     0
  9
$USERI3
 70
     0
  9
$USERI4
 70
     0
  9
$USERI5
 70
     0
  9
$USERR1
 40
0.0
  9
$USERR2
 40
0.0
  9
$USERR3
 40
0.0
  9
$USERR4
 40
0.0
  9
$USERR5
 40
0.0
  9
$WORLDVIEW
 70
     1
  9
$SHADEDGE
 70
     3
  9
$SHADEDIF
 70
    70
  9
$TILEMODE
 70
     1
  9
$MAXACTVP
 70
    64
  9
$PLIMCHECK
 70
     0
  9
$PEXTMIN
 10
1.0000000000E+20
 20
1.0000000000E+20
 30
1.0000000000E+20
  9
$PEXTMAX
 10
-1.0000000000E+20
 20
-1.0000000000E+20
 30
-1.0000000000E+20
  9
$PLIMMIN
 10
0.0
 20
0.0
  9
$PLIMMAX
 10
12.0
 20
9.0
  9
$UNITMODE
 70
     0
  9
$VISRETAIN
 70
     1
  9
$PLINEGEN
 70
     0
  9
$PSLTSCALE
 70
     1
  0
ENDSEC
  0
SECTION
  2
TABLES
  0
TABLE
  2
VPORT
 70
     1
  0
VPORT
  2
*ACTIVE
 70
     0
 10
0.0
 20
0.0
 11
1.0
 21
1.0
 12
0.0
 22
4.725
 13
0.0
 23
0.0
 14
0.5
 24
0.5
 15
0.5
 25
0.5
 16
0.0
 26
0.0
 36
1.0
 17
0.0
 27
0.0
 37
0.0
 40
10.914
 41
2.3422118383
 42
50.0
 43
0.0
 44
0.0
 50
0.0
 51
0.0
 71
     0
 72
   100
 73
     1
 74
     3
 75
     0
 76
     0
 77
     0
 78
     0
  0
ENDTAB
  0
TABLE
  2
LTYPE
 70
     6
  0
LTYPE
  2
CONTINUOUS
 70
     0
  3
Solid line
 72
    65
 73
     0
 40
0.0
  0
LTYPE
  2
HIDDEN
 70
     0
  3
Hidden __ __ __ __ __ __ __ __ __ __ __ __ __ __
 72
    65
 73
     2
 40
0.075
 49
0.05
 49
-0.025
  0
LTYPE
  2
PHANTOM
 70
     0
  3
Phantom ______  __  __  ______  __  __  ______
 72
    65
 73
     6
 40
0.5
 49
0.25
 49
-0.05
 49
0.05
 49
-0.05
 49
0.05
 49
-0.05
  0
LTYPE
  2
CENTER
 70
     0
  3
Center ____ _ ____ _ ____ _ ____ _ ____ _ ____
 72
    65
 73
     4
 40
0.4
 49
0.25
 49
-0.05
 49
0.05
 49
-0.05
  0
LTYPE
  2
CENTERX2
 70
     0
  3
Center (2x) ________  __  ________  __  _____
 72
    65
 73
     4
 40
0.8
 49
0.5
 49
-0.1
 49
0.1
 49
-0.1
  0
LTYPE
  2
DOT2
 70
     0
  3
Dot (.5x) ........................................
 72
    65
 73
     2
 40
0.025
 49
0.0
 49
-0.025
  0
ENDTAB
  0
TABLE
  2
LAYER
 70
     1
  0
LAYER
  2
0
 70
     0
 62
     7
  6
CONTINUOUS
  0
ENDTAB
  0
TABLE
  2
STYLE
 70
     1
  0
STYLE
  2
STANDARD
 70
     0
 40
0.0
 41
1.0
 50
0.0
 71
     0
 42
0.1377952756
  3
txt
  4

  0
ENDTAB
  0
TABLE
  2
VIEW
 70
     0
  0
ENDTAB
  0
TABLE
  2
UCS
 70
     0
  0
ENDTAB
  0
TABLE
  2
APPID
 70
     1
  0
APPID
  2
ACAD
 70
     0
  0
ENDTAB
  0
TABLE
  2
DIMSTYLE
 70
     1
  0
DIMSTYLE
  2
STANDARD
 70
     0
  3

  4

  5

  6

  7

 40
1.0
 41
0.18
 42
0.0625
 43
0.38
 44
0.18
 45
0.0
 46
0.0
 47
0.0
 48
0.0
140
0.18
141
0.09
142
0.0
143
25.4
144
1.0
145
0.0
146
1.0
147
0.09
 71
     0
 72
     0
 73
     1
 74
     1
 75
     0
 76
     0
 77
     0
 78
     0
170
     0
171
     2
172
     0
173
     0
174
     0
175
     0
176
     0
177
     0
178
     0
  0
ENDTAB
  0
ENDSEC
  0
SECTION
  2
BLOCKS
  0
BLOCK
  8
0
  2
$MODEL_SPACE
 70
     0
 10
0.0
 20
0.0
 30
0.0
  3
$MODEL_SPACE
  1

  0
ENDBLK
  5
21
  8
0
  0
BLOCK
 67
     1
  8
0
  2
$PAPER_SPACE
 70
     0
 10
0.0
 20
0.0
 30
0.0
  3
$PAPER_SPACE
  1

  0
ENDBLK
  5
1D
 67
     1
  8
0
  0
ENDSEC
  0
SECTION
  2
ENTITIES
  0
CIRCLE
  5
73
  8
0
  6
CONTINUOUS
 62
     7
 10
0.0
 20
9.45
 30
0.0
 40
0.0749999999999993
  0
ARC
  5
74
  8
0
  6
CONTINUOUS
 62
     7
 10
-12.430833335
 20
8.925
 30
0.0
 40
0.1000000000000014
 50
180.0
 51
270.0
  0
LINE
  5
75
  8
0
  6
CONTINUOUS
 62
     7
 10
-12.430833335
 20
8.825
 30
0.0
 11
12.430833335
 21
8.825
 31
0.0
  0
ARC
  5
76
  8
0
  6
CONTINUOUS
 62
     7
 10
12.430833335
 20
8.925
 30
0.0
 40
0.1000000000000014
 50
270.0
 51
0.0
  0
LINE
  5
77
  8
0
  6
CONTINUOUS
 62
     7
 10
12.530833335
 20
8.925
 30
0.0
 11
12.530833335
 21
9.975
 31
0.0
  0
ARC
  5
78
  8
0
  6
CONTINUOUS
 62
     7
 10
12.430833335
 20
9.975
 30
0.0
 40
0.100000000000005
 50
0.0
 51
90.0
  0
LINE
  5
79
  8
0
  6
CONTINUOUS
 62
     7
 10
12.430833335
 20
10.075
 30
0.0
 11
-12.430833335
 21
10.075
 31
0.0
  0
ARC
  5
7A
  8
0
  6
CONTINUOUS
 62
     7
 10
-12.430833335
 20
9.975
 30
0.0
 40
0.1000000000000014
 50
90.0
 51
180.0
  0
LINE
  5
7B
  8
0
  6
CONTINUOUS
 62
     7
 10
-12.530833335
 20
9.975
 30
0.0
 11
-12.530833335
 21
8.925
 31
0.0
  0
CIRCLE
  5
7C
  8
0
  6
CONTINUOUS
 62
     7
 10
11.66
 20
9.45
 30
0.0
 40
0.0749999999999993
  0
CIRCLE
  5
7D
  8
0
  6
CONTINUOUS
 62
     7
 10
-11.66
 20
9.45
 30
0.0
 40
0.0750000000000011
  0
CIRCLE
  5
7E
  8
0
  6
CONTINUOUS
 62
     7
 10
0.0
 20
8.1
 30
0.0
 40
0.0749999999999993
  0
ARC
  5
7F
  8
0
  6
CONTINUOUS
 62
     7
 10
-12.430833335
 20
7.575
 30
0.0
 40
0.1000000000000005
 50
180.0
 51
270.0
  0
LINE
  5
80
  8
0
  6
CONTINUOUS
 62
     7
 10
-12.430833335
 20
7.475
 30
0.0
 11
12.430833335
 21
7.475
 31
0.0
  0
ARC
  5
81
  8
0
  6
CONTINUOUS
 62
     7
 10
12.430833335
 20
7.575
 30
0.0
 40
0.1000000000000005
 50
270.0
 51
0.0
  0
LINE
  5
82
  8
0
  6
CONTINUOUS
 62
     7
 10
12.530833335
 20
7.575
 30
0.0
 11
12.530833335
 21
8.625
 31
0.0
  0
ARC
  5
83
  8
0
  6
CONTINUOUS
 62
     7
 10
12.430833335
 20
8.625
 30
0.0
 40
0.1000000000000032
 50
0.0
 51
90.0
  0
LINE
  5
84
  8
0
  6
CONTINUOUS
 62
     7
 10
12.430833335
 20
8.725
 30
0.0
 11
-12.430833335
 21
8.725
 31
0.0
  0
ARC
  5
85
  8
0
  6
CONTINUOUS
 62
     7
 10
-12.430833335
 20
8.625
 30
0.0
 40
0.0999999999999996
 50
90.0
 51
180.0
  0
LINE
  5
86
  8
0
  6
CONTINUOUS
 62
     7
 10
-12.530833335
 20
8.625
 30
0.0
 11
-12.530833335
 21
7.575
 31
0.0
  0
CIRCLE
  5
87
  8
0
  6
CONTINUOUS
 62
     7
 10
11.66
 20
8.1
 30
0.0
 40
0.0750000000000011
  0
CIRCLE
  5
88
  8
0
  6
CONTINUOUS
 62
     7
 10
-11.66
 20
8.1
 30
0.0
 40
0.0749999999999993
  0
CIRCLE
  5
89
  8
0
  6
CONTINUOUS
 62
     7
 10
0.0
 20
6.75
 30
0.0
 40
0.0750000000000002
  0
ARC
  5
8A
  8
0
  6
CONTINUOUS
 62
     7
 10
-12.430833335
 20
6.225
 30
0.0
 40
0.1000000000000005
 50
180.0
 51
270.0
  0
LINE
  5
8B
  8
0
  6
CONTINUOUS
 62
     7
 10
-12.430833335
 20
6.125
 30
0.0
 11
12.430833335
 21
6.125
 31
0.0
  0
ARC
  5
8C
  8
0
  6
CONTINUOUS
 62
     7
 10
12.430833335
 20
6.225
 30
0.0
 40
0.1000000000000005
 50
270.0
 51
0.0
  0
LINE
  5
8D
  8
0
  6
CONTINUOUS
 62
     7
 10
12.530833335
 20
6.225
 30
0.0
 11
12.530833335
 21
7.275
 31
0.0
  0
ARC
  5
8E
  8
0
  6
CONTINUOUS
 62
     7
 10
12.430833335
 20
7.275
 30
0.0
 40
0.100000000000005
 50
0.0
 51
90.0
  0
LINE
  5
8F
  8
0
  6
CONTINUOUS
 62
     7
 10
12.430833335
 20
7.375
 30
0.0
 11
-12.430833335
 21
7.375
 31
0.0
  0
ARC
  5
90
  8
0
  6
CONTINUOUS
 62
     7
 10
-12.430833335
 20
7.275
 30
0.0
 40
0.0999999999999996
 50
90.0
 51
180.0
  0
LINE
  5
91
  8
0
  6
CONTINUOUS
 62
     7
 10
-12.530833335
 20
7.275
 30
0.0
 11
-12.530833335
 21
6.225
 31
0.0
  0
CIRCLE
  5
92
  8
0
  6
CONTINUOUS
 62
     7
 10
11.66
 20
6.75
 30
0.0
 40
0.0749999999999993
  0
CIRCLE
  5
93
  8
0
  6
CONTINUOUS
 62
     7
 10
-11.66
 20
6.75
 30
0.0
 40
0.0749999999999993
  0
CIRCLE
  5
94
  8
0
  6
CONTINUOUS
 62
     7
 10
0.0
 20
5.4
 30
0.0
 40
0.0749999999999993
  0
ARC
  5
95
  8
0
  6
CONTINUOUS
 62
     7
 10
-12.430833335
 20
4.875
 30
0.0
 40
0.0999999999999996
 50
180.0
 51
270.0
  0
LINE
  5
96
  8
0
  6
CONTINUOUS
 62
     7
 10
-12.430833335
 20
4.775
 30
0.0
 11
12.430833335
 21
4.775
 31
0.0
  0
ARC
  5
97
  8
0
  6
CONTINUOUS
 62
     7
 10
12.430833335
 20
4.875
 30
0.0
 40
0.0999999999999996
 50
270.0
 51
0.0
  0
LINE
  5
98
  8
0
  6
CONTINUOUS
 62
     7
 10
12.530833335
 20
4.875
 30
0.0
 11
12.530833335
 21
5.925
 31
0.0
  0
ARC
  5
99
  8
0
  6
CONTINUOUS
 62
     7
 10
12.430833335
 20
5.925
 30
0.0
 40
0.1000000000000032
 50
0.0
 51
90.0
  0
LINE
  5
9A
  8
0
  6
CONTINUOUS
 62
     7
 10
12.430833335
 20
6.025
 30
0.0
 11
-12.430833335
 21
6.025
 31
0.0
  0
ARC
  5
9B
  8
0
  6
CONTINUOUS
 62
     7
 10
-12.430833335
 20
5.925
 30
0.0
 40
0.0999999999999996
 50
90.0
 51
180.0
  0
LINE
  5
9C
  8
0
  6
CONTINUOUS
 62
     7
 10
-12.530833335
 20
5.925
 30
0.0
 11
-12.530833335
 21
4.875
 31
0.0
  0
CIRCLE
  5
9D
  8
0
  6
CONTINUOUS
 62
     7
 10
11.66
 20
5.4
 30
0.0
 40
0.0749999999999993
  0
CIRCLE
  5
9E
  8
0
  6
CONTINUOUS
 62
     7
 10
-11.66
 20
5.4
 30
0.0
 40
0.0749999999999993
  0
CIRCLE
  5
9F
  8
0
  6
CONTINUOUS
 62
     7
 10
0.0
 20
4.05
 30
0.0
 40
0.0749999999999997
  0
ARC
  5
A0
  8
0
  6
CONTINUOUS
 62
     7
 10
-12.430833335
 20
3.525
 30
0.0
 40
0.1000000000000001
 50
180.0
 51
270.0
  0
LINE
  5
A1
  8
0
  6
CONTINUOUS
 62
     7
 10
-12.430833335
 20
3.425
 30
0.0
 11
12.430833335
 21
3.425
 31
0.0
  0
ARC
  5
A2
  8
0
  6
CONTINUOUS
 62
     7
 10
12.430833335
 20
3.525
 30
0.0
 40
0.1000000000000001
 50
270.0
 51
0.0
  0
LINE
  5
A3
  8
0
  6
CONTINUOUS
 62
     7
 10
12.530833335
 20
3.525
 30
0.0
 11
12.530833335
 21
4.575
 31
0.0
  0
ARC
  5
A4
  8
0
  6
CONTINUOUS
 62
     7
 10
12.430833335
 20
4.575
 30
0.0
 40
0.100000000000005
 50
0.0
 51
90.0
  0
LINE
  5
A5
  8
0
  6
CONTINUOUS
 62
     7
 10
12.430833335
 20
4.675
 30
0.0
 11
-12.430833335
 21
4.675
 31
0.0
  0
ARC
  5
A6
  8
0
  6
CONTINUOUS
 62
     7
 10
-12.430833335
 20
4.575
 30
0.0
 40
0.0999999999999996
 50
90.0
 51
180.0
  0
LINE
  5
A7
  8
0
  6
CONTINUOUS
 62
     7
 10
-12.530833335
 20
4.575
 30
0.0
 11
-12.530833335
 21
3.525
 31
0.0
  0
CIRCLE
  5
A8
  8
0
  6
CONTINUOUS
 62
     7
 10
11.66
 20
4.05
 30
0.0
 40
0.0749999999999997
  0
CIRCLE
  5
A9
  8
0
  6
CONTINUOUS
 62
     7
 10
-11.66
 20
4.05
 30
0.0
 40
0.0749999999999997
  0
CIRCLE
  5
AA
  8
0
  6
CONTINUOUS
 62
     7
 10
0.0
 20
2.7
 30
0.0
 40
0.0750000000000002
  0
ARC
  5
AB
  8
0
  6
CONTINUOUS
 62
     7
 10
-12.430833335
 20
2.175
 30
0.0
 40
0.1000000000000001
 50
180.0
 51
270.0
  0
LINE
  5
AC
  8
0
  6
CONTINUOUS
 62
     7
 10
-12.430833335
 20
2.075
 30
0.0
 11
12.430833335
 21
2.075
 31
0.0
  0
ARC
  5
AD
  8
0
  6
CONTINUOUS
 62
     7
 10
12.430833335
 20
2.175
 30
0.0
 40
0.1000000000000001
 50
270.0
 51
0.0
  0
LINE
  5
AE
  8
0
  6
CONTINUOUS
 62
     7
 10
12.530833335
 20
2.175
 30
0.0
 11
12.530833335
 21
3.225
 31
0.0
  0
ARC
  5
AF
  8
0
  6
CONTINUOUS
 62
     7
 10
12.430833335
 20
3.225
 30
0.0
 40
0.1000000000000032
 50
0.0
 51
90.0
  0
LINE
  5
B0
  8
0
  6
CONTINUOUS
 62
     7
 10
12.430833335
 20
3.325
 30
0.0
 11
-12.430833335
 21
3.325
 31
0.0
  0
ARC
  5
B1
  8
0
  6
CONTINUOUS
 62
     7
 10
-12.430833335
 20
3.225
 30
0.0
 40
0.1000000000000001
 50
90.0
 51
180.0
  0
LINE
  5
B2
  8
0
  6
CONTINUOUS
 62
     7
 10
-12.530833335
 20
3.225
 30
0.0
 11
-12.530833335
 21
2.175
 31
0.0
  0
CIRCLE
  5
B3
  8
0
  6
CONTINUOUS
 62
     7
 10
11.66
 20
2.7
 30
0.0
 40
0.0749999999999997
  0
CIRCLE
  5
B4
  8
0
  6
CONTINUOUS
 62
     7
 10
-11.66
 20
2.7
 30
0.0
 40
0.0749999999999993
  0
CIRCLE
  5
B5
  8
0
  6
CONTINUOUS
 62
     7
 10
0.0
 20
1.35
 30
0.0
 40
0.0750000000000002
  0
ARC
  5
B6
  8
0
  6
CONTINUOUS
 62
     7
 10
-12.430833335
 20
0.825
 30
0.0
 40
0.1
 50
180.0
 51
270.0
  0
LINE
  5
B7
  8
0
  6
CONTINUOUS
 62
     7
 10
-12.430833335
 20
0.725
 30
0.0
 11
12.430833335
 21
0.725
 31
0.0
  0
ARC
  5
B8
  8
0
  6
CONTINUOUS
 62
     7
 10
12.430833335
 20
0.825
 30
0.0
 40
0.1
 50
270.0
 51
0.0
  0
LINE
  5
B9
  8
0
  6
CONTINUOUS
 62
     7
 10
12.530833335
 20
0.825
 30
0.0
 11
12.530833335
 21
1.875
 31
0.0
  0
ARC
  5
BA
  8
0
  6
CONTINUOUS
 62
     7
 10
12.430833335
 20
1.875
 30
0.0
 40
0.100000000000005
 50
0.0
 51
90.0
  0
LINE
  5
BB
  8
0
  6
CONTINUOUS
 62
     7
 10
12.430833335
 20
1.975
 30
0.0
 11
-12.430833335
 21
1.975
 31
0.0
  0
ARC
  5
BC
  8
0
  6
CONTINUOUS
 62
     7
 10
-12.430833335
 20
1.875
 30
0.0
 40
0.1000000000000001
 50
90.0
 51
180.0
  0
LINE
  5
BD
  8
0
  6
CONTINUOUS
 62
     7
 10
-12.530833335
 20
1.875
 30
0.0
 11
-12.530833335
 21
0.825
 31
0.0
  0
CIRCLE
  5
BE
  8
0
  6
CONTINUOUS
 62
     7
 10
11.66
 20
1.35
 30
0.0
 40
0.0749999999999995
  0
CIRCLE
  5
BF
  8
0
  6
CONTINUOUS
 62
     7
 10
-11.66
 20
1.35
 30
0.0
 40
0.0749999999999997
  0
CIRCLE
  5
C0
  8
0
  6
CONTINUOUS
 62
     7
 10
11.66
 20
0.0
 30
0.0
 40
0.0749999999999997
  0
CIRCLE
  5
C1
  8
0
  6
CONTINUOUS
 62
     7
 10
0.0
 20
0.0
 30
0.0
 40
0.075
  0
CIRCLE
  5
C2
  8
0
  6
CONTINUOUS
 62
     7
 10
-11.66
 20
0.0
 30
0.0
 40
0.0749999999999997
  0
LINE
  5
C3
  8
0
  6
CONTINUOUS
 62
     7
 10
-12.430833335
 20
-0.625
 30
0.0
 11
12.430833335
 21
-0.625
 31
0.0
  0
ARC
  5
C4
  8
0
  6
CONTINUOUS
 62
     7
 10
12.430833335
 20
-0.525
 30
0.0
 40
0.1
 50
270.0
 51
0.0
  0
LINE
  5
C5
  8
0
  6
CONTINUOUS
 62
     7
 10
12.530833335
 20
-0.525
 30
0.0
 11
12.530833335
 21
0.525
 31
0.0
  0
ARC
  5
C6
  8
0
  6
CONTINUOUS
 62
     7
 10
12.430833335
 20
0.525
 30
0.0
 40
0.1000000000000032
 50
0.0
 51
90.0
  0
LINE
  5
C7
  8
0
  6
CONTINUOUS
 62
     7
 10
12.430833335
 20
0.625
 30
0.0
 11
-12.430833335
 21
0.625
 31
0.0
  0
ARC
  5
C8
  8
0
  6
CONTINUOUS
 62
     7
 10
-12.430833335
 20
0.525
 30
0.0
 40
0.1
 50
90.0
 51
180.0
  0
LINE
  5
C9
  8
0
  6
CONTINUOUS
 62
     7
 10
-12.530833335
 20
0.525
 30
0.0
 11
-12.530833335
 21
-0.525
 31
0.0
  0
ARC
  5
CA
  8
0
  6
CONTINUOUS
 62
     7
 10
-12.430833335
 20
-0.525
 30
0.0
 40
0.1
 50
180.0
 51
270.0
  0
ENDSEC
  0
EOF
