  0
SECTION
  2
HEADER
  9
$ACADVER
  1
AC1009
  9
$DWGCODEPAGE
  3
ansi_1252
  9
$INSBASE
 10
0.0
 20
0.0
 30
0.0
  9
$EXTMIN
 10
-13.27
 20
-10.76
 30
0.0
  9
$EXTMAX
 10
13.65
 20
10.76
 30
0.0
  9
$LIMMIN
 10
0.0
 20
0.0
  9
$LIMMAX
 10
12.0
 20
9.0
  9
$ORTHOMODE
 70
     0
  9
$REGENMODE
 70
     1
  9
$FILLMODE
 70
     1
  9
$QTEXTMODE
 70
     0
  9
$MIRRTEXT
 70
     1
  9
$DRAGMODE
 70
     2
  9
$LTSCALE
 40
1.0
  9
$OSMODE
 70
    37
  9
$ATTMODE
 70
     1
  9
$TEXTSIZE
 40
0.1377952756
  9
$TRACEWID
 40
0.05
  9
$TEXTSTYLE
  7
STANDARD
  9
$CLAYER
  8
0
  9
$CELTYPE
  6
BYLAYER
  9
$CECOLOR
 62
   256
  9
$DIMSCALE
 40
1.0
  9
$DIMASZ
 40
0.13
  9
$DIMEXO
 40
0.0393700787
  9
$DIMDLI
 40
0.38
  9
$DIMRND
 40
0.0
  9
$DIMDLE
 40
0.0
  9
$DIMEXE
 40
0.0393700787
  9
$DIMTP
 40
0.0
  9
$DIMTM
 40
0.0
  9
$DIMTXT
 40
0.1377952756
  9
$DIMCEN
 40
0.09
  9
$DIMTSZ
 40
0.0
  9
$DIMTOL
 70
     0
  9
$DIMLIM
 70
     0
  9
$DIMTIH
 70
     1
  9
$DIMTOH
 70
     1
  9
$DIMSE1
 70
     0
  9
$DIMSE2
 70
     0
  9
$DIMTAD
 70
     1
  9
$DIMZIN
 70
     0
  9
$DIMBLK
  1

  9
$DIMASO
 70
     1
  9
$DIMSHO
 70
     1
  9
$DIMPOST
  1

  9
$DIMAPOST
  1

  9
$DIMALT
 70
     0
  9
$DIMALTD
 70
     2
  9
$DIMALTF
 40
25.4
  9
$DIMLFAC
 40
1.0
  9
$DIMTOFL
 70
     0
  9
$DIMTVP
 40
0.0
  9
$DIMTIX
 70
     0
  9
$DIMSOXD
 70
     0
  9
$DIMSAH
 70
     0
  9
$DIMBLK1
  1

  9
$DIMBLK2
  1

  9
$DIMSTYLE
  2
STANDARD
  9
$DIMCLRD
 70
     0
  9
$DIMCLRE
 70
     0
  9
$DIMCLRT
 70
     0
  9
$DIMTFAC
 40
1.0
  9
$DIMGAP
 40
0.06
  9
$LUNITS
 70
     2
  9
$LUPREC
 70
     2
  9
$SKETCHINC
 40
0.1
  9
$FILLETRAD
 40
0.5
  9
$AUNITS
 70
     0
  9
$AUPREC
 70
     2
  9
$MENU
  1
.
  9
$ELEVATION
 40
0.0
  9
$PELEVATION
 40
0.0
  9
$THICKNESS
 40
0.0
  9
$LIMCHECK
 70
     0
  9
$CHAMFERA
 40
0.0
  9
$CHAMFERB
 40
0.0
  9
$SKPOLY
 70
     0
  9
$TDCREATE
 40
2457842.509416273
  9
$TDUPDATE
 40
2457842.509458646
  9
$TDINDWG
 40
0.0000000116
  9
$TDUSRTIMER
 40
0.0000000116
  9
$USRTIMER
 70
     1
  9
$ANGBASE
 50
0.0
  9
$ANGDIR
 70
     0
  9
$PDMODE
 70
     0
  9
$PDSIZE
 40
-1.0
  9
$PLINEWID
 40
0.0
  9
$COORDS
 70
     1
  9
$SPLFRAME
 70
     0
  9
$SPLINETYPE
 70
     6
  9
$SPLINESEGS
 70
     8
  9
$ATTDIA
 70
     0
  9
$ATTREQ
 70
     1
  9
$HANDLING
 70
     1
  9
$HANDSEED
  5
412
  9
$SURFTAB1
 70
     6
  9
$SURFTAB2
 70
     6
  9
$SURFTYPE
 70
     6
  9
$SURFU
 70
     6
  9
$SURFV
 70
     6
  9
$UCSNAME
  2

  9
$UCSORG
 10
0.0
 20
0.0
 30
0.0
  9
$UCSXDIR
 10
1.0
 20
0.0
 30
0.0
  9
$UCSYDIR
 10
0.0
 20
1.0
 30
0.0
  9
$PUCSNAME
  2

  9
$PUCSORG
 10
0.0
 20
0.0
 30
0.0
  9
$PUCSXDIR
 10
1.0
 20
0.0
 30
0.0
  9
$PUCSYDIR
 10
0.0
 20
1.0
 30
0.0
  9
$USERI1
 70
     0
  9
$USERI2
 70
     0
  9
$USERI3
 70
     0
  9
$USERI4
 70
     0
  9
$USERI5
 70
     0
  9
$USERR1
 40
0.0
  9
$USERR2
 40
0.0
  9
$USERR3
 40
0.0
  9
$USERR4
 40
0.0
  9
$USERR5
 40
0.0
  9
$WORLDVIEW
 70
     1
  9
$SHADEDGE
 70
     3
  9
$SHADEDIF
 70
    70
  9
$TILEMODE
 70
     1
  9
$MAXACTVP
 70
    64
  9
$PLIMCHECK
 70
     0
  9
$PEXTMIN
 10
1.0000000000E+20
 20
1.0000000000E+20
 30
1.0000000000E+20
  9
$PEXTMAX
 10
-1.0000000000E+20
 20
-1.0000000000E+20
 30
-1.0000000000E+20
  9
$PLIMMIN
 10
0.0
 20
0.0
  9
$PLIMMAX
 10
12.0
 20
9.0
  9
$UNITMODE
 70
     0
  9
$VISRETAIN
 70
     1
  9
$PLINEGEN
 70
     0
  9
$PSLTSCALE
 70
     1
  0
ENDSEC
  0
SECTION
  2
TABLES
  0
TABLE
  2
VPORT
 70
     1
  0
VPORT
  2
*ACTIVE
 70
     0
 10
0.0
 20
0.0
 11
1.0
 21
1.0
 12
0.19
 22
0.0
 13
0.0
 23
0.0
 14
0.5
 24
0.5
 15
0.5
 25
0.5
 16
0.0
 26
0.0
 36
1.0
 17
0.0
 27
0.0
 37
0.0
 40
21.9504
 41
1.250929368
 42
50.0
 43
0.0
 44
0.0
 50
0.0
 51
0.0
 71
     0
 72
   100
 73
     1
 74
     3
 75
     0
 76
     0
 77
     0
 78
     0
  0
ENDTAB
  0
TABLE
  2
LTYPE
 70
     6
  0
LTYPE
  2
CONTINUOUS
 70
     0
  3
Solid line
 72
    65
 73
     0
 40
0.0
  0
LTYPE
  2
HIDDEN
 70
     0
  3
Hidden __ __ __ __ __ __ __ __ __ __ __ __ __ __
 72
    65
 73
     2
 40
0.075
 49
0.05
 49
-0.025
  0
LTYPE
  2
PHANTOM
 70
     0
  3
Phantom ______  __  __  ______  __  __  ______
 72
    65
 73
     6
 40
0.5
 49
0.25
 49
-0.05
 49
0.05
 49
-0.05
 49
0.05
 49
-0.05
  0
LTYPE
  2
CENTER
 70
     0
  3
Center ____ _ ____ _ ____ _ ____ _ ____ _ ____
 72
    65
 73
     4
 40
0.4
 49
0.25
 49
-0.05
 49
0.05
 49
-0.05
  0
LTYPE
  2
CENTERX2
 70
     0
  3
Center (2x) ________  __  ________  __  _____
 72
    65
 73
     4
 40
0.8
 49
0.5
 49
-0.1
 49
0.1
 49
-0.1
  0
LTYPE
  2
DOT2
 70
     0
  3
Dot (.5x) ........................................
 72
    65
 73
     2
 40
0.025
 49
0.0
 49
-0.025
  0
ENDTAB
  0
TABLE
  2
LAYER
 70
     1
  0
LAYER
  2
0
 70
     0
 62
     7
  6
CONTINUOUS
  0
ENDTAB
  0
TABLE
  2
STYLE
 70
     1
  0
STYLE
  2
STANDARD
 70
     0
 40
0.0
 41
1.0
 50
0.0
 71
     0
 42
0.1377952756
  3
txt
  4

  0
ENDTAB
  0
TABLE
  2
VIEW
 70
     0
  0
ENDTAB
  0
TABLE
  2
UCS
 70
     0
  0
ENDTAB
  0
TABLE
  2
APPID
 70
     1
  0
APPID
  2
ACAD
 70
     0
  0
ENDTAB
  0
TABLE
  2
DIMSTYLE
 70
     1
  0
DIMSTYLE
  2
STANDARD
 70
     0
  3

  4

  5

  6

  7

 40
1.0
 41
0.18
 42
0.0625
 43
0.38
 44
0.18
 45
0.0
 46
0.0
 47
0.0
 48
0.0
140
0.18
141
0.09
142
0.0
143
25.4
144
1.0
145
0.0
146
1.0
147
0.09
 71
     0
 72
     0
 73
     1
 74
     1
 75
     0
 76
     0
 77
     0
 78
     0
170
     0
171
     2
172
     0
173
     0
174
     0
175
     0
176
     0
177
     0
178
     0
  0
ENDTAB
  0
ENDSEC
  0
SECTION
  2
BLOCKS
  0
BLOCK
  8
0
  2
$MODEL_SPACE
 70
     0
 10
0.0
 20
0.0
 30
0.0
  3
$MODEL_SPACE
  1

  0
ENDBLK
  5
21
  8
0
  0
BLOCK
 67
     1
  8
0
  2
$PAPER_SPACE
 70
     0
 10
0.0
 20
0.0
 30
0.0
  3
$PAPER_SPACE
  1

  0
ENDBLK
  5
1D
 67
     1
  8
0
  0
ENDSEC
  0
SECTION
  2
ENTITIES
  0
CIRCLE
  5
8B
  8
0
  6
CONTINUOUS
 62
     7
 10
-9.8641666667
 20
9.52
 30
0.0
 40
0.0749999999999975
  0
CIRCLE
  5
90
  8
0
  6
CONTINUOUS
 62
     7
 10
-7.7475
 20
9.52
 30
0.0
 40
0.0749999999999993
  0
CIRCLE
  5
95
  8
0
  6
CONTINUOUS
 62
     7
 10
-6.6891666667
 20
9.52
 30
0.0
 40
0.0749999999999993
  0
CIRCLE
  5
96
  8
0
  6
CONTINUOUS
 62
     7
 10
-11.9808333333
 20
9.52
 30
0.0
 40
0.0749999999999993
  0
CIRCLE
  5
9B
  8
0
  6
CONTINUOUS
 62
     7
 10
-10.9225
 20
9.52
 30
0.0
 40
0.0749999999999975
  0
CIRCLE
  5
A0
  8
0
  6
CONTINUOUS
 62
     7
 10
-2.4558333333
 20
9.52
 30
0.0
 40
0.0749999999999993
  0
CIRCLE
  5
A5
  8
0
  6
CONTINUOUS
 62
     7
 10
-1.3975
 20
9.52
 30
0.0
 40
0.0749999999999993
  0
CIRCLE
  5
AA
  8
0
  6
CONTINUOUS
 62
     7
 10
-0.3391666667
 20
9.52
 30
0.0
 40
0.0749999999999993
  0
CIRCLE
  5
AF
  8
0
  6
CONTINUOUS
 62
     7
 10
-4.5725
 20
9.52
 30
0.0
 40
0.0749999999999993
  0
CIRCLE
  5
B4
  8
0
  6
CONTINUOUS
 62
     7
 10
-5.6308333333
 20
9.52
 30
0.0
 40
0.0749999999999993
  0
CIRCLE
  5
B9
  8
0
  6
CONTINUOUS
 62
     7
 10
2.8358333333
 20
9.52
 30
0.0
 40
0.0749999999999993
  0
CIRCLE
  5
BE
  8
0
  6
CONTINUOUS
 62
     7
 10
4.9525
 20
9.52
 30
0.0
 40
0.0750000000000011
  0
CIRCLE
  5
C3
  8
0
  6
CONTINUOUS
 62
     7
 10
6.0108333333
 20
9.52
 30
0.0
 40
0.0749999999999993
  0
CIRCLE
  5
C8
  8
0
  6
CONTINUOUS
 62
     7
 10
1.7775
 20
9.52
 30
0.0
 40
0.0749999999999993
  0
CIRCLE
  5
CD
  8
0
  6
CONTINUOUS
 62
     7
 10
0.7191666667
 20
9.52
 30
0.0
 40
0.0749999999999993
  0
CIRCLE
  5
D2
  8
0
  6
CONTINUOUS
 62
     7
 10
10.2441666667
 20
9.52
 30
0.0
 40
0.0750000000000028
  0
CIRCLE
  5
D7
  8
0
  6
CONTINUOUS
 62
     7
 10
11.3025
 20
9.52
 30
0.0
 40
0.0749999999999993
  0
CIRCLE
  5
DC
  8
0
  6
CONTINUOUS
 62
     7
 10
12.3608333333
 20
9.52
 30
0.0
 40
0.0749999999999993
  0
CIRCLE
  5
E1
  8
0
  6
CONTINUOUS
 62
     7
 10
8.1275
 20
9.52
 30
0.0
 40
0.0749999999999993
  0
CIRCLE
  5
E6
  8
0
  6
CONTINUOUS
 62
     7
 10
7.0691666667
 20
9.52
 30
0.0
 40
0.0749999999999993
  0
CIRCLE
  5
EB
  8
0
  6
CONTINUOUS
 62
     7
 10
4.9525
 20
4.52
 30
0.0
 40
0.0750000000000002
  0
CIRCLE
  5
F0
  8
0
  6
CONTINUOUS
 62
     7
 10
6.0108333333
 20
4.52
 30
0.0
 40
0.0749999999999993
  0
CIRCLE
  5
F5
  8
0
  6
CONTINUOUS
 62
     7
 10
7.0691666667
 20
4.52
 30
0.0
 40
0.0749999999999993
  0
CIRCLE
  5
FA
  8
0
  6
CONTINUOUS
 62
     7
 10
2.8358333333
 20
4.52
 30
0.0
 40
0.0749999999999993
  0
CIRCLE
  5
FF
  8
0
  6
CONTINUOUS
 62
     7
 10
1.7775
 20
4.52
 30
0.0
 40
0.0749999999999993
  0
CIRCLE
  5
104
  8
0
  6
CONTINUOUS
 62
     7
 10
11.3025
 20
4.52
 30
0.0
 40
0.0749999999999993
  0
CIRCLE
  5
109
  8
0
  6
CONTINUOUS
 62
     7
 10
12.3608333333
 20
4.52
 30
0.0
 40
0.0749999999999984
  0
CIRCLE
  5
10E
  8
0
  6
CONTINUOUS
 62
     7
 10
-10.9225
 20
-0.48
 30
0.0
 40
0.0749999999999976
  0
CIRCLE
  5
113
  8
0
  6
CONTINUOUS
 62
     7
 10
10.2441666667
 20
4.52
 30
0.0
 40
0.0750000000000011
  0
CIRCLE
  5
118
  8
0
  6
CONTINUOUS
 62
     7
 10
8.1275
 20
4.52
 30
0.0
 40
0.0750000000000011
  0
CIRCLE
  5
121
  8
0
  6
CONTINUOUS
 62
     7
 10
-4.5725
 20
4.52
 30
0.0
 40
0.0750000000000002
  0
CIRCLE
  5
126
  8
0
  6
CONTINUOUS
 62
     7
 10
-2.4558333333
 20
4.52
 30
0.0
 40
0.0750000000000002
  0
CIRCLE
  5
12B
  8
0
  6
CONTINUOUS
 62
     7
 10
0.7191666667
 20
4.52
 30
0.0
 40
0.0750000000000002
  0
CIRCLE
  5
130
  8
0
  6
CONTINUOUS
 62
     7
 10
-0.3391666667
 20
4.52
 30
0.0
 40
0.0749999999999993
  0
CIRCLE
  5
135
  8
0
  6
CONTINUOUS
 62
     7
 10
-1.3975
 20
4.52
 30
0.0
 40
0.0749999999999993
  0
CIRCLE
  5
13A
  8
0
  6
CONTINUOUS
 62
     7
 10
-10.9225
 20
4.52
 30
0.0
 40
0.0749999999999975
  0
CIRCLE
  5
13F
  8
0
  6
CONTINUOUS
 62
     7
 10
-9.8641666667
 20
4.52
 30
0.0
 40
0.0749999999999975
  0
CIRCLE
  5
144
  8
0
  6
CONTINUOUS
 62
     7
 10
-5.6308333333
 20
4.52
 30
0.0
 40
0.0749999999999993
  0
CIRCLE
  5
149
  8
0
  6
CONTINUOUS
 62
     7
 10
-6.6891666667
 20
4.52
 30
0.0
 40
0.0749999999999984
  0
CIRCLE
  5
14E
  8
0
  6
CONTINUOUS
 62
     7
 10
-7.7475
 20
4.52
 30
0.0
 40
0.0749999999999993
  0
CIRCLE
  5
14F
  8
0
  6
CONTINUOUS
 62
     7
 10
-5.6308333333
 20
-5.48
 30
0.0
 40
0.0749999999999984
  0
CIRCLE
  5
154
  8
0
  6
CONTINUOUS
 62
     7
 10
-4.5725
 20
-5.48
 30
0.0
 40
0.0750000000000002
  0
CIRCLE
  5
159
  8
0
  6
CONTINUOUS
 62
     7
 10
-2.4558333333
 20
-5.48
 30
0.0
 40
0.0750000000000002
  0
CIRCLE
  5
15E
  8
0
  6
CONTINUOUS
 62
     7
 10
-6.6891666667
 20
-5.48
 30
0.0
 40
0.0749999999999984
  0
CIRCLE
  5
163
  8
0
  6
CONTINUOUS
 62
     7
 10
-7.7475
 20
-5.48
 30
0.0
 40
0.0749999999999984
  0
CIRCLE
  5
168
  8
0
  6
CONTINUOUS
 62
     7
 10
0.7191666667
 20
-5.48
 30
0.0
 40
0.0750000000000002
  0
CIRCLE
  5
16D
  8
0
  6
CONTINUOUS
 62
     7
 10
1.7775
 20
-5.48
 30
0.0
 40
0.0749999999999984
  0
CIRCLE
  5
172
  8
0
  6
CONTINUOUS
 62
     7
 10
2.8358333333
 20
-5.48
 30
0.0
 40
0.0750000000000002
  0
CIRCLE
  5
177
  8
0
  6
CONTINUOUS
 62
     7
 10
-0.3391666667
 20
-5.48
 30
0.0
 40
0.0749999999999984
  0
CIRCLE
  5
17C
  8
0
  6
CONTINUOUS
 62
     7
 10
-1.3975
 20
-5.48
 30
0.0
 40
0.0749999999999984
  0
CIRCLE
  5
185
  8
0
  6
CONTINUOUS
 62
     7
 10
12.3608333333
 20
-5.48
 30
0.0
 40
0.0749999999999984
  0
CIRCLE
  5
18A
  8
0
  6
CONTINUOUS
 62
     7
 10
11.3025
 20
-5.48
 30
0.0
 40
0.0750000000000002
  0
CIRCLE
  5
18F
  8
0
  6
CONTINUOUS
 62
     7
 10
-11.9808333333
 20
-5.48
 30
0.0
 40
0.0749999999999984
  0
CIRCLE
  5
194
  8
0
  6
CONTINUOUS
 62
     7
 10
-11.9808333333
 20
-0.48
 30
0.0
 40
0.0749999999999988
  0
CIRCLE
  5
199
  8
0
  6
CONTINUOUS
 62
     7
 10
-11.9808333333
 20
4.52
 30
0.0
 40
0.0749999999999984
  0
CIRCLE
  5
19E
  8
0
  6
CONTINUOUS
 62
     7
 10
4.9525
 20
-5.48
 30
0.0
 40
0.0750000000000002
  0
CIRCLE
  5
1A3
  8
0
  6
CONTINUOUS
 62
     7
 10
6.0108333333
 20
-5.48
 30
0.0
 40
0.0749999999999984
  0
CIRCLE
  5
1A8
  8
0
  6
CONTINUOUS
 62
     7
 10
10.2441666667
 20
-5.48
 30
0.0
 40
0.0750000000000011
  0
CIRCLE
  5
1AD
  8
0
  6
CONTINUOUS
 62
     7
 10
8.1275
 20
-5.48
 30
0.0
 40
0.0750000000000011
  0
CIRCLE
  5
1B2
  8
0
  6
CONTINUOUS
 62
     7
 10
7.0691666667
 20
-5.48
 30
0.0
 40
0.0749999999999984
  0
CIRCLE
  5
1B3
  8
0
  6
CONTINUOUS
 62
     7
 10
-6.6891666667
 20
-0.48
 30
0.0
 40
0.0749999999999991
  0
CIRCLE
  5
1B8
  8
0
  6
CONTINUOUS
 62
     7
 10
-5.6308333333
 20
-0.48
 30
0.0
 40
0.0749999999999995
  0
CIRCLE
  5
1BD
  8
0
  6
CONTINUOUS
 62
     7
 10
-4.5725
 20
-0.48
 30
0.0
 40
0.0750000000000004
  0
CIRCLE
  5
1C2
  8
0
  6
CONTINUOUS
 62
     7
 10
-7.7475
 20
-0.48
 30
0.0
 40
0.0749999999999995
  0
CIRCLE
  5
1C7
  8
0
  6
CONTINUOUS
 62
     7
 10
-9.8641666667
 20
-0.48
 30
0.0
 40
0.074999999999998
  0
CIRCLE
  5
1CC
  8
0
  6
CONTINUOUS
 62
     7
 10
-0.3391666667
 20
-0.48
 30
0.0
 40
0.0749999999999997
  0
CIRCLE
  5
1D1
  8
0
  6
CONTINUOUS
 62
     7
 10
0.7191666667
 20
-0.48
 30
0.0
 40
0.0749999999999997
  0
CIRCLE
  5
1D6
  8
0
  6
CONTINUOUS
 62
     7
 10
1.7775
 20
-0.48
 30
0.0
 40
0.0749999999999997
  0
CIRCLE
  5
1DB
  8
0
  6
CONTINUOUS
 62
     7
 10
-1.3975
 20
-0.48
 30
0.0
 40
0.0749999999999997
  0
CIRCLE
  5
1E0
  8
0
  6
CONTINUOUS
 62
     7
 10
-2.4558333333
 20
-0.48
 30
0.0
 40
0.0749999999999997
  0
CIRCLE
  5
1E9
  8
0
  6
CONTINUOUS
 62
     7
 10
10.2441666667
 20
-0.48
 30
0.0
 40
0.0750000000000015
  0
CIRCLE
  5
1EE
  8
0
  6
CONTINUOUS
 62
     7
 10
11.3025
 20
-0.48
 30
0.0
 40
0.0749999999999992
  0
CIRCLE
  5
1F3
  8
0
  6
CONTINUOUS
 62
     7
 10
-9.8641666667
 20
-5.48
 30
0.0
 40
0.0749999999999975
  0
CIRCLE
  5
1F8
  8
0
  6
CONTINUOUS
 62
     7
 10
-10.9225
 20
-5.48
 30
0.0
 40
0.0749999999999984
  0
CIRCLE
  5
1FD
  8
0
  6
CONTINUOUS
 62
     7
 10
12.3608333333
 20
-0.48
 30
0.0
 40
0.0749999999999985
  0
CIRCLE
  5
202
  8
0
  6
CONTINUOUS
 62
     7
 10
2.8358333333
 20
-0.48
 30
0.0
 40
0.0749999999999997
  0
CIRCLE
  5
207
  8
0
  6
CONTINUOUS
 62
     7
 10
4.9525
 20
-0.48
 30
0.0
 40
0.0750000000000004
  0
CIRCLE
  5
20C
  8
0
  6
CONTINUOUS
 62
     7
 10
8.1275
 20
-0.48
 30
0.0
 40
0.0750000000000009
  0
CIRCLE
  5
211
  8
0
  6
CONTINUOUS
 62
     7
 10
7.0691666667
 20
-0.48
 30
0.0
 40
0.0749999999999995
  0
CIRCLE
  5
216
  8
0
  6
CONTINUOUS
 62
     7
 10
6.0108333333
 20
-0.48
 30
0.0
 40
0.0749999999999995
  0
CIRCLE
  5
217
  8
0
  6
CONTINUOUS
 62
     7
 10
0.19
 20
-7.5
 30
0.0
 40
0.0747500000000008
  0
CIRCLE
  5
218
  8
0
  6
CONTINUOUS
 62
     7
 10
0.19
 20
-2.5
 30
0.0
 40
0.0747500000000008
  0
CIRCLE
  5
219
  8
0
  6
CONTINUOUS
 62
     7
 10
0.19
 20
2.5
 30
0.0
 40
0.0747500000000003
  0
CIRCLE
  5
21A
  8
0
  6
CONTINUOUS
 62
     7
 10
0.19
 20
7.5
 30
0.0
 40
0.0747499999999999
  0
CIRCLE
  5
21B
  8
0
  6
CONTINUOUS
 62
     7
 10
11.8316666667
 20
-7.5
 30
0.0
 40
0.0747499999999999
  0
CIRCLE
  5
21C
  8
0
  6
CONTINUOUS
 62
     7
 10
11.8316666667
 20
-2.5
 30
0.0
 40
0.0747500000000008
  0
CIRCLE
  5
21D
  8
0
  6
CONTINUOUS
 62
     7
 10
11.8316666667
 20
2.5
 30
0.0
 40
0.0747500000000012
  0
CIRCLE
  5
21E
  8
0
  6
CONTINUOUS
 62
     7
 10
11.8316666667
 20
7.5
 30
0.0
 40
0.074749999999999
  0
CIRCLE
  5
21F
  8
0
  6
CONTINUOUS
 62
     7
 10
-11.4516666667
 20
-7.5
 30
0.0
 40
0.0747500000000025
  0
CIRCLE
  5
220
  8
0
  6
CONTINUOUS
 62
     7
 10
-11.4516666667
 20
-2.5
 30
0.0
 40
0.0747500000000025
  0
CIRCLE
  5
221
  8
0
  6
CONTINUOUS
 62
     7
 10
-11.4516666667
 20
2.5
 30
0.0
 40
0.0747500000000025
  0
CIRCLE
  5
222
  8
0
  6
CONTINUOUS
 62
     7
 10
-11.4516666667
 20
7.5
 30
0.0
 40
0.0747499999999999
  0
CIRCLE
  5
223
  8
0
  6
CONTINUOUS
 62
     7
 10
0.19
 20
10.38
 30
0.0
 40
0.1140000000000008
  0
CIRCLE
  5
224
  8
0
  6
CONTINUOUS
 62
     7
 10
-10.81
 20
10.38
 30
0.0
 40
0.1140000000000008
  0
CIRCLE
  5
225
  8
0
  6
CONTINUOUS
 62
     7
 10
-12.89
 20
8.25
 30
0.0
 40
0.1140000000000008
  0
CIRCLE
  5
226
  8
0
  6
CONTINUOUS
 62
     7
 10
-12.89
 20
0.0
 30
0.0
 40
0.1139999999999999
  0
CIRCLE
  5
227
  8
0
  6
CONTINUOUS
 62
     7
 10
-12.89
 20
-8.25
 30
0.0
 40
0.113999999999999
  0
CIRCLE
  5
228
  8
0
  6
CONTINUOUS
 62
     7
 10
-10.81
 20
-10.38
 30
0.0
 40
0.113999999999999
  0
CIRCLE
  5
229
  8
0
  6
CONTINUOUS
 62
     7
 10
0.19
 20
-10.38
 30
0.0
 40
0.1140000000000008
  0
CIRCLE
  5
22A
  8
0
  6
CONTINUOUS
 62
     7
 10
11.19
 20
-10.38
 30
0.0
 40
0.1140000000000008
  0
CIRCLE
  5
22B
  8
0
  6
CONTINUOUS
 62
     7
 10
11.19
 20
10.38
 30
0.0
 40
0.1140000000000008
  0
CIRCLE
  5
230
  8
0
  6
CONTINUOUS
 62
     7
 10
3.8841666667
 20
9.52
 30
0.0
 40
0.0750000000000011
  0
CIRCLE
  5
231
  8
0
  6
CONTINUOUS
 62
     7
 10
9.1841666667
 20
9.52
 30
0.0
 40
0.0750000000000011
  0
CIRCLE
  5
232
  8
0
  6
CONTINUOUS
 62
     7
 10
3.8841666667
 20
4.52
 30
0.0
 40
0.0750000000000011
  0
CIRCLE
  5
233
  8
0
  6
CONTINUOUS
 62
     7
 10
3.8841666667
 20
-0.48
 30
0.0
 40
0.0749999999999996
  0
CIRCLE
  5
234
  8
0
  6
CONTINUOUS
 62
     7
 10
9.1841666667
 20
-5.48
 30
0.0
 40
0.0750000000000011
  0
CIRCLE
  5
235
  8
0
  6
CONTINUOUS
 62
     7
 10
9.1841666667
 20
-0.48
 30
0.0
 40
0.075000000000001
  0
CIRCLE
  5
236
  8
0
  6
CONTINUOUS
 62
     7
 10
9.1841666667
 20
4.52
 30
0.0
 40
0.075000000000002
  0
CIRCLE
  5
237
  8
0
  6
CONTINUOUS
 62
     7
 10
3.8841666667
 20
-5.48
 30
0.0
 40
0.0749999999999984
  0
CIRCLE
  5
25C
  8
0
  6
CONTINUOUS
 62
     7
 10
-8.8041666667
 20
9.52
 30
0.0
 40
0.0749999999999993
  0
CIRCLE
  5
25D
  8
0
  6
CONTINUOUS
 62
     7
 10
-3.5041666667
 20
9.52
 30
0.0
 40
0.0749999999999993
  0
CIRCLE
  5
262
  8
0
  6
CONTINUOUS
 62
     7
 10
-3.5041666667
 20
4.52
 30
0.0
 40
0.0749999999999993
  0
CIRCLE
  5
267
  8
0
  6
CONTINUOUS
 62
     7
 10
-3.5041666667
 20
-0.48
 30
0.0
 40
0.0749999999999997
  0
CIRCLE
  5
268
  8
0
  6
CONTINUOUS
 62
     7
 10
-8.8041666667
 20
-5.48
 30
0.0
 40
0.0750000000000011
  0
CIRCLE
  5
26D
  8
0
  6
CONTINUOUS
 62
     7
 10
-8.8041666667
 20
-0.48
 30
0.0
 40
0.0750000000000009
  0
CIRCLE
  5
272
  8
0
  6
CONTINUOUS
 62
     7
 10
-8.8041666667
 20
4.52
 30
0.0
 40
0.0750000000000011
  0
CIRCLE
  5
277
  8
0
  6
CONTINUOUS
 62
     7
 10
-3.5041666667
 20
-5.48
 30
0.0
 40
0.0750000000000002
  0
CIRCLE
  5
27C
  8
0
  6
CONTINUOUS
 62
     7
 10
13.27
 20
-8.25
 30
0.0
 40
0.1139999999999972
  0
CIRCLE
  5
27D
  8
0
  6
CONTINUOUS
 62
     7
 10
13.27
 20
8.25
 30
0.0
 40
0.1139999999999972
  0
LINE
  5
27E
  8
0
  6
CONTINUOUS
 62
     7
 10
13.27
 20
8.7194677838
 30
0.0
 11
13.27
 21
10.66
 31
0.0
  0
LINE
  5
27F
  8
0
  6
CONTINUOUS
 62
     7
 10
13.27
 20
0.4694677838
 30
0.0
 11
13.27
 21
7.7805322162
 31
0.0
  0
LINE
  5
280
  8
0
  6
CONTINUOUS
 62
     7
 10
13.27
 20
-7.7805322162
 30
0.0
 11
13.27
 21
-0.4694677838
 31
0.0
  0
LINE
  5
281
  8
0
  6
CONTINUOUS
 62
     7
 10
13.27
 20
-10.66
 30
0.0
 11
13.27
 21
-8.7194677838
 31
0.0
  0
LINE
  5
282
  8
0
  6
CONTINUOUS
 62
     7
 10
-13.17
 20
-10.76
 30
0.0
 11
13.17
 21
-10.76
 31
0.0
  0
LINE
  5
283
  8
0
  6
CONTINUOUS
 62
     7
 10
-13.27
 20
10.66
 30
0.0
 11
-13.27
 21
-10.66
 31
0.0
  0
LINE
  5
284
  8
0
  6
CONTINUOUS
 62
     7
 10
13.17
 20
10.76
 30
0.0
 11
-13.17
 21
10.76
 31
0.0
  0
LINE
  5
285
  8
0
  6
CONTINUOUS
 62
     7
 10
-11.6208333333
 20
9.29
 30
0.0
 11
-12.3408333333
 21
9.29
 31
0.0
  0
LINE
  5
286
  8
0
  6
CONTINUOUS
 62
     7
 10
-12.3408333333
 20
9.29
 30
0.0
 11
-12.3408333333
 21
5.71
 31
0.0
  0
LINE
  5
287
  8
0
  6
CONTINUOUS
 62
     7
 10
-12.3408333333
 20
5.71
 30
0.0
 11
-11.6208333333
 21
5.71
 31
0.0
  0
LINE
  5
288
  8
0
  6
CONTINUOUS
 62
     7
 10
-11.6208333333
 20
5.71
 30
0.0
 11
-11.6208333333
 21
9.29
 31
0.0
  0
LINE
  5
289
  8
0
  6
CONTINUOUS
 62
     7
 10
-7.3875
 20
9.29
 30
0.0
 11
-8.1075
 21
9.29
 31
0.0
  0
LINE
  5
28A
  8
0
  6
CONTINUOUS
 62
     7
 10
-8.1075
 20
9.29
 30
0.0
 11
-8.1075
 21
5.71
 31
0.0
  0
LINE
  5
28B
  8
0
  6
CONTINUOUS
 62
     7
 10
-8.1075
 20
5.71
 30
0.0
 11
-7.3875
 21
5.71
 31
0.0
  0
LINE
  5
28C
  8
0
  6
CONTINUOUS
 62
     7
 10
-7.3875
 20
5.71
 30
0.0
 11
-7.3875
 21
9.29
 31
0.0
  0
LINE
  5
28D
  8
0
  6
CONTINUOUS
 62
     7
 10
-6.3291666667
 20
9.29
 30
0.0
 11
-7.0491666667
 21
9.29
 31
0.0
  0
LINE
  5
28E
  8
0
  6
CONTINUOUS
 62
     7
 10
-7.0491666667
 20
9.29
 30
0.0
 11
-7.0491666667
 21
5.71
 31
0.0
  0
LINE
  5
28F
  8
0
  6
CONTINUOUS
 62
     7
 10
-7.0491666667
 20
5.71
 30
0.0
 11
-6.3291666667
 21
5.71
 31
0.0
  0
LINE
  5
290
  8
0
  6
CONTINUOUS
 62
     7
 10
-6.3291666667
 20
5.71
 30
0.0
 11
-6.3291666667
 21
9.29
 31
0.0
  0
LINE
  5
291
  8
0
  6
CONTINUOUS
 62
     7
 10
-10.5625
 20
9.29
 30
0.0
 11
-11.2825
 21
9.29
 31
0.0
  0
LINE
  5
292
  8
0
  6
CONTINUOUS
 62
     7
 10
-11.2825
 20
9.29
 30
0.0
 11
-11.2825
 21
5.71
 31
0.0
  0
LINE
  5
293
  8
0
  6
CONTINUOUS
 62
     7
 10
-11.2825
 20
5.71
 30
0.0
 11
-10.5625
 21
5.71
 31
0.0
  0
LINE
  5
294
  8
0
  6
CONTINUOUS
 62
     7
 10
-10.5625
 20
5.71
 30
0.0
 11
-10.5625
 21
9.29
 31
0.0
  0
LINE
  5
295
  8
0
  6
CONTINUOUS
 62
     7
 10
-9.5041666667
 20
9.29
 30
0.0
 11
-10.2241666667
 21
9.29
 31
0.0
  0
LINE
  5
296
  8
0
  6
CONTINUOUS
 62
     7
 10
-10.2241666667
 20
9.29
 30
0.0
 11
-10.2241666667
 21
5.71
 31
0.0
  0
LINE
  5
297
  8
0
  6
CONTINUOUS
 62
     7
 10
-10.2241666667
 20
5.71
 30
0.0
 11
-9.5041666667
 21
5.71
 31
0.0
  0
LINE
  5
298
  8
0
  6
CONTINUOUS
 62
     7
 10
-9.5041666667
 20
5.71
 30
0.0
 11
-9.5041666667
 21
9.29
 31
0.0
  0
LINE
  5
299
  8
0
  6
CONTINUOUS
 62
     7
 10
-1.0375
 20
9.29
 30
0.0
 11
-1.7575
 21
9.29
 31
0.0
  0
LINE
  5
29A
  8
0
  6
CONTINUOUS
 62
     7
 10
-1.7575
 20
9.29
 30
0.0
 11
-1.7575
 21
5.71
 31
0.0
  0
LINE
  5
29B
  8
0
  6
CONTINUOUS
 62
     7
 10
-1.7575
 20
5.71
 30
0.0
 11
-1.0375
 21
5.71
 31
0.0
  0
LINE
  5
29C
  8
0
  6
CONTINUOUS
 62
     7
 10
-1.0375
 20
5.71
 30
0.0
 11
-1.0375
 21
9.29
 31
0.0
  0
LINE
  5
29D
  8
0
  6
CONTINUOUS
 62
     7
 10
0.0208333333
 20
9.29
 30
0.0
 11
-0.6991666667
 21
9.29
 31
0.0
  0
LINE
  5
29E
  8
0
  6
CONTINUOUS
 62
     7
 10
-0.6991666667
 20
9.29
 30
0.0
 11
-0.6991666667
 21
5.71
 31
0.0
  0
LINE
  5
29F
  8
0
  6
CONTINUOUS
 62
     7
 10
-0.6991666667
 20
5.71
 30
0.0
 11
0.0208333333
 21
5.71
 31
0.0
  0
LINE
  5
2A0
  8
0
  6
CONTINUOUS
 62
     7
 10
0.0208333333
 20
5.71
 30
0.0
 11
0.0208333333
 21
9.29
 31
0.0
  0
LINE
  5
2A1
  8
0
  6
CONTINUOUS
 62
     7
 10
-4.2125
 20
9.29
 30
0.0
 11
-4.9325
 21
9.29
 31
0.0
  0
LINE
  5
2A2
  8
0
  6
CONTINUOUS
 62
     7
 10
-4.9325
 20
9.29
 30
0.0
 11
-4.9325
 21
5.71
 31
0.0
  0
LINE
  5
2A3
  8
0
  6
CONTINUOUS
 62
     7
 10
-4.9325
 20
5.71
 30
0.0
 11
-4.2125
 21
5.71
 31
0.0
  0
LINE
  5
2A4
  8
0
  6
CONTINUOUS
 62
     7
 10
-4.2125
 20
5.71
 30
0.0
 11
-4.2125
 21
9.29
 31
0.0
  0
LINE
  5
2A5
  8
0
  6
CONTINUOUS
 62
     7
 10
-2.0958333333
 20
9.29
 30
0.0
 11
-2.8158333333
 21
9.29
 31
0.0
  0
LINE
  5
2A6
  8
0
  6
CONTINUOUS
 62
     7
 10
-2.8158333333
 20
9.29
 30
0.0
 11
-2.8158333333
 21
5.71
 31
0.0
  0
LINE
  5
2A7
  8
0
  6
CONTINUOUS
 62
     7
 10
-2.8158333333
 20
5.71
 30
0.0
 11
-2.0958333333
 21
5.71
 31
0.0
  0
LINE
  5
2A8
  8
0
  6
CONTINUOUS
 62
     7
 10
-2.0958333333
 20
5.71
 30
0.0
 11
-2.0958333333
 21
9.29
 31
0.0
  0
LINE
  5
2A9
  8
0
  6
CONTINUOUS
 62
     7
 10
-5.2708333333
 20
9.29
 30
0.0
 11
-5.9908333333
 21
9.29
 31
0.0
  0
LINE
  5
2AA
  8
0
  6
CONTINUOUS
 62
     7
 10
-5.9908333333
 20
9.29
 30
0.0
 11
-5.9908333333
 21
5.71
 31
0.0
  0
LINE
  5
2AB
  8
0
  6
CONTINUOUS
 62
     7
 10
-5.9908333333
 20
5.71
 30
0.0
 11
-5.2708333333
 21
5.71
 31
0.0
  0
LINE
  5
2AC
  8
0
  6
CONTINUOUS
 62
     7
 10
-5.2708333333
 20
5.71
 30
0.0
 11
-5.2708333333
 21
9.29
 31
0.0
  0
LINE
  5
2AD
  8
0
  6
CONTINUOUS
 62
     7
 10
5.3125
 20
9.29
 30
0.0
 11
4.5925
 21
9.29
 31
0.0
  0
LINE
  5
2AE
  8
0
  6
CONTINUOUS
 62
     7
 10
4.5925
 20
9.29
 30
0.0
 11
4.5925
 21
5.71
 31
0.0
  0
LINE
  5
2AF
  8
0
  6
CONTINUOUS
 62
     7
 10
4.5925
 20
5.71
 30
0.0
 11
5.3125
 21
5.71
 31
0.0
  0
LINE
  5
2B0
  8
0
  6
CONTINUOUS
 62
     7
 10
5.3125
 20
5.71
 30
0.0
 11
5.3125
 21
9.29
 31
0.0
  0
LINE
  5
2B1
  8
0
  6
CONTINUOUS
 62
     7
 10
6.3708333333
 20
9.29
 30
0.0
 11
5.6508333333
 21
9.29
 31
0.0
  0
LINE
  5
2B2
  8
0
  6
CONTINUOUS
 62
     7
 10
5.6508333333
 20
9.29
 30
0.0
 11
5.6508333333
 21
5.71
 31
0.0
  0
LINE
  5
2B3
  8
0
  6
CONTINUOUS
 62
     7
 10
5.6508333333
 20
5.71
 30
0.0
 11
6.3708333333
 21
5.71
 31
0.0
  0
LINE
  5
2B4
  8
0
  6
CONTINUOUS
 62
     7
 10
6.3708333333
 20
5.71
 30
0.0
 11
6.3708333333
 21
9.29
 31
0.0
  0
LINE
  5
2B5
  8
0
  6
CONTINUOUS
 62
     7
 10
2.1375
 20
9.29
 30
0.0
 11
1.4175
 21
9.29
 31
0.0
  0
LINE
  5
2B6
  8
0
  6
CONTINUOUS
 62
     7
 10
1.4175
 20
9.29
 30
0.0
 11
1.4175
 21
5.71
 31
0.0
  0
LINE
  5
2B7
  8
0
  6
CONTINUOUS
 62
     7
 10
1.4175
 20
5.71
 30
0.0
 11
2.1375
 21
5.71
 31
0.0
  0
LINE
  5
2B8
  8
0
  6
CONTINUOUS
 62
     7
 10
2.1375
 20
5.71
 30
0.0
 11
2.1375
 21
9.29
 31
0.0
  0
LINE
  5
2B9
  8
0
  6
CONTINUOUS
 62
     7
 10
3.1958333333
 20
9.29
 30
0.0
 11
2.4758333333
 21
9.29
 31
0.0
  0
LINE
  5
2BA
  8
0
  6
CONTINUOUS
 62
     7
 10
2.4758333333
 20
9.29
 30
0.0
 11
2.4758333333
 21
5.71
 31
0.0
  0
LINE
  5
2BB
  8
0
  6
CONTINUOUS
 62
     7
 10
2.4758333333
 20
5.71
 30
0.0
 11
3.1958333333
 21
5.71
 31
0.0
  0
LINE
  5
2BC
  8
0
  6
CONTINUOUS
 62
     7
 10
3.1958333333
 20
5.71
 30
0.0
 11
3.1958333333
 21
9.29
 31
0.0
  0
LINE
  5
2BD
  8
0
  6
CONTINUOUS
 62
     7
 10
1.0791666667
 20
9.29
 30
0.0
 11
0.3591666667
 21
9.29
 31
0.0
  0
LINE
  5
2BE
  8
0
  6
CONTINUOUS
 62
     7
 10
0.3591666667
 20
9.29
 30
0.0
 11
0.3591666667
 21
5.71
 31
0.0
  0
LINE
  5
2BF
  8
0
  6
CONTINUOUS
 62
     7
 10
0.3591666667
 20
5.71
 30
0.0
 11
1.0791666667
 21
5.71
 31
0.0
  0
LINE
  5
2C0
  8
0
  6
CONTINUOUS
 62
     7
 10
1.0791666667
 20
5.71
 30
0.0
 11
1.0791666667
 21
9.29
 31
0.0
  0
LINE
  5
2C1
  8
0
  6
CONTINUOUS
 62
     7
 10
11.6625
 20
9.29
 30
0.0
 11
10.9425
 21
9.29
 31
0.0
  0
LINE
  5
2C2
  8
0
  6
CONTINUOUS
 62
     7
 10
10.9425
 20
9.29
 30
0.0
 11
10.9425
 21
5.71
 31
0.0
  0
LINE
  5
2C3
  8
0
  6
CONTINUOUS
 62
     7
 10
10.9425
 20
5.71
 30
0.0
 11
11.6625
 21
5.71
 31
0.0
  0
LINE
  5
2C4
  8
0
  6
CONTINUOUS
 62
     7
 10
11.6625
 20
5.71
 30
0.0
 11
11.6625
 21
9.29
 31
0.0
  0
LINE
  5
2C5
  8
0
  6
CONTINUOUS
 62
     7
 10
12.7208333333
 20
9.29
 30
0.0
 11
12.0008333333
 21
9.29
 31
0.0
  0
LINE
  5
2C6
  8
0
  6
CONTINUOUS
 62
     7
 10
12.0008333333
 20
9.29
 30
0.0
 11
12.0008333333
 21
5.71
 31
0.0
  0
LINE
  5
2C7
  8
0
  6
CONTINUOUS
 62
     7
 10
12.0008333333
 20
5.71
 30
0.0
 11
12.7208333333
 21
5.71
 31
0.0
  0
LINE
  5
2C8
  8
0
  6
CONTINUOUS
 62
     7
 10
12.7208333333
 20
5.71
 30
0.0
 11
12.7208333333
 21
9.29
 31
0.0
  0
LINE
  5
2C9
  8
0
  6
CONTINUOUS
 62
     7
 10
8.4875
 20
9.29
 30
0.0
 11
7.7675
 21
9.29
 31
0.0
  0
LINE
  5
2CA
  8
0
  6
CONTINUOUS
 62
     7
 10
7.7675
 20
9.29
 30
0.0
 11
7.7675
 21
5.71
 31
0.0
  0
LINE
  5
2CB
  8
0
  6
CONTINUOUS
 62
     7
 10
7.7675
 20
5.71
 30
0.0
 11
8.4875
 21
5.71
 31
0.0
  0
LINE
  5
2CC
  8
0
  6
CONTINUOUS
 62
     7
 10
8.4875
 20
5.71
 30
0.0
 11
8.4875
 21
9.29
 31
0.0
  0
LINE
  5
2CD
  8
0
  6
CONTINUOUS
 62
     7
 10
10.6041666667
 20
9.29
 30
0.0
 11
9.8841666667
 21
9.29
 31
0.0
  0
LINE
  5
2CE
  8
0
  6
CONTINUOUS
 62
     7
 10
9.8841666667
 20
9.29
 30
0.0
 11
9.8841666667
 21
5.71
 31
0.0
  0
LINE
  5
2CF
  8
0
  6
CONTINUOUS
 62
     7
 10
9.8841666667
 20
5.71
 30
0.0
 11
10.6041666667
 21
5.71
 31
0.0
  0
LINE
  5
2D0
  8
0
  6
CONTINUOUS
 62
     7
 10
10.6041666667
 20
5.71
 30
0.0
 11
10.6041666667
 21
9.29
 31
0.0
  0
LINE
  5
2D1
  8
0
  6
CONTINUOUS
 62
     7
 10
7.4291666667
 20
9.29
 30
0.0
 11
6.7091666667
 21
9.29
 31
0.0
  0
LINE
  5
2D2
  8
0
  6
CONTINUOUS
 62
     7
 10
6.7091666667
 20
9.29
 30
0.0
 11
6.7091666667
 21
5.71
 31
0.0
  0
LINE
  5
2D3
  8
0
  6
CONTINUOUS
 62
     7
 10
6.7091666667
 20
5.71
 30
0.0
 11
7.4291666667
 21
5.71
 31
0.0
  0
LINE
  5
2D4
  8
0
  6
CONTINUOUS
 62
     7
 10
7.4291666667
 20
5.71
 30
0.0
 11
7.4291666667
 21
9.29
 31
0.0
  0
LINE
  5
2D5
  8
0
  6
CONTINUOUS
 62
     7
 10
6.3708333333
 20
4.29
 30
0.0
 11
5.6508333333
 21
4.29
 31
0.0
  0
LINE
  5
2D6
  8
0
  6
CONTINUOUS
 62
     7
 10
5.6508333333
 20
4.29
 30
0.0
 11
5.6508333333
 21
0.71
 31
0.0
  0
LINE
  5
2D7
  8
0
  6
CONTINUOUS
 62
     7
 10
5.6508333333
 20
0.71
 30
0.0
 11
6.3708333333
 21
0.71
 31
0.0
  0
LINE
  5
2D8
  8
0
  6
CONTINUOUS
 62
     7
 10
6.3708333333
 20
0.71
 30
0.0
 11
6.3708333333
 21
4.29
 31
0.0
  0
LINE
  5
2D9
  8
0
  6
CONTINUOUS
 62
     7
 10
7.4291666667
 20
4.29
 30
0.0
 11
6.7091666667
 21
4.29
 31
0.0
  0
LINE
  5
2DA
  8
0
  6
CONTINUOUS
 62
     7
 10
6.7091666667
 20
4.29
 30
0.0
 11
6.7091666667
 21
0.71
 31
0.0
  0
LINE
  5
2DB
  8
0
  6
CONTINUOUS
 62
     7
 10
6.7091666667
 20
0.71
 30
0.0
 11
7.4291666667
 21
0.71
 31
0.0
  0
LINE
  5
2DC
  8
0
  6
CONTINUOUS
 62
     7
 10
7.4291666667
 20
0.71
 30
0.0
 11
7.4291666667
 21
4.29
 31
0.0
  0
LINE
  5
2DD
  8
0
  6
CONTINUOUS
 62
     7
 10
3.1958333333
 20
4.29
 30
0.0
 11
2.4758333333
 21
4.29
 31
0.0
  0
LINE
  5
2DE
  8
0
  6
CONTINUOUS
 62
     7
 10
2.4758333333
 20
4.29
 30
0.0
 11
2.4758333333
 21
0.71
 31
0.0
  0
LINE
  5
2DF
  8
0
  6
CONTINUOUS
 62
     7
 10
2.4758333333
 20
0.71
 30
0.0
 11
3.1958333333
 21
0.71
 31
0.0
  0
LINE
  5
2E0
  8
0
  6
CONTINUOUS
 62
     7
 10
3.1958333333
 20
0.71
 30
0.0
 11
3.1958333333
 21
4.29
 31
0.0
  0
LINE
  5
2E1
  8
0
  6
CONTINUOUS
 62
     7
 10
5.3125
 20
4.29
 30
0.0
 11
4.5925
 21
4.29
 31
0.0
  0
LINE
  5
2E2
  8
0
  6
CONTINUOUS
 62
     7
 10
4.5925
 20
4.29
 30
0.0
 11
4.5925
 21
0.71
 31
0.0
  0
LINE
  5
2E3
  8
0
  6
CONTINUOUS
 62
     7
 10
4.5925
 20
0.71
 30
0.0
 11
5.3125
 21
0.71
 31
0.0
  0
LINE
  5
2E4
  8
0
  6
CONTINUOUS
 62
     7
 10
5.3125
 20
0.71
 30
0.0
 11
5.3125
 21
4.29
 31
0.0
  0
LINE
  5
2E5
  8
0
  6
CONTINUOUS
 62
     7
 10
2.1375
 20
4.29
 30
0.0
 11
1.4175
 21
4.29
 31
0.0
  0
LINE
  5
2E6
  8
0
  6
CONTINUOUS
 62
     7
 10
1.4175
 20
4.29
 30
0.0
 11
1.4175
 21
0.71
 31
0.0
  0
LINE
  5
2E7
  8
0
  6
CONTINUOUS
 62
     7
 10
1.4175
 20
0.71
 30
0.0
 11
2.1375
 21
0.71
 31
0.0
  0
LINE
  5
2E8
  8
0
  6
CONTINUOUS
 62
     7
 10
2.1375
 20
0.71
 30
0.0
 11
2.1375
 21
4.29
 31
0.0
  0
LINE
  5
2E9
  8
0
  6
CONTINUOUS
 62
     7
 10
12.7208333333
 20
4.29
 30
0.0
 11
12.0008333333
 21
4.29
 31
0.0
  0
LINE
  5
2EA
  8
0
  6
CONTINUOUS
 62
     7
 10
12.0008333333
 20
4.29
 30
0.0
 11
12.0008333333
 21
0.71
 31
0.0
  0
LINE
  5
2EB
  8
0
  6
CONTINUOUS
 62
     7
 10
12.0008333333
 20
0.71
 30
0.0
 11
12.7208333333
 21
0.71
 31
0.0
  0
LINE
  5
2EC
  8
0
  6
CONTINUOUS
 62
     7
 10
12.7208333333
 20
0.71
 30
0.0
 11
12.7208333333
 21
4.29
 31
0.0
  0
LINE
  5
2ED
  8
0
  6
CONTINUOUS
 62
     7
 10
-10.5625
 20
-0.71
 30
0.0
 11
-11.2825
 21
-0.71
 31
0.0
  0
LINE
  5
2EE
  8
0
  6
CONTINUOUS
 62
     7
 10
-11.2825
 20
-0.71
 30
0.0
 11
-11.2825
 21
-4.29
 31
0.0
  0
LINE
  5
2EF
  8
0
  6
CONTINUOUS
 62
     7
 10
-11.2825
 20
-4.29
 30
0.0
 11
-10.5625
 21
-4.29
 31
0.0
  0
LINE
  5
2F0
  8
0
  6
CONTINUOUS
 62
     7
 10
-10.5625
 20
-4.29
 30
0.0
 11
-10.5625
 21
-0.71
 31
0.0
  0
LINE
  5
2F1
  8
0
  6
CONTINUOUS
 62
     7
 10
10.6041666667
 20
4.29
 30
0.0
 11
9.8841666667
 21
4.29
 31
0.0
  0
LINE
  5
2F2
  8
0
  6
CONTINUOUS
 62
     7
 10
9.8841666667
 20
4.29
 30
0.0
 11
9.8841666667
 21
0.71
 31
0.0
  0
LINE
  5
2F3
  8
0
  6
CONTINUOUS
 62
     7
 10
9.8841666667
 20
0.71
 30
0.0
 11
10.6041666667
 21
0.71
 31
0.0
  0
LINE
  5
2F4
  8
0
  6
CONTINUOUS
 62
     7
 10
10.6041666667
 20
0.71
 30
0.0
 11
10.6041666667
 21
4.29
 31
0.0
  0
LINE
  5
2F5
  8
0
  6
CONTINUOUS
 62
     7
 10
11.6625
 20
4.29
 30
0.0
 11
10.9425
 21
4.29
 31
0.0
  0
LINE
  5
2F6
  8
0
  6
CONTINUOUS
 62
     7
 10
10.9425
 20
4.29
 30
0.0
 11
10.9425
 21
0.71
 31
0.0
  0
LINE
  5
2F7
  8
0
  6
CONTINUOUS
 62
     7
 10
10.9425
 20
0.71
 30
0.0
 11
11.6625
 21
0.71
 31
0.0
  0
LINE
  5
2F8
  8
0
  6
CONTINUOUS
 62
     7
 10
11.6625
 20
0.71
 30
0.0
 11
11.6625
 21
4.29
 31
0.0
  0
LINE
  5
2F9
  8
0
  6
CONTINUOUS
 62
     7
 10
8.4875
 20
4.29
 30
0.0
 11
7.7675
 21
4.29
 31
0.0
  0
LINE
  5
2FA
  8
0
  6
CONTINUOUS
 62
     7
 10
7.7675
 20
4.29
 30
0.0
 11
7.7675
 21
0.71
 31
0.0
  0
LINE
  5
2FB
  8
0
  6
CONTINUOUS
 62
     7
 10
7.7675
 20
0.71
 30
0.0
 11
8.4875
 21
0.71
 31
0.0
  0
LINE
  5
2FC
  8
0
  6
CONTINUOUS
 62
     7
 10
8.4875
 20
0.71
 30
0.0
 11
8.4875
 21
4.29
 31
0.0
  0
LINE
  5
2FD
  8
0
  6
CONTINUOUS
 62
     7
 10
-4.2125
 20
4.29
 30
0.0
 11
-4.9325
 21
4.29
 31
0.0
  0
LINE
  5
2FE
  8
0
  6
CONTINUOUS
 62
     7
 10
-4.9325
 20
4.29
 30
0.0
 11
-4.9325
 21
0.71
 31
0.0
  0
LINE
  5
2FF
  8
0
  6
CONTINUOUS
 62
     7
 10
-4.9325
 20
0.71
 30
0.0
 11
-4.2125
 21
0.71
 31
0.0
  0
LINE
  5
300
  8
0
  6
CONTINUOUS
 62
     7
 10
-4.2125
 20
0.71
 30
0.0
 11
-4.2125
 21
4.29
 31
0.0
  0
LINE
  5
301
  8
0
  6
CONTINUOUS
 62
     7
 10
-1.0375
 20
4.29
 30
0.0
 11
-1.7575
 21
4.29
 31
0.0
  0
LINE
  5
302
  8
0
  6
CONTINUOUS
 62
     7
 10
-1.7575
 20
4.29
 30
0.0
 11
-1.7575
 21
0.71
 31
0.0
  0
LINE
  5
303
  8
0
  6
CONTINUOUS
 62
     7
 10
-1.7575
 20
0.71
 30
0.0
 11
-1.0375
 21
0.71
 31
0.0
  0
LINE
  5
304
  8
0
  6
CONTINUOUS
 62
     7
 10
-1.0375
 20
0.71
 30
0.0
 11
-1.0375
 21
4.29
 31
0.0
  0
LINE
  5
305
  8
0
  6
CONTINUOUS
 62
     7
 10
-2.0958333333
 20
4.29
 30
0.0
 11
-2.8158333333
 21
4.29
 31
0.0
  0
LINE
  5
306
  8
0
  6
CONTINUOUS
 62
     7
 10
-2.8158333333
 20
4.29
 30
0.0
 11
-2.8158333333
 21
0.71
 31
0.0
  0
LINE
  5
307
  8
0
  6
CONTINUOUS
 62
     7
 10
-2.8158333333
 20
0.71
 30
0.0
 11
-2.0958333333
 21
0.71
 31
0.0
  0
LINE
  5
308
  8
0
  6
CONTINUOUS
 62
     7
 10
-2.0958333333
 20
0.71
 30
0.0
 11
-2.0958333333
 21
4.29
 31
0.0
  0
LINE
  5
309
  8
0
  6
CONTINUOUS
 62
     7
 10
1.0791666667
 20
4.29
 30
0.0
 11
0.3591666667
 21
4.29
 31
0.0
  0
LINE
  5
30A
  8
0
  6
CONTINUOUS
 62
     7
 10
0.3591666667
 20
4.29
 30
0.0
 11
0.3591666667
 21
0.71
 31
0.0
  0
LINE
  5
30B
  8
0
  6
CONTINUOUS
 62
     7
 10
0.3591666667
 20
0.71
 30
0.0
 11
1.0791666667
 21
0.71
 31
0.0
  0
LINE
  5
30C
  8
0
  6
CONTINUOUS
 62
     7
 10
1.0791666667
 20
0.71
 30
0.0
 11
1.0791666667
 21
4.29
 31
0.0
  0
LINE
  5
30D
  8
0
  6
CONTINUOUS
 62
     7
 10
0.0208333333
 20
4.29
 30
0.0
 11
-0.6991666667
 21
4.29
 31
0.0
  0
LINE
  5
30E
  8
0
  6
CONTINUOUS
 62
     7
 10
-0.6991666667
 20
4.29
 30
0.0
 11
-0.6991666667
 21
0.71
 31
0.0
  0
LINE
  5
30F
  8
0
  6
CONTINUOUS
 62
     7
 10
-0.6991666667
 20
0.71
 30
0.0
 11
0.0208333333
 21
0.71
 31
0.0
  0
LINE
  5
310
  8
0
  6
CONTINUOUS
 62
     7
 10
0.0208333333
 20
0.71
 30
0.0
 11
0.0208333333
 21
4.29
 31
0.0
  0
LINE
  5
311
  8
0
  6
CONTINUOUS
 62
     7
 10
-10.5625
 20
4.29
 30
0.0
 11
-11.2825
 21
4.29
 31
0.0
  0
LINE
  5
312
  8
0
  6
CONTINUOUS
 62
     7
 10
-11.2825
 20
4.29
 30
0.0
 11
-11.2825
 21
0.71
 31
0.0
  0
LINE
  5
313
  8
0
  6
CONTINUOUS
 62
     7
 10
-11.2825
 20
0.71
 30
0.0
 11
-10.5625
 21
0.71
 31
0.0
  0
LINE
  5
314
  8
0
  6
CONTINUOUS
 62
     7
 10
-10.5625
 20
0.71
 30
0.0
 11
-10.5625
 21
4.29
 31
0.0
  0
LINE
  5
315
  8
0
  6
CONTINUOUS
 62
     7
 10
-7.3875
 20
4.29
 30
0.0
 11
-8.1075
 21
4.29
 31
0.0
  0
LINE
  5
316
  8
0
  6
CONTINUOUS
 62
     7
 10
-8.1075
 20
4.29
 30
0.0
 11
-8.1075
 21
0.71
 31
0.0
  0
LINE
  5
317
  8
0
  6
CONTINUOUS
 62
     7
 10
-8.1075
 20
0.71
 30
0.0
 11
-7.3875
 21
0.71
 31
0.0
  0
LINE
  5
318
  8
0
  6
CONTINUOUS
 62
     7
 10
-7.3875
 20
0.71
 30
0.0
 11
-7.3875
 21
4.29
 31
0.0
  0
LINE
  5
319
  8
0
  6
CONTINUOUS
 62
     7
 10
-9.5041666667
 20
4.29
 30
0.0
 11
-10.2241666667
 21
4.29
 31
0.0
  0
LINE
  5
31A
  8
0
  6
CONTINUOUS
 62
     7
 10
-10.2241666667
 20
4.29
 30
0.0
 11
-10.2241666667
 21
0.71
 31
0.0
  0
LINE
  5
31B
  8
0
  6
CONTINUOUS
 62
     7
 10
-10.2241666667
 20
0.71
 30
0.0
 11
-9.5041666667
 21
0.71
 31
0.0
  0
LINE
  5
31C
  8
0
  6
CONTINUOUS
 62
     7
 10
-9.5041666667
 20
0.71
 30
0.0
 11
-9.5041666667
 21
4.29
 31
0.0
  0
LINE
  5
31D
  8
0
  6
CONTINUOUS
 62
     7
 10
-5.2708333333
 20
4.29
 30
0.0
 11
-5.9908333333
 21
4.29
 31
0.0
  0
LINE
  5
31E
  8
0
  6
CONTINUOUS
 62
     7
 10
-5.9908333333
 20
4.29
 30
0.0
 11
-5.9908333333
 21
0.71
 31
0.0
  0
LINE
  5
31F
  8
0
  6
CONTINUOUS
 62
     7
 10
-5.9908333333
 20
0.71
 30
0.0
 11
-5.2708333333
 21
0.71
 31
0.0
  0
LINE
  5
320
  8
0
  6
CONTINUOUS
 62
     7
 10
-5.2708333333
 20
0.71
 30
0.0
 11
-5.2708333333
 21
4.29
 31
0.0
  0
LINE
  5
321
  8
0
  6
CONTINUOUS
 62
     7
 10
-6.3291666667
 20
4.29
 30
0.0
 11
-7.0491666667
 21
4.29
 31
0.0
  0
LINE
  5
322
  8
0
  6
CONTINUOUS
 62
     7
 10
-7.0491666667
 20
4.29
 30
0.0
 11
-7.0491666667
 21
0.71
 31
0.0
  0
LINE
  5
323
  8
0
  6
CONTINUOUS
 62
     7
 10
-7.0491666667
 20
0.71
 30
0.0
 11
-6.3291666667
 21
0.71
 31
0.0
  0
LINE
  5
324
  8
0
  6
CONTINUOUS
 62
     7
 10
-6.3291666667
 20
0.71
 30
0.0
 11
-6.3291666667
 21
4.29
 31
0.0
  0
LINE
  5
325
  8
0
  6
CONTINUOUS
 62
     7
 10
-4.2125
 20
-5.71
 30
0.0
 11
-4.9325
 21
-5.71
 31
0.0
  0
LINE
  5
326
  8
0
  6
CONTINUOUS
 62
     7
 10
-4.9325
 20
-5.71
 30
0.0
 11
-4.9325
 21
-9.29
 31
0.0
  0
LINE
  5
327
  8
0
  6
CONTINUOUS
 62
     7
 10
-4.9325
 20
-9.29
 30
0.0
 11
-4.2125
 21
-9.29
 31
0.0
  0
LINE
  5
328
  8
0
  6
CONTINUOUS
 62
     7
 10
-4.2125
 20
-9.29
 30
0.0
 11
-4.2125
 21
-5.71
 31
0.0
  0
LINE
  5
329
  8
0
  6
CONTINUOUS
 62
     7
 10
-2.0958333333
 20
-5.71
 30
0.0
 11
-2.8158333333
 21
-5.71
 31
0.0
  0
LINE
  5
32A
  8
0
  6
CONTINUOUS
 62
     7
 10
-2.8158333333
 20
-5.71
 30
0.0
 11
-2.8158333333
 21
-9.29
 31
0.0
  0
LINE
  5
32B
  8
0
  6
CONTINUOUS
 62
     7
 10
-2.8158333333
 20
-9.29
 30
0.0
 11
-2.0958333333
 21
-9.29
 31
0.0
  0
LINE
  5
32C
  8
0
  6
CONTINUOUS
 62
     7
 10
-2.0958333333
 20
-9.29
 30
0.0
 11
-2.0958333333
 21
-5.71
 31
0.0
  0
LINE
  5
32D
  8
0
  6
CONTINUOUS
 62
     7
 10
-6.3291666667
 20
-5.71
 30
0.0
 11
-7.0491666667
 21
-5.71
 31
0.0
  0
LINE
  5
32E
  8
0
  6
CONTINUOUS
 62
     7
 10
-7.0491666667
 20
-5.71
 30
0.0
 11
-7.0491666667
 21
-9.29
 31
0.0
  0
LINE
  5
32F
  8
0
  6
CONTINUOUS
 62
     7
 10
-7.0491666667
 20
-9.29
 30
0.0
 11
-6.3291666667
 21
-9.29
 31
0.0
  0
LINE
  5
330
  8
0
  6
CONTINUOUS
 62
     7
 10
-6.3291666667
 20
-9.29
 30
0.0
 11
-6.3291666667
 21
-5.71
 31
0.0
  0
LINE
  5
331
  8
0
  6
CONTINUOUS
 62
     7
 10
-5.2708333333
 20
-5.71
 30
0.0
 11
-5.9908333333
 21
-5.71
 31
0.0
  0
LINE
  5
332
  8
0
  6
CONTINUOUS
 62
     7
 10
-5.9908333333
 20
-5.71
 30
0.0
 11
-5.9908333333
 21
-9.29
 31
0.0
  0
LINE
  5
333
  8
0
  6
CONTINUOUS
 62
     7
 10
-5.9908333333
 20
-9.29
 30
0.0
 11
-5.2708333333
 21
-9.29
 31
0.0
  0
LINE
  5
334
  8
0
  6
CONTINUOUS
 62
     7
 10
-5.2708333333
 20
-9.29
 30
0.0
 11
-5.2708333333
 21
-5.71
 31
0.0
  0
LINE
  5
335
  8
0
  6
CONTINUOUS
 62
     7
 10
-7.3875
 20
-5.71
 30
0.0
 11
-8.1075
 21
-5.71
 31
0.0
  0
LINE
  5
336
  8
0
  6
CONTINUOUS
 62
     7
 10
-8.1075
 20
-5.71
 30
0.0
 11
-8.1075
 21
-9.29
 31
0.0
  0
LINE
  5
337
  8
0
  6
CONTINUOUS
 62
     7
 10
-8.1075
 20
-9.29
 30
0.0
 11
-7.3875
 21
-9.29
 31
0.0
  0
LINE
  5
338
  8
0
  6
CONTINUOUS
 62
     7
 10
-7.3875
 20
-9.29
 30
0.0
 11
-7.3875
 21
-5.71
 31
0.0
  0
LINE
  5
339
  8
0
  6
CONTINUOUS
 62
     7
 10
2.1375
 20
-5.71
 30
0.0
 11
1.4175
 21
-5.71
 31
0.0
  0
LINE
  5
33A
  8
0
  6
CONTINUOUS
 62
     7
 10
1.4175
 20
-5.71
 30
0.0
 11
1.4175
 21
-9.29
 31
0.0
  0
LINE
  5
33B
  8
0
  6
CONTINUOUS
 62
     7
 10
1.4175
 20
-9.29
 30
0.0
 11
2.1375
 21
-9.29
 31
0.0
  0
LINE
  5
33C
  8
0
  6
CONTINUOUS
 62
     7
 10
2.1375
 20
-9.29
 30
0.0
 11
2.1375
 21
-5.71
 31
0.0
  0
LINE
  5
33D
  8
0
  6
CONTINUOUS
 62
     7
 10
3.1958333333
 20
-5.71
 30
0.0
 11
2.4758333333
 21
-5.71
 31
0.0
  0
LINE
  5
33E
  8
0
  6
CONTINUOUS
 62
     7
 10
2.4758333333
 20
-5.71
 30
0.0
 11
2.4758333333
 21
-9.29
 31
0.0
  0
LINE
  5
33F
  8
0
  6
CONTINUOUS
 62
     7
 10
2.4758333333
 20
-9.29
 30
0.0
 11
3.1958333333
 21
-9.29
 31
0.0
  0
LINE
  5
340
  8
0
  6
CONTINUOUS
 62
     7
 10
3.1958333333
 20
-9.29
 30
0.0
 11
3.1958333333
 21
-5.71
 31
0.0
  0
LINE
  5
341
  8
0
  6
CONTINUOUS
 62
     7
 10
0.0208333333
 20
-5.71
 30
0.0
 11
-0.6991666667
 21
-5.71
 31
0.0
  0
LINE
  5
342
  8
0
  6
CONTINUOUS
 62
     7
 10
-0.6991666667
 20
-5.71
 30
0.0
 11
-0.6991666667
 21
-9.29
 31
0.0
  0
LINE
  5
343
  8
0
  6
CONTINUOUS
 62
     7
 10
-0.6991666667
 20
-9.29
 30
0.0
 11
0.0208333333
 21
-9.29
 31
0.0
  0
LINE
  5
344
  8
0
  6
CONTINUOUS
 62
     7
 10
0.0208333333
 20
-9.29
 30
0.0
 11
0.0208333333
 21
-5.71
 31
0.0
  0
LINE
  5
345
  8
0
  6
CONTINUOUS
 62
     7
 10
1.0791666667
 20
-5.71
 30
0.0
 11
0.3591666667
 21
-5.71
 31
0.0
  0
LINE
  5
346
  8
0
  6
CONTINUOUS
 62
     7
 10
0.3591666667
 20
-5.71
 30
0.0
 11
0.3591666667
 21
-9.29
 31
0.0
  0
LINE
  5
347
  8
0
  6
CONTINUOUS
 62
     7
 10
0.3591666667
 20
-9.29
 30
0.0
 11
1.0791666667
 21
-9.29
 31
0.0
  0
LINE
  5
348
  8
0
  6
CONTINUOUS
 62
     7
 10
1.0791666667
 20
-9.29
 30
0.0
 11
1.0791666667
 21
-5.71
 31
0.0
  0
LINE
  5
349
  8
0
  6
CONTINUOUS
 62
     7
 10
-1.0375
 20
-5.71
 30
0.0
 11
-1.7575
 21
-5.71
 31
0.0
  0
LINE
  5
34A
  8
0
  6
CONTINUOUS
 62
     7
 10
-1.7575
 20
-5.71
 30
0.0
 11
-1.7575
 21
-9.29
 31
0.0
  0
LINE
  5
34B
  8
0
  6
CONTINUOUS
 62
     7
 10
-1.7575
 20
-9.29
 30
0.0
 11
-1.0375
 21
-9.29
 31
0.0
  0
LINE
  5
34C
  8
0
  6
CONTINUOUS
 62
     7
 10
-1.0375
 20
-9.29
 30
0.0
 11
-1.0375
 21
-5.71
 31
0.0
  0
LINE
  5
34D
  8
0
  6
CONTINUOUS
 62
     7
 10
-11.6208333333
 20
4.29
 30
0.0
 11
-12.3408333333
 21
4.29
 31
0.0
  0
LINE
  5
34E
  8
0
  6
CONTINUOUS
 62
     7
 10
-12.3408333333
 20
4.29
 30
0.0
 11
-12.3408333333
 21
0.71
 31
0.0
  0
LINE
  5
34F
  8
0
  6
CONTINUOUS
 62
     7
 10
-12.3408333333
 20
0.71
 30
0.0
 11
-11.6208333333
 21
0.71
 31
0.0
  0
LINE
  5
350
  8
0
  6
CONTINUOUS
 62
     7
 10
-11.6208333333
 20
0.71
 30
0.0
 11
-11.6208333333
 21
4.29
 31
0.0
  0
LINE
  5
351
  8
0
  6
CONTINUOUS
 62
     7
 10
12.7208333333
 20
-5.71
 30
0.0
 11
12.0008333333
 21
-5.71
 31
0.0
  0
LINE
  5
352
  8
0
  6
CONTINUOUS
 62
     7
 10
12.0008333333
 20
-5.71
 30
0.0
 11
12.0008333333
 21
-9.29
 31
0.0
  0
LINE
  5
353
  8
0
  6
CONTINUOUS
 62
     7
 10
12.0008333333
 20
-9.29
 30
0.0
 11
12.7208333333
 21
-9.29
 31
0.0
  0
LINE
  5
354
  8
0
  6
CONTINUOUS
 62
     7
 10
12.7208333333
 20
-9.29
 30
0.0
 11
12.7208333333
 21
-5.71
 31
0.0
  0
LINE
  5
355
  8
0
  6
CONTINUOUS
 62
     7
 10
11.6625
 20
-5.71
 30
0.0
 11
10.9425
 21
-5.71
 31
0.0
  0
LINE
  5
356
  8
0
  6
CONTINUOUS
 62
     7
 10
10.9425
 20
-5.71
 30
0.0
 11
10.9425
 21
-9.29
 31
0.0
  0
LINE
  5
357
  8
0
  6
CONTINUOUS
 62
     7
 10
10.9425
 20
-9.29
 30
0.0
 11
11.6625
 21
-9.29
 31
0.0
  0
LINE
  5
358
  8
0
  6
CONTINUOUS
 62
     7
 10
11.6625
 20
-9.29
 30
0.0
 11
11.6625
 21
-5.71
 31
0.0
  0
LINE
  5
359
  8
0
  6
CONTINUOUS
 62
     7
 10
-11.6208333333
 20
-5.71
 30
0.0
 11
-12.3408333333
 21
-5.71
 31
0.0
  0
LINE
  5
35A
  8
0
  6
CONTINUOUS
 62
     7
 10
-12.3408333333
 20
-5.71
 30
0.0
 11
-12.3408333333
 21
-9.29
 31
0.0
  0
LINE
  5
35B
  8
0
  6
CONTINUOUS
 62
     7
 10
-12.3408333333
 20
-9.29
 30
0.0
 11
-11.6208333333
 21
-9.29
 31
0.0
  0
LINE
  5
35C
  8
0
  6
CONTINUOUS
 62
     7
 10
-11.6208333333
 20
-9.29
 30
0.0
 11
-11.6208333333
 21
-5.71
 31
0.0
  0
LINE
  5
35D
  8
0
  6
CONTINUOUS
 62
     7
 10
-11.6208333333
 20
-0.71
 30
0.0
 11
-12.3408333333
 21
-0.71
 31
0.0
  0
LINE
  5
35E
  8
0
  6
CONTINUOUS
 62
     7
 10
-12.3408333333
 20
-0.71
 30
0.0
 11
-12.3408333333
 21
-4.29
 31
0.0
  0
LINE
  5
35F
  8
0
  6
CONTINUOUS
 62
     7
 10
-12.3408333333
 20
-4.29
 30
0.0
 11
-11.6208333333
 21
-4.29
 31
0.0
  0
LINE
  5
360
  8
0
  6
CONTINUOUS
 62
     7
 10
-11.6208333333
 20
-4.29
 30
0.0
 11
-11.6208333333
 21
-0.71
 31
0.0
  0
LINE
  5
361
  8
0
  6
CONTINUOUS
 62
     7
 10
5.3125
 20
-5.71
 30
0.0
 11
4.5925
 21
-5.71
 31
0.0
  0
LINE
  5
362
  8
0
  6
CONTINUOUS
 62
     7
 10
4.5925
 20
-5.71
 30
0.0
 11
4.5925
 21
-9.29
 31
0.0
  0
LINE
  5
363
  8
0
  6
CONTINUOUS
 62
     7
 10
4.5925
 20
-9.29
 30
0.0
 11
5.3125
 21
-9.29
 31
0.0
  0
LINE
  5
364
  8
0
  6
CONTINUOUS
 62
     7
 10
5.3125
 20
-9.29
 30
0.0
 11
5.3125
 21
-5.71
 31
0.0
  0
LINE
  5
365
  8
0
  6
CONTINUOUS
 62
     7
 10
7.4291666667
 20
-5.71
 30
0.0
 11
6.7091666667
 21
-5.71
 31
0.0
  0
LINE
  5
366
  8
0
  6
CONTINUOUS
 62
     7
 10
6.7091666667
 20
-5.71
 30
0.0
 11
6.7091666667
 21
-9.29
 31
0.0
  0
LINE
  5
367
  8
0
  6
CONTINUOUS
 62
     7
 10
6.7091666667
 20
-9.29
 30
0.0
 11
7.4291666667
 21
-9.29
 31
0.0
  0
LINE
  5
368
  8
0
  6
CONTINUOUS
 62
     7
 10
7.4291666667
 20
-9.29
 30
0.0
 11
7.4291666667
 21
-5.71
 31
0.0
  0
LINE
  5
369
  8
0
  6
CONTINUOUS
 62
     7
 10
6.3708333333
 20
-5.71
 30
0.0
 11
5.6508333333
 21
-5.71
 31
0.0
  0
LINE
  5
36A
  8
0
  6
CONTINUOUS
 62
     7
 10
5.6508333333
 20
-5.71
 30
0.0
 11
5.6508333333
 21
-9.29
 31
0.0
  0
LINE
  5
36B
  8
0
  6
CONTINUOUS
 62
     7
 10
5.6508333333
 20
-9.29
 30
0.0
 11
6.3708333333
 21
-9.29
 31
0.0
  0
LINE
  5
36C
  8
0
  6
CONTINUOUS
 62
     7
 10
6.3708333333
 20
-9.29
 30
0.0
 11
6.3708333333
 21
-5.71
 31
0.0
  0
LINE
  5
36D
  8
0
  6
CONTINUOUS
 62
     7
 10
10.6041666667
 20
-5.71
 30
0.0
 11
9.8841666667
 21
-5.71
 31
0.0
  0
LINE
  5
36E
  8
0
  6
CONTINUOUS
 62
     7
 10
9.8841666667
 20
-5.71
 30
0.0
 11
9.8841666667
 21
-9.29
 31
0.0
  0
LINE
  5
36F
  8
0
  6
CONTINUOUS
 62
     7
 10
9.8841666667
 20
-9.29
 30
0.0
 11
10.6041666667
 21
-9.29
 31
0.0
  0
LINE
  5
370
  8
0
  6
CONTINUOUS
 62
     7
 10
10.6041666667
 20
-9.29
 30
0.0
 11
10.6041666667
 21
-5.71
 31
0.0
  0
LINE
  5
371
  8
0
  6
CONTINUOUS
 62
     7
 10
8.4875
 20
-5.71
 30
0.0
 11
7.7675
 21
-5.71
 31
0.0
  0
LINE
  5
372
  8
0
  6
CONTINUOUS
 62
     7
 10
7.7675
 20
-5.71
 30
0.0
 11
7.7675
 21
-9.29
 31
0.0
  0
LINE
  5
373
  8
0
  6
CONTINUOUS
 62
     7
 10
7.7675
 20
-9.29
 30
0.0
 11
8.4875
 21
-9.29
 31
0.0
  0
LINE
  5
374
  8
0
  6
CONTINUOUS
 62
     7
 10
8.4875
 20
-9.29
 30
0.0
 11
8.4875
 21
-5.71
 31
0.0
  0
LINE
  5
375
  8
0
  6
CONTINUOUS
 62
     7
 10
-5.2708333333
 20
-0.71
 30
0.0
 11
-5.9908333333
 21
-0.71
 31
0.0
  0
LINE
  5
376
  8
0
  6
CONTINUOUS
 62
     7
 10
-5.9908333333
 20
-0.71
 30
0.0
 11
-5.9908333333
 21
-4.29
 31
0.0
  0
LINE
  5
377
  8
0
  6
CONTINUOUS
 62
     7
 10
-5.9908333333
 20
-4.29
 30
0.0
 11
-5.2708333333
 21
-4.29
 31
0.0
  0
LINE
  5
378
  8
0
  6
CONTINUOUS
 62
     7
 10
-5.2708333333
 20
-4.29
 30
0.0
 11
-5.2708333333
 21
-0.71
 31
0.0
  0
LINE
  5
379
  8
0
  6
CONTINUOUS
 62
     7
 10
-4.2125
 20
-0.71
 30
0.0
 11
-4.9325
 21
-0.71
 31
0.0
  0
LINE
  5
37A
  8
0
  6
CONTINUOUS
 62
     7
 10
-4.9325
 20
-0.71
 30
0.0
 11
-4.9325
 21
-4.29
 31
0.0
  0
LINE
  5
37B
  8
0
  6
CONTINUOUS
 62
     7
 10
-4.9325
 20
-4.29
 30
0.0
 11
-4.2125
 21
-4.29
 31
0.0
  0
LINE
  5
37C
  8
0
  6
CONTINUOUS
 62
     7
 10
-4.2125
 20
-4.29
 30
0.0
 11
-4.2125
 21
-0.71
 31
0.0
  0
LINE
  5
37D
  8
0
  6
CONTINUOUS
 62
     7
 10
-7.3875
 20
-0.71
 30
0.0
 11
-8.1075
 21
-0.71
 31
0.0
  0
LINE
  5
37E
  8
0
  6
CONTINUOUS
 62
     7
 10
-8.1075
 20
-0.71
 30
0.0
 11
-8.1075
 21
-4.29
 31
0.0
  0
LINE
  5
37F
  8
0
  6
CONTINUOUS
 62
     7
 10
-8.1075
 20
-4.29
 30
0.0
 11
-7.3875
 21
-4.29
 31
0.0
  0
LINE
  5
380
  8
0
  6
CONTINUOUS
 62
     7
 10
-7.3875
 20
-4.29
 30
0.0
 11
-7.3875
 21
-0.71
 31
0.0
  0
LINE
  5
381
  8
0
  6
CONTINUOUS
 62
     7
 10
-6.3291666667
 20
-0.71
 30
0.0
 11
-7.0491666667
 21
-0.71
 31
0.0
  0
LINE
  5
382
  8
0
  6
CONTINUOUS
 62
     7
 10
-7.0491666667
 20
-0.71
 30
0.0
 11
-7.0491666667
 21
-4.29
 31
0.0
  0
LINE
  5
383
  8
0
  6
CONTINUOUS
 62
     7
 10
-7.0491666667
 20
-4.29
 30
0.0
 11
-6.3291666667
 21
-4.29
 31
0.0
  0
LINE
  5
384
  8
0
  6
CONTINUOUS
 62
     7
 10
-6.3291666667
 20
-4.29
 30
0.0
 11
-6.3291666667
 21
-0.71
 31
0.0
  0
LINE
  5
385
  8
0
  6
CONTINUOUS
 62
     7
 10
-9.5041666667
 20
-0.71
 30
0.0
 11
-10.2241666667
 21
-0.71
 31
0.0
  0
LINE
  5
386
  8
0
  6
CONTINUOUS
 62
     7
 10
-10.2241666667
 20
-0.71
 30
0.0
 11
-10.2241666667
 21
-4.29
 31
0.0
  0
LINE
  5
387
  8
0
  6
CONTINUOUS
 62
     7
 10
-10.2241666667
 20
-4.29
 30
0.0
 11
-9.5041666667
 21
-4.29
 31
0.0
  0
LINE
  5
388
  8
0
  6
CONTINUOUS
 62
     7
 10
-9.5041666667
 20
-4.29
 30
0.0
 11
-9.5041666667
 21
-0.71
 31
0.0
  0
LINE
  5
389
  8
0
  6
CONTINUOUS
 62
     7
 10
1.0791666667
 20
-0.71
 30
0.0
 11
0.3591666667
 21
-0.71
 31
0.0
  0
LINE
  5
38A
  8
0
  6
CONTINUOUS
 62
     7
 10
0.3591666667
 20
-0.71
 30
0.0
 11
0.3591666667
 21
-4.29
 31
0.0
  0
LINE
  5
38B
  8
0
  6
CONTINUOUS
 62
     7
 10
0.3591666667
 20
-4.29
 30
0.0
 11
1.0791666667
 21
-4.29
 31
0.0
  0
LINE
  5
38C
  8
0
  6
CONTINUOUS
 62
     7
 10
1.0791666667
 20
-4.29
 30
0.0
 11
1.0791666667
 21
-0.71
 31
0.0
  0
LINE
  5
38D
  8
0
  6
CONTINUOUS
 62
     7
 10
2.1375
 20
-0.71
 30
0.0
 11
1.4175
 21
-0.71
 31
0.0
  0
LINE
  5
38E
  8
0
  6
CONTINUOUS
 62
     7
 10
1.4175
 20
-0.71
 30
0.0
 11
1.4175
 21
-4.29
 31
0.0
  0
LINE
  5
38F
  8
0
  6
CONTINUOUS
 62
     7
 10
1.4175
 20
-4.29
 30
0.0
 11
2.1375
 21
-4.29
 31
0.0
  0
LINE
  5
390
  8
0
  6
CONTINUOUS
 62
     7
 10
2.1375
 20
-4.29
 30
0.0
 11
2.1375
 21
-0.71
 31
0.0
  0
LINE
  5
391
  8
0
  6
CONTINUOUS
 62
     7
 10
-1.0375
 20
-0.71
 30
0.0
 11
-1.7575
 21
-0.71
 31
0.0
  0
LINE
  5
392
  8
0
  6
CONTINUOUS
 62
     7
 10
-1.7575
 20
-0.71
 30
0.0
 11
-1.7575
 21
-4.29
 31
0.0
  0
LINE
  5
393
  8
0
  6
CONTINUOUS
 62
     7
 10
-1.7575
 20
-4.29
 30
0.0
 11
-1.0375
 21
-4.29
 31
0.0
  0
LINE
  5
394
  8
0
  6
CONTINUOUS
 62
     7
 10
-1.0375
 20
-4.29
 30
0.0
 11
-1.0375
 21
-0.71
 31
0.0
  0
LINE
  5
395
  8
0
  6
CONTINUOUS
 62
     7
 10
0.0208333333
 20
-0.71
 30
0.0
 11
-0.6991666667
 21
-0.71
 31
0.0
  0
LINE
  5
396
  8
0
  6
CONTINUOUS
 62
     7
 10
-0.6991666667
 20
-0.71
 30
0.0
 11
-0.6991666667
 21
-4.29
 31
0.0
  0
LINE
  5
397
  8
0
  6
CONTINUOUS
 62
     7
 10
-0.6991666667
 20
-4.29
 30
0.0
 11
0.0208333333
 21
-4.29
 31
0.0
  0
LINE
  5
398
  8
0
  6
CONTINUOUS
 62
     7
 10
0.0208333333
 20
-4.29
 30
0.0
 11
0.0208333333
 21
-0.71
 31
0.0
  0
LINE
  5
399
  8
0
  6
CONTINUOUS
 62
     7
 10
-2.0958333333
 20
-0.71
 30
0.0
 11
-2.8158333333
 21
-0.71
 31
0.0
  0
LINE
  5
39A
  8
0
  6
CONTINUOUS
 62
     7
 10
-2.8158333333
 20
-0.71
 30
0.0
 11
-2.8158333333
 21
-4.29
 31
0.0
  0
LINE
  5
39B
  8
0
  6
CONTINUOUS
 62
     7
 10
-2.8158333333
 20
-4.29
 30
0.0
 11
-2.0958333333
 21
-4.29
 31
0.0
  0
LINE
  5
39C
  8
0
  6
CONTINUOUS
 62
     7
 10
-2.0958333333
 20
-4.29
 30
0.0
 11
-2.0958333333
 21
-0.71
 31
0.0
  0
LINE
  5
39D
  8
0
  6
CONTINUOUS
 62
     7
 10
10.6041666667
 20
-0.71
 30
0.0
 11
9.8841666667
 21
-0.71
 31
0.0
  0
LINE
  5
39E
  8
0
  6
CONTINUOUS
 62
     7
 10
9.8841666667
 20
-0.71
 30
0.0
 11
9.8841666667
 21
-4.29
 31
0.0
  0
LINE
  5
39F
  8
0
  6
CONTINUOUS
 62
     7
 10
9.8841666667
 20
-4.29
 30
0.0
 11
10.6041666667
 21
-4.29
 31
0.0
  0
LINE
  5
3A0
  8
0
  6
CONTINUOUS
 62
     7
 10
10.6041666667
 20
-4.29
 30
0.0
 11
10.6041666667
 21
-0.71
 31
0.0
  0
LINE
  5
3A1
  8
0
  6
CONTINUOUS
 62
     7
 10
12.7208333333
 20
-0.71
 30
0.0
 11
12.0008333333
 21
-0.71
 31
0.0
  0
LINE
  5
3A2
  8
0
  6
CONTINUOUS
 62
     7
 10
12.0008333333
 20
-0.71
 30
0.0
 11
12.0008333333
 21
-4.29
 31
0.0
  0
LINE
  5
3A3
  8
0
  6
CONTINUOUS
 62
     7
 10
12.0008333333
 20
-4.29
 30
0.0
 11
12.7208333333
 21
-4.29
 31
0.0
  0
LINE
  5
3A4
  8
0
  6
CONTINUOUS
 62
     7
 10
12.7208333333
 20
-4.29
 30
0.0
 11
12.7208333333
 21
-0.71
 31
0.0
  0
LINE
  5
3A5
  8
0
  6
CONTINUOUS
 62
     7
 10
11.6625
 20
-0.71
 30
0.0
 11
10.9425
 21
-0.71
 31
0.0
  0
LINE
  5
3A6
  8
0
  6
CONTINUOUS
 62
     7
 10
10.9425
 20
-0.71
 30
0.0
 11
10.9425
 21
-4.29
 31
0.0
  0
LINE
  5
3A7
  8
0
  6
CONTINUOUS
 62
     7
 10
10.9425
 20
-4.29
 30
0.0
 11
11.6625
 21
-4.29
 31
0.0
  0
LINE
  5
3A8
  8
0
  6
CONTINUOUS
 62
     7
 10
11.6625
 20
-4.29
 30
0.0
 11
11.6625
 21
-0.71
 31
0.0
  0
LINE
  5
3A9
  8
0
  6
CONTINUOUS
 62
     7
 10
-9.5041666667
 20
-5.71
 30
0.0
 11
-10.2241666667
 21
-5.71
 31
0.0
  0
LINE
  5
3AA
  8
0
  6
CONTINUOUS
 62
     7
 10
-10.2241666667
 20
-5.71
 30
0.0
 11
-10.2241666667
 21
-9.29
 31
0.0
  0
LINE
  5
3AB
  8
0
  6
CONTINUOUS
 62
     7
 10
-10.2241666667
 20
-9.29
 30
0.0
 11
-9.5041666667
 21
-9.29
 31
0.0
  0
LINE
  5
3AC
  8
0
  6
CONTINUOUS
 62
     7
 10
-9.5041666667
 20
-9.29
 30
0.0
 11
-9.5041666667
 21
-5.71
 31
0.0
  0
LINE
  5
3AD
  8
0
  6
CONTINUOUS
 62
     7
 10
-10.5625
 20
-5.71
 30
0.0
 11
-11.2825
 21
-5.71
 31
0.0
  0
LINE
  5
3AE
  8
0
  6
CONTINUOUS
 62
     7
 10
-11.2825
 20
-5.71
 30
0.0
 11
-11.2825
 21
-9.29
 31
0.0
  0
LINE
  5
3AF
  8
0
  6
CONTINUOUS
 62
     7
 10
-11.2825
 20
-9.29
 30
0.0
 11
-10.5625
 21
-9.29
 31
0.0
  0
LINE
  5
3B0
  8
0
  6
CONTINUOUS
 62
     7
 10
-10.5625
 20
-9.29
 30
0.0
 11
-10.5625
 21
-5.71
 31
0.0
  0
LINE
  5
3B1
  8
0
  6
CONTINUOUS
 62
     7
 10
3.1958333333
 20
-0.71
 30
0.0
 11
2.4758333333
 21
-0.71
 31
0.0
  0
LINE
  5
3B2
  8
0
  6
CONTINUOUS
 62
     7
 10
2.4758333333
 20
-0.71
 30
0.0
 11
2.4758333333
 21
-4.29
 31
0.0
  0
LINE
  5
3B3
  8
0
  6
CONTINUOUS
 62
     7
 10
2.4758333333
 20
-4.29
 30
0.0
 11
3.1958333333
 21
-4.29
 31
0.0
  0
LINE
  5
3B4
  8
0
  6
CONTINUOUS
 62
     7
 10
3.1958333333
 20
-4.29
 30
0.0
 11
3.1958333333
 21
-0.71
 31
0.0
  0
LINE
  5
3B5
  8
0
  6
CONTINUOUS
 62
     7
 10
6.3708333333
 20
-0.71
 30
0.0
 11
5.6508333333
 21
-0.71
 31
0.0
  0
LINE
  5
3B6
  8
0
  6
CONTINUOUS
 62
     7
 10
5.6508333333
 20
-0.71
 30
0.0
 11
5.6508333333
 21
-4.29
 31
0.0
  0
LINE
  5
3B7
  8
0
  6
CONTINUOUS
 62
     7
 10
5.6508333333
 20
-4.29
 30
0.0
 11
6.3708333333
 21
-4.29
 31
0.0
  0
LINE
  5
3B8
  8
0
  6
CONTINUOUS
 62
     7
 10
6.3708333333
 20
-4.29
 30
0.0
 11
6.3708333333
 21
-0.71
 31
0.0
  0
LINE
  5
3B9
  8
0
  6
CONTINUOUS
 62
     7
 10
5.3125
 20
-0.71
 30
0.0
 11
4.5925
 21
-0.71
 31
0.0
  0
LINE
  5
3BA
  8
0
  6
CONTINUOUS
 62
     7
 10
4.5925
 20
-0.71
 30
0.0
 11
4.5925
 21
-4.29
 31
0.0
  0
LINE
  5
3BB
  8
0
  6
CONTINUOUS
 62
     7
 10
4.5925
 20
-4.29
 30
0.0
 11
5.3125
 21
-4.29
 31
0.0
  0
LINE
  5
3BC
  8
0
  6
CONTINUOUS
 62
     7
 10
5.3125
 20
-4.29
 30
0.0
 11
5.3125
 21
-0.71
 31
0.0
  0
LINE
  5
3BD
  8
0
  6
CONTINUOUS
 62
     7
 10
8.4875
 20
-0.71
 30
0.0
 11
7.7675
 21
-0.71
 31
0.0
  0
LINE
  5
3BE
  8
0
  6
CONTINUOUS
 62
     7
 10
7.7675
 20
-0.71
 30
0.0
 11
7.7675
 21
-4.29
 31
0.0
  0
LINE
  5
3BF
  8
0
  6
CONTINUOUS
 62
     7
 10
7.7675
 20
-4.29
 30
0.0
 11
8.4875
 21
-4.29
 31
0.0
  0
LINE
  5
3C0
  8
0
  6
CONTINUOUS
 62
     7
 10
8.4875
 20
-4.29
 30
0.0
 11
8.4875
 21
-0.71
 31
0.0
  0
LINE
  5
3C1
  8
0
  6
CONTINUOUS
 62
     7
 10
7.4291666667
 20
-0.71
 30
0.0
 11
6.7091666667
 21
-0.71
 31
0.0
  0
LINE
  5
3C2
  8
0
  6
CONTINUOUS
 62
     7
 10
6.7091666667
 20
-0.71
 30
0.0
 11
6.7091666667
 21
-4.29
 31
0.0
  0
LINE
  5
3C3
  8
0
  6
CONTINUOUS
 62
     7
 10
6.7091666667
 20
-4.29
 30
0.0
 11
7.4291666667
 21
-4.29
 31
0.0
  0
LINE
  5
3C4
  8
0
  6
CONTINUOUS
 62
     7
 10
7.4291666667
 20
-4.29
 30
0.0
 11
7.4291666667
 21
-0.71
 31
0.0
  0
LINE
  5
3C5
  8
0
  6
CONTINUOUS
 62
     7
 10
-3.8641666667
 20
5.71
 30
0.0
 11
-3.1441666667
 21
5.71
 31
0.0
  0
LINE
  5
3C6
  8
0
  6
CONTINUOUS
 62
     7
 10
-3.1441666667
 20
5.71
 30
0.0
 11
-3.1441666667
 21
9.29
 31
0.0
  0
LINE
  5
3C7
  8
0
  6
CONTINUOUS
 62
     7
 10
-3.1441666667
 20
9.29
 30
0.0
 11
-3.8641666667
 21
9.29
 31
0.0
  0
LINE
  5
3C8
  8
0
  6
CONTINUOUS
 62
     7
 10
-3.8641666667
 20
9.29
 30
0.0
 11
-3.8641666667
 21
5.71
 31
0.0
  0
LINE
  5
3C9
  8
0
  6
CONTINUOUS
 62
     7
 10
4.2441666667
 20
5.71
 30
0.0
 11
4.2441666667
 21
9.29
 31
0.0
  0
LINE
  5
3CA
  8
0
  6
CONTINUOUS
 62
     7
 10
4.2441666667
 20
9.29
 30
0.0
 11
3.5241666667
 21
9.29
 31
0.0
  0
LINE
  5
3CB
  8
0
  6
CONTINUOUS
 62
     7
 10
3.5241666667
 20
9.29
 30
0.0
 11
3.5241666667
 21
5.71
 31
0.0
  0
LINE
  5
3CC
  8
0
  6
CONTINUOUS
 62
     7
 10
3.5241666667
 20
5.71
 30
0.0
 11
4.2441666667
 21
5.71
 31
0.0
  0
LINE
  5
3CD
  8
0
  6
CONTINUOUS
 62
     7
 10
9.5441666667
 20
5.71
 30
0.0
 11
9.5441666667
 21
9.29
 31
0.0
  0
LINE
  5
3CE
  8
0
  6
CONTINUOUS
 62
     7
 10
9.5441666667
 20
9.29
 30
0.0
 11
8.8241666667
 21
9.29
 31
0.0
  0
LINE
  5
3CF
  8
0
  6
CONTINUOUS
 62
     7
 10
8.8241666667
 20
9.29
 30
0.0
 11
8.8241666667
 21
5.71
 31
0.0
  0
LINE
  5
3D0
  8
0
  6
CONTINUOUS
 62
     7
 10
8.8241666667
 20
5.71
 30
0.0
 11
9.5441666667
 21
5.71
 31
0.0
  0
LINE
  5
3D1
  8
0
  6
CONTINUOUS
 62
     7
 10
4.2441666667
 20
0.71
 30
0.0
 11
4.2441666667
 21
4.29
 31
0.0
  0
LINE
  5
3D2
  8
0
  6
CONTINUOUS
 62
     7
 10
4.2441666667
 20
4.29
 30
0.0
 11
3.5241666667
 21
4.29
 31
0.0
  0
LINE
  5
3D3
  8
0
  6
CONTINUOUS
 62
     7
 10
3.5241666667
 20
4.29
 30
0.0
 11
3.5241666667
 21
0.71
 31
0.0
  0
LINE
  5
3D4
  8
0
  6
CONTINUOUS
 62
     7
 10
3.5241666667
 20
0.71
 30
0.0
 11
4.2441666667
 21
0.71
 31
0.0
  0
LINE
  5
3D5
  8
0
  6
CONTINUOUS
 62
     7
 10
4.2441666667
 20
-4.29
 30
0.0
 11
4.2441666667
 21
-0.71
 31
0.0
  0
LINE
  5
3D6
  8
0
  6
CONTINUOUS
 62
     7
 10
4.2441666667
 20
-0.71
 30
0.0
 11
3.5241666667
 21
-0.71
 31
0.0
  0
LINE
  5
3D7
  8
0
  6
CONTINUOUS
 62
     7
 10
3.5241666667
 20
-0.71
 30
0.0
 11
3.5241666667
 21
-4.29
 31
0.0
  0
LINE
  5
3D8
  8
0
  6
CONTINUOUS
 62
     7
 10
3.5241666667
 20
-4.29
 30
0.0
 11
4.2441666667
 21
-4.29
 31
0.0
  0
LINE
  5
3D9
  8
0
  6
CONTINUOUS
 62
     7
 10
9.5441666667
 20
-9.29
 30
0.0
 11
9.5441666667
 21
-5.71
 31
0.0
  0
LINE
  5
3DA
  8
0
  6
CONTINUOUS
 62
     7
 10
9.5441666667
 20
-5.71
 30
0.0
 11
8.8241666667
 21
-5.71
 31
0.0
  0
LINE
  5
3DB
  8
0
  6
CONTINUOUS
 62
     7
 10
8.8241666667
 20
-5.71
 30
0.0
 11
8.8241666667
 21
-9.29
 31
0.0
  0
LINE
  5
3DC
  8
0
  6
CONTINUOUS
 62
     7
 10
8.8241666667
 20
-9.29
 30
0.0
 11
9.5441666667
 21
-9.29
 31
0.0
  0
LINE
  5
3DD
  8
0
  6
CONTINUOUS
 62
     7
 10
9.5441666667
 20
-4.29
 30
0.0
 11
9.5441666667
 21
-0.71
 31
0.0
  0
LINE
  5
3DE
  8
0
  6
CONTINUOUS
 62
     7
 10
9.5441666667
 20
-0.71
 30
0.0
 11
8.8241666667
 21
-0.71
 31
0.0
  0
LINE
  5
3DF
  8
0
  6
CONTINUOUS
 62
     7
 10
8.8241666667
 20
-0.71
 30
0.0
 11
8.8241666667
 21
-4.29
 31
0.0
  0
LINE
  5
3E0
  8
0
  6
CONTINUOUS
 62
     7
 10
8.8241666667
 20
-4.29
 30
0.0
 11
9.5441666667
 21
-4.29
 31
0.0
  0
LINE
  5
3E1
  8
0
  6
CONTINUOUS
 62
     7
 10
9.5441666667
 20
0.71
 30
0.0
 11
9.5441666667
 21
4.29
 31
0.0
  0
LINE
  5
3E2
  8
0
  6
CONTINUOUS
 62
     7
 10
9.5441666667
 20
4.29
 30
0.0
 11
8.8241666667
 21
4.29
 31
0.0
  0
LINE
  5
3E3
  8
0
  6
CONTINUOUS
 62
     7
 10
8.8241666667
 20
4.29
 30
0.0
 11
8.8241666667
 21
0.71
 31
0.0
  0
LINE
  5
3E4
  8
0
  6
CONTINUOUS
 62
     7
 10
8.8241666667
 20
0.71
 30
0.0
 11
9.5441666667
 21
0.71
 31
0.0
  0
LINE
  5
3E5
  8
0
  6
CONTINUOUS
 62
     7
 10
4.2441666667
 20
-9.29
 30
0.0
 11
4.2441666667
 21
-5.71
 31
0.0
  0
LINE
  5
3E6
  8
0
  6
CONTINUOUS
 62
     7
 10
4.2441666667
 20
-5.71
 30
0.0
 11
3.5241666667
 21
-5.71
 31
0.0
  0
LINE
  5
3E7
  8
0
  6
CONTINUOUS
 62
     7
 10
3.5241666667
 20
-5.71
 30
0.0
 11
3.5241666667
 21
-9.29
 31
0.0
  0
LINE
  5
3E8
  8
0
  6
CONTINUOUS
 62
     7
 10
3.5241666667
 20
-9.29
 30
0.0
 11
4.2441666667
 21
-9.29
 31
0.0
  0
LINE
  5
3E9
  8
0
  6
CONTINUOUS
 62
     7
 10
-9.1641666667
 20
5.71
 30
0.0
 11
-8.4441666667
 21
5.71
 31
0.0
  0
LINE
  5
3EA
  8
0
  6
CONTINUOUS
 62
     7
 10
-8.4441666667
 20
5.71
 30
0.0
 11
-8.4441666667
 21
9.29
 31
0.0
  0
LINE
  5
3EB
  8
0
  6
CONTINUOUS
 62
     7
 10
-8.4441666667
 20
9.29
 30
0.0
 11
-9.1641666667
 21
9.29
 31
0.0
  0
LINE
  5
3EC
  8
0
  6
CONTINUOUS
 62
     7
 10
-9.1641666667
 20
9.29
 30
0.0
 11
-9.1641666667
 21
5.71
 31
0.0
  0
LINE
  5
3ED
  8
0
  6
CONTINUOUS
 62
     7
 10
-3.8641666667
 20
0.71
 30
0.0
 11
-3.1441666667
 21
0.71
 31
0.0
  0
LINE
  5
3EE
  8
0
  6
CONTINUOUS
 62
     7
 10
-3.1441666667
 20
0.71
 30
0.0
 11
-3.1441666667
 21
4.29
 31
0.0
  0
LINE
  5
3EF
  8
0
  6
CONTINUOUS
 62
     7
 10
-3.1441666667
 20
4.29
 30
0.0
 11
-3.8641666667
 21
4.29
 31
0.0
  0
LINE
  5
3F0
  8
0
  6
CONTINUOUS
 62
     7
 10
-3.8641666667
 20
4.29
 30
0.0
 11
-3.8641666667
 21
0.71
 31
0.0
  0
LINE
  5
3F1
  8
0
  6
CONTINUOUS
 62
     7
 10
-3.8641666667
 20
-4.29
 30
0.0
 11
-3.1441666667
 21
-4.29
 31
0.0
  0
LINE
  5
3F2
  8
0
  6
CONTINUOUS
 62
     7
 10
-3.1441666667
 20
-4.29
 30
0.0
 11
-3.1441666667
 21
-0.71
 31
0.0
  0
LINE
  5
3F3
  8
0
  6
CONTINUOUS
 62
     7
 10
-3.1441666667
 20
-0.71
 30
0.0
 11
-3.8641666667
 21
-0.71
 31
0.0
  0
LINE
  5
3F4
  8
0
  6
CONTINUOUS
 62
     7
 10
-3.8641666667
 20
-0.71
 30
0.0
 11
-3.8641666667
 21
-4.29
 31
0.0
  0
LINE
  5
3F5
  8
0
  6
CONTINUOUS
 62
     7
 10
-9.1641666667
 20
-9.29
 30
0.0
 11
-8.4441666667
 21
-9.29
 31
0.0
  0
LINE
  5
3F6
  8
0
  6
CONTINUOUS
 62
     7
 10
-8.4441666667
 20
-9.29
 30
0.0
 11
-8.4441666667
 21
-5.71
 31
0.0
  0
LINE
  5
3F7
  8
0
  6
CONTINUOUS
 62
     7
 10
-8.4441666667
 20
-5.71
 30
0.0
 11
-9.1641666667
 21
-5.71
 31
0.0
  0
LINE
  5
3F8
  8
0
  6
CONTINUOUS
 62
     7
 10
-9.1641666667
 20
-5.71
 30
0.0
 11
-9.1641666667
 21
-9.29
 31
0.0
  0
LINE
  5
3F9
  8
0
  6
CONTINUOUS
 62
     7
 10
-9.1641666667
 20
-4.29
 30
0.0
 11
-8.4441666667
 21
-4.29
 31
0.0
  0
LINE
  5
3FA
  8
0
  6
CONTINUOUS
 62
     7
 10
-8.4441666667
 20
-4.29
 30
0.0
 11
-8.4441666667
 21
-0.71
 31
0.0
  0
LINE
  5
3FB
  8
0
  6
CONTINUOUS
 62
     7
 10
-8.4441666667
 20
-0.71
 30
0.0
 11
-9.1641666667
 21
-0.71
 31
0.0
  0
LINE
  5
3FC
  8
0
  6
CONTINUOUS
 62
     7
 10
-9.1641666667
 20
-0.71
 30
0.0
 11
-9.1641666667
 21
-4.29
 31
0.0
  0
LINE
  5
3FD
  8
0
  6
CONTINUOUS
 62
     7
 10
-9.1641666667
 20
0.71
 30
0.0
 11
-8.4441666667
 21
0.71
 31
0.0
  0
LINE
  5
3FE
  8
0
  6
CONTINUOUS
 62
     7
 10
-8.4441666667
 20
0.71
 30
0.0
 11
-8.4441666667
 21
4.29
 31
0.0
  0
LINE
  5
3FF
  8
0
  6
CONTINUOUS
 62
     7
 10
-8.4441666667
 20
4.29
 30
0.0
 11
-9.1641666667
 21
4.29
 31
0.0
  0
LINE
  5
400
  8
0
  6
CONTINUOUS
 62
     7
 10
-9.1641666667
 20
4.29
 30
0.0
 11
-9.1641666667
 21
0.71
 31
0.0
  0
LINE
  5
401
  8
0
  6
CONTINUOUS
 62
     7
 10
-3.8641666667
 20
-9.29
 30
0.0
 11
-3.1441666667
 21
-9.29
 31
0.0
  0
LINE
  5
402
  8
0
  6
CONTINUOUS
 62
     7
 10
-3.1441666667
 20
-9.29
 30
0.0
 11
-3.1441666667
 21
-5.71
 31
0.0
  0
LINE
  5
403
  8
0
  6
CONTINUOUS
 62
     7
 10
-3.1441666667
 20
-5.71
 30
0.0
 11
-3.8641666667
 21
-5.71
 31
0.0
  0
LINE
  5
404
  8
0
  6
CONTINUOUS
 62
     7
 10
-3.8641666667
 20
-5.71
 30
0.0
 11
-3.8641666667
 21
-9.29
 31
0.0
  0
ARC
  5
405
  8
0
  6
CONTINUOUS
 62
     7
 10
13.17
 20
10.66
 30
0.0
 40
0.0999999999999996
 50
0.0
 51
90.0
  0
ARC
  5
406
  8
0
  6
CONTINUOUS
 62
     7
 10
13.37
 20
8.7194677838
 30
0.0
 40
0.0999999999999983
 50
180.0
 51
257.9753008194
  0
ARC
  5
407
  8
0
  6
CONTINUOUS
 62
     7
 10
13.27
 20
8.25
 30
0.0
 40
0.3800000000000011
 50
282.0246991806
 51
77.9753008194
  0
ARC
  5
408
  8
0
  6
CONTINUOUS
 62
     7
 10
13.37
 20
7.7805322162
 30
0.0
 40
0.0999999999999996
 50
102.0246991806
 51
180.0
  0
ARC
  5
409
  8
0
  6
CONTINUOUS
 62
     7
 10
13.17
 20
0.4694677838
 30
0.0
 40
0.0999999999999997
 50
282.0246991806
 51
0.0
  0
ARC
  5
40A
  8
0
  6
CONTINUOUS
 62
     7
 10
13.27
 20
0.0
 30
0.0
 40
0.3799999999999999
 50
102.0246991806
 51
257.9753008194
  0
ARC
  5
40B
  8
0
  6
CONTINUOUS
 62
     7
 10
13.17
 20
-0.4694677838
 30
0.0
 40
0.1000000000000014
 50
0.0
 51
77.9753008194
  0
ARC
  5
40C
  8
0
  6
CONTINUOUS
 62
     7
 10
13.37
 20
-7.7805322162
 30
0.0
 40
0.0999999999999979
 50
180.0
 51
257.9753008194
  0
ARC
  5
40D
  8
0
  6
CONTINUOUS
 62
     7
 10
13.27
 20
-8.25
 30
0.0
 40
0.3800000000000002
 50
282.0246991806
 51
77.9753008194
  0
ARC
  5
40E
  8
0
  6
CONTINUOUS
 62
     7
 10
13.37
 20
-8.7194677838
 30
0.0
 40
0.1000000000000014
 50
102.0246991806
 51
180.0
  0
ARC
  5
40F
  8
0
  6
CONTINUOUS
 62
     7
 10
13.17
 20
-10.66
 30
0.0
 40
0.1000000000000014
 50
270.0
 51
0.0
  0
ARC
  5
410
  8
0
  6
CONTINUOUS
 62
     7
 10
-13.17
 20
-10.66
 30
0.0
 40
0.1000000000000032
 50
180.0
 51
270.0
  0
ARC
  5
411
  8
0
  6
CONTINUOUS
 62
     7
 10
-13.17
 20
10.66
 30
0.0
 40
0.0999999999999961
 50
90.0
 51
180.0
  0
ENDSEC
  0
EOF
