  0
SECTION
  2
HEADER
  9
$ACADVER
  1
AC1009
  9
$DWGCODEPAGE
  3
ansi_1252
  9
$INSBASE
 10
0.0
 20
0.0
 30
0.0
  9
$EXTMIN
 10
-10.34375
 20
-8.7259
 30
0.0
  9
$EXTMAX
 10
10.34375
 20
8.7259
 30
0.0
  9
$LIMMIN
 10
0.0
 20
0.0
  9
$LIMMAX
 10
12.0
 20
9.0
  9
$ORTHOMODE
 70
     0
  9
$REGENMODE
 70
     1
  9
$FILLMODE
 70
     1
  9
$QTEXTMODE
 70
     0
  9
$MIRRTEXT
 70
     1
  9
$DRAGMODE
 70
     2
  9
$LTSCALE
 40
1.0
  9
$OSMODE
 70
    37
  9
$ATTMODE
 70
     1
  9
$TEXTSIZE
 40
0.1377952756
  9
$TRACEWID
 40
0.05
  9
$TEXTSTYLE
  7
STANDARD
  9
$CLAYER
  8
0
  9
$CELTYPE
  6
BYLAYER
  9
$CECOLOR
 62
   256
  9
$DIMSCALE
 40
1.0
  9
$DIMASZ
 40
0.13
  9
$DIMEXO
 40
0.0393700787
  9
$DIMDLI
 40
0.38
  9
$DIMRND
 40
0.0
  9
$DIMDLE
 40
0.0
  9
$DIMEXE
 40
0.0393700787
  9
$DIMTP
 40
0.0
  9
$DIMTM
 40
0.0
  9
$DIMTXT
 40
0.1377952756
  9
$DIMCEN
 40
0.09
  9
$DIMTSZ
 40
0.0
  9
$DIMTOL
 70
     0
  9
$DIMLIM
 70
     0
  9
$DIMTIH
 70
     1
  9
$DIMTOH
 70
     1
  9
$DIMSE1
 70
     0
  9
$DIMSE2
 70
     0
  9
$DIMTAD
 70
     1
  9
$DIMZIN
 70
     0
  9
$DIMBLK
  1

  9
$DIMASO
 70
     1
  9
$DIMSHO
 70
     1
  9
$DIMPOST
  1

  9
$DIMAPOST
  1

  9
$DIMALT
 70
     0
  9
$DIMALTD
 70
     2
  9
$DIMALTF
 40
25.4
  9
$DIMLFAC
 40
1.0
  9
$DIMTOFL
 70
     0
  9
$DIMTVP
 40
0.0
  9
$DIMTIX
 70
     0
  9
$DIMSOXD
 70
     0
  9
$DIMSAH
 70
     0
  9
$DIMBLK1
  1

  9
$DIMBLK2
  1

  9
$DIMSTYLE
  2
STANDARD
  9
$DIMCLRD
 70
     0
  9
$DIMCLRE
 70
     0
  9
$DIMCLRT
 70
     0
  9
$DIMTFAC
 40
1.0
  9
$DIMGAP
 40
0.06
  9
$LUNITS
 70
     2
  9
$LUPREC
 70
     2
  9
$SKETCHINC
 40
0.1
  9
$FILLETRAD
 40
0.5
  9
$AUNITS
 70
     0
  9
$AUPREC
 70
     2
  9
$MENU
  1
.
  9
$ELEVATION
 40
0.0
  9
$PELEVATION
 40
0.0
  9
$THICKNESS
 40
0.0
  9
$LIMCHECK
 70
     0
  9
$CHAMFERA
 40
0.0
  9
$CHAMFERB
 40
0.0
  9
$SKPOLY
 70
     0
  9
$TDCREATE
 40
2457931.686547697
  9
$TDUPDATE
 40
2457931.686583461
  9
$TDINDWG
 40
0.0000000116
  9
$TDUSRTIMER
 40
0.0000000116
  9
$USRTIMER
 70
     1
  9
$ANGBASE
 50
0.0
  9
$ANGDIR
 70
     0
  9
$PDMODE
 70
     0
  9
$PDSIZE
 40
-1.0
  9
$PLINEWID
 40
0.0
  9
$COORDS
 70
     1
  9
$SPLFRAME
 70
     0
  9
$SPLINETYPE
 70
     6
  9
$SPLINESEGS
 70
     8
  9
$ATTDIA
 70
     0
  9
$ATTREQ
 70
     1
  9
$HANDLING
 70
     1
  9
$HANDSEED
  5
314
  9
$SURFTAB1
 70
     6
  9
$SURFTAB2
 70
     6
  9
$SURFTYPE
 70
     6
  9
$SURFU
 70
     6
  9
$SURFV
 70
     6
  9
$UCSNAME
  2

  9
$UCSORG
 10
0.0
 20
0.0
 30
0.0
  9
$UCSXDIR
 10
1.0
 20
0.0
 30
0.0
  9
$UCSYDIR
 10
0.0
 20
1.0
 30
0.0
  9
$PUCSNAME
  2

  9
$PUCSORG
 10
0.0
 20
0.0
 30
0.0
  9
$PUCSXDIR
 10
1.0
 20
0.0
 30
0.0
  9
$PUCSYDIR
 10
0.0
 20
1.0
 30
0.0
  9
$USERI1
 70
     0
  9
$USERI2
 70
     0
  9
$USERI3
 70
     0
  9
$USERI4
 70
     0
  9
$USERI5
 70
     0
  9
$USERR1
 40
0.0
  9
$USERR2
 40
0.0
  9
$USERR3
 40
0.0
  9
$USERR4
 40
0.0
  9
$USERR5
 40
0.0
  9
$WORLDVIEW
 70
     1
  9
$SHADEDGE
 70
     3
  9
$SHADEDIF
 70
    70
  9
$TILEMODE
 70
     1
  9
$MAXACTVP
 70
    64
  9
$PLIMCHECK
 70
     0
  9
$PEXTMIN
 10
1.0000000000E+20
 20
1.0000000000E+20
 30
1.0000000000E+20
  9
$PEXTMAX
 10
-1.0000000000E+20
 20
-1.0000000000E+20
 30
-1.0000000000E+20
  9
$PLIMMIN
 10
0.0
 20
0.0
  9
$PLIMMAX
 10
12.0
 20
9.0
  9
$UNITMODE
 70
     0
  9
$VISRETAIN
 70
     1
  9
$PLINEGEN
 70
     0
  9
$PSLTSCALE
 70
     1
  0
ENDSEC
  0
SECTION
  2
TABLES
  0
TABLE
  2
VPORT
 70
     1
  0
VPORT
  2
*ACTIVE
 70
     0
 10
0.0
 20
0.0
 11
1.0
 21
1.0
 12
0.0
 22
0.0
 13
0.0
 23
0.0
 14
0.5
 24
0.5
 15
0.5
 25
0.5
 16
0.0
 26
0.0
 36
1.0
 17
0.0
 27
0.0
 37
0.0
 40
17.800836
 41
1.1854078089
 42
50.0
 43
0.0
 44
0.0
 50
0.0
 51
0.0
 71
     0
 72
   100
 73
     1
 74
     3
 75
     0
 76
     0
 77
     0
 78
     0
  0
ENDTAB
  0
TABLE
  2
LTYPE
 70
     6
  0
LTYPE
  2
CONTINUOUS
 70
     0
  3
Solid line
 72
    65
 73
     0
 40
0.0
  0
LTYPE
  2
HIDDEN
 70
     0
  3
Hidden __ __ __ __ __ __ __ __ __ __ __ __ __ __
 72
    65
 73
     2
 40
0.075
 49
0.05
 49
-0.025
  0
LTYPE
  2
PHANTOM
 70
     0
  3
Phantom ______  __  __  ______  __  __  ______
 72
    65
 73
     6
 40
0.5
 49
0.25
 49
-0.05
 49
0.05
 49
-0.05
 49
0.05
 49
-0.05
  0
LTYPE
  2
CENTER
 70
     0
  3
Center ____ _ ____ _ ____ _ ____ _ ____ _ ____
 72
    65
 73
     4
 40
0.4
 49
0.25
 49
-0.05
 49
0.05
 49
-0.05
  0
LTYPE
  2
CENTERX2
 70
     0
  3
Center (2x) ________  __  ________  __  _____
 72
    65
 73
     4
 40
0.8
 49
0.5
 49
-0.1
 49
0.1
 49
-0.1
  0
LTYPE
  2
DOT2
 70
     0
  3
Dot (.5x) ........................................
 72
    65
 73
     2
 40
0.025
 49
0.0
 49
-0.025
  0
ENDTAB
  0
TABLE
  2
LAYER
 70
     1
  0
LAYER
  2
0
 70
     0
 62
     7
  6
CONTINUOUS
  0
ENDTAB
  0
TABLE
  2
STYLE
 70
     1
  0
STYLE
  2
STANDARD
 70
     0
 40
0.0
 41
1.0
 50
0.0
 71
     0
 42
0.1377952756
  3
txt
  4

  0
ENDTAB
  0
TABLE
  2
VIEW
 70
     0
  0
ENDTAB
  0
TABLE
  2
UCS
 70
     0
  0
ENDTAB
  0
TABLE
  2
APPID
 70
     1
  0
APPID
  2
ACAD
 70
     0
  0
ENDTAB
  0
TABLE
  2
DIMSTYLE
 70
     1
  0
DIMSTYLE
  2
STANDARD
 70
     0
  3

  4

  5

  6

  7

 40
1.0
 41
0.18
 42
0.0625
 43
0.38
 44
0.18
 45
0.0
 46
0.0
 47
0.0
 48
0.0
140
0.18
141
0.09
142
0.0
143
25.4
144
1.0
145
0.0
146
1.0
147
0.09
 71
     0
 72
     0
 73
     1
 74
     1
 75
     0
 76
     0
 77
     0
 78
     0
170
     0
171
     2
172
     0
173
     0
174
     0
175
     0
176
     0
177
     0
178
     0
  0
ENDTAB
  0
ENDSEC
  0
SECTION
  2
BLOCKS
  0
BLOCK
  8
0
  2
$MODEL_SPACE
 70
     0
 10
0.0
 20
0.0
 30
0.0
  3
$MODEL_SPACE
  1

  0
ENDBLK
  5
21
  8
0
  0
BLOCK
 67
     1
  8
0
  2
$PAPER_SPACE
 70
     0
 10
0.0
 20
0.0
 30
0.0
  3
$PAPER_SPACE
  1

  0
ENDBLK
  5
1D
 67
     1
  8
0
  0
ENDSEC
  0
SECTION
  2
ENTITIES
  0
CIRCLE
  5
7B
  8
0
  6
CONTINUOUS
 62
     7
 10
0.0
 20
0.0
 30
0.0
 40
0.2999999999999999
  0
CIRCLE
  5
7C
  8
0
  6
CONTINUOUS
 62
     7
 10
-8.4
 20
-2.1693335
 30
0.0
 40
0.1140000000000017
  0
CIRCLE
  5
7D
  8
0
  6
CONTINUOUS
 62
     7
 10
8.4
 20
-2.1693335
 30
0.0
 40
0.1139999999999981
  0
CIRCLE
  5
7E
  8
0
  6
CONTINUOUS
 62
     7
 10
8.4
 20
2.1693335
 30
0.0
 40
0.1139999999999985
  0
CIRCLE
  5
7F
  8
0
  6
CONTINUOUS
 62
     7
 10
-8.4
 20
2.1693335
 30
0.0
 40
0.1140000000000021
  0
CIRCLE
  5
84
  8
0
  6
CONTINUOUS
 62
     7
 10
-3.97405
 20
-4.4302
 30
0.0
 40
0.0719999999999992
  0
CIRCLE
  5
89
  8
0
  6
CONTINUOUS
 62
     7
 10
-2.83855
 20
8.5049
 30
0.0
 40
0.072000000000001
  0
CIRCLE
  5
92
  8
0
  6
CONTINUOUS
 62
     7
 10
-5.10945
 20
-4.4302
 30
0.0
 40
0.0719999999999992
  0
CIRCLE
  5
9B
  8
0
  6
CONTINUOUS
 62
     7
 10
-3.97405
 20
8.4699
 30
0.0
 40
0.0719999999999992
  0
CIRCLE
  5
A0
  8
0
  6
CONTINUOUS
 62
     7
 10
-0.56785
 20
8.4699
 30
0.0
 40
0.0719999999999992
  0
CIRCLE
  5
A1
  8
0
  6
CONTINUOUS
 62
     7
 10
-0.56785
 20
-4.4302
 30
0.0
 40
0.0719999999999992
  0
CIRCLE
  5
AE
  8
0
  6
CONTINUOUS
 62
     7
 10
-1.70325
 20
8.4699
 30
0.0
 40
0.0719999999999992
  0
CIRCLE
  5
AF
  8
0
  6
CONTINUOUS
 62
     7
 10
-1.70325
 20
-4.4302
 30
0.0
 40
0.0719999999999992
  0
CIRCLE
  5
BC
  8
0
  6
CONTINUOUS
 62
     7
 10
-8.51565
 20
8.4699
 30
0.0
 40
0.0719999999999992
  0
CIRCLE
  5
BD
  8
0
  6
CONTINUOUS
 62
     7
 10
-8.51565
 20
-4.4302
 30
0.0
 40
0.0719999999999965
  0
CIRCLE
  5
C2
  8
0
  6
CONTINUOUS
 62
     7
 10
-9.65105
 20
8.4699
 30
0.0
 40
0.0719999999999974
  0
CIRCLE
  5
C3
  8
0
  6
CONTINUOUS
 62
     7
 10
-9.65105
 20
-4.4302
 30
0.0
 40
0.0719999999999992
  0
CIRCLE
  5
D0
  8
0
  6
CONTINUOUS
 62
     7
 10
-5.10945
 20
8.4699
 30
0.0
 40
0.0719999999999992
  0
CIRCLE
  5
D1
  8
0
  6
CONTINUOUS
 62
     7
 10
-6.24485
 20
-4.4302
 30
0.0
 40
0.0719999999999992
  0
CIRCLE
  5
D2
  8
0
  6
CONTINUOUS
 62
     7
 10
-6.24485
 20
8.4699
 30
0.0
 40
0.0719999999999992
  0
CIRCLE
  5
DF
  8
0
  6
CONTINUOUS
 62
     7
 10
-7.3802166667
 20
8.5049
 30
0.0
 40
0.072000000000001
  0
CIRCLE
  5
EC
  8
0
  6
CONTINUOUS
 62
     7
 10
8.51535
 20
8.4699
 30
0.0
 40
0.0719999999999992
  0
CIRCLE
  5
ED
  8
0
  6
CONTINUOUS
 62
     7
 10
8.51535
 20
-4.4302
 30
0.0
 40
0.072000000000001
  0
CIRCLE
  5
F2
  8
0
  6
CONTINUOUS
 62
     7
 10
6.24455
 20
8.4699
 30
0.0
 40
0.0719999999999992
  0
CIRCLE
  5
F3
  8
0
  6
CONTINUOUS
 62
     7
 10
6.24455
 20
-4.4302
 30
0.0
 40
0.0719999999999992
  0
CIRCLE
  5
F4
  8
0
  6
CONTINUOUS
 62
     7
 10
-7.3802166667
 20
-4.4011
 30
0.0
 40
0.0719999999999992
  0
CIRCLE
  5
F5
  8
0
  6
CONTINUOUS
 62
     7
 10
9.65075
 20
-4.4302
 30
0.0
 40
0.0719999999999974
  0
CIRCLE
  5
F6
  8
0
  6
CONTINUOUS
 62
     7
 10
9.65075
 20
8.4699
 30
0.0
 40
0.0720000000000027
  0
CIRCLE
  5
FF
  8
0
  6
CONTINUOUS
 62
     7
 10
7.3802
 20
-4.4011
 30
0.0
 40
0.0719999999999992
  0
CIRCLE
  5
104
  8
0
  6
CONTINUOUS
 62
     7
 10
2.8385333333
 20
-4.4011
 30
0.0
 40
0.0719999999999992
  0
CIRCLE
  5
109
  8
0
  6
CONTINUOUS
 62
     7
 10
-2.83855
 20
-4.4011
 30
0.0
 40
0.0719999999999992
  0
CIRCLE
  5
10A
  8
0
  6
CONTINUOUS
 62
     7
 10
7.3802
 20
8.5049
 30
0.0
 40
0.072000000000001
  0
CIRCLE
  5
10F
  8
0
  6
CONTINUOUS
 62
     7
 10
2.8385333333
 20
8.5049
 30
0.0
 40
0.072000000000001
  0
CIRCLE
  5
110
  8
0
  6
CONTINUOUS
 62
     7
 10
1.70295
 20
-4.4302
 30
0.0
 40
0.0719999999999992
  0
CIRCLE
  5
111
  8
0
  6
CONTINUOUS
 62
     7
 10
1.70295
 20
8.4699
 30
0.0
 40
0.0719999999999992
  0
CIRCLE
  5
11A
  8
0
  6
CONTINUOUS
 62
     7
 10
0.56755
 20
-4.4302
 30
0.0
 40
0.0719999999999992
  0
CIRCLE
  5
11B
  8
0
  6
CONTINUOUS
 62
     7
 10
0.56755
 20
8.4699
 30
0.0
 40
0.0719999999999992
  0
CIRCLE
  5
11C
  8
0
  6
CONTINUOUS
 62
     7
 10
3.97375
 20
-4.4302
 30
0.0
 40
0.0719999999999992
  0
CIRCLE
  5
11D
  8
0
  6
CONTINUOUS
 62
     7
 10
3.97375
 20
8.4699
 30
0.0
 40
0.0719999999999992
  0
CIRCLE
  5
12A
  8
0
  6
CONTINUOUS
 62
     7
 10
5.10915
 20
-4.4302
 30
0.0
 40
0.0719999999999992
  0
CIRCLE
  5
12B
  8
0
  6
CONTINUOUS
 62
     7
 10
5.10915
 20
8.4699
 30
0.0
 40
0.0719999999999992
  0
CIRCLE
  5
138
  8
0
  6
CONTINUOUS
 62
     7
 10
-9.37185
 20
-0.1341
 30
0.0
 40
0.0720000000000011
  0
CIRCLE
  5
13D
  8
0
  6
CONTINUOUS
 62
     7
 10
9.37185
 20
-0.1341
 30
0.0
 40
0.0719999999999987
  0
CIRCLE
  5
142
  8
0
  6
CONTINUOUS
 62
     7
 10
9.37185
 20
4.1679
 30
0.0
 40
0.0719999999999992
  0
CIRCLE
  5
147
  8
0
  6
CONTINUOUS
 62
     7
 10
-9.37185
 20
4.1679
 30
0.0
 40
0.0719999999999965
  0
CIRCLE
  5
14C
  8
0
  6
CONTINUOUS
 62
     7
 10
3.628125
 20
4.1679
 30
0.0
 40
0.0719999999999992
  0
CIRCLE
  5
151
  8
0
  6
CONTINUOUS
 62
     7
 10
4.6625
 20
4.1679
 30
0.0
 40
0.0719999999999992
  0
CIRCLE
  5
156
  8
0
  6
CONTINUOUS
 62
     7
 10
1.559375
 20
4.1679
 30
0.0
 40
0.0719999999999992
  0
CIRCLE
  5
15B
  8
0
  6
CONTINUOUS
 62
     7
 10
2.59375
 20
4.1679
 30
0.0
 40
0.0719999999999992
  0
CIRCLE
  5
160
  8
0
  6
CONTINUOUS
 62
     7
 10
7.765625
 20
4.1679
 30
0.0
 40
0.0719999999999983
  0
CIRCLE
  5
165
  8
0
  6
CONTINUOUS
 62
     7
 10
-6.715625
 20
-0.1341
 30
0.0
 40
0.0719999999999994
  0
CIRCLE
  5
16A
  8
0
  6
CONTINUOUS
 62
     7
 10
5.696875
 20
4.1679
 30
0.0
 40
0.0719999999999983
  0
CIRCLE
  5
16F
  8
0
  6
CONTINUOUS
 62
     7
 10
6.73125
 20
4.1679
 30
0.0
 40
0.0719999999999992
  0
CIRCLE
  5
174
  8
0
  6
CONTINUOUS
 62
     7
 10
-6.715625
 20
4.1679
 30
0.0
 40
0.0719999999999983
  0
CIRCLE
  5
179
  8
0
  6
CONTINUOUS
 62
     7
 10
-5.68125
 20
4.1679
 30
0.0
 40
0.0719999999999983
  0
CIRCLE
  5
186
  8
0
  6
CONTINUOUS
 62
     7
 10
-7.75
 20
4.1679
 30
0.0
 40
0.0719999999999983
  0
CIRCLE
  5
187
  8
0
  6
CONTINUOUS
 62
     7
 10
-2.578125
 20
4.1679
 30
0.0
 40
0.0719999999999992
  0
CIRCLE
  5
18C
  8
0
  6
CONTINUOUS
 62
     7
 10
-1.54375
 20
4.1679
 30
0.0
 40
0.0719999999999992
  0
CIRCLE
  5
191
  8
0
  6
CONTINUOUS
 62
     7
 10
-4.646875
 20
4.1679
 30
0.0
 40
0.0719999999999992
  0
CIRCLE
  5
196
  8
0
  6
CONTINUOUS
 62
     7
 10
-3.6125
 20
4.1679
 30
0.0
 40
0.0719999999999992
  0
CIRCLE
  5
19B
  8
0
  6
CONTINUOUS
 62
     7
 10
5.696875
 20
-0.1341
 30
0.0
 40
0.0720000000000005
  0
CIRCLE
  5
1A0
  8
0
  6
CONTINUOUS
 62
     7
 10
6.73125
 20
-0.1341
 30
0.0
 40
0.0719999999999997
  0
CIRCLE
  5
1A5
  8
0
  6
CONTINUOUS
 62
     7
 10
3.628125
 20
-0.1341
 30
0.0
 40
0.0719999999999996
  0
CIRCLE
  5
1AA
  8
0
  6
CONTINUOUS
 62
     7
 10
4.6625
 20
-0.1341
 30
0.0
 40
0.0719999999999992
  0
CIRCLE
  5
1AF
  8
0
  6
CONTINUOUS
 62
     7
 10
0.55
 20
-0.2471
 30
0.0
 40
0.0719999999999991
  0
CIRCLE
  5
1B4
  8
0
  6
CONTINUOUS
 62
     7
 10
-0.55
 20
-0.2471
 30
0.0
 40
0.0719999999999992
  0
CIRCLE
  5
1B9
  8
0
  6
CONTINUOUS
 62
     7
 10
7.765625
 20
-0.1341
 30
0.0
 40
0.0719999999999997
  0
CIRCLE
  5
1BE
  8
0
  6
CONTINUOUS
 62
     7
 10
-7.75
 20
-0.1341
 30
0.0
 40
0.071999999999999
  0
CIRCLE
  5
1BF
  8
0
  6
CONTINUOUS
 62
     7
 10
0.55
 20
4.3529
 30
0.0
 40
0.0719999999999992
  0
CIRCLE
  5
1C0
  8
0
  6
CONTINUOUS
 62
     7
 10
-3.6125
 20
-0.1341
 30
0.0
 40
0.0719999999999992
  0
CIRCLE
  5
1C5
  8
0
  6
CONTINUOUS
 62
     7
 10
-2.578125
 20
-0.1341
 30
0.0
 40
0.0719999999999992
  0
CIRCLE
  5
1CA
  8
0
  6
CONTINUOUS
 62
     7
 10
-5.68125
 20
-0.1341
 30
0.0
 40
0.0719999999999998
  0
CIRCLE
  5
1CF
  8
0
  6
CONTINUOUS
 62
     7
 10
-4.646875
 20
-0.1341
 30
0.0
 40
0.0719999999999992
  0
CIRCLE
  5
1D4
  8
0
  6
CONTINUOUS
 62
     7
 10
1.559375
 20
-0.1341
 30
0.0
 40
0.0719999999999994
  0
CIRCLE
  5
1D9
  8
0
  6
CONTINUOUS
 62
     7
 10
2.59375
 20
-0.1341
 30
0.0
 40
0.0719999999999992
  0
CIRCLE
  5
1E6
  8
0
  6
CONTINUOUS
 62
     7
 10
-0.55
 20
4.3529
 30
0.0
 40
0.0719999999999992
  0
CIRCLE
  5
1E7
  8
0
  6
CONTINUOUS
 62
     7
 10
-1.54375
 20
-0.1341
 30
0.0
 40
0.0719999999999994
  0
CIRCLE
  5
1E8
  8
0
  6
CONTINUOUS
 62
     7
 10
0.55
 20
0.0
 30
0.0
 40
0.0479999999999995
  0
CIRCLE
  5
1E9
  8
0
  6
CONTINUOUS
 62
     7
 10
-0.55
 20
0.0
 30
0.0
 40
0.0479999999999995
  0
CIRCLE
  5
1EA
  8
0
  6
CONTINUOUS
 62
     7
 10
0.0
 20
-0.55
 30
0.0
 40
0.0479999999999996
  0
CIRCLE
  5
1EB
  8
0
  6
CONTINUOUS
 62
     7
 10
0.0
 20
0.55
 30
0.0
 40
0.0479999999999996
  0
LINE
  5
1EC
  8
0
  6
CONTINUOUS
 62
     7
 10
10.34375
 20
-8.6259
 30
0.0
 11
10.34375
 21
8.6259
 31
0.0
  0
LINE
  5
1ED
  8
0
  6
CONTINUOUS
 62
     7
 10
-10.24375
 20
-8.7259
 30
0.0
 11
10.24375
 21
-8.7259
 31
0.0
  0
LINE
  5
1EE
  8
0
  6
CONTINUOUS
 62
     7
 10
-10.34375
 20
8.6259
 30
0.0
 11
-10.34375
 21
-8.6259
 31
0.0
  0
LINE
  5
1EF
  8
0
  6
CONTINUOUS
 62
     7
 10
10.24375
 20
8.7259
 30
0.0
 11
-10.24375
 21
8.7259
 31
0.0
  0
LINE
  5
1F0
  8
0
  6
CONTINUOUS
 62
     7
 10
-10.01105
 20
8.2399
 30
0.0
 11
-10.01105
 21
4.6599
 31
0.0
  0
LINE
  5
1F1
  8
0
  6
CONTINUOUS
 62
     7
 10
-10.01105
 20
4.6599
 30
0.0
 11
-9.29105
 21
4.6599
 31
0.0
  0
LINE
  5
1F2
  8
0
  6
CONTINUOUS
 62
     7
 10
-9.29105
 20
4.6599
 30
0.0
 11
-9.29105
 21
8.2399
 31
0.0
  0
LINE
  5
1F3
  8
0
  6
CONTINUOUS
 62
     7
 10
-9.29105
 20
8.2399
 30
0.0
 11
-10.01105
 21
8.2399
 31
0.0
  0
LINE
  5
1F4
  8
0
  6
CONTINUOUS
 62
     7
 10
-3.10355
 20
4.6249
 30
0.0
 11
-2.57355
 21
4.6249
 31
0.0
  0
LINE
  5
1F5
  8
0
  6
CONTINUOUS
 62
     7
 10
-2.57355
 20
8.2749
 30
0.0
 11
-3.10355
 21
8.2749
 31
0.0
  0
LINE
  5
1F6
  8
0
  6
CONTINUOUS
 62
     7
 10
2.5735333333
 20
4.6249
 30
0.0
 11
3.1035333333
 21
4.6249
 31
0.0
  0
LINE
  5
1F7
  8
0
  6
CONTINUOUS
 62
     7
 10
3.1035333333
 20
8.2749
 30
0.0
 11
2.5735333333
 21
8.2749
 31
0.0
  0
LINE
  5
1F8
  8
0
  6
CONTINUOUS
 62
     7
 10
-1.34325
 20
8.2399
 30
0.0
 11
-2.06325
 21
8.2399
 31
0.0
  0
LINE
  5
1F9
  8
0
  6
CONTINUOUS
 62
     7
 10
-2.06325
 20
8.2399
 30
0.0
 11
-2.06325
 21
4.6599
 31
0.0
  0
LINE
  5
1FA
  8
0
  6
CONTINUOUS
 62
     7
 10
-2.06325
 20
4.6599
 30
0.0
 11
-1.34325
 21
4.6599
 31
0.0
  0
LINE
  5
1FB
  8
0
  6
CONTINUOUS
 62
     7
 10
-1.34325
 20
4.6599
 30
0.0
 11
-1.34325
 21
8.2399
 31
0.0
  0
LINE
  5
1FC
  8
0
  6
CONTINUOUS
 62
     7
 10
-3.61405
 20
8.2399
 30
0.0
 11
-4.33405
 21
8.2399
 31
0.0
  0
LINE
  5
1FD
  8
0
  6
CONTINUOUS
 62
     7
 10
-4.33405
 20
8.2399
 30
0.0
 11
-4.33405
 21
4.6599
 31
0.0
  0
LINE
  5
1FE
  8
0
  6
CONTINUOUS
 62
     7
 10
-4.33405
 20
4.6599
 30
0.0
 11
-3.61405
 21
4.6599
 31
0.0
  0
LINE
  5
1FF
  8
0
  6
CONTINUOUS
 62
     7
 10
-3.61405
 20
4.6599
 30
0.0
 11
-3.61405
 21
8.2399
 31
0.0
  0
LINE
  5
200
  8
0
  6
CONTINUOUS
 62
     7
 10
-3.61405
 20
-4.6602
 30
0.0
 11
-4.33405
 21
-4.6602
 31
0.0
  0
LINE
  5
201
  8
0
  6
CONTINUOUS
 62
     7
 10
-4.33405
 20
-4.6602
 30
0.0
 11
-4.33405
 21
-8.2402
 31
0.0
  0
LINE
  5
202
  8
0
  6
CONTINUOUS
 62
     7
 10
-4.33405
 20
-8.2402
 30
0.0
 11
-3.61405
 21
-8.2402
 31
0.0
  0
LINE
  5
203
  8
0
  6
CONTINUOUS
 62
     7
 10
-3.61405
 20
-8.2402
 30
0.0
 11
-3.61405
 21
-4.6602
 31
0.0
  0
LINE
  5
204
  8
0
  6
CONTINUOUS
 62
     7
 10
-0.20785
 20
-4.6602
 30
0.0
 11
-0.92785
 21
-4.6602
 31
0.0
  0
LINE
  5
205
  8
0
  6
CONTINUOUS
 62
     7
 10
-0.92785
 20
-4.6602
 30
0.0
 11
-0.92785
 21
-8.2402
 31
0.0
  0
LINE
  5
206
  8
0
  6
CONTINUOUS
 62
     7
 10
-0.92785
 20
-8.2402
 30
0.0
 11
-0.20785
 21
-8.2402
 31
0.0
  0
LINE
  5
207
  8
0
  6
CONTINUOUS
 62
     7
 10
-0.20785
 20
-8.2402
 30
0.0
 11
-0.20785
 21
-4.6602
 31
0.0
  0
LINE
  5
208
  8
0
  6
CONTINUOUS
 62
     7
 10
0.92755
 20
8.2399
 30
0.0
 11
0.20755
 21
8.2399
 31
0.0
  0
LINE
  5
209
  8
0
  6
CONTINUOUS
 62
     7
 10
0.20755
 20
8.2399
 30
0.0
 11
0.20755
 21
4.6599
 31
0.0
  0
LINE
  5
20A
  8
0
  6
CONTINUOUS
 62
     7
 10
0.20755
 20
4.6599
 30
0.0
 11
0.92755
 21
4.6599
 31
0.0
  0
LINE
  5
20B
  8
0
  6
CONTINUOUS
 62
     7
 10
0.92755
 20
4.6599
 30
0.0
 11
0.92755
 21
8.2399
 31
0.0
  0
LINE
  5
20C
  8
0
  6
CONTINUOUS
 62
     7
 10
0.92755
 20
-4.6602
 30
0.0
 11
0.20755
 21
-4.6602
 31
0.0
  0
LINE
  5
20D
  8
0
  6
CONTINUOUS
 62
     7
 10
0.20755
 20
-4.6602
 30
0.0
 11
0.20755
 21
-8.2402
 31
0.0
  0
LINE
  5
20E
  8
0
  6
CONTINUOUS
 62
     7
 10
0.20755
 20
-8.2402
 30
0.0
 11
0.92755
 21
-8.2402
 31
0.0
  0
LINE
  5
20F
  8
0
  6
CONTINUOUS
 62
     7
 10
0.92755
 20
-8.2402
 30
0.0
 11
0.92755
 21
-4.6602
 31
0.0
  0
LINE
  5
210
  8
0
  6
CONTINUOUS
 62
     7
 10
-1.34325
 20
-4.6602
 30
0.0
 11
-2.06325
 21
-4.6602
 31
0.0
  0
LINE
  5
211
  8
0
  6
CONTINUOUS
 62
     7
 10
-2.06325
 20
-4.6602
 30
0.0
 11
-2.06325
 21
-8.2402
 31
0.0
  0
LINE
  5
212
  8
0
  6
CONTINUOUS
 62
     7
 10
-2.06325
 20
-8.2402
 30
0.0
 11
-1.34325
 21
-8.2402
 31
0.0
  0
LINE
  5
213
  8
0
  6
CONTINUOUS
 62
     7
 10
-1.34325
 20
-8.2402
 30
0.0
 11
-1.34325
 21
-4.6602
 31
0.0
  0
LINE
  5
214
  8
0
  6
CONTINUOUS
 62
     7
 10
-0.20785
 20
8.2399
 30
0.0
 11
-0.92785
 21
8.2399
 31
0.0
  0
LINE
  5
215
  8
0
  6
CONTINUOUS
 62
     7
 10
-0.92785
 20
8.2399
 30
0.0
 11
-0.92785
 21
4.6599
 31
0.0
  0
LINE
  5
216
  8
0
  6
CONTINUOUS
 62
     7
 10
-0.92785
 20
4.6599
 30
0.0
 11
-0.20785
 21
4.6599
 31
0.0
  0
LINE
  5
217
  8
0
  6
CONTINUOUS
 62
     7
 10
-0.20785
 20
4.6599
 30
0.0
 11
-0.20785
 21
8.2399
 31
0.0
  0
LINE
  5
218
  8
0
  6
CONTINUOUS
 62
     7
 10
-8.15565
 20
8.2399
 30
0.0
 11
-8.87565
 21
8.2399
 31
0.0
  0
LINE
  5
219
  8
0
  6
CONTINUOUS
 62
     7
 10
-8.87565
 20
8.2399
 30
0.0
 11
-8.87565
 21
4.6599
 31
0.0
  0
LINE
  5
21A
  8
0
  6
CONTINUOUS
 62
     7
 10
-8.87565
 20
4.6599
 30
0.0
 11
-8.15565
 21
4.6599
 31
0.0
  0
LINE
  5
21B
  8
0
  6
CONTINUOUS
 62
     7
 10
-8.15565
 20
4.6599
 30
0.0
 11
-8.15565
 21
8.2399
 31
0.0
  0
LINE
  5
21C
  8
0
  6
CONTINUOUS
 62
     7
 10
-8.15565
 20
-4.6602
 30
0.0
 11
-8.87565
 21
-4.6602
 31
0.0
  0
LINE
  5
21D
  8
0
  6
CONTINUOUS
 62
     7
 10
-8.87565
 20
-4.6602
 30
0.0
 11
-8.87565
 21
-8.2402
 31
0.0
  0
LINE
  5
21E
  8
0
  6
CONTINUOUS
 62
     7
 10
-8.87565
 20
-8.2402
 30
0.0
 11
-8.15565
 21
-8.2402
 31
0.0
  0
LINE
  5
21F
  8
0
  6
CONTINUOUS
 62
     7
 10
-8.15565
 20
-8.2402
 30
0.0
 11
-8.15565
 21
-4.6602
 31
0.0
  0
LINE
  5
220
  8
0
  6
CONTINUOUS
 62
     7
 10
-10.01105
 20
-4.6602
 30
0.0
 11
-10.01105
 21
-8.2402
 31
0.0
  0
LINE
  5
221
  8
0
  6
CONTINUOUS
 62
     7
 10
-10.01105
 20
-8.2402
 30
0.0
 11
-9.29105
 21
-8.2402
 31
0.0
  0
LINE
  5
222
  8
0
  6
CONTINUOUS
 62
     7
 10
-9.29105
 20
-8.2402
 30
0.0
 11
-9.29105
 21
-4.6602
 31
0.0
  0
LINE
  5
223
  8
0
  6
CONTINUOUS
 62
     7
 10
-9.29105
 20
-4.6602
 30
0.0
 11
-10.01105
 21
-4.6602
 31
0.0
  0
LINE
  5
224
  8
0
  6
CONTINUOUS
 62
     7
 10
-7.6452166667
 20
4.6249
 30
0.0
 11
-7.1152166667
 21
4.6249
 31
0.0
  0
LINE
  5
225
  8
0
  6
CONTINUOUS
 62
     7
 10
-7.1152166667
 20
8.2749
 30
0.0
 11
-7.6452166667
 21
8.2749
 31
0.0
  0
LINE
  5
226
  8
0
  6
CONTINUOUS
 62
     7
 10
-4.74945
 20
8.2399
 30
0.0
 11
-5.46945
 21
8.2399
 31
0.0
  0
LINE
  5
227
  8
0
  6
CONTINUOUS
 62
     7
 10
-5.46945
 20
8.2399
 30
0.0
 11
-5.46945
 21
4.6599
 31
0.0
  0
LINE
  5
228
  8
0
  6
CONTINUOUS
 62
     7
 10
-5.46945
 20
4.6599
 30
0.0
 11
-4.74945
 21
4.6599
 31
0.0
  0
LINE
  5
229
  8
0
  6
CONTINUOUS
 62
     7
 10
-4.74945
 20
4.6599
 30
0.0
 11
-4.74945
 21
8.2399
 31
0.0
  0
LINE
  5
22A
  8
0
  6
CONTINUOUS
 62
     7
 10
-4.74945
 20
-4.6602
 30
0.0
 11
-5.46945
 21
-4.6602
 31
0.0
  0
LINE
  5
22B
  8
0
  6
CONTINUOUS
 62
     7
 10
-5.46945
 20
-4.6602
 30
0.0
 11
-5.46945
 21
-8.2402
 31
0.0
  0
LINE
  5
22C
  8
0
  6
CONTINUOUS
 62
     7
 10
-5.46945
 20
-8.2402
 30
0.0
 11
-4.74945
 21
-8.2402
 31
0.0
  0
LINE
  5
22D
  8
0
  6
CONTINUOUS
 62
     7
 10
-4.74945
 20
-8.2402
 30
0.0
 11
-4.74945
 21
-4.6602
 31
0.0
  0
LINE
  5
22E
  8
0
  6
CONTINUOUS
 62
     7
 10
-5.88485
 20
-4.6602
 30
0.0
 11
-6.60485
 21
-4.6602
 31
0.0
  0
LINE
  5
22F
  8
0
  6
CONTINUOUS
 62
     7
 10
-6.60485
 20
-4.6602
 30
0.0
 11
-6.60485
 21
-8.2402
 31
0.0
  0
LINE
  5
230
  8
0
  6
CONTINUOUS
 62
     7
 10
-6.60485
 20
-8.2402
 30
0.0
 11
-5.88485
 21
-8.2402
 31
0.0
  0
LINE
  5
231
  8
0
  6
CONTINUOUS
 62
     7
 10
-5.88485
 20
-8.2402
 30
0.0
 11
-5.88485
 21
-4.6602
 31
0.0
  0
LINE
  5
232
  8
0
  6
CONTINUOUS
 62
     7
 10
-5.88485
 20
8.2399
 30
0.0
 11
-6.60485
 21
8.2399
 31
0.0
  0
LINE
  5
233
  8
0
  6
CONTINUOUS
 62
     7
 10
-6.60485
 20
8.2399
 30
0.0
 11
-6.60485
 21
4.6599
 31
0.0
  0
LINE
  5
234
  8
0
  6
CONTINUOUS
 62
     7
 10
-6.60485
 20
4.6599
 30
0.0
 11
-5.88485
 21
4.6599
 31
0.0
  0
LINE
  5
235
  8
0
  6
CONTINUOUS
 62
     7
 10
-5.88485
 20
4.6599
 30
0.0
 11
-5.88485
 21
8.2399
 31
0.0
  0
LINE
  5
236
  8
0
  6
CONTINUOUS
 62
     7
 10
-7.6452166667
 20
-8.2811
 30
0.0
 11
-7.1152166667
 21
-8.2811
 31
0.0
  0
LINE
  5
237
  8
0
  6
CONTINUOUS
 62
     7
 10
-7.1152166667
 20
-4.6311
 30
0.0
 11
-7.6452166667
 21
-4.6311
 31
0.0
  0
LINE
  5
238
  8
0
  6
CONTINUOUS
 62
     7
 10
-3.10355
 20
-8.2811
 30
0.0
 11
-2.57355
 21
-8.2811
 31
0.0
  0
LINE
  5
239
  8
0
  6
CONTINUOUS
 62
     7
 10
-2.57355
 20
-4.6311
 30
0.0
 11
-3.10355
 21
-4.6311
 31
0.0
  0
LINE
  5
23A
  8
0
  6
CONTINUOUS
 62
     7
 10
8.87535
 20
8.2399
 30
0.0
 11
8.15535
 21
8.2399
 31
0.0
  0
LINE
  5
23B
  8
0
  6
CONTINUOUS
 62
     7
 10
8.15535
 20
8.2399
 30
0.0
 11
8.15535
 21
4.6599
 31
0.0
  0
LINE
  5
23C
  8
0
  6
CONTINUOUS
 62
     7
 10
8.15535
 20
4.6599
 30
0.0
 11
8.87535
 21
4.6599
 31
0.0
  0
LINE
  5
23D
  8
0
  6
CONTINUOUS
 62
     7
 10
8.87535
 20
4.6599
 30
0.0
 11
8.87535
 21
8.2399
 31
0.0
  0
LINE
  5
23E
  8
0
  6
CONTINUOUS
 62
     7
 10
8.87535
 20
-4.6602
 30
0.0
 11
8.15535
 21
-4.6602
 31
0.0
  0
LINE
  5
23F
  8
0
  6
CONTINUOUS
 62
     7
 10
8.15535
 20
-4.6602
 30
0.0
 11
8.15535
 21
-8.2402
 31
0.0
  0
LINE
  5
240
  8
0
  6
CONTINUOUS
 62
     7
 10
8.15535
 20
-8.2402
 30
0.0
 11
8.87535
 21
-8.2402
 31
0.0
  0
LINE
  5
241
  8
0
  6
CONTINUOUS
 62
     7
 10
8.87535
 20
-8.2402
 30
0.0
 11
8.87535
 21
-4.6602
 31
0.0
  0
LINE
  5
242
  8
0
  6
CONTINUOUS
 62
     7
 10
6.60455
 20
-4.6602
 30
0.0
 11
5.88455
 21
-4.6602
 31
0.0
  0
LINE
  5
243
  8
0
  6
CONTINUOUS
 62
     7
 10
5.88455
 20
-4.6602
 30
0.0
 11
5.88455
 21
-8.2402
 31
0.0
  0
LINE
  5
244
  8
0
  6
CONTINUOUS
 62
     7
 10
5.88455
 20
-8.2402
 30
0.0
 11
6.60455
 21
-8.2402
 31
0.0
  0
LINE
  5
245
  8
0
  6
CONTINUOUS
 62
     7
 10
6.60455
 20
-8.2402
 30
0.0
 11
6.60455
 21
-4.6602
 31
0.0
  0
LINE
  5
246
  8
0
  6
CONTINUOUS
 62
     7
 10
10.01075
 20
-4.6602
 30
0.0
 11
9.29075
 21
-4.6602
 31
0.0
  0
LINE
  5
247
  8
0
  6
CONTINUOUS
 62
     7
 10
9.29075
 20
-4.6602
 30
0.0
 11
9.29075
 21
-8.2402
 31
0.0
  0
LINE
  5
248
  8
0
  6
CONTINUOUS
 62
     7
 10
9.29075
 20
-8.2402
 30
0.0
 11
10.01075
 21
-8.2402
 31
0.0
  0
LINE
  5
249
  8
0
  6
CONTINUOUS
 62
     7
 10
10.01075
 20
-8.2402
 30
0.0
 11
10.01075
 21
-4.6602
 31
0.0
  0
LINE
  5
24A
  8
0
  6
CONTINUOUS
 62
     7
 10
10.01075
 20
8.2399
 30
0.0
 11
9.29075
 21
8.2399
 31
0.0
  0
LINE
  5
24B
  8
0
  6
CONTINUOUS
 62
     7
 10
9.29075
 20
8.2399
 30
0.0
 11
9.29075
 21
4.6599
 31
0.0
  0
LINE
  5
24C
  8
0
  6
CONTINUOUS
 62
     7
 10
9.29075
 20
4.6599
 30
0.0
 11
10.01075
 21
4.6599
 31
0.0
  0
LINE
  5
24D
  8
0
  6
CONTINUOUS
 62
     7
 10
10.01075
 20
4.6599
 30
0.0
 11
10.01075
 21
8.2399
 31
0.0
  0
LINE
  5
24E
  8
0
  6
CONTINUOUS
 62
     7
 10
7.1152
 20
-8.2811
 30
0.0
 11
7.6452
 21
-8.2811
 31
0.0
  0
LINE
  5
24F
  8
0
  6
CONTINUOUS
 62
     7
 10
7.6452
 20
-4.6311
 30
0.0
 11
7.1152
 21
-4.6311
 31
0.0
  0
LINE
  5
250
  8
0
  6
CONTINUOUS
 62
     7
 10
2.5735333333
 20
-8.2811
 30
0.0
 11
3.1035333333
 21
-8.2811
 31
0.0
  0
LINE
  5
251
  8
0
  6
CONTINUOUS
 62
     7
 10
3.1035333333
 20
-4.6311
 30
0.0
 11
2.5735333333
 21
-4.6311
 31
0.0
  0
LINE
  5
252
  8
0
  6
CONTINUOUS
 62
     7
 10
7.1152
 20
4.6249
 30
0.0
 11
7.6452
 21
4.6249
 31
0.0
  0
LINE
  5
253
  8
0
  6
CONTINUOUS
 62
     7
 10
7.6452
 20
8.2749
 30
0.0
 11
7.1152
 21
8.2749
 31
0.0
  0
LINE
  5
254
  8
0
  6
CONTINUOUS
 62
     7
 10
2.06295
 20
-4.6602
 30
0.0
 11
1.34295
 21
-4.6602
 31
0.0
  0
LINE
  5
255
  8
0
  6
CONTINUOUS
 62
     7
 10
1.34295
 20
-4.6602
 30
0.0
 11
1.34295
 21
-8.2402
 31
0.0
  0
LINE
  5
256
  8
0
  6
CONTINUOUS
 62
     7
 10
1.34295
 20
-8.2402
 30
0.0
 11
2.06295
 21
-8.2402
 31
0.0
  0
LINE
  5
257
  8
0
  6
CONTINUOUS
 62
     7
 10
2.06295
 20
-8.2402
 30
0.0
 11
2.06295
 21
-4.6602
 31
0.0
  0
LINE
  5
258
  8
0
  6
CONTINUOUS
 62
     7
 10
2.06295
 20
8.2399
 30
0.0
 11
1.34295
 21
8.2399
 31
0.0
  0
LINE
  5
259
  8
0
  6
CONTINUOUS
 62
     7
 10
1.34295
 20
8.2399
 30
0.0
 11
1.34295
 21
4.6599
 31
0.0
  0
LINE
  5
25A
  8
0
  6
CONTINUOUS
 62
     7
 10
1.34295
 20
4.6599
 30
0.0
 11
2.06295
 21
4.6599
 31
0.0
  0
LINE
  5
25B
  8
0
  6
CONTINUOUS
 62
     7
 10
2.06295
 20
4.6599
 30
0.0
 11
2.06295
 21
8.2399
 31
0.0
  0
LINE
  5
25C
  8
0
  6
CONTINUOUS
 62
     7
 10
4.33375
 20
-4.6602
 30
0.0
 11
3.61375
 21
-4.6602
 31
0.0
  0
LINE
  5
25D
  8
0
  6
CONTINUOUS
 62
     7
 10
3.61375
 20
-4.6602
 30
0.0
 11
3.61375
 21
-8.2402
 31
0.0
  0
LINE
  5
25E
  8
0
  6
CONTINUOUS
 62
     7
 10
3.61375
 20
-8.2402
 30
0.0
 11
4.33375
 21
-8.2402
 31
0.0
  0
LINE
  5
25F
  8
0
  6
CONTINUOUS
 62
     7
 10
4.33375
 20
-8.2402
 30
0.0
 11
4.33375
 21
-4.6602
 31
0.0
  0
LINE
  5
260
  8
0
  6
CONTINUOUS
 62
     7
 10
4.33375
 20
8.2399
 30
0.0
 11
3.61375
 21
8.2399
 31
0.0
  0
LINE
  5
261
  8
0
  6
CONTINUOUS
 62
     7
 10
3.61375
 20
8.2399
 30
0.0
 11
3.61375
 21
4.6599
 31
0.0
  0
LINE
  5
262
  8
0
  6
CONTINUOUS
 62
     7
 10
3.61375
 20
4.6599
 30
0.0
 11
4.33375
 21
4.6599
 31
0.0
  0
LINE
  5
263
  8
0
  6
CONTINUOUS
 62
     7
 10
4.33375
 20
4.6599
 30
0.0
 11
4.33375
 21
8.2399
 31
0.0
  0
LINE
  5
264
  8
0
  6
CONTINUOUS
 62
     7
 10
6.60455
 20
8.2399
 30
0.0
 11
5.88455
 21
8.2399
 31
0.0
  0
LINE
  5
265
  8
0
  6
CONTINUOUS
 62
     7
 10
5.88455
 20
8.2399
 30
0.0
 11
5.88455
 21
4.6599
 31
0.0
  0
LINE
  5
266
  8
0
  6
CONTINUOUS
 62
     7
 10
5.88455
 20
4.6599
 30
0.0
 11
6.60455
 21
4.6599
 31
0.0
  0
LINE
  5
267
  8
0
  6
CONTINUOUS
 62
     7
 10
6.60455
 20
4.6599
 30
0.0
 11
6.60455
 21
8.2399
 31
0.0
  0
LINE
  5
268
  8
0
  6
CONTINUOUS
 62
     7
 10
5.46915
 20
-4.6602
 30
0.0
 11
4.74915
 21
-4.6602
 31
0.0
  0
LINE
  5
269
  8
0
  6
CONTINUOUS
 62
     7
 10
4.74915
 20
-4.6602
 30
0.0
 11
4.74915
 21
-8.2402
 31
0.0
  0
LINE
  5
26A
  8
0
  6
CONTINUOUS
 62
     7
 10
4.74915
 20
-8.2402
 30
0.0
 11
5.46915
 21
-8.2402
 31
0.0
  0
LINE
  5
26B
  8
0
  6
CONTINUOUS
 62
     7
 10
5.46915
 20
-8.2402
 30
0.0
 11
5.46915
 21
-4.6602
 31
0.0
  0
LINE
  5
26C
  8
0
  6
CONTINUOUS
 62
     7
 10
5.46915
 20
8.2399
 30
0.0
 11
4.74915
 21
8.2399
 31
0.0
  0
LINE
  5
26D
  8
0
  6
CONTINUOUS
 62
     7
 10
4.74915
 20
8.2399
 30
0.0
 11
4.74915
 21
4.6599
 31
0.0
  0
LINE
  5
26E
  8
0
  6
CONTINUOUS
 62
     7
 10
4.74915
 20
4.6599
 30
0.0
 11
5.46915
 21
4.6599
 31
0.0
  0
LINE
  5
26F
  8
0
  6
CONTINUOUS
 62
     7
 10
5.46915
 20
4.6599
 30
0.0
 11
5.46915
 21
8.2399
 31
0.0
  0
LINE
  5
270
  8
0
  6
CONTINUOUS
 62
     7
 10
-9.73185
 20
3.9379
 30
0.0
 11
-9.73185
 21
0.3579
 31
0.0
  0
LINE
  5
271
  8
0
  6
CONTINUOUS
 62
     7
 10
-9.73185
 20
0.3579
 30
0.0
 11
-9.01185
 21
0.3579
 31
0.0
  0
LINE
  5
272
  8
0
  6
CONTINUOUS
 62
     7
 10
-9.01185
 20
0.3579
 30
0.0
 11
-9.01185
 21
3.9379
 31
0.0
  0
LINE
  5
273
  8
0
  6
CONTINUOUS
 62
     7
 10
-9.01185
 20
3.9379
 30
0.0
 11
-9.73185
 21
3.9379
 31
0.0
  0
LINE
  5
274
  8
0
  6
CONTINUOUS
 62
     7
 10
-9.01185
 20
-0.3641
 30
0.0
 11
-9.73185
 21
-0.3641
 31
0.0
  0
LINE
  5
275
  8
0
  6
CONTINUOUS
 62
     7
 10
-9.73185
 20
-0.3641
 30
0.0
 11
-9.73185
 21
-3.9441
 31
0.0
  0
LINE
  5
276
  8
0
  6
CONTINUOUS
 62
     7
 10
-9.73185
 20
-3.9441
 30
0.0
 11
-9.01185
 21
-3.9441
 31
0.0
  0
LINE
  5
277
  8
0
  6
CONTINUOUS
 62
     7
 10
-9.01185
 20
-3.9441
 30
0.0
 11
-9.01185
 21
-0.3641
 31
0.0
  0
LINE
  5
278
  8
0
  6
CONTINUOUS
 62
     7
 10
9.73185
 20
-0.3641
 30
0.0
 11
9.01185
 21
-0.3641
 31
0.0
  0
LINE
  5
279
  8
0
  6
CONTINUOUS
 62
     7
 10
9.01185
 20
-0.3641
 30
0.0
 11
9.01185
 21
-3.9441
 31
0.0
  0
LINE
  5
27A
  8
0
  6
CONTINUOUS
 62
     7
 10
9.01185
 20
-3.9441
 30
0.0
 11
9.73185
 21
-3.9441
 31
0.0
  0
LINE
  5
27B
  8
0
  6
CONTINUOUS
 62
     7
 10
9.73185
 20
-3.9441
 30
0.0
 11
9.73185
 21
-0.3641
 31
0.0
  0
LINE
  5
27C
  8
0
  6
CONTINUOUS
 62
     7
 10
9.73185
 20
3.9379
 30
0.0
 11
9.01185
 21
3.9379
 31
0.0
  0
LINE
  5
27D
  8
0
  6
CONTINUOUS
 62
     7
 10
9.01185
 20
3.9379
 30
0.0
 11
9.01185
 21
0.3579
 31
0.0
  0
LINE
  5
27E
  8
0
  6
CONTINUOUS
 62
     7
 10
9.01185
 20
0.3579
 30
0.0
 11
9.73185
 21
0.3579
 31
0.0
  0
LINE
  5
27F
  8
0
  6
CONTINUOUS
 62
     7
 10
9.73185
 20
0.3579
 30
0.0
 11
9.73185
 21
3.9379
 31
0.0
  0
LINE
  5
280
  8
0
  6
CONTINUOUS
 62
     7
 10
-8.11
 20
3.9379
 30
0.0
 11
-8.11
 21
0.3579
 31
0.0
  0
LINE
  5
281
  8
0
  6
CONTINUOUS
 62
     7
 10
-8.11
 20
0.3579
 30
0.0
 11
-7.39
 21
0.3579
 31
0.0
  0
LINE
  5
282
  8
0
  6
CONTINUOUS
 62
     7
 10
-7.39
 20
0.3579
 30
0.0
 11
-7.39
 21
3.9379
 31
0.0
  0
LINE
  5
283
  8
0
  6
CONTINUOUS
 62
     7
 10
-7.39
 20
3.9379
 30
0.0
 11
-8.11
 21
3.9379
 31
0.0
  0
LINE
  5
284
  8
0
  6
CONTINUOUS
 62
     7
 10
5.0225
 20
3.9379
 30
0.0
 11
4.3025
 21
3.9379
 31
0.0
  0
LINE
  5
285
  8
0
  6
CONTINUOUS
 62
     7
 10
4.3025
 20
3.9379
 30
0.0
 11
4.3025
 21
0.3579
 31
0.0
  0
LINE
  5
286
  8
0
  6
CONTINUOUS
 62
     7
 10
4.3025
 20
0.3579
 30
0.0
 11
5.0225
 21
0.3579
 31
0.0
  0
LINE
  5
287
  8
0
  6
CONTINUOUS
 62
     7
 10
5.0225
 20
0.3579
 30
0.0
 11
5.0225
 21
3.9379
 31
0.0
  0
LINE
  5
288
  8
0
  6
CONTINUOUS
 62
     7
 10
6.056875
 20
3.9379
 30
0.0
 11
5.336875
 21
3.9379
 31
0.0
  0
LINE
  5
289
  8
0
  6
CONTINUOUS
 62
     7
 10
5.336875
 20
3.9379
 30
0.0
 11
5.336875
 21
0.3579
 31
0.0
  0
LINE
  5
28A
  8
0
  6
CONTINUOUS
 62
     7
 10
5.336875
 20
0.3579
 30
0.0
 11
6.056875
 21
0.3579
 31
0.0
  0
LINE
  5
28B
  8
0
  6
CONTINUOUS
 62
     7
 10
6.056875
 20
0.3579
 30
0.0
 11
6.056875
 21
3.9379
 31
0.0
  0
LINE
  5
28C
  8
0
  6
CONTINUOUS
 62
     7
 10
2.95375
 20
3.9379
 30
0.0
 11
2.23375
 21
3.9379
 31
0.0
  0
LINE
  5
28D
  8
0
  6
CONTINUOUS
 62
     7
 10
2.23375
 20
3.9379
 30
0.0
 11
2.23375
 21
0.3579
 31
0.0
  0
LINE
  5
28E
  8
0
  6
CONTINUOUS
 62
     7
 10
2.23375
 20
0.3579
 30
0.0
 11
2.95375
 21
0.3579
 31
0.0
  0
LINE
  5
28F
  8
0
  6
CONTINUOUS
 62
     7
 10
2.95375
 20
0.3579
 30
0.0
 11
2.95375
 21
3.9379
 31
0.0
  0
LINE
  5
290
  8
0
  6
CONTINUOUS
 62
     7
 10
3.988125
 20
3.9379
 30
0.0
 11
3.268125
 21
3.9379
 31
0.0
  0
LINE
  5
291
  8
0
  6
CONTINUOUS
 62
     7
 10
3.268125
 20
3.9379
 30
0.0
 11
3.268125
 21
0.3579
 31
0.0
  0
LINE
  5
292
  8
0
  6
CONTINUOUS
 62
     7
 10
3.268125
 20
0.3579
 30
0.0
 11
3.988125
 21
0.3579
 31
0.0
  0
LINE
  5
293
  8
0
  6
CONTINUOUS
 62
     7
 10
3.988125
 20
0.3579
 30
0.0
 11
3.988125
 21
3.9379
 31
0.0
  0
LINE
  5
294
  8
0
  6
CONTINUOUS
 62
     7
 10
-6.355625
 20
-0.3641
 30
0.0
 11
-7.075625
 21
-0.3641
 31
0.0
  0
LINE
  5
295
  8
0
  6
CONTINUOUS
 62
     7
 10
-7.075625
 20
-0.3641
 30
0.0
 11
-7.075625
 21
-3.9441
 31
0.0
  0
LINE
  5
296
  8
0
  6
CONTINUOUS
 62
     7
 10
-7.075625
 20
-3.9441
 30
0.0
 11
-6.355625
 21
-3.9441
 31
0.0
  0
LINE
  5
297
  8
0
  6
CONTINUOUS
 62
     7
 10
-6.355625
 20
-3.9441
 30
0.0
 11
-6.355625
 21
-0.3641
 31
0.0
  0
LINE
  5
298
  8
0
  6
CONTINUOUS
 62
     7
 10
-5.32125
 20
-0.3641
 30
0.0
 11
-6.04125
 21
-0.3641
 31
0.0
  0
LINE
  5
299
  8
0
  6
CONTINUOUS
 62
     7
 10
-6.04125
 20
-0.3641
 30
0.0
 11
-6.04125
 21
-3.9441
 31
0.0
  0
LINE
  5
29A
  8
0
  6
CONTINUOUS
 62
     7
 10
-6.04125
 20
-3.9441
 30
0.0
 11
-5.32125
 21
-3.9441
 31
0.0
  0
LINE
  5
29B
  8
0
  6
CONTINUOUS
 62
     7
 10
-5.32125
 20
-3.9441
 30
0.0
 11
-5.32125
 21
-0.3641
 31
0.0
  0
LINE
  5
29C
  8
0
  6
CONTINUOUS
 62
     7
 10
7.09125
 20
3.9379
 30
0.0
 11
6.37125
 21
3.9379
 31
0.0
  0
LINE
  5
29D
  8
0
  6
CONTINUOUS
 62
     7
 10
6.37125
 20
3.9379
 30
0.0
 11
6.37125
 21
0.3579
 31
0.0
  0
LINE
  5
29E
  8
0
  6
CONTINUOUS
 62
     7
 10
6.37125
 20
0.3579
 30
0.0
 11
7.09125
 21
0.3579
 31
0.0
  0
LINE
  5
29F
  8
0
  6
CONTINUOUS
 62
     7
 10
7.09125
 20
0.3579
 30
0.0
 11
7.09125
 21
3.9379
 31
0.0
  0
LINE
  5
2A0
  8
0
  6
CONTINUOUS
 62
     7
 10
8.125625
 20
3.9379
 30
0.0
 11
7.405625
 21
3.9379
 31
0.0
  0
LINE
  5
2A1
  8
0
  6
CONTINUOUS
 62
     7
 10
7.405625
 20
3.9379
 30
0.0
 11
7.405625
 21
0.3579
 31
0.0
  0
LINE
  5
2A2
  8
0
  6
CONTINUOUS
 62
     7
 10
7.405625
 20
0.3579
 30
0.0
 11
8.125625
 21
0.3579
 31
0.0
  0
LINE
  5
2A3
  8
0
  6
CONTINUOUS
 62
     7
 10
8.125625
 20
0.3579
 30
0.0
 11
8.125625
 21
3.9379
 31
0.0
  0
LINE
  5
2A4
  8
0
  6
CONTINUOUS
 62
     7
 10
-5.32125
 20
3.9379
 30
0.0
 11
-6.04125
 21
3.9379
 31
0.0
  0
LINE
  5
2A5
  8
0
  6
CONTINUOUS
 62
     7
 10
-6.04125
 20
3.9379
 30
0.0
 11
-6.04125
 21
0.3579
 31
0.0
  0
LINE
  5
2A6
  8
0
  6
CONTINUOUS
 62
     7
 10
-6.04125
 20
0.3579
 30
0.0
 11
-5.32125
 21
0.3579
 31
0.0
  0
LINE
  5
2A7
  8
0
  6
CONTINUOUS
 62
     7
 10
-5.32125
 20
0.3579
 30
0.0
 11
-5.32125
 21
3.9379
 31
0.0
  0
LINE
  5
2A8
  8
0
  6
CONTINUOUS
 62
     7
 10
-4.286875
 20
3.9379
 30
0.0
 11
-5.006875
 21
3.9379
 31
0.0
  0
LINE
  5
2A9
  8
0
  6
CONTINUOUS
 62
     7
 10
-5.006875
 20
3.9379
 30
0.0
 11
-5.006875
 21
0.3579
 31
0.0
  0
LINE
  5
2AA
  8
0
  6
CONTINUOUS
 62
     7
 10
-5.006875
 20
0.3579
 30
0.0
 11
-4.286875
 21
0.3579
 31
0.0
  0
LINE
  5
2AB
  8
0
  6
CONTINUOUS
 62
     7
 10
-4.286875
 20
0.3579
 30
0.0
 11
-4.286875
 21
3.9379
 31
0.0
  0
LINE
  5
2AC
  8
0
  6
CONTINUOUS
 62
     7
 10
-6.355625
 20
3.9379
 30
0.0
 11
-7.075625
 21
3.9379
 31
0.0
  0
LINE
  5
2AD
  8
0
  6
CONTINUOUS
 62
     7
 10
-7.075625
 20
3.9379
 30
0.0
 11
-7.075625
 21
0.3579
 31
0.0
  0
LINE
  5
2AE
  8
0
  6
CONTINUOUS
 62
     7
 10
-7.075625
 20
0.3579
 30
0.0
 11
-6.355625
 21
0.3579
 31
0.0
  0
LINE
  5
2AF
  8
0
  6
CONTINUOUS
 62
     7
 10
-6.355625
 20
0.3579
 30
0.0
 11
-6.355625
 21
3.9379
 31
0.0
  0
LINE
  5
2B0
  8
0
  6
CONTINUOUS
 62
     7
 10
-0.285
 20
4.1229
 30
0.0
 11
-0.815
 21
4.1229
 31
0.0
  0
LINE
  5
2B1
  8
0
  6
CONTINUOUS
 62
     7
 10
-0.815
 20
0.4729
 30
0.0
 11
-0.285
 21
0.4729
 31
0.0
  0
LINE
  5
2B2
  8
0
  6
CONTINUOUS
 62
     7
 10
-1.18375
 20
3.9379
 30
0.0
 11
-1.90375
 21
3.9379
 31
0.0
  0
LINE
  5
2B3
  8
0
  6
CONTINUOUS
 62
     7
 10
-1.90375
 20
3.9379
 30
0.0
 11
-1.90375
 21
0.3579
 31
0.0
  0
LINE
  5
2B4
  8
0
  6
CONTINUOUS
 62
     7
 10
-1.90375
 20
0.3579
 30
0.0
 11
-1.18375
 21
0.3579
 31
0.0
  0
LINE
  5
2B5
  8
0
  6
CONTINUOUS
 62
     7
 10
-1.18375
 20
0.3579
 30
0.0
 11
-1.18375
 21
3.9379
 31
0.0
  0
LINE
  5
2B6
  8
0
  6
CONTINUOUS
 62
     7
 10
1.919375
 20
3.9379
 30
0.0
 11
1.199375
 21
3.9379
 31
0.0
  0
LINE
  5
2B7
  8
0
  6
CONTINUOUS
 62
     7
 10
1.199375
 20
3.9379
 30
0.0
 11
1.199375
 21
0.3579
 31
0.0
  0
LINE
  5
2B8
  8
0
  6
CONTINUOUS
 62
     7
 10
1.199375
 20
0.3579
 30
0.0
 11
1.919375
 21
0.3579
 31
0.0
  0
LINE
  5
2B9
  8
0
  6
CONTINUOUS
 62
     7
 10
1.919375
 20
0.3579
 30
0.0
 11
1.919375
 21
3.9379
 31
0.0
  0
LINE
  5
2BA
  8
0
  6
CONTINUOUS
 62
     7
 10
-3.2525
 20
3.9379
 30
0.0
 11
-3.9725
 21
3.9379
 31
0.0
  0
LINE
  5
2BB
  8
0
  6
CONTINUOUS
 62
     7
 10
-3.9725
 20
3.9379
 30
0.0
 11
-3.9725
 21
0.3579
 31
0.0
  0
LINE
  5
2BC
  8
0
  6
CONTINUOUS
 62
     7
 10
-3.9725
 20
0.3579
 30
0.0
 11
-3.2525
 21
0.3579
 31
0.0
  0
LINE
  5
2BD
  8
0
  6
CONTINUOUS
 62
     7
 10
-3.2525
 20
0.3579
 30
0.0
 11
-3.2525
 21
3.9379
 31
0.0
  0
LINE
  5
2BE
  8
0
  6
CONTINUOUS
 62
     7
 10
-2.218125
 20
3.9379
 30
0.0
 11
-2.938125
 21
3.9379
 31
0.0
  0
LINE
  5
2BF
  8
0
  6
CONTINUOUS
 62
     7
 10
-2.938125
 20
3.9379
 30
0.0
 11
-2.938125
 21
0.3579
 31
0.0
  0
LINE
  5
2C0
  8
0
  6
CONTINUOUS
 62
     7
 10
-2.938125
 20
0.3579
 30
0.0
 11
-2.218125
 21
0.3579
 31
0.0
  0
LINE
  5
2C1
  8
0
  6
CONTINUOUS
 62
     7
 10
-2.218125
 20
0.3579
 30
0.0
 11
-2.218125
 21
3.9379
 31
0.0
  0
LINE
  5
2C2
  8
0
  6
CONTINUOUS
 62
     7
 10
7.09125
 20
-0.3641
 30
0.0
 11
6.37125
 21
-0.3641
 31
0.0
  0
LINE
  5
2C3
  8
0
  6
CONTINUOUS
 62
     7
 10
6.37125
 20
-0.3641
 30
0.0
 11
6.37125
 21
-3.9441
 31
0.0
  0
LINE
  5
2C4
  8
0
  6
CONTINUOUS
 62
     7
 10
6.37125
 20
-3.9441
 30
0.0
 11
7.09125
 21
-3.9441
 31
0.0
  0
LINE
  5
2C5
  8
0
  6
CONTINUOUS
 62
     7
 10
7.09125
 20
-3.9441
 30
0.0
 11
7.09125
 21
-0.3641
 31
0.0
  0
LINE
  5
2C6
  8
0
  6
CONTINUOUS
 62
     7
 10
8.125625
 20
-0.3641
 30
0.0
 11
7.405625
 21
-0.3641
 31
0.0
  0
LINE
  5
2C7
  8
0
  6
CONTINUOUS
 62
     7
 10
7.405625
 20
-0.3641
 30
0.0
 11
7.405625
 21
-3.9441
 31
0.0
  0
LINE
  5
2C8
  8
0
  6
CONTINUOUS
 62
     7
 10
7.405625
 20
-3.9441
 30
0.0
 11
8.125625
 21
-3.9441
 31
0.0
  0
LINE
  5
2C9
  8
0
  6
CONTINUOUS
 62
     7
 10
8.125625
 20
-3.9441
 30
0.0
 11
8.125625
 21
-0.3641
 31
0.0
  0
LINE
  5
2CA
  8
0
  6
CONTINUOUS
 62
     7
 10
5.0225
 20
-0.3641
 30
0.0
 11
4.3025
 21
-0.3641
 31
0.0
  0
LINE
  5
2CB
  8
0
  6
CONTINUOUS
 62
     7
 10
4.3025
 20
-0.3641
 30
0.0
 11
4.3025
 21
-3.9441
 31
0.0
  0
LINE
  5
2CC
  8
0
  6
CONTINUOUS
 62
     7
 10
4.3025
 20
-3.9441
 30
0.0
 11
5.0225
 21
-3.9441
 31
0.0
  0
LINE
  5
2CD
  8
0
  6
CONTINUOUS
 62
     7
 10
5.0225
 20
-3.9441
 30
0.0
 11
5.0225
 21
-0.3641
 31
0.0
  0
LINE
  5
2CE
  8
0
  6
CONTINUOUS
 62
     7
 10
6.056875
 20
-0.3641
 30
0.0
 11
5.336875
 21
-0.3641
 31
0.0
  0
LINE
  5
2CF
  8
0
  6
CONTINUOUS
 62
     7
 10
5.336875
 20
-0.3641
 30
0.0
 11
5.336875
 21
-3.9441
 31
0.0
  0
LINE
  5
2D0
  8
0
  6
CONTINUOUS
 62
     7
 10
5.336875
 20
-3.9441
 30
0.0
 11
6.056875
 21
-3.9441
 31
0.0
  0
LINE
  5
2D1
  8
0
  6
CONTINUOUS
 62
     7
 10
6.056875
 20
-3.9441
 30
0.0
 11
6.056875
 21
-0.3641
 31
0.0
  0
LINE
  5
2D2
  8
0
  6
CONTINUOUS
 62
     7
 10
0.285
 20
-4.1271
 30
0.0
 11
0.815
 21
-4.1271
 31
0.0
  0
LINE
  5
2D3
  8
0
  6
CONTINUOUS
 62
     7
 10
0.815
 20
-0.4771
 30
0.0
 11
0.285
 21
-0.4771
 31
0.0
  0
LINE
  5
2D4
  8
0
  6
CONTINUOUS
 62
     7
 10
-0.285
 20
-0.4771
 30
0.0
 11
-0.815
 21
-0.4771
 31
0.0
  0
LINE
  5
2D5
  8
0
  6
CONTINUOUS
 62
     7
 10
-0.815
 20
-4.1271
 30
0.0
 11
-0.285
 21
-4.1271
 31
0.0
  0
LINE
  5
2D6
  8
0
  6
CONTINUOUS
 62
     7
 10
-7.39
 20
-0.3641
 30
0.0
 11
-8.11
 21
-0.3641
 31
0.0
  0
LINE
  5
2D7
  8
0
  6
CONTINUOUS
 62
     7
 10
-8.11
 20
-0.3641
 30
0.0
 11
-8.11
 21
-3.9441
 31
0.0
  0
LINE
  5
2D8
  8
0
  6
CONTINUOUS
 62
     7
 10
-8.11
 20
-3.9441
 30
0.0
 11
-7.39
 21
-3.9441
 31
0.0
  0
LINE
  5
2D9
  8
0
  6
CONTINUOUS
 62
     7
 10
-7.39
 20
-3.9441
 30
0.0
 11
-7.39
 21
-0.3641
 31
0.0
  0
LINE
  5
2DA
  8
0
  6
CONTINUOUS
 62
     7
 10
-2.218125
 20
-0.3641
 30
0.0
 11
-2.938125
 21
-0.3641
 31
0.0
  0
LINE
  5
2DB
  8
0
  6
CONTINUOUS
 62
     7
 10
-2.938125
 20
-0.3641
 30
0.0
 11
-2.938125
 21
-3.9441
 31
0.0
  0
LINE
  5
2DC
  8
0
  6
CONTINUOUS
 62
     7
 10
-2.938125
 20
-3.9441
 30
0.0
 11
-2.218125
 21
-3.9441
 31
0.0
  0
LINE
  5
2DD
  8
0
  6
CONTINUOUS
 62
     7
 10
-2.218125
 20
-3.9441
 30
0.0
 11
-2.218125
 21
-0.3641
 31
0.0
  0
LINE
  5
2DE
  8
0
  6
CONTINUOUS
 62
     7
 10
-1.18375
 20
-0.3641
 30
0.0
 11
-1.90375
 21
-0.3641
 31
0.0
  0
LINE
  5
2DF
  8
0
  6
CONTINUOUS
 62
     7
 10
-1.90375
 20
-0.3641
 30
0.0
 11
-1.90375
 21
-3.9441
 31
0.0
  0
LINE
  5
2E0
  8
0
  6
CONTINUOUS
 62
     7
 10
-1.90375
 20
-3.9441
 30
0.0
 11
-1.18375
 21
-3.9441
 31
0.0
  0
LINE
  5
2E1
  8
0
  6
CONTINUOUS
 62
     7
 10
-1.18375
 20
-3.9441
 30
0.0
 11
-1.18375
 21
-0.3641
 31
0.0
  0
LINE
  5
2E2
  8
0
  6
CONTINUOUS
 62
     7
 10
-4.286875
 20
-0.3641
 30
0.0
 11
-5.006875
 21
-0.3641
 31
0.0
  0
LINE
  5
2E3
  8
0
  6
CONTINUOUS
 62
     7
 10
-5.006875
 20
-0.3641
 30
0.0
 11
-5.006875
 21
-3.9441
 31
0.0
  0
LINE
  5
2E4
  8
0
  6
CONTINUOUS
 62
     7
 10
-5.006875
 20
-3.9441
 30
0.0
 11
-4.286875
 21
-3.9441
 31
0.0
  0
LINE
  5
2E5
  8
0
  6
CONTINUOUS
 62
     7
 10
-4.286875
 20
-3.9441
 30
0.0
 11
-4.286875
 21
-0.3641
 31
0.0
  0
LINE
  5
2E6
  8
0
  6
CONTINUOUS
 62
     7
 10
-3.2525
 20
-0.3641
 30
0.0
 11
-3.9725
 21
-0.3641
 31
0.0
  0
LINE
  5
2E7
  8
0
  6
CONTINUOUS
 62
     7
 10
-3.9725
 20
-0.3641
 30
0.0
 11
-3.9725
 21
-3.9441
 31
0.0
  0
LINE
  5
2E8
  8
0
  6
CONTINUOUS
 62
     7
 10
-3.9725
 20
-3.9441
 30
0.0
 11
-3.2525
 21
-3.9441
 31
0.0
  0
LINE
  5
2E9
  8
0
  6
CONTINUOUS
 62
     7
 10
-3.2525
 20
-3.9441
 30
0.0
 11
-3.2525
 21
-0.3641
 31
0.0
  0
LINE
  5
2EA
  8
0
  6
CONTINUOUS
 62
     7
 10
2.95375
 20
-0.3641
 30
0.0
 11
2.23375
 21
-0.3641
 31
0.0
  0
LINE
  5
2EB
  8
0
  6
CONTINUOUS
 62
     7
 10
2.23375
 20
-0.3641
 30
0.0
 11
2.23375
 21
-3.9441
 31
0.0
  0
LINE
  5
2EC
  8
0
  6
CONTINUOUS
 62
     7
 10
2.23375
 20
-3.9441
 30
0.0
 11
2.95375
 21
-3.9441
 31
0.0
  0
LINE
  5
2ED
  8
0
  6
CONTINUOUS
 62
     7
 10
2.95375
 20
-3.9441
 30
0.0
 11
2.95375
 21
-0.3641
 31
0.0
  0
LINE
  5
2EE
  8
0
  6
CONTINUOUS
 62
     7
 10
3.988125
 20
-0.3641
 30
0.0
 11
3.268125
 21
-0.3641
 31
0.0
  0
LINE
  5
2EF
  8
0
  6
CONTINUOUS
 62
     7
 10
3.268125
 20
-0.3641
 30
0.0
 11
3.268125
 21
-3.9441
 31
0.0
  0
LINE
  5
2F0
  8
0
  6
CONTINUOUS
 62
     7
 10
3.268125
 20
-3.9441
 30
0.0
 11
3.988125
 21
-3.9441
 31
0.0
  0
LINE
  5
2F1
  8
0
  6
CONTINUOUS
 62
     7
 10
3.988125
 20
-3.9441
 30
0.0
 11
3.988125
 21
-0.3641
 31
0.0
  0
LINE
  5
2F2
  8
0
  6
CONTINUOUS
 62
     7
 10
1.919375
 20
-0.3641
 30
0.0
 11
1.199375
 21
-0.3641
 31
0.0
  0
LINE
  5
2F3
  8
0
  6
CONTINUOUS
 62
     7
 10
1.199375
 20
-0.3641
 30
0.0
 11
1.199375
 21
-3.9441
 31
0.0
  0
LINE
  5
2F4
  8
0
  6
CONTINUOUS
 62
     7
 10
1.199375
 20
-3.9441
 30
0.0
 11
1.919375
 21
-3.9441
 31
0.0
  0
LINE
  5
2F5
  8
0
  6
CONTINUOUS
 62
     7
 10
1.919375
 20
-3.9441
 30
0.0
 11
1.919375
 21
-0.3641
 31
0.0
  0
LINE
  5
2F6
  8
0
  6
CONTINUOUS
 62
     7
 10
0.285
 20
0.4729
 30
0.0
 11
0.815
 21
0.4729
 31
0.0
  0
LINE
  5
2F7
  8
0
  6
CONTINUOUS
 62
     7
 10
0.815
 20
4.1229
 30
0.0
 11
0.285
 21
4.1229
 31
0.0
  0
ARC
  5
2F8
  8
0
  6
CONTINUOUS
 62
     7
 10
10.24375
 20
8.6259
 30
0.0
 40
0.1000000000000032
 50
0.0
 51
90.0
  0
ARC
  5
2F9
  8
0
  6
CONTINUOUS
 62
     7
 10
10.24375
 20
-8.6259
 30
0.0
 40
0.0999999999999996
 50
270.0
 51
0.0
  0
ARC
  5
2FA
  8
0
  6
CONTINUOUS
 62
     7
 10
-10.24375
 20
-8.6259
 30
0.0
 40
0.0999999999999996
 50
180.0
 51
270.0
  0
ARC
  5
2FB
  8
0
  6
CONTINUOUS
 62
     7
 10
-10.24375
 20
8.6259
 30
0.0
 40
0.100000000000005
 50
90.0
 51
180.0
  0
ARC
  5
2FC
  8
0
  6
CONTINUOUS
 62
     7
 10
5.8335892633
 20
6.4499
 30
0.0
 40
9.121572408908612
 50
168.4586461612
 51
191.5413538388
  0
ARC
  5
2FD
  8
0
  6
CONTINUOUS
 62
     7
 10
-11.5106892633
 20
6.4499
 30
0.0
 40
9.121572408908529
 50
348.4586461612
 51
11.5413538388
  0
ARC
  5
2FE
  8
0
  6
CONTINUOUS
 62
     7
 10
11.5106725966
 20
6.4499
 30
0.0
 40
9.121572408908571
 50
168.4586461612
 51
191.5413538388
  0
ARC
  5
2FF
  8
0
  6
CONTINUOUS
 62
     7
 10
-5.8336059299
 20
6.4499
 30
0.0
 40
9.12157240890851
 50
348.4586461612
 51
11.5413538388
  0
ARC
  5
300
  8
0
  6
CONTINUOUS
 62
     7
 10
1.2919225966
 20
6.4499
 30
0.0
 40
9.121572408908596
 50
168.4586461612
 51
191.5413538388
  0
ARC
  5
301
  8
0
  6
CONTINUOUS
 62
     7
 10
-16.0523559299
 20
6.4499
 30
0.0
 40
9.121572408908484
 50
348.4586461612
 51
11.5413538388
  0
ARC
  5
302
  8
0
  6
CONTINUOUS
 62
     7
 10
1.2919225966
 20
-6.4561
 30
0.0
 40
9.12157240890861
 50
168.4586461612
 51
191.5413538388
  0
ARC
  5
303
  8
0
  6
CONTINUOUS
 62
     7
 10
-16.0523559299
 20
-6.4561
 30
0.0
 40
9.121572408908534
 50
348.4586461612
 51
11.5413538388
  0
ARC
  5
304
  8
0
  6
CONTINUOUS
 62
     7
 10
5.8335892633
 20
-6.4561
 30
0.0
 40
9.121572408908623
 50
168.4586461612
 51
191.5413538388
  0
ARC
  5
305
  8
0
  6
CONTINUOUS
 62
     7
 10
-11.5106892633
 20
-6.4561
 30
0.0
 40
9.121572408908554
 50
348.4586461612
 51
11.5413538388
  0
ARC
  5
306
  8
0
  6
CONTINUOUS
 62
     7
 10
16.0523392633
 20
-6.4561
 30
0.0
 40
9.121572408908603
 50
168.4586461612
 51
191.5413538388
  0
ARC
  5
307
  8
0
  6
CONTINUOUS
 62
     7
 10
-1.2919392633
 20
-6.4561
 30
0.0
 40
9.121572408908488
 50
348.4586461612
 51
11.5413538388
  0
ARC
  5
308
  8
0
  6
CONTINUOUS
 62
     7
 10
11.5106725966
 20
-6.4561
 30
0.0
 40
9.121572408908586
 50
168.4586461612
 51
191.5413538388
  0
ARC
  5
309
  8
0
  6
CONTINUOUS
 62
     7
 10
-5.8336059299
 20
-6.4561
 30
0.0
 40
9.121572408908527
 50
348.4586461612
 51
11.5413538388
  0
ARC
  5
30A
  8
0
  6
CONTINUOUS
 62
     7
 10
16.0523392633
 20
6.4499
 30
0.0
 40
9.121572408908586
 50
168.4586461612
 51
191.5413538388
  0
ARC
  5
30B
  8
0
  6
CONTINUOUS
 62
     7
 10
-1.2919392633
 20
6.4499
 30
0.0
 40
9.12157240890848
 50
348.4586461612
 51
11.5413538388
  0
ARC
  5
30C
  8
0
  6
CONTINUOUS
 62
     7
 10
-9.2221392633
 20
2.2979
 30
0.0
 40
9.121572408908566
 50
348.4586461612
 51
11.5413538388
  0
ARC
  5
30D
  8
0
  6
CONTINUOUS
 62
     7
 10
8.1221392633
 20
2.2979
 30
0.0
 40
9.12157240890855
 50
168.4586461612
 51
191.5413538388
  0
ARC
  5
30E
  8
0
  6
CONTINUOUS
 62
     7
 10
9.2221392633
 20
-2.3021
 30
0.0
 40
9.12157240890861
 50
168.4586461612
 51
191.5413538388
  0
ARC
  5
30F
  8
0
  6
CONTINUOUS
 62
     7
 10
-8.1221392633
 20
-2.3021
 30
0.0
 40
9.121572408908497
 50
348.4586461612
 51
11.5413538388
  0
ARC
  5
310
  8
0
  6
CONTINUOUS
 62
     7
 10
-9.2221392633
 20
-2.3021
 30
0.0
 40
9.121572408908534
 50
348.4586461612
 51
11.5413538388
  0
ARC
  5
311
  8
0
  6
CONTINUOUS
 62
     7
 10
8.1221392633
 20
-2.3021
 30
0.0
 40
9.121572408908584
 50
168.4586461612
 51
191.5413538388
  0
ARC
  5
312
  8
0
  6
CONTINUOUS
 62
     7
 10
9.2221392633
 20
2.2979
 30
0.0
 40
9.121572408908538
 50
168.4586461612
 51
191.5413538388
  0
ARC
  5
313
  8
0
  6
CONTINUOUS
 62
     7
 10
-8.1221392633
 20
2.2979
 30
0.0
 40
9.121572408908564
 50
348.4586461612
 51
11.5413538388
  0
ENDSEC
  0
EOF
