  0
SECTION
  2
HEADER
  9
$ACADVER
  1
AC1009
  9
$DWGCODEPAGE
  3
ansi_1252
  9
$INSBASE
 10
0.0
 20
0.0
 30
0.0
  9
$EXTMIN
 10
-13.393
 20
-11.006
 30
0.0
  9
$EXTMAX
 10
13.896
 20
11.006
 30
0.0
  9
$LIMMIN
 10
0.0
 20
0.0
  9
$LIMMAX
 10
12.0
 20
9.0
  9
$ORTHOMODE
 70
     0
  9
$REGENMODE
 70
     1
  9
$FILLMODE
 70
     1
  9
$QTEXTMODE
 70
     0
  9
$MIRRTEXT
 70
     1
  9
$DRAGMODE
 70
     2
  9
$LTSCALE
 40
1.0
  9
$OSMODE
 70
    37
  9
$ATTMODE
 70
     1
  9
$TEXTSIZE
 40
0.1377952756
  9
$TRACEWID
 40
0.05
  9
$TEXTSTYLE
  7
STANDARD
  9
$CLAYER
  8
0
  9
$CELTYPE
  6
BYLAYER
  9
$CECOLOR
 62
   256
  9
$DIMSCALE
 40
1.0
  9
$DIMASZ
 40
0.13
  9
$DIMEXO
 40
0.0393700787
  9
$DIMDLI
 40
0.38
  9
$DIMRND
 40
0.0
  9
$DIMDLE
 40
0.0
  9
$DIMEXE
 40
0.0393700787
  9
$DIMTP
 40
0.0
  9
$DIMTM
 40
0.0
  9
$DIMTXT
 40
0.1377952756
  9
$DIMCEN
 40
0.09
  9
$DIMTSZ
 40
0.0
  9
$DIMTOL
 70
     0
  9
$DIMLIM
 70
     0
  9
$DIMTIH
 70
     1
  9
$DIMTOH
 70
     1
  9
$DIMSE1
 70
     0
  9
$DIMSE2
 70
     0
  9
$DIMTAD
 70
     1
  9
$DIMZIN
 70
     0
  9
$DIMBLK
  1

  9
$DIMASO
 70
     1
  9
$DIMSHO
 70
     1
  9
$DIMPOST
  1

  9
$DIMAPOST
  1

  9
$DIMALT
 70
     0
  9
$DIMALTD
 70
     2
  9
$DIMALTF
 40
25.4
  9
$DIMLFAC
 40
1.0
  9
$DIMTOFL
 70
     0
  9
$DIMTVP
 40
0.0
  9
$DIMTIX
 70
     0
  9
$DIMSOXD
 70
     0
  9
$DIMSAH
 70
     0
  9
$DIMBLK1
  1

  9
$DIMBLK2
  1

  9
$DIMSTYLE
  2
STANDARD
  9
$DIMCLRD
 70
     0
  9
$DIMCLRE
 70
     0
  9
$DIMCLRT
 70
     0
  9
$DIMTFAC
 40
1.0
  9
$DIMGAP
 40
0.06
  9
$LUNITS
 70
     2
  9
$LUPREC
 70
     8
  9
$SKETCHINC
 40
0.1
  9
$FILLETRAD
 40
0.5
  9
$AUNITS
 70
     0
  9
$AUPREC
 70
     2
  9
$MENU
  1
.
  9
$ELEVATION
 40
0.0
  9
$PELEVATION
 40
0.0
  9
$THICKNESS
 40
0.0
  9
$LIMCHECK
 70
     0
  9
$CHAMFERA
 40
0.0
  9
$CHAMFERB
 40
0.0
  9
$SKPOLY
 70
     0
  9
$TDCREATE
 40
2457911.511795127
  9
$TDUPDATE
 40
2457911.511882836
  9
$TDINDWG
 40
0.0000000116
  9
$TDUSRTIMER
 40
0.0000000116
  9
$USRTIMER
 70
     1
  9
$ANGBASE
 50
0.0
  9
$ANGDIR
 70
     0
  9
$PDMODE
 70
     0
  9
$PDSIZE
 40
-1.0
  9
$PLINEWID
 40
0.0
  9
$COORDS
 70
     1
  9
$SPLFRAME
 70
     0
  9
$SPLINETYPE
 70
     6
  9
$SPLINESEGS
 70
     8
  9
$ATTDIA
 70
     0
  9
$ATTREQ
 70
     1
  9
$HANDLING
 70
     1
  9
$HANDSEED
  5
428
  9
$SURFTAB1
 70
     6
  9
$SURFTAB2
 70
     6
  9
$SURFTYPE
 70
     6
  9
$SURFU
 70
     6
  9
$SURFV
 70
     6
  9
$UCSNAME
  2

  9
$UCSORG
 10
0.0
 20
0.0
 30
0.0
  9
$UCSXDIR
 10
1.0
 20
0.0
 30
0.0
  9
$UCSYDIR
 10
0.0
 20
1.0
 30
0.0
  9
$PUCSNAME
  2

  9
$PUCSORG
 10
0.0
 20
0.0
 30
0.0
  9
$PUCSXDIR
 10
1.0
 20
0.0
 30
0.0
  9
$PUCSYDIR
 10
0.0
 20
1.0
 30
0.0
  9
$USERI1
 70
     0
  9
$USERI2
 70
     0
  9
$USERI3
 70
     0
  9
$USERI4
 70
     0
  9
$USERI5
 70
     0
  9
$USERR1
 40
0.0
  9
$USERR2
 40
0.0
  9
$USERR3
 40
0.0
  9
$USERR4
 40
0.0
  9
$USERR5
 40
0.0
  9
$WORLDVIEW
 70
     1
  9
$SHADEDGE
 70
     3
  9
$SHADEDIF
 70
    70
  9
$TILEMODE
 70
     1
  9
$MAXACTVP
 70
    64
  9
$PLIMCHECK
 70
     0
  9
$PEXTMIN
 10
1.0000000000E+20
 20
1.0000000000E+20
 30
1.0000000000E+20
  9
$PEXTMAX
 10
-1.0000000000E+20
 20
-1.0000000000E+20
 30
-1.0000000000E+20
  9
$PLIMMIN
 10
0.0
 20
0.0
  9
$PLIMMAX
 10
12.0
 20
9.0
  9
$UNITMODE
 70
     0
  9
$VISRETAIN
 70
     1
  9
$PLINEGEN
 70
     0
  9
$PSLTSCALE
 70
     1
  0
ENDSEC
  0
SECTION
  2
TABLES
  0
TABLE
  2
VPORT
 70
     1
  0
VPORT
  2
*ACTIVE
 70
     0
 10
0.0
 20
0.0
 11
1.0
 21
1.0
 12
0.2515
 22
0.0
 13
0.0
 23
0.0
 14
0.5
 24
0.5
 15
0.5
 25
0.5
 16
0.0
 26
0.0
 36
1.0
 17
0.0
 27
0.0
 37
0.0
 40
22.45224
 41
1.239732873
 42
50.0
 43
0.0
 44
0.0
 50
0.0
 51
0.0
 71
     0
 72
   100
 73
     1
 74
     3
 75
     0
 76
     0
 77
     0
 78
     0
  0
ENDTAB
  0
TABLE
  2
LTYPE
 70
     6
  0
LTYPE
  2
CONTINUOUS
 70
     0
  3
Solid line
 72
    65
 73
     0
 40
0.0
  0
LTYPE
  2
HIDDEN
 70
     0
  3
Hidden __ __ __ __ __ __ __ __ __ __ __ __ __ __
 72
    65
 73
     2
 40
0.075
 49
0.05
 49
-0.025
  0
LTYPE
  2
PHANTOM
 70
     0
  3
Phantom ______  __  __  ______  __  __  ______
 72
    65
 73
     6
 40
0.5
 49
0.25
 49
-0.05
 49
0.05
 49
-0.05
 49
0.05
 49
-0.05
  0
LTYPE
  2
CENTER
 70
     0
  3
Center ____ _ ____ _ ____ _ ____ _ ____ _ ____
 72
    65
 73
     4
 40
0.4
 49
0.25
 49
-0.05
 49
0.05
 49
-0.05
  0
LTYPE
  2
CENTERX2
 70
     0
  3
Center (2x) ________  __  ________  __  _____
 72
    65
 73
     4
 40
0.8
 49
0.5
 49
-0.1
 49
0.1
 49
-0.1
  0
LTYPE
  2
DOT2
 70
     0
  3
Dot (.5x) ........................................
 72
    65
 73
     2
 40
0.025
 49
0.0
 49
-0.025
  0
ENDTAB
  0
TABLE
  2
LAYER
 70
     1
  0
LAYER
  2
0
 70
     0
 62
     7
  6
CONTINUOUS
  0
ENDTAB
  0
TABLE
  2
STYLE
 70
     1
  0
STYLE
  2
STANDARD
 70
     0
 40
0.0
 41
1.0
 50
0.0
 71
     0
 42
0.1377952756
  3
txt
  4

  0
ENDTAB
  0
TABLE
  2
VIEW
 70
     0
  0
ENDTAB
  0
TABLE
  2
UCS
 70
     0
  0
ENDTAB
  0
TABLE
  2
APPID
 70
     1
  0
APPID
  2
ACAD
 70
     0
  0
ENDTAB
  0
TABLE
  2
DIMSTYLE
 70
     1
  0
DIMSTYLE
  2
STANDARD
 70
     0
  3

  4

  5

  6

  7

 40
1.0
 41
0.18
 42
0.0625
 43
0.38
 44
0.18
 45
0.0
 46
0.0
 47
0.0
 48
0.0
140
0.18
141
0.09
142
0.0
143
25.4
144
1.0
145
0.0
146
1.0
147
0.09
 71
     0
 72
     0
 73
     1
 74
     1
 75
     0
 76
     0
 77
     0
 78
     0
170
     0
171
     2
172
     0
173
     0
174
     0
175
     0
176
     0
177
     0
178
     0
  0
ENDTAB
  0
ENDSEC
  0
SECTION
  2
BLOCKS
  0
BLOCK
  8
0
  2
$MODEL_SPACE
 70
     0
 10
0.0
 20
0.0
 30
0.0
  3
$MODEL_SPACE
  1

  0
ENDBLK
  5
21
  8
0
  0
BLOCK
 67
     1
  8
0
  2
$PAPER_SPACE
 70
     0
 10
0.0
 20
0.0
 30
0.0
  3
$PAPER_SPACE
  1

  0
ENDBLK
  5
1D
 67
     1
  8
0
  0
ENDSEC
  0
SECTION
  2
ENTITIES
  0
CIRCLE
  5
1C1
  8
0
  6
CONTINUOUS
 62
     7
 10
12.355
 20
-5.483
 30
0.0
 40
0.0747499999999999
  0
CIRCLE
  5
1C2
  8
0
  6
CONTINUOUS
 62
     7
 10
11.30182602
 20
-9.523
 30
0.0
 40
0.0747499999999999
  0
CIRCLE
  5
1C3
  8
0
  6
CONTINUOUS
 62
     7
 10
10.24865204
 20
-9.523
 30
0.0
 40
0.0747499999999999
  0
CIRCLE
  5
1C4
  8
0
  6
CONTINUOUS
 62
     7
 10
9.19547806
 20
-5.483
 30
0.0
 40
0.0747499999999999
  0
CIRCLE
  5
1C5
  8
0
  6
CONTINUOUS
 62
     7
 10
8.14230408
 20
-5.483
 30
0.0
 40
0.0747500000000008
  0
CIRCLE
  5
1C6
  8
0
  6
CONTINUOUS
 62
     7
 10
7.0891301
 20
-9.523
 30
0.0
 40
0.0747499999999999
  0
CIRCLE
  5
1C7
  8
0
  6
CONTINUOUS
 62
     7
 10
6.03595612
 20
-5.483
 30
0.0
 40
0.0747499999999999
  0
CIRCLE
  5
1C8
  8
0
  6
CONTINUOUS
 62
     7
 10
4.98278214
 20
-5.483
 30
0.0
 40
0.0747500000000008
  0
CIRCLE
  5
1C9
  8
0
  6
CONTINUOUS
 62
     7
 10
3.92960816
 20
-9.523
 30
0.0
 40
0.0747499999999999
  0
CIRCLE
  5
1CA
  8
0
  6
CONTINUOUS
 62
     7
 10
2.87643418
 20
-5.483
 30
0.0
 40
0.0747499999999999
  0
CIRCLE
  5
1CB
  8
0
  6
CONTINUOUS
 62
     7
 10
1.8232602
 20
-9.523
 30
0.0
 40
0.0747499999999999
  0
CIRCLE
  5
1CC
  8
0
  6
CONTINUOUS
 62
     7
 10
0.77008622
 20
-9.523
 30
0.0
 40
0.0747499999999999
  0
CIRCLE
  5
1CD
  8
0
  6
CONTINUOUS
 62
     7
 10
-0.28308776
 20
-5.483
 30
0.0
 40
0.0747500000000008
  0
CIRCLE
  5
1CE
  8
0
  6
CONTINUOUS
 62
     7
 10
-1.33626174
 20
-5.483
 30
0.0
 40
0.0747500000000008
  0
CIRCLE
  5
1CF
  8
0
  6
CONTINUOUS
 62
     7
 10
-2.38943572
 20
-9.523
 30
0.0
 40
0.0747499999999999
  0
CIRCLE
  5
1D0
  8
0
  6
CONTINUOUS
 62
     7
 10
-3.4426097
 20
-5.483
 30
0.0
 40
0.0747500000000008
  0
CIRCLE
  5
1D1
  8
0
  6
CONTINUOUS
 62
     7
 10
-4.49578368
 20
-5.483
 30
0.0
 40
0.0747499999999999
  0
CIRCLE
  5
1D2
  8
0
  6
CONTINUOUS
 62
     7
 10
-5.54895766
 20
-9.523
 30
0.0
 40
0.0747499999999999
  0
CIRCLE
  5
1D3
  8
0
  6
CONTINUOUS
 62
     7
 10
-6.60213164
 20
-9.523
 30
0.0
 40
0.0747500000000016
  0
CIRCLE
  5
1D4
  8
0
  6
CONTINUOUS
 62
     7
 10
-7.65530562
 20
-5.483
 30
0.0
 40
0.0747499999999999
  0
CIRCLE
  5
1D5
  8
0
  6
CONTINUOUS
 62
     7
 10
-8.7084796
 20
-9.523
 30
0.0
 40
0.0747499999999999
  0
CIRCLE
  5
1D6
  8
0
  6
CONTINUOUS
 62
     7
 10
-9.76165358
 20
-9.523
 30
0.0
 40
0.0747499999999999
  0
CIRCLE
  5
1D7
  8
0
  6
CONTINUOUS
 62
     7
 10
-10.81482756
 20
-5.483
 30
0.0
 40
0.0747500000000008
  0
CIRCLE
  5
1D8
  8
0
  6
CONTINUOUS
 62
     7
 10
-11.86800154
 20
-5.483
 30
0.0
 40
0.0747499999999999
  0
CIRCLE
  5
1D9
  8
0
  6
CONTINUOUS
 62
     7
 10
12.355
 20
-0.48
 30
0.0
 40
0.0747500000000002
  0
CIRCLE
  5
1DA
  8
0
  6
CONTINUOUS
 62
     7
 10
11.30182602
 20
-4.52
 30
0.0
 40
0.074749999999999
  0
CIRCLE
  5
1DB
  8
0
  6
CONTINUOUS
 62
     7
 10
10.24865204
 20
-4.52
 30
0.0
 40
0.074749999999999
  0
CIRCLE
  5
1DC
  8
0
  6
CONTINUOUS
 62
     7
 10
9.19547806
 20
-0.48
 30
0.0
 40
0.0747500000000002
  0
CIRCLE
  5
1DD
  8
0
  6
CONTINUOUS
 62
     7
 10
8.14230408
 20
-0.48
 30
0.0
 40
0.0747500000000002
  0
CIRCLE
  5
1DE
  8
0
  6
CONTINUOUS
 62
     7
 10
7.0891301
 20
-4.52
 30
0.0
 40
0.0747500000000008
  0
CIRCLE
  5
1DF
  8
0
  6
CONTINUOUS
 62
     7
 10
6.03595612
 20
-0.48
 30
0.0
 40
0.0747499999999999
  0
CIRCLE
  5
1E0
  8
0
  6
CONTINUOUS
 62
     7
 10
4.98278214
 20
-0.48
 30
0.0
 40
0.0747499999999993
  0
CIRCLE
  5
1E1
  8
0
  6
CONTINUOUS
 62
     7
 10
3.92960816
 20
-4.52
 30
0.0
 40
0.0747500000000008
  0
CIRCLE
  5
1E2
  8
0
  6
CONTINUOUS
 62
     7
 10
2.87643418
 20
-0.48
 30
0.0
 40
0.0747500000000002
  0
CIRCLE
  5
1E3
  8
0
  6
CONTINUOUS
 62
     7
 10
1.8232602
 20
-4.52
 30
0.0
 40
0.0747500000000008
  0
CIRCLE
  5
1E4
  8
0
  6
CONTINUOUS
 62
     7
 10
0.77008622
 20
-4.52
 30
0.0
 40
0.074749999999999
  0
CIRCLE
  5
1E5
  8
0
  6
CONTINUOUS
 62
     7
 10
-0.28308776
 20
-0.48
 30
0.0
 40
0.0747499999999999
  0
CIRCLE
  5
1E6
  8
0
  6
CONTINUOUS
 62
     7
 10
-1.33626174
 20
-0.48
 30
0.0
 40
0.07475
  0
CIRCLE
  5
1E7
  8
0
  6
CONTINUOUS
 62
     7
 10
-2.38943572
 20
-4.52
 30
0.0
 40
0.0747499999999999
  0
CIRCLE
  5
1E8
  8
0
  6
CONTINUOUS
 62
     7
 10
-3.4426097
 20
-0.48
 30
0.0
 40
0.0747499999999998
  0
CIRCLE
  5
1E9
  8
0
  6
CONTINUOUS
 62
     7
 10
-4.49578368
 20
-0.48
 30
0.0
 40
0.0747499999999993
  0
CIRCLE
  5
1EA
  8
0
  6
CONTINUOUS
 62
     7
 10
-5.54895766
 20
-4.52
 30
0.0
 40
0.074749999999999
  0
CIRCLE
  5
1EB
  8
0
  6
CONTINUOUS
 62
     7
 10
-6.60213164
 20
-4.52
 30
0.0
 40
0.074749999999999
  0
CIRCLE
  5
1EC
  8
0
  6
CONTINUOUS
 62
     7
 10
-7.65530562
 20
-0.48
 30
0.0
 40
0.0747499999999995
  0
CIRCLE
  5
1ED
  8
0
  6
CONTINUOUS
 62
     7
 10
-8.7084796
 20
-4.52
 30
0.0
 40
0.074749999999999
  0
CIRCLE
  5
1EE
  8
0
  6
CONTINUOUS
 62
     7
 10
-9.76165358
 20
-4.52
 30
0.0
 40
0.0747499999999999
  0
CIRCLE
  5
1EF
  8
0
  6
CONTINUOUS
 62
     7
 10
-10.81482756
 20
-0.48
 30
0.0
 40
0.0747500000000008
  0
CIRCLE
  5
1F0
  8
0
  6
CONTINUOUS
 62
     7
 10
-11.86800154
 20
-0.48
 30
0.0
 40
0.0747499999999995
  0
CIRCLE
  5
1F1
  8
0
  6
CONTINUOUS
 62
     7
 10
12.355
 20
4.523
 30
0.0
 40
0.0747499999999999
  0
CIRCLE
  5
1F2
  8
0
  6
CONTINUOUS
 62
     7
 10
11.30182602
 20
0.483
 30
0.0
 40
0.0747499999999992
  0
CIRCLE
  5
1F3
  8
0
  6
CONTINUOUS
 62
     7
 10
10.24865204
 20
0.483
 30
0.0
 40
0.0747500000000001
  0
CIRCLE
  5
1F4
  8
0
  6
CONTINUOUS
 62
     7
 10
9.19547806
 20
4.523
 30
0.0
 40
0.0747499999999999
  0
CIRCLE
  5
1F5
  8
0
  6
CONTINUOUS
 62
     7
 10
8.14230408
 20
4.523
 30
0.0
 40
0.0747499999999999
  0
CIRCLE
  5
1F6
  8
0
  6
CONTINUOUS
 62
     7
 10
7.0891301
 20
0.483
 30
0.0
 40
0.0747500000000008
  0
CIRCLE
  5
1F7
  8
0
  6
CONTINUOUS
 62
     7
 10
6.03595612
 20
4.523
 30
0.0
 40
0.0747499999999999
  0
CIRCLE
  5
1F8
  8
0
  6
CONTINUOUS
 62
     7
 10
4.98278214
 20
4.523
 30
0.0
 40
0.0747499999999999
  0
CIRCLE
  5
1F9
  8
0
  6
CONTINUOUS
 62
     7
 10
3.92960816
 20
0.483
 30
0.0
 40
0.0747500000000005
  0
CIRCLE
  5
1FA
  8
0
  6
CONTINUOUS
 62
     7
 10
2.87643418
 20
4.523
 30
0.0
 40
0.0747499999999999
  0
CIRCLE
  5
1FB
  8
0
  6
CONTINUOUS
 62
     7
 10
1.8232602
 20
0.483
 30
0.0
 40
0.0747500000000001
  0
CIRCLE
  5
1FC
  8
0
  6
CONTINUOUS
 62
     7
 10
0.77008622
 20
0.483
 30
0.0
 40
0.07475
  0
CIRCLE
  5
1FD
  8
0
  6
CONTINUOUS
 62
     7
 10
-0.28308776
 20
4.523
 30
0.0
 40
0.0747499999999999
  0
CIRCLE
  5
1FE
  8
0
  6
CONTINUOUS
 62
     7
 10
-1.33626174
 20
4.523
 30
0.0
 40
0.0747499999999999
  0
CIRCLE
  5
1FF
  8
0
  6
CONTINUOUS
 62
     7
 10
-2.38943572
 20
0.483
 30
0.0
 40
0.0747500000000001
  0
CIRCLE
  5
200
  8
0
  6
CONTINUOUS
 62
     7
 10
-3.4426097
 20
4.523
 30
0.0
 40
0.0747500000000008
  0
CIRCLE
  5
201
  8
0
  6
CONTINUOUS
 62
     7
 10
-4.49578368
 20
4.523
 30
0.0
 40
0.0747500000000016
  0
CIRCLE
  5
202
  8
0
  6
CONTINUOUS
 62
     7
 10
-5.54895766
 20
0.483
 30
0.0
 40
0.0747499999999999
  0
CIRCLE
  5
203
  8
0
  6
CONTINUOUS
 62
     7
 10
-6.60213164
 20
0.483
 30
0.0
 40
0.0747499999999993
  0
CIRCLE
  5
204
  8
0
  6
CONTINUOUS
 62
     7
 10
-7.65530562
 20
4.523
 30
0.0
 40
0.074749999999999
  0
CIRCLE
  5
205
  8
0
  6
CONTINUOUS
 62
     7
 10
-8.7084796
 20
0.483
 30
0.0
 40
0.0747499999999997
  0
CIRCLE
  5
206
  8
0
  6
CONTINUOUS
 62
     7
 10
-9.76165358
 20
0.483
 30
0.0
 40
0.0747499999999997
  0
CIRCLE
  5
207
  8
0
  6
CONTINUOUS
 62
     7
 10
-10.81482756
 20
4.523
 30
0.0
 40
0.0747499999999999
  0
CIRCLE
  5
208
  8
0
  6
CONTINUOUS
 62
     7
 10
-11.86800154
 20
4.523
 30
0.0
 40
0.0747500000000016
  0
CIRCLE
  5
209
  8
0
  6
CONTINUOUS
 62
     7
 10
12.355
 20
9.526
 30
0.0
 40
0.0747499999999999
  0
CIRCLE
  5
20A
  8
0
  6
CONTINUOUS
 62
     7
 10
11.30182602
 20
5.486
 30
0.0
 40
0.0747500000000008
  0
CIRCLE
  5
20B
  8
0
  6
CONTINUOUS
 62
     7
 10
10.24865204
 20
5.486
 30
0.0
 40
0.0747500000000008
  0
CIRCLE
  5
20C
  8
0
  6
CONTINUOUS
 62
     7
 10
9.19547806
 20
9.526
 30
0.0
 40
0.0747499999999999
  0
CIRCLE
  5
20D
  8
0
  6
CONTINUOUS
 62
     7
 10
8.14230408
 20
9.526
 30
0.0
 40
0.0747499999999999
  0
CIRCLE
  5
20E
  8
0
  6
CONTINUOUS
 62
     7
 10
7.0891301
 20
5.486
 30
0.0
 40
0.0747500000000008
  0
CIRCLE
  5
20F
  8
0
  6
CONTINUOUS
 62
     7
 10
6.03595612
 20
9.526
 30
0.0
 40
0.0747499999999999
  0
CIRCLE
  5
210
  8
0
  6
CONTINUOUS
 62
     7
 10
4.98278214
 20
9.526
 30
0.0
 40
0.0747499999999999
  0
CIRCLE
  5
211
  8
0
  6
CONTINUOUS
 62
     7
 10
3.92960816
 20
5.486
 30
0.0
 40
0.0747500000000008
  0
CIRCLE
  5
212
  8
0
  6
CONTINUOUS
 62
     7
 10
2.87643418
 20
9.526
 30
0.0
 40
0.0747499999999999
  0
CIRCLE
  5
213
  8
0
  6
CONTINUOUS
 62
     7
 10
1.8232602
 20
5.486
 30
0.0
 40
0.0747500000000008
  0
CIRCLE
  5
214
  8
0
  6
CONTINUOUS
 62
     7
 10
0.77008622
 20
5.486
 30
0.0
 40
0.0747500000000008
  0
CIRCLE
  5
215
  8
0
  6
CONTINUOUS
 62
     7
 10
-0.28308776
 20
9.526
 30
0.0
 40
0.0747499999999999
  0
CIRCLE
  5
216
  8
0
  6
CONTINUOUS
 62
     7
 10
-1.33626174
 20
9.526
 30
0.0
 40
0.0747499999999999
  0
CIRCLE
  5
217
  8
0
  6
CONTINUOUS
 62
     7
 10
-2.38943572
 20
5.486
 30
0.0
 40
0.0747500000000008
  0
CIRCLE
  5
218
  8
0
  6
CONTINUOUS
 62
     7
 10
-3.4426097
 20
9.526
 30
0.0
 40
0.0747499999999999
  0
CIRCLE
  5
219
  8
0
  6
CONTINUOUS
 62
     7
 10
-4.49578368
 20
9.526
 30
0.0
 40
0.0747499999999999
  0
CIRCLE
  5
21A
  8
0
  6
CONTINUOUS
 62
     7
 10
-5.54895766
 20
5.486
 30
0.0
 40
0.0747500000000008
  0
CIRCLE
  5
21B
  8
0
  6
CONTINUOUS
 62
     7
 10
-6.60213164
 20
5.486
 30
0.0
 40
0.0747500000000008
  0
CIRCLE
  5
21C
  8
0
  6
CONTINUOUS
 62
     7
 10
-7.65530562
 20
9.526
 30
0.0
 40
0.0747499999999999
  0
CIRCLE
  5
21D
  8
0
  6
CONTINUOUS
 62
     7
 10
-8.7084796
 20
5.486
 30
0.0
 40
0.0747500000000008
  0
CIRCLE
  5
21E
  8
0
  6
CONTINUOUS
 62
     7
 10
-9.76165358
 20
5.486
 30
0.0
 40
0.0747500000000008
  0
CIRCLE
  5
21F
  8
0
  6
CONTINUOUS
 62
     7
 10
-10.81482756
 20
9.526
 30
0.0
 40
0.0747499999999999
  0
CIRCLE
  5
220
  8
0
  6
CONTINUOUS
 62
     7
 10
-11.86800154
 20
9.526
 30
0.0
 40
0.0747500000000016
  0
CIRCLE
  5
221
  8
0
  6
CONTINUOUS
 62
     7
 10
11.8284782609
 20
-7.503
 30
0.0
 40
0.0747500000000008
  0
CIRCLE
  5
222
  8
0
  6
CONTINUOUS
 62
     7
 10
0.245
 20
-7.503
 30
0.0
 40
0.0747500000000008
  0
CIRCLE
  5
223
  8
0
  6
CONTINUOUS
 62
     7
 10
-11.3384782609
 20
-7.503
 30
0.0
 40
0.0747500000000016
  0
CIRCLE
  5
224
  8
0
  6
CONTINUOUS
 62
     7
 10
11.8284782609
 20
-2.5
 30
0.0
 40
0.0747500000000003
  0
CIRCLE
  5
225
  8
0
  6
CONTINUOUS
 62
     7
 10
0.245
 20
-2.5
 30
0.0
 40
0.0747500000000003
  0
CIRCLE
  5
226
  8
0
  6
CONTINUOUS
 62
     7
 10
-11.3384782609
 20
-2.5
 30
0.0
 40
0.0747500000000008
  0
CIRCLE
  5
227
  8
0
  6
CONTINUOUS
 62
     7
 10
11.8284782609
 20
2.503
 30
0.0
 40
0.0747500000000008
  0
CIRCLE
  5
228
  8
0
  6
CONTINUOUS
 62
     7
 10
0.245
 20
2.503
 30
0.0
 40
0.0747500000000008
  0
CIRCLE
  5
229
  8
0
  6
CONTINUOUS
 62
     7
 10
-11.3384782609
 20
2.503
 30
0.0
 40
0.0747500000000012
  0
CIRCLE
  5
22A
  8
0
  6
CONTINUOUS
 62
     7
 10
11.8284782609
 20
7.506
 30
0.0
 40
0.0747499999999999
  0
CIRCLE
  5
22B
  8
0
  6
CONTINUOUS
 62
     7
 10
0.245
 20
7.506
 30
0.0
 40
0.0747499999999999
  0
CIRCLE
  5
22C
  8
0
  6
CONTINUOUS
 62
     7
 10
-11.3384782609
 20
7.506
 30
0.0
 40
0.0747500000000008
  0
CIRCLE
  5
22D
  8
0
  6
CONTINUOUS
 62
     7
 10
1.3215
 20
0.5515
 30
0.0
 40
0.048
  0
CIRCLE
  5
22E
  8
0
  6
CONTINUOUS
 62
     7
 10
1.3215
 20
-0.5485
 30
0.0
 40
0.0479999999999999
  0
CIRCLE
  5
22F
  8
0
  6
CONTINUOUS
 62
     7
 10
0.2215
 20
-0.5485
 30
0.0
 40
0.0479999999999999
  0
CIRCLE
  5
230
  8
0
  6
CONTINUOUS
 62
     7
 10
0.2215
 20
0.5515
 30
0.0
 40
0.0479999999999999
  0
CIRCLE
  5
231
  8
0
  6
CONTINUOUS
 62
     7
 10
0.7715
 20
0.0015
 30
0.0
 40
0.2999999999999999
  0
CIRCLE
  5
232
  8
0
  6
CONTINUOUS
 62
     7
 10
13.393
 20
-8.506
 30
0.0
 40
0.0625
  0
CIRCLE
  5
233
  8
0
  6
CONTINUOUS
 62
     7
 10
13.396
 20
0.0
 30
0.0
 40
0.0625000000000021
  0
CIRCLE
  5
234
  8
0
  6
CONTINUOUS
 62
     7
 10
13.393
 20
8.506
 30
0.0
 40
0.0625000000000018
  0
CIRCLE
  5
235
  8
0
  6
CONTINUOUS
 62
     7
 10
0.313
 20
10.506
 30
0.0
 40
0.0625
  0
CIRCLE
  5
236
  8
0
  6
CONTINUOUS
 62
     7
 10
-10.687
 20
10.506
 30
0.0
 40
0.0625
  0
CIRCLE
  5
237
  8
0
  6
CONTINUOUS
 62
     7
 10
-12.893
 20
8.25
 30
0.0
 40
0.0625000000000018
  0
CIRCLE
  5
238
  8
0
  6
CONTINUOUS
 62
     7
 10
-12.893
 20
0.0
 30
0.0
 40
0.0625000000000011
  0
CIRCLE
  5
239
  8
0
  6
CONTINUOUS
 62
     7
 10
-12.893
 20
-8.25
 30
0.0
 40
0.0625000000000018
  0
CIRCLE
  5
23A
  8
0
  6
CONTINUOUS
 62
     7
 10
-10.687
 20
-10.506
 30
0.0
 40
0.0625
  0
CIRCLE
  5
23B
  8
0
  6
CONTINUOUS
 62
     7
 10
0.313
 20
-10.506
 30
0.0
 40
0.0625000000000018
  0
CIRCLE
  5
23C
  8
0
  6
CONTINUOUS
 62
     7
 10
11.313
 20
-10.506
 30
0.0
 40
0.0625
  0
CIRCLE
  5
23D
  8
0
  6
CONTINUOUS
 62
     7
 10
11.313
 20
10.506
 30
0.0
 40
0.0624999999999982
  0
LINE
  5
28C
  8
0
  6
CONTINUOUS
 62
     7
 10
-12.225
 20
5.716
 30
0.0
 11
-11.505
 21
5.716
 31
0.0
  0
LINE
  5
28D
  8
0
  6
CONTINUOUS
 62
     7
 10
-11.505
 20
5.716
 30
0.0
 11
-11.505
 21
9.296
 31
0.0
  0
LINE
  5
28E
  8
0
  6
CONTINUOUS
 62
     7
 10
-11.505
 20
9.296
 30
0.0
 11
-12.225
 21
9.296
 31
0.0
  0
LINE
  5
28F
  8
0
  6
CONTINUOUS
 62
     7
 10
-12.225
 20
9.296
 30
0.0
 11
-12.225
 21
5.716
 31
0.0
  0
LINE
  5
290
  8
0
  6
CONTINUOUS
 62
     7
 10
-11.1719565217
 20
5.716
 30
0.0
 11
-10.4519565217
 21
5.716
 31
0.0
  0
LINE
  5
291
  8
0
  6
CONTINUOUS
 62
     7
 10
-10.4519565217
 20
5.716
 30
0.0
 11
-10.4519565217
 21
9.296
 31
0.0
  0
LINE
  5
292
  8
0
  6
CONTINUOUS
 62
     7
 10
-10.4519565217
 20
9.296
 30
0.0
 11
-11.1719565217
 21
9.296
 31
0.0
  0
LINE
  5
293
  8
0
  6
CONTINUOUS
 62
     7
 10
-11.1719565217
 20
9.296
 30
0.0
 11
-11.1719565217
 21
5.716
 31
0.0
  0
LINE
  5
294
  8
0
  6
CONTINUOUS
 62
     7
 10
-10.1189130435
 20
5.716
 30
0.0
 11
-9.3989130435
 21
5.716
 31
0.0
  0
LINE
  5
295
  8
0
  6
CONTINUOUS
 62
     7
 10
-9.3989130435
 20
5.716
 30
0.0
 11
-9.3989130435
 21
9.296
 31
0.0
  0
LINE
  5
296
  8
0
  6
CONTINUOUS
 62
     7
 10
-9.3989130435
 20
9.296
 30
0.0
 11
-10.1189130435
 21
9.296
 31
0.0
  0
LINE
  5
297
  8
0
  6
CONTINUOUS
 62
     7
 10
-10.1189130435
 20
9.296
 30
0.0
 11
-10.1189130435
 21
5.716
 31
0.0
  0
LINE
  5
298
  8
0
  6
CONTINUOUS
 62
     7
 10
-8.012826087
 20
5.716
 30
0.0
 11
-7.292826087
 21
5.716
 31
0.0
  0
LINE
  5
299
  8
0
  6
CONTINUOUS
 62
     7
 10
-7.292826087
 20
5.716
 30
0.0
 11
-7.292826087
 21
9.296
 31
0.0
  0
LINE
  5
29A
  8
0
  6
CONTINUOUS
 62
     7
 10
-7.292826087
 20
9.296
 30
0.0
 11
-8.012826087
 21
9.296
 31
0.0
  0
LINE
  5
29B
  8
0
  6
CONTINUOUS
 62
     7
 10
-8.012826087
 20
9.296
 30
0.0
 11
-8.012826087
 21
5.716
 31
0.0
  0
LINE
  5
29C
  8
0
  6
CONTINUOUS
 62
     7
 10
-6.9597826087
 20
5.716
 30
0.0
 11
-6.2397826087
 21
5.716
 31
0.0
  0
LINE
  5
29D
  8
0
  6
CONTINUOUS
 62
     7
 10
-6.2397826087
 20
5.716
 30
0.0
 11
-6.2397826087
 21
9.296
 31
0.0
  0
LINE
  5
29E
  8
0
  6
CONTINUOUS
 62
     7
 10
-6.2397826087
 20
9.296
 30
0.0
 11
-6.9597826087
 21
9.296
 31
0.0
  0
LINE
  5
29F
  8
0
  6
CONTINUOUS
 62
     7
 10
-6.9597826087
 20
9.296
 30
0.0
 11
-6.9597826087
 21
5.716
 31
0.0
  0
LINE
  5
2A0
  8
0
  6
CONTINUOUS
 62
     7
 10
-5.9067391304
 20
5.716
 30
0.0
 11
-5.1867391304
 21
5.716
 31
0.0
  0
LINE
  5
2A1
  8
0
  6
CONTINUOUS
 62
     7
 10
-5.1867391304
 20
5.716
 30
0.0
 11
-5.1867391304
 21
9.296
 31
0.0
  0
LINE
  5
2A2
  8
0
  6
CONTINUOUS
 62
     7
 10
-5.1867391304
 20
9.296
 30
0.0
 11
-5.9067391304
 21
9.296
 31
0.0
  0
LINE
  5
2A3
  8
0
  6
CONTINUOUS
 62
     7
 10
-5.9067391304
 20
9.296
 30
0.0
 11
-5.9067391304
 21
5.716
 31
0.0
  0
LINE
  5
2A4
  8
0
  6
CONTINUOUS
 62
     7
 10
-4.8536956522
 20
5.716
 30
0.0
 11
-4.1336956522
 21
5.716
 31
0.0
  0
LINE
  5
2A5
  8
0
  6
CONTINUOUS
 62
     7
 10
-4.1336956522
 20
5.716
 30
0.0
 11
-4.1336956522
 21
9.296
 31
0.0
  0
LINE
  5
2A6
  8
0
  6
CONTINUOUS
 62
     7
 10
-4.1336956522
 20
9.296
 30
0.0
 11
-4.8536956522
 21
9.296
 31
0.0
  0
LINE
  5
2A7
  8
0
  6
CONTINUOUS
 62
     7
 10
-4.8536956522
 20
9.296
 30
0.0
 11
-4.8536956522
 21
5.716
 31
0.0
  0
LINE
  5
2A8
  8
0
  6
CONTINUOUS
 62
     7
 10
-2.7476086957
 20
5.716
 30
0.0
 11
-2.0276086957
 21
5.716
 31
0.0
  0
LINE
  5
2A9
  8
0
  6
CONTINUOUS
 62
     7
 10
-2.0276086957
 20
5.716
 30
0.0
 11
-2.0276086957
 21
9.296
 31
0.0
  0
LINE
  5
2AA
  8
0
  6
CONTINUOUS
 62
     7
 10
-2.0276086957
 20
9.296
 30
0.0
 11
-2.7476086957
 21
9.296
 31
0.0
  0
LINE
  5
2AB
  8
0
  6
CONTINUOUS
 62
     7
 10
-2.7476086957
 20
9.296
 30
0.0
 11
-2.7476086957
 21
5.716
 31
0.0
  0
LINE
  5
2AC
  8
0
  6
CONTINUOUS
 62
     7
 10
-1.6945652174
 20
5.716
 30
0.0
 11
-0.9745652174
 21
5.716
 31
0.0
  0
LINE
  5
2AD
  8
0
  6
CONTINUOUS
 62
     7
 10
-0.9745652174
 20
5.716
 30
0.0
 11
-0.9745652174
 21
9.296
 31
0.0
  0
LINE
  5
2AE
  8
0
  6
CONTINUOUS
 62
     7
 10
-0.9745652174
 20
9.296
 30
0.0
 11
-1.6945652174
 21
9.296
 31
0.0
  0
LINE
  5
2AF
  8
0
  6
CONTINUOUS
 62
     7
 10
-1.6945652174
 20
9.296
 30
0.0
 11
-1.6945652174
 21
5.716
 31
0.0
  0
LINE
  5
2B0
  8
0
  6
CONTINUOUS
 62
     7
 10
-0.6415217391
 20
5.716
 30
0.0
 11
0.0784782609
 21
5.716
 31
0.0
  0
LINE
  5
2B1
  8
0
  6
CONTINUOUS
 62
     7
 10
0.0784782609
 20
5.716
 30
0.0
 11
0.0784782609
 21
9.296
 31
0.0
  0
LINE
  5
2B2
  8
0
  6
CONTINUOUS
 62
     7
 10
0.0784782609
 20
9.296
 30
0.0
 11
-0.6415217391
 21
9.296
 31
0.0
  0
LINE
  5
2B3
  8
0
  6
CONTINUOUS
 62
     7
 10
-0.6415217391
 20
9.296
 30
0.0
 11
-0.6415217391
 21
5.716
 31
0.0
  0
LINE
  5
2B4
  8
0
  6
CONTINUOUS
 62
     7
 10
0.4115217391
 20
5.716
 30
0.0
 11
1.1315217391
 21
5.716
 31
0.0
  0
LINE
  5
2B5
  8
0
  6
CONTINUOUS
 62
     7
 10
1.1315217391
 20
5.716
 30
0.0
 11
1.1315217391
 21
9.296
 31
0.0
  0
LINE
  5
2B6
  8
0
  6
CONTINUOUS
 62
     7
 10
1.1315217391
 20
9.296
 30
0.0
 11
0.4115217391
 21
9.296
 31
0.0
  0
LINE
  5
2B7
  8
0
  6
CONTINUOUS
 62
     7
 10
0.4115217391
 20
9.296
 30
0.0
 11
0.4115217391
 21
5.716
 31
0.0
  0
LINE
  5
2B8
  8
0
  6
CONTINUOUS
 62
     7
 10
1.4645652174
 20
5.716
 30
0.0
 11
2.1845652174
 21
5.716
 31
0.0
  0
LINE
  5
2B9
  8
0
  6
CONTINUOUS
 62
     7
 10
2.1845652174
 20
5.716
 30
0.0
 11
2.1845652174
 21
9.296
 31
0.0
  0
LINE
  5
2BA
  8
0
  6
CONTINUOUS
 62
     7
 10
2.1845652174
 20
9.296
 30
0.0
 11
1.4645652174
 21
9.296
 31
0.0
  0
LINE
  5
2BB
  8
0
  6
CONTINUOUS
 62
     7
 10
1.4645652174
 20
9.296
 30
0.0
 11
1.4645652174
 21
5.716
 31
0.0
  0
LINE
  5
2BC
  8
0
  6
CONTINUOUS
 62
     7
 10
2.5176086957
 20
5.716
 30
0.0
 11
3.2376086957
 21
5.716
 31
0.0
  0
LINE
  5
2BD
  8
0
  6
CONTINUOUS
 62
     7
 10
3.2376086957
 20
5.716
 30
0.0
 11
3.2376086957
 21
9.296
 31
0.0
  0
LINE
  5
2BE
  8
0
  6
CONTINUOUS
 62
     7
 10
3.2376086957
 20
9.296
 30
0.0
 11
2.5176086957
 21
9.296
 31
0.0
  0
LINE
  5
2BF
  8
0
  6
CONTINUOUS
 62
     7
 10
2.5176086957
 20
9.296
 30
0.0
 11
2.5176086957
 21
5.716
 31
0.0
  0
LINE
  5
2C0
  8
0
  6
CONTINUOUS
 62
     7
 10
4.6236956522
 20
5.716
 30
0.0
 11
5.3436956522
 21
5.716
 31
0.0
  0
LINE
  5
2C1
  8
0
  6
CONTINUOUS
 62
     7
 10
5.3436956522
 20
5.716
 30
0.0
 11
5.3436956522
 21
9.296
 31
0.0
  0
LINE
  5
2C2
  8
0
  6
CONTINUOUS
 62
     7
 10
5.3436956522
 20
9.296
 30
0.0
 11
4.6236956522
 21
9.296
 31
0.0
  0
LINE
  5
2C3
  8
0
  6
CONTINUOUS
 62
     7
 10
4.6236956522
 20
9.296
 30
0.0
 11
4.6236956522
 21
5.716
 31
0.0
  0
LINE
  5
2C4
  8
0
  6
CONTINUOUS
 62
     7
 10
5.6767391304
 20
5.716
 30
0.0
 11
6.3967391304
 21
5.716
 31
0.0
  0
LINE
  5
2C5
  8
0
  6
CONTINUOUS
 62
     7
 10
6.3967391304
 20
5.716
 30
0.0
 11
6.3967391304
 21
9.296
 31
0.0
  0
LINE
  5
2C6
  8
0
  6
CONTINUOUS
 62
     7
 10
6.3967391304
 20
9.296
 30
0.0
 11
5.6767391304
 21
9.296
 31
0.0
  0
LINE
  5
2C7
  8
0
  6
CONTINUOUS
 62
     7
 10
5.6767391304
 20
9.296
 30
0.0
 11
5.6767391304
 21
5.716
 31
0.0
  0
LINE
  5
2C8
  8
0
  6
CONTINUOUS
 62
     7
 10
6.7297826087
 20
5.716
 30
0.0
 11
7.4497826087
 21
5.716
 31
0.0
  0
LINE
  5
2C9
  8
0
  6
CONTINUOUS
 62
     7
 10
7.4497826087
 20
5.716
 30
0.0
 11
7.4497826087
 21
9.296
 31
0.0
  0
LINE
  5
2CA
  8
0
  6
CONTINUOUS
 62
     7
 10
7.4497826087
 20
9.296
 30
0.0
 11
6.7297826087
 21
9.296
 31
0.0
  0
LINE
  5
2CB
  8
0
  6
CONTINUOUS
 62
     7
 10
6.7297826087
 20
9.296
 30
0.0
 11
6.7297826087
 21
5.716
 31
0.0
  0
LINE
  5
2CC
  8
0
  6
CONTINUOUS
 62
     7
 10
7.782826087
 20
5.716
 30
0.0
 11
8.502826087
 21
5.716
 31
0.0
  0
LINE
  5
2CD
  8
0
  6
CONTINUOUS
 62
     7
 10
8.502826087
 20
5.716
 30
0.0
 11
8.502826087
 21
9.296
 31
0.0
  0
LINE
  5
2CE
  8
0
  6
CONTINUOUS
 62
     7
 10
8.502826087
 20
9.296
 30
0.0
 11
7.782826087
 21
9.296
 31
0.0
  0
LINE
  5
2CF
  8
0
  6
CONTINUOUS
 62
     7
 10
7.782826087
 20
9.296
 30
0.0
 11
7.782826087
 21
5.716
 31
0.0
  0
LINE
  5
2D0
  8
0
  6
CONTINUOUS
 62
     7
 10
9.8889130435
 20
5.716
 30
0.0
 11
10.6089130435
 21
5.716
 31
0.0
  0
LINE
  5
2D1
  8
0
  6
CONTINUOUS
 62
     7
 10
10.6089130435
 20
5.716
 30
0.0
 11
10.6089130435
 21
9.296
 31
0.0
  0
LINE
  5
2D2
  8
0
  6
CONTINUOUS
 62
     7
 10
10.6089130435
 20
9.296
 30
0.0
 11
9.8889130435
 21
9.296
 31
0.0
  0
LINE
  5
2D3
  8
0
  6
CONTINUOUS
 62
     7
 10
9.8889130435
 20
9.296
 30
0.0
 11
9.8889130435
 21
5.716
 31
0.0
  0
LINE
  5
2D4
  8
0
  6
CONTINUOUS
 62
     7
 10
10.9419565217
 20
5.716
 30
0.0
 11
11.6619565217
 21
5.716
 31
0.0
  0
LINE
  5
2D5
  8
0
  6
CONTINUOUS
 62
     7
 10
11.6619565217
 20
5.716
 30
0.0
 11
11.6619565217
 21
9.296
 31
0.0
  0
LINE
  5
2D6
  8
0
  6
CONTINUOUS
 62
     7
 10
11.6619565217
 20
9.296
 30
0.0
 11
10.9419565217
 21
9.296
 31
0.0
  0
LINE
  5
2D7
  8
0
  6
CONTINUOUS
 62
     7
 10
10.9419565217
 20
9.296
 30
0.0
 11
10.9419565217
 21
5.716
 31
0.0
  0
LINE
  5
2D8
  8
0
  6
CONTINUOUS
 62
     7
 10
11.995
 20
5.716
 30
0.0
 11
12.715
 21
5.716
 31
0.0
  0
LINE
  5
2D9
  8
0
  6
CONTINUOUS
 62
     7
 10
12.715
 20
5.716
 30
0.0
 11
12.715
 21
9.296
 31
0.0
  0
LINE
  5
2DA
  8
0
  6
CONTINUOUS
 62
     7
 10
12.715
 20
9.296
 30
0.0
 11
11.995
 21
9.296
 31
0.0
  0
LINE
  5
2DB
  8
0
  6
CONTINUOUS
 62
     7
 10
11.995
 20
9.296
 30
0.0
 11
11.995
 21
5.716
 31
0.0
  0
LINE
  5
2DC
  8
0
  6
CONTINUOUS
 62
     7
 10
1.4645652174
 20
0.713
 30
0.0
 11
2.1845652174
 21
0.713
 31
0.0
  0
LINE
  5
2DD
  8
0
  6
CONTINUOUS
 62
     7
 10
2.1845652174
 20
0.713
 30
0.0
 11
2.1845652174
 21
4.293
 31
0.0
  0
LINE
  5
2DE
  8
0
  6
CONTINUOUS
 62
     7
 10
2.1845652174
 20
4.293
 30
0.0
 11
1.4645652174
 21
4.293
 31
0.0
  0
LINE
  5
2DF
  8
0
  6
CONTINUOUS
 62
     7
 10
1.4645652174
 20
4.293
 30
0.0
 11
1.4645652174
 21
0.713
 31
0.0
  0
LINE
  5
2E0
  8
0
  6
CONTINUOUS
 62
     7
 10
2.5176086957
 20
0.713
 30
0.0
 11
3.2376086957
 21
0.713
 31
0.0
  0
LINE
  5
2E1
  8
0
  6
CONTINUOUS
 62
     7
 10
3.2376086957
 20
0.713
 30
0.0
 11
3.2376086957
 21
4.293
 31
0.0
  0
LINE
  5
2E2
  8
0
  6
CONTINUOUS
 62
     7
 10
3.2376086957
 20
4.293
 30
0.0
 11
2.5176086957
 21
4.293
 31
0.0
  0
LINE
  5
2E3
  8
0
  6
CONTINUOUS
 62
     7
 10
2.5176086957
 20
4.293
 30
0.0
 11
2.5176086957
 21
0.713
 31
0.0
  0
LINE
  5
2E4
  8
0
  6
CONTINUOUS
 62
     7
 10
4.6236956522
 20
0.713
 30
0.0
 11
5.3436956522
 21
0.713
 31
0.0
  0
LINE
  5
2E5
  8
0
  6
CONTINUOUS
 62
     7
 10
5.3436956522
 20
0.713
 30
0.0
 11
5.3436956522
 21
4.293
 31
0.0
  0
LINE
  5
2E6
  8
0
  6
CONTINUOUS
 62
     7
 10
5.3436956522
 20
4.293
 30
0.0
 11
4.6236956522
 21
4.293
 31
0.0
  0
LINE
  5
2E7
  8
0
  6
CONTINUOUS
 62
     7
 10
4.6236956522
 20
4.293
 30
0.0
 11
4.6236956522
 21
0.713
 31
0.0
  0
LINE
  5
2E8
  8
0
  6
CONTINUOUS
 62
     7
 10
5.6767391304
 20
0.713
 30
0.0
 11
6.3967391304
 21
0.713
 31
0.0
  0
LINE
  5
2E9
  8
0
  6
CONTINUOUS
 62
     7
 10
6.3967391304
 20
0.713
 30
0.0
 11
6.3967391304
 21
4.293
 31
0.0
  0
LINE
  5
2EA
  8
0
  6
CONTINUOUS
 62
     7
 10
6.3967391304
 20
4.293
 30
0.0
 11
5.6767391304
 21
4.293
 31
0.0
  0
LINE
  5
2EB
  8
0
  6
CONTINUOUS
 62
     7
 10
5.6767391304
 20
4.293
 30
0.0
 11
5.6767391304
 21
0.713
 31
0.0
  0
LINE
  5
2EC
  8
0
  6
CONTINUOUS
 62
     7
 10
6.7297826087
 20
0.713
 30
0.0
 11
7.4497826087
 21
0.713
 31
0.0
  0
LINE
  5
2ED
  8
0
  6
CONTINUOUS
 62
     7
 10
7.4497826087
 20
0.713
 30
0.0
 11
7.4497826087
 21
4.293
 31
0.0
  0
LINE
  5
2EE
  8
0
  6
CONTINUOUS
 62
     7
 10
7.4497826087
 20
4.293
 30
0.0
 11
6.7297826087
 21
4.293
 31
0.0
  0
LINE
  5
2EF
  8
0
  6
CONTINUOUS
 62
     7
 10
6.7297826087
 20
4.293
 30
0.0
 11
6.7297826087
 21
0.713
 31
0.0
  0
LINE
  5
2F0
  8
0
  6
CONTINUOUS
 62
     7
 10
10.9419565217
 20
0.713
 30
0.0
 11
11.6619565217
 21
0.713
 31
0.0
  0
LINE
  5
2F1
  8
0
  6
CONTINUOUS
 62
     7
 10
11.6619565217
 20
0.713
 30
0.0
 11
11.6619565217
 21
4.293
 31
0.0
  0
LINE
  5
2F2
  8
0
  6
CONTINUOUS
 62
     7
 10
11.6619565217
 20
4.293
 30
0.0
 11
10.9419565217
 21
4.293
 31
0.0
  0
LINE
  5
2F3
  8
0
  6
CONTINUOUS
 62
     7
 10
10.9419565217
 20
4.293
 30
0.0
 11
10.9419565217
 21
0.713
 31
0.0
  0
LINE
  5
2F4
  8
0
  6
CONTINUOUS
 62
     7
 10
11.995
 20
0.713
 30
0.0
 11
12.715
 21
0.713
 31
0.0
  0
LINE
  5
2F5
  8
0
  6
CONTINUOUS
 62
     7
 10
12.715
 20
0.713
 30
0.0
 11
12.715
 21
4.293
 31
0.0
  0
LINE
  5
2F6
  8
0
  6
CONTINUOUS
 62
     7
 10
12.715
 20
4.293
 30
0.0
 11
11.995
 21
4.293
 31
0.0
  0
LINE
  5
2F7
  8
0
  6
CONTINUOUS
 62
     7
 10
11.995
 20
4.293
 30
0.0
 11
11.995
 21
0.713
 31
0.0
  0
LINE
  5
2F8
  8
0
  6
CONTINUOUS
 62
     7
 10
-11.1719565217
 20
-4.29
 30
0.0
 11
-10.4519565217
 21
-4.29
 31
0.0
  0
LINE
  5
2F9
  8
0
  6
CONTINUOUS
 62
     7
 10
-10.4519565217
 20
-4.29
 30
0.0
 11
-10.4519565217
 21
-0.71
 31
0.0
  0
LINE
  5
2FA
  8
0
  6
CONTINUOUS
 62
     7
 10
-10.4519565217
 20
-0.71
 30
0.0
 11
-11.1719565217
 21
-0.71
 31
0.0
  0
LINE
  5
2FB
  8
0
  6
CONTINUOUS
 62
     7
 10
-11.1719565217
 20
-0.71
 30
0.0
 11
-11.1719565217
 21
-4.29
 31
0.0
  0
LINE
  5
2FC
  8
0
  6
CONTINUOUS
 62
     7
 10
9.8889130435
 20
0.713
 30
0.0
 11
10.6089130435
 21
0.713
 31
0.0
  0
LINE
  5
2FD
  8
0
  6
CONTINUOUS
 62
     7
 10
10.6089130435
 20
0.713
 30
0.0
 11
10.6089130435
 21
4.293
 31
0.0
  0
LINE
  5
2FE
  8
0
  6
CONTINUOUS
 62
     7
 10
10.6089130435
 20
4.293
 30
0.0
 11
9.8889130435
 21
4.293
 31
0.0
  0
LINE
  5
2FF
  8
0
  6
CONTINUOUS
 62
     7
 10
9.8889130435
 20
4.293
 30
0.0
 11
9.8889130435
 21
0.713
 31
0.0
  0
LINE
  5
300
  8
0
  6
CONTINUOUS
 62
     7
 10
7.782826087
 20
0.713
 30
0.0
 11
8.502826087
 21
0.713
 31
0.0
  0
LINE
  5
301
  8
0
  6
CONTINUOUS
 62
     7
 10
8.502826087
 20
0.713
 30
0.0
 11
8.502826087
 21
4.293
 31
0.0
  0
LINE
  5
302
  8
0
  6
CONTINUOUS
 62
     7
 10
8.502826087
 20
4.293
 30
0.0
 11
7.782826087
 21
4.293
 31
0.0
  0
LINE
  5
303
  8
0
  6
CONTINUOUS
 62
     7
 10
7.782826087
 20
4.293
 30
0.0
 11
7.782826087
 21
0.713
 31
0.0
  0
LINE
  5
304
  8
0
  6
CONTINUOUS
 62
     7
 10
0.4115217391
 20
0.713
 30
0.0
 11
1.1315217391
 21
0.713
 31
0.0
  0
LINE
  5
305
  8
0
  6
CONTINUOUS
 62
     7
 10
1.1315217391
 20
0.713
 30
0.0
 11
1.1315217391
 21
4.293
 31
0.0
  0
LINE
  5
306
  8
0
  6
CONTINUOUS
 62
     7
 10
1.1315217391
 20
4.293
 30
0.0
 11
0.4115217391
 21
4.293
 31
0.0
  0
LINE
  5
307
  8
0
  6
CONTINUOUS
 62
     7
 10
0.4115217391
 20
4.293
 30
0.0
 11
0.4115217391
 21
0.713
 31
0.0
  0
LINE
  5
308
  8
0
  6
CONTINUOUS
 62
     7
 10
-0.6415217391
 20
0.713
 30
0.0
 11
0.0784782609
 21
0.713
 31
0.0
  0
LINE
  5
309
  8
0
  6
CONTINUOUS
 62
     7
 10
0.0784782609
 20
0.713
 30
0.0
 11
0.0784782609
 21
4.293
 31
0.0
  0
LINE
  5
30A
  8
0
  6
CONTINUOUS
 62
     7
 10
0.0784782609
 20
4.293
 30
0.0
 11
-0.6415217391
 21
4.293
 31
0.0
  0
LINE
  5
30B
  8
0
  6
CONTINUOUS
 62
     7
 10
-0.6415217391
 20
4.293
 30
0.0
 11
-0.6415217391
 21
0.713
 31
0.0
  0
LINE
  5
30C
  8
0
  6
CONTINUOUS
 62
     7
 10
-1.6945652174
 20
0.713
 30
0.0
 11
-0.9745652174
 21
0.713
 31
0.0
  0
LINE
  5
30D
  8
0
  6
CONTINUOUS
 62
     7
 10
-0.9745652174
 20
0.713
 30
0.0
 11
-0.9745652174
 21
4.293
 31
0.0
  0
LINE
  5
30E
  8
0
  6
CONTINUOUS
 62
     7
 10
-0.9745652174
 20
4.293
 30
0.0
 11
-1.6945652174
 21
4.293
 31
0.0
  0
LINE
  5
30F
  8
0
  6
CONTINUOUS
 62
     7
 10
-1.6945652174
 20
4.293
 30
0.0
 11
-1.6945652174
 21
0.713
 31
0.0
  0
LINE
  5
310
  8
0
  6
CONTINUOUS
 62
     7
 10
-2.7476086957
 20
0.713
 30
0.0
 11
-2.0276086957
 21
0.713
 31
0.0
  0
LINE
  5
311
  8
0
  6
CONTINUOUS
 62
     7
 10
-2.0276086957
 20
0.713
 30
0.0
 11
-2.0276086957
 21
4.293
 31
0.0
  0
LINE
  5
312
  8
0
  6
CONTINUOUS
 62
     7
 10
-2.0276086957
 20
4.293
 30
0.0
 11
-2.7476086957
 21
4.293
 31
0.0
  0
LINE
  5
313
  8
0
  6
CONTINUOUS
 62
     7
 10
-2.7476086957
 20
4.293
 30
0.0
 11
-2.7476086957
 21
0.713
 31
0.0
  0
LINE
  5
314
  8
0
  6
CONTINUOUS
 62
     7
 10
-4.8536956522
 20
0.713
 30
0.0
 11
-4.1336956522
 21
0.713
 31
0.0
  0
LINE
  5
315
  8
0
  6
CONTINUOUS
 62
     7
 10
-4.1336956522
 20
0.713
 30
0.0
 11
-4.1336956522
 21
4.293
 31
0.0
  0
LINE
  5
316
  8
0
  6
CONTINUOUS
 62
     7
 10
-4.1336956522
 20
4.293
 30
0.0
 11
-4.8536956522
 21
4.293
 31
0.0
  0
LINE
  5
317
  8
0
  6
CONTINUOUS
 62
     7
 10
-4.8536956522
 20
4.293
 30
0.0
 11
-4.8536956522
 21
0.713
 31
0.0
  0
LINE
  5
318
  8
0
  6
CONTINUOUS
 62
     7
 10
-5.9067391304
 20
0.713
 30
0.0
 11
-5.1867391304
 21
0.713
 31
0.0
  0
LINE
  5
319
  8
0
  6
CONTINUOUS
 62
     7
 10
-5.1867391304
 20
0.713
 30
0.0
 11
-5.1867391304
 21
4.293
 31
0.0
  0
LINE
  5
31A
  8
0
  6
CONTINUOUS
 62
     7
 10
-5.1867391304
 20
4.293
 30
0.0
 11
-5.9067391304
 21
4.293
 31
0.0
  0
LINE
  5
31B
  8
0
  6
CONTINUOUS
 62
     7
 10
-5.9067391304
 20
4.293
 30
0.0
 11
-5.9067391304
 21
0.713
 31
0.0
  0
LINE
  5
31C
  8
0
  6
CONTINUOUS
 62
     7
 10
-6.9597826087
 20
0.713
 30
0.0
 11
-6.2397826087
 21
0.713
 31
0.0
  0
LINE
  5
31D
  8
0
  6
CONTINUOUS
 62
     7
 10
-6.2397826087
 20
0.713
 30
0.0
 11
-6.2397826087
 21
4.293
 31
0.0
  0
LINE
  5
31E
  8
0
  6
CONTINUOUS
 62
     7
 10
-6.2397826087
 20
4.293
 30
0.0
 11
-6.9597826087
 21
4.293
 31
0.0
  0
LINE
  5
31F
  8
0
  6
CONTINUOUS
 62
     7
 10
-6.9597826087
 20
4.293
 30
0.0
 11
-6.9597826087
 21
0.713
 31
0.0
  0
LINE
  5
320
  8
0
  6
CONTINUOUS
 62
     7
 10
-8.012826087
 20
0.713
 30
0.0
 11
-7.292826087
 21
0.713
 31
0.0
  0
LINE
  5
321
  8
0
  6
CONTINUOUS
 62
     7
 10
-7.292826087
 20
0.713
 30
0.0
 11
-7.292826087
 21
4.293
 31
0.0
  0
LINE
  5
322
  8
0
  6
CONTINUOUS
 62
     7
 10
-7.292826087
 20
4.293
 30
0.0
 11
-8.012826087
 21
4.293
 31
0.0
  0
LINE
  5
323
  8
0
  6
CONTINUOUS
 62
     7
 10
-8.012826087
 20
4.293
 30
0.0
 11
-8.012826087
 21
0.713
 31
0.0
  0
LINE
  5
324
  8
0
  6
CONTINUOUS
 62
     7
 10
-10.1189130435
 20
0.713
 30
0.0
 11
-9.3989130435
 21
0.713
 31
0.0
  0
LINE
  5
325
  8
0
  6
CONTINUOUS
 62
     7
 10
-9.3989130435
 20
0.713
 30
0.0
 11
-9.3989130435
 21
4.293
 31
0.0
  0
LINE
  5
326
  8
0
  6
CONTINUOUS
 62
     7
 10
-9.3989130435
 20
4.293
 30
0.0
 11
-10.1189130435
 21
4.293
 31
0.0
  0
LINE
  5
327
  8
0
  6
CONTINUOUS
 62
     7
 10
-10.1189130435
 20
4.293
 30
0.0
 11
-10.1189130435
 21
0.713
 31
0.0
  0
LINE
  5
328
  8
0
  6
CONTINUOUS
 62
     7
 10
-11.1719565217
 20
0.713
 30
0.0
 11
-10.4519565217
 21
0.713
 31
0.0
  0
LINE
  5
329
  8
0
  6
CONTINUOUS
 62
     7
 10
-10.4519565217
 20
0.713
 30
0.0
 11
-10.4519565217
 21
4.293
 31
0.0
  0
LINE
  5
32A
  8
0
  6
CONTINUOUS
 62
     7
 10
-10.4519565217
 20
4.293
 30
0.0
 11
-11.1719565217
 21
4.293
 31
0.0
  0
LINE
  5
32B
  8
0
  6
CONTINUOUS
 62
     7
 10
-11.1719565217
 20
4.293
 30
0.0
 11
-11.1719565217
 21
0.713
 31
0.0
  0
LINE
  5
32C
  8
0
  6
CONTINUOUS
 62
     7
 10
-8.012826087
 20
-9.293
 30
0.0
 11
-7.292826087
 21
-9.293
 31
0.0
  0
LINE
  5
32D
  8
0
  6
CONTINUOUS
 62
     7
 10
-7.292826087
 20
-9.293
 30
0.0
 11
-7.292826087
 21
-5.713
 31
0.0
  0
LINE
  5
32E
  8
0
  6
CONTINUOUS
 62
     7
 10
-7.292826087
 20
-5.713
 30
0.0
 11
-8.012826087
 21
-5.713
 31
0.0
  0
LINE
  5
32F
  8
0
  6
CONTINUOUS
 62
     7
 10
-8.012826087
 20
-5.713
 30
0.0
 11
-8.012826087
 21
-9.293
 31
0.0
  0
LINE
  5
330
  8
0
  6
CONTINUOUS
 62
     7
 10
-6.9597826087
 20
-9.293
 30
0.0
 11
-6.2397826087
 21
-9.293
 31
0.0
  0
LINE
  5
331
  8
0
  6
CONTINUOUS
 62
     7
 10
-6.2397826087
 20
-9.293
 30
0.0
 11
-6.2397826087
 21
-5.713
 31
0.0
  0
LINE
  5
332
  8
0
  6
CONTINUOUS
 62
     7
 10
-6.2397826087
 20
-5.713
 30
0.0
 11
-6.9597826087
 21
-5.713
 31
0.0
  0
LINE
  5
333
  8
0
  6
CONTINUOUS
 62
     7
 10
-6.9597826087
 20
-5.713
 30
0.0
 11
-6.9597826087
 21
-9.293
 31
0.0
  0
LINE
  5
334
  8
0
  6
CONTINUOUS
 62
     7
 10
-5.9067391304
 20
-9.293
 30
0.0
 11
-5.1867391304
 21
-9.293
 31
0.0
  0
LINE
  5
335
  8
0
  6
CONTINUOUS
 62
     7
 10
-5.1867391304
 20
-9.293
 30
0.0
 11
-5.1867391304
 21
-5.713
 31
0.0
  0
LINE
  5
336
  8
0
  6
CONTINUOUS
 62
     7
 10
-5.1867391304
 20
-5.713
 30
0.0
 11
-5.9067391304
 21
-5.713
 31
0.0
  0
LINE
  5
337
  8
0
  6
CONTINUOUS
 62
     7
 10
-5.9067391304
 20
-5.713
 30
0.0
 11
-5.9067391304
 21
-9.293
 31
0.0
  0
LINE
  5
338
  8
0
  6
CONTINUOUS
 62
     7
 10
-4.8536956522
 20
-9.293
 30
0.0
 11
-4.1336956522
 21
-9.293
 31
0.0
  0
LINE
  5
339
  8
0
  6
CONTINUOUS
 62
     7
 10
-4.1336956522
 20
-9.293
 30
0.0
 11
-4.1336956522
 21
-5.713
 31
0.0
  0
LINE
  5
33A
  8
0
  6
CONTINUOUS
 62
     7
 10
-4.1336956522
 20
-5.713
 30
0.0
 11
-4.8536956522
 21
-5.713
 31
0.0
  0
LINE
  5
33B
  8
0
  6
CONTINUOUS
 62
     7
 10
-4.8536956522
 20
-5.713
 30
0.0
 11
-4.8536956522
 21
-9.293
 31
0.0
  0
LINE
  5
33C
  8
0
  6
CONTINUOUS
 62
     7
 10
-2.7476086957
 20
-9.293
 30
0.0
 11
-2.0276086957
 21
-9.293
 31
0.0
  0
LINE
  5
33D
  8
0
  6
CONTINUOUS
 62
     7
 10
-2.0276086957
 20
-9.293
 30
0.0
 11
-2.0276086957
 21
-5.713
 31
0.0
  0
LINE
  5
33E
  8
0
  6
CONTINUOUS
 62
     7
 10
-2.0276086957
 20
-5.713
 30
0.0
 11
-2.7476086957
 21
-5.713
 31
0.0
  0
LINE
  5
33F
  8
0
  6
CONTINUOUS
 62
     7
 10
-2.7476086957
 20
-5.713
 30
0.0
 11
-2.7476086957
 21
-9.293
 31
0.0
  0
LINE
  5
340
  8
0
  6
CONTINUOUS
 62
     7
 10
-1.6945652174
 20
-9.293
 30
0.0
 11
-0.9745652174
 21
-9.293
 31
0.0
  0
LINE
  5
341
  8
0
  6
CONTINUOUS
 62
     7
 10
-0.9745652174
 20
-9.293
 30
0.0
 11
-0.9745652174
 21
-5.713
 31
0.0
  0
LINE
  5
342
  8
0
  6
CONTINUOUS
 62
     7
 10
-0.9745652174
 20
-5.713
 30
0.0
 11
-1.6945652174
 21
-5.713
 31
0.0
  0
LINE
  5
343
  8
0
  6
CONTINUOUS
 62
     7
 10
-1.6945652174
 20
-5.713
 30
0.0
 11
-1.6945652174
 21
-9.293
 31
0.0
  0
LINE
  5
344
  8
0
  6
CONTINUOUS
 62
     7
 10
-0.6415217391
 20
-9.293
 30
0.0
 11
0.0784782609
 21
-9.293
 31
0.0
  0
LINE
  5
345
  8
0
  6
CONTINUOUS
 62
     7
 10
0.0784782609
 20
-9.293
 30
0.0
 11
0.0784782609
 21
-5.713
 31
0.0
  0
LINE
  5
346
  8
0
  6
CONTINUOUS
 62
     7
 10
0.0784782609
 20
-5.713
 30
0.0
 11
-0.6415217391
 21
-5.713
 31
0.0
  0
LINE
  5
347
  8
0
  6
CONTINUOUS
 62
     7
 10
-0.6415217391
 20
-5.713
 30
0.0
 11
-0.6415217391
 21
-9.293
 31
0.0
  0
LINE
  5
348
  8
0
  6
CONTINUOUS
 62
     7
 10
0.4115217391
 20
-9.293
 30
0.0
 11
1.1315217391
 21
-9.293
 31
0.0
  0
LINE
  5
349
  8
0
  6
CONTINUOUS
 62
     7
 10
1.1315217391
 20
-9.293
 30
0.0
 11
1.1315217391
 21
-5.713
 31
0.0
  0
LINE
  5
34A
  8
0
  6
CONTINUOUS
 62
     7
 10
1.1315217391
 20
-5.713
 30
0.0
 11
0.4115217391
 21
-5.713
 31
0.0
  0
LINE
  5
34B
  8
0
  6
CONTINUOUS
 62
     7
 10
0.4115217391
 20
-5.713
 30
0.0
 11
0.4115217391
 21
-9.293
 31
0.0
  0
LINE
  5
34C
  8
0
  6
CONTINUOUS
 62
     7
 10
1.4645652174
 20
-9.293
 30
0.0
 11
2.1845652174
 21
-9.293
 31
0.0
  0
LINE
  5
34D
  8
0
  6
CONTINUOUS
 62
     7
 10
2.1845652174
 20
-9.293
 30
0.0
 11
2.1845652174
 21
-5.713
 31
0.0
  0
LINE
  5
34E
  8
0
  6
CONTINUOUS
 62
     7
 10
2.1845652174
 20
-5.713
 30
0.0
 11
1.4645652174
 21
-5.713
 31
0.0
  0
LINE
  5
34F
  8
0
  6
CONTINUOUS
 62
     7
 10
1.4645652174
 20
-5.713
 30
0.0
 11
1.4645652174
 21
-9.293
 31
0.0
  0
LINE
  5
350
  8
0
  6
CONTINUOUS
 62
     7
 10
2.5176086957
 20
-9.293
 30
0.0
 11
3.2376086957
 21
-9.293
 31
0.0
  0
LINE
  5
351
  8
0
  6
CONTINUOUS
 62
     7
 10
3.2376086957
 20
-9.293
 30
0.0
 11
3.2376086957
 21
-5.713
 31
0.0
  0
LINE
  5
352
  8
0
  6
CONTINUOUS
 62
     7
 10
3.2376086957
 20
-5.713
 30
0.0
 11
2.5176086957
 21
-5.713
 31
0.0
  0
LINE
  5
353
  8
0
  6
CONTINUOUS
 62
     7
 10
2.5176086957
 20
-5.713
 30
0.0
 11
2.5176086957
 21
-9.293
 31
0.0
  0
LINE
  5
354
  8
0
  6
CONTINUOUS
 62
     7
 10
-12.225
 20
-9.293
 30
0.0
 11
-11.505
 21
-9.293
 31
0.0
  0
LINE
  5
355
  8
0
  6
CONTINUOUS
 62
     7
 10
-11.505
 20
-9.293
 30
0.0
 11
-11.505
 21
-5.713
 31
0.0
  0
LINE
  5
356
  8
0
  6
CONTINUOUS
 62
     7
 10
-11.505
 20
-5.713
 30
0.0
 11
-12.225
 21
-5.713
 31
0.0
  0
LINE
  5
357
  8
0
  6
CONTINUOUS
 62
     7
 10
-12.225
 20
-5.713
 30
0.0
 11
-12.225
 21
-9.293
 31
0.0
  0
LINE
  5
358
  8
0
  6
CONTINUOUS
 62
     7
 10
-12.225
 20
-4.29
 30
0.0
 11
-11.505
 21
-4.29
 31
0.0
  0
LINE
  5
359
  8
0
  6
CONTINUOUS
 62
     7
 10
-11.505
 20
-4.29
 30
0.0
 11
-11.505
 21
-0.71
 31
0.0
  0
LINE
  5
35A
  8
0
  6
CONTINUOUS
 62
     7
 10
-11.505
 20
-0.71
 30
0.0
 11
-12.225
 21
-0.71
 31
0.0
  0
LINE
  5
35B
  8
0
  6
CONTINUOUS
 62
     7
 10
-12.225
 20
-0.71
 30
0.0
 11
-12.225
 21
-4.29
 31
0.0
  0
LINE
  5
35C
  8
0
  6
CONTINUOUS
 62
     7
 10
-12.225
 20
0.713
 30
0.0
 11
-11.505
 21
0.713
 31
0.0
  0
LINE
  5
35D
  8
0
  6
CONTINUOUS
 62
     7
 10
-11.505
 20
0.713
 30
0.0
 11
-11.505
 21
4.293
 31
0.0
  0
LINE
  5
35E
  8
0
  6
CONTINUOUS
 62
     7
 10
-11.505
 20
4.293
 30
0.0
 11
-12.225
 21
4.293
 31
0.0
  0
LINE
  5
35F
  8
0
  6
CONTINUOUS
 62
     7
 10
-12.225
 20
4.293
 30
0.0
 11
-12.225
 21
0.713
 31
0.0
  0
LINE
  5
360
  8
0
  6
CONTINUOUS
 62
     7
 10
11.995
 20
-9.293
 30
0.0
 11
12.715
 21
-9.293
 31
0.0
  0
LINE
  5
361
  8
0
  6
CONTINUOUS
 62
     7
 10
12.715
 20
-9.293
 30
0.0
 11
12.715
 21
-5.713
 31
0.0
  0
LINE
  5
362
  8
0
  6
CONTINUOUS
 62
     7
 10
12.715
 20
-5.713
 30
0.0
 11
11.995
 21
-5.713
 31
0.0
  0
LINE
  5
363
  8
0
  6
CONTINUOUS
 62
     7
 10
11.995
 20
-5.713
 30
0.0
 11
11.995
 21
-9.293
 31
0.0
  0
LINE
  5
364
  8
0
  6
CONTINUOUS
 62
     7
 10
10.9419565217
 20
-9.293
 30
0.0
 11
11.6619565217
 21
-9.293
 31
0.0
  0
LINE
  5
365
  8
0
  6
CONTINUOUS
 62
     7
 10
11.6619565217
 20
-9.293
 30
0.0
 11
11.6619565217
 21
-5.713
 31
0.0
  0
LINE
  5
366
  8
0
  6
CONTINUOUS
 62
     7
 10
11.6619565217
 20
-5.713
 30
0.0
 11
10.9419565217
 21
-5.713
 31
0.0
  0
LINE
  5
367
  8
0
  6
CONTINUOUS
 62
     7
 10
10.9419565217
 20
-5.713
 30
0.0
 11
10.9419565217
 21
-9.293
 31
0.0
  0
LINE
  5
368
  8
0
  6
CONTINUOUS
 62
     7
 10
9.8889130435
 20
-9.293
 30
0.0
 11
10.6089130435
 21
-9.293
 31
0.0
  0
LINE
  5
369
  8
0
  6
CONTINUOUS
 62
     7
 10
10.6089130435
 20
-9.293
 30
0.0
 11
10.6089130435
 21
-5.713
 31
0.0
  0
LINE
  5
36A
  8
0
  6
CONTINUOUS
 62
     7
 10
10.6089130435
 20
-5.713
 30
0.0
 11
9.8889130435
 21
-5.713
 31
0.0
  0
LINE
  5
36B
  8
0
  6
CONTINUOUS
 62
     7
 10
9.8889130435
 20
-5.713
 30
0.0
 11
9.8889130435
 21
-9.293
 31
0.0
  0
LINE
  5
36C
  8
0
  6
CONTINUOUS
 62
     7
 10
7.782826087
 20
-9.293
 30
0.0
 11
8.502826087
 21
-9.293
 31
0.0
  0
LINE
  5
36D
  8
0
  6
CONTINUOUS
 62
     7
 10
8.502826087
 20
-9.293
 30
0.0
 11
8.502826087
 21
-5.713
 31
0.0
  0
LINE
  5
36E
  8
0
  6
CONTINUOUS
 62
     7
 10
8.502826087
 20
-5.713
 30
0.0
 11
7.782826087
 21
-5.713
 31
0.0
  0
LINE
  5
36F
  8
0
  6
CONTINUOUS
 62
     7
 10
7.782826087
 20
-5.713
 30
0.0
 11
7.782826087
 21
-9.293
 31
0.0
  0
LINE
  5
370
  8
0
  6
CONTINUOUS
 62
     7
 10
6.7297826087
 20
-9.293
 30
0.0
 11
7.4497826087
 21
-9.293
 31
0.0
  0
LINE
  5
371
  8
0
  6
CONTINUOUS
 62
     7
 10
7.4497826087
 20
-9.293
 30
0.0
 11
7.4497826087
 21
-5.713
 31
0.0
  0
LINE
  5
372
  8
0
  6
CONTINUOUS
 62
     7
 10
7.4497826087
 20
-5.713
 30
0.0
 11
6.7297826087
 21
-5.713
 31
0.0
  0
LINE
  5
373
  8
0
  6
CONTINUOUS
 62
     7
 10
6.7297826087
 20
-5.713
 30
0.0
 11
6.7297826087
 21
-9.293
 31
0.0
  0
LINE
  5
374
  8
0
  6
CONTINUOUS
 62
     7
 10
5.6767391304
 20
-9.293
 30
0.0
 11
6.3967391304
 21
-9.293
 31
0.0
  0
LINE
  5
375
  8
0
  6
CONTINUOUS
 62
     7
 10
6.3967391304
 20
-9.293
 30
0.0
 11
6.3967391304
 21
-5.713
 31
0.0
  0
LINE
  5
376
  8
0
  6
CONTINUOUS
 62
     7
 10
6.3967391304
 20
-5.713
 30
0.0
 11
5.6767391304
 21
-5.713
 31
0.0
  0
LINE
  5
377
  8
0
  6
CONTINUOUS
 62
     7
 10
5.6767391304
 20
-5.713
 30
0.0
 11
5.6767391304
 21
-9.293
 31
0.0
  0
LINE
  5
378
  8
0
  6
CONTINUOUS
 62
     7
 10
4.6236956522
 20
-9.293
 30
0.0
 11
5.3436956522
 21
-9.293
 31
0.0
  0
LINE
  5
379
  8
0
  6
CONTINUOUS
 62
     7
 10
5.3436956522
 20
-9.293
 30
0.0
 11
5.3436956522
 21
-5.713
 31
0.0
  0
LINE
  5
37A
  8
0
  6
CONTINUOUS
 62
     7
 10
5.3436956522
 20
-5.713
 30
0.0
 11
4.6236956522
 21
-5.713
 31
0.0
  0
LINE
  5
37B
  8
0
  6
CONTINUOUS
 62
     7
 10
4.6236956522
 20
-5.713
 30
0.0
 11
4.6236956522
 21
-9.293
 31
0.0
  0
LINE
  5
37C
  8
0
  6
CONTINUOUS
 62
     7
 10
-10.1189130435
 20
-4.29
 30
0.0
 11
-9.3989130435
 21
-4.29
 31
0.0
  0
LINE
  5
37D
  8
0
  6
CONTINUOUS
 62
     7
 10
-9.3989130435
 20
-4.29
 30
0.0
 11
-9.3989130435
 21
-0.71
 31
0.0
  0
LINE
  5
37E
  8
0
  6
CONTINUOUS
 62
     7
 10
-9.3989130435
 20
-0.71
 30
0.0
 11
-10.1189130435
 21
-0.71
 31
0.0
  0
LINE
  5
37F
  8
0
  6
CONTINUOUS
 62
     7
 10
-10.1189130435
 20
-0.71
 30
0.0
 11
-10.1189130435
 21
-4.29
 31
0.0
  0
LINE
  5
380
  8
0
  6
CONTINUOUS
 62
     7
 10
-8.012826087
 20
-4.29
 30
0.0
 11
-7.292826087
 21
-4.29
 31
0.0
  0
LINE
  5
381
  8
0
  6
CONTINUOUS
 62
     7
 10
-7.292826087
 20
-4.29
 30
0.0
 11
-7.292826087
 21
-0.71
 31
0.0
  0
LINE
  5
382
  8
0
  6
CONTINUOUS
 62
     7
 10
-7.292826087
 20
-0.71
 30
0.0
 11
-8.012826087
 21
-0.71
 31
0.0
  0
LINE
  5
383
  8
0
  6
CONTINUOUS
 62
     7
 10
-8.012826087
 20
-0.71
 30
0.0
 11
-8.012826087
 21
-4.29
 31
0.0
  0
LINE
  5
384
  8
0
  6
CONTINUOUS
 62
     7
 10
-6.9597826087
 20
-4.29
 30
0.0
 11
-6.2397826087
 21
-4.29
 31
0.0
  0
LINE
  5
385
  8
0
  6
CONTINUOUS
 62
     7
 10
-6.2397826087
 20
-4.29
 30
0.0
 11
-6.2397826087
 21
-0.71
 31
0.0
  0
LINE
  5
386
  8
0
  6
CONTINUOUS
 62
     7
 10
-6.2397826087
 20
-0.71
 30
0.0
 11
-6.9597826087
 21
-0.71
 31
0.0
  0
LINE
  5
387
  8
0
  6
CONTINUOUS
 62
     7
 10
-6.9597826087
 20
-0.71
 30
0.0
 11
-6.9597826087
 21
-4.29
 31
0.0
  0
LINE
  5
388
  8
0
  6
CONTINUOUS
 62
     7
 10
-5.9067391304
 20
-4.29
 30
0.0
 11
-5.1867391304
 21
-4.29
 31
0.0
  0
LINE
  5
389
  8
0
  6
CONTINUOUS
 62
     7
 10
-5.1867391304
 20
-4.29
 30
0.0
 11
-5.1867391304
 21
-0.71
 31
0.0
  0
LINE
  5
38A
  8
0
  6
CONTINUOUS
 62
     7
 10
-5.1867391304
 20
-0.71
 30
0.0
 11
-5.9067391304
 21
-0.71
 31
0.0
  0
LINE
  5
38B
  8
0
  6
CONTINUOUS
 62
     7
 10
-5.9067391304
 20
-0.71
 30
0.0
 11
-5.9067391304
 21
-4.29
 31
0.0
  0
LINE
  5
38C
  8
0
  6
CONTINUOUS
 62
     7
 10
-4.8536956522
 20
-4.29
 30
0.0
 11
-4.1336956522
 21
-4.29
 31
0.0
  0
LINE
  5
38D
  8
0
  6
CONTINUOUS
 62
     7
 10
-4.1336956522
 20
-4.29
 30
0.0
 11
-4.1336956522
 21
-0.71
 31
0.0
  0
LINE
  5
38E
  8
0
  6
CONTINUOUS
 62
     7
 10
-4.1336956522
 20
-0.71
 30
0.0
 11
-4.8536956522
 21
-0.71
 31
0.0
  0
LINE
  5
38F
  8
0
  6
CONTINUOUS
 62
     7
 10
-4.8536956522
 20
-0.71
 30
0.0
 11
-4.8536956522
 21
-4.29
 31
0.0
  0
LINE
  5
390
  8
0
  6
CONTINUOUS
 62
     7
 10
-2.7476086957
 20
-4.29
 30
0.0
 11
-2.0276086957
 21
-4.29
 31
0.0
  0
LINE
  5
391
  8
0
  6
CONTINUOUS
 62
     7
 10
-2.0276086957
 20
-4.29
 30
0.0
 11
-2.0276086957
 21
-0.71
 31
0.0
  0
LINE
  5
392
  8
0
  6
CONTINUOUS
 62
     7
 10
-2.0276086957
 20
-0.71
 30
0.0
 11
-2.7476086957
 21
-0.71
 31
0.0
  0
LINE
  5
393
  8
0
  6
CONTINUOUS
 62
     7
 10
-2.7476086957
 20
-0.71
 30
0.0
 11
-2.7476086957
 21
-4.29
 31
0.0
  0
LINE
  5
394
  8
0
  6
CONTINUOUS
 62
     7
 10
-1.6945652174
 20
-4.29
 30
0.0
 11
-0.9745652174
 21
-4.29
 31
0.0
  0
LINE
  5
395
  8
0
  6
CONTINUOUS
 62
     7
 10
-0.9745652174
 20
-4.29
 30
0.0
 11
-0.9745652174
 21
-0.71
 31
0.0
  0
LINE
  5
396
  8
0
  6
CONTINUOUS
 62
     7
 10
-0.9745652174
 20
-0.71
 30
0.0
 11
-1.6945652174
 21
-0.71
 31
0.0
  0
LINE
  5
397
  8
0
  6
CONTINUOUS
 62
     7
 10
-1.6945652174
 20
-0.71
 30
0.0
 11
-1.6945652174
 21
-4.29
 31
0.0
  0
LINE
  5
398
  8
0
  6
CONTINUOUS
 62
     7
 10
-0.6415217391
 20
-4.29
 30
0.0
 11
0.0784782609
 21
-4.29
 31
0.0
  0
LINE
  5
399
  8
0
  6
CONTINUOUS
 62
     7
 10
0.0784782609
 20
-4.29
 30
0.0
 11
0.0784782609
 21
-0.71
 31
0.0
  0
LINE
  5
39A
  8
0
  6
CONTINUOUS
 62
     7
 10
0.0784782609
 20
-0.71
 30
0.0
 11
-0.6415217391
 21
-0.71
 31
0.0
  0
LINE
  5
39B
  8
0
  6
CONTINUOUS
 62
     7
 10
-0.6415217391
 20
-0.71
 30
0.0
 11
-0.6415217391
 21
-4.29
 31
0.0
  0
LINE
  5
39C
  8
0
  6
CONTINUOUS
 62
     7
 10
0.4115217391
 20
-4.29
 30
0.0
 11
1.1315217391
 21
-4.29
 31
0.0
  0
LINE
  5
39D
  8
0
  6
CONTINUOUS
 62
     7
 10
1.1315217391
 20
-4.29
 30
0.0
 11
1.1315217391
 21
-0.71
 31
0.0
  0
LINE
  5
39E
  8
0
  6
CONTINUOUS
 62
     7
 10
1.1315217391
 20
-0.71
 30
0.0
 11
0.4115217391
 21
-0.71
 31
0.0
  0
LINE
  5
39F
  8
0
  6
CONTINUOUS
 62
     7
 10
0.4115217391
 20
-0.71
 30
0.0
 11
0.4115217391
 21
-4.29
 31
0.0
  0
LINE
  5
3A0
  8
0
  6
CONTINUOUS
 62
     7
 10
1.4645652174
 20
-4.29
 30
0.0
 11
2.1845652174
 21
-4.29
 31
0.0
  0
LINE
  5
3A1
  8
0
  6
CONTINUOUS
 62
     7
 10
2.1845652174
 20
-4.29
 30
0.0
 11
2.1845652174
 21
-0.71
 31
0.0
  0
LINE
  5
3A2
  8
0
  6
CONTINUOUS
 62
     7
 10
2.1845652174
 20
-0.71
 30
0.0
 11
1.4645652174
 21
-0.71
 31
0.0
  0
LINE
  5
3A3
  8
0
  6
CONTINUOUS
 62
     7
 10
1.4645652174
 20
-0.71
 30
0.0
 11
1.4645652174
 21
-4.29
 31
0.0
  0
LINE
  5
3A4
  8
0
  6
CONTINUOUS
 62
     7
 10
9.8889130435
 20
-4.29
 30
0.0
 11
10.6089130435
 21
-4.29
 31
0.0
  0
LINE
  5
3A5
  8
0
  6
CONTINUOUS
 62
     7
 10
10.6089130435
 20
-4.29
 30
0.0
 11
10.6089130435
 21
-0.71
 31
0.0
  0
LINE
  5
3A6
  8
0
  6
CONTINUOUS
 62
     7
 10
10.6089130435
 20
-0.71
 30
0.0
 11
9.8889130435
 21
-0.71
 31
0.0
  0
LINE
  5
3A7
  8
0
  6
CONTINUOUS
 62
     7
 10
9.8889130435
 20
-0.71
 30
0.0
 11
9.8889130435
 21
-4.29
 31
0.0
  0
LINE
  5
3A8
  8
0
  6
CONTINUOUS
 62
     7
 10
10.9419565217
 20
-4.29
 30
0.0
 11
11.6619565217
 21
-4.29
 31
0.0
  0
LINE
  5
3A9
  8
0
  6
CONTINUOUS
 62
     7
 10
11.6619565217
 20
-4.29
 30
0.0
 11
11.6619565217
 21
-0.71
 31
0.0
  0
LINE
  5
3AA
  8
0
  6
CONTINUOUS
 62
     7
 10
11.6619565217
 20
-0.71
 30
0.0
 11
10.9419565217
 21
-0.71
 31
0.0
  0
LINE
  5
3AB
  8
0
  6
CONTINUOUS
 62
     7
 10
10.9419565217
 20
-0.71
 30
0.0
 11
10.9419565217
 21
-4.29
 31
0.0
  0
LINE
  5
3AC
  8
0
  6
CONTINUOUS
 62
     7
 10
11.995
 20
-4.29
 30
0.0
 11
12.715
 21
-4.29
 31
0.0
  0
LINE
  5
3AD
  8
0
  6
CONTINUOUS
 62
     7
 10
12.715
 20
-4.29
 30
0.0
 11
12.715
 21
-0.71
 31
0.0
  0
LINE
  5
3AE
  8
0
  6
CONTINUOUS
 62
     7
 10
12.715
 20
-0.71
 30
0.0
 11
11.995
 21
-0.71
 31
0.0
  0
LINE
  5
3AF
  8
0
  6
CONTINUOUS
 62
     7
 10
11.995
 20
-0.71
 30
0.0
 11
11.995
 21
-4.29
 31
0.0
  0
LINE
  5
3B0
  8
0
  6
CONTINUOUS
 62
     7
 10
-11.1719565217
 20
-9.293
 30
0.0
 11
-10.4519565217
 21
-9.293
 31
0.0
  0
LINE
  5
3B1
  8
0
  6
CONTINUOUS
 62
     7
 10
-10.4519565217
 20
-9.293
 30
0.0
 11
-10.4519565217
 21
-5.713
 31
0.0
  0
LINE
  5
3B2
  8
0
  6
CONTINUOUS
 62
     7
 10
-10.4519565217
 20
-5.713
 30
0.0
 11
-11.1719565217
 21
-5.713
 31
0.0
  0
LINE
  5
3B3
  8
0
  6
CONTINUOUS
 62
     7
 10
-11.1719565217
 20
-5.713
 30
0.0
 11
-11.1719565217
 21
-9.293
 31
0.0
  0
LINE
  5
3B4
  8
0
  6
CONTINUOUS
 62
     7
 10
-10.1189130435
 20
-9.293
 30
0.0
 11
-9.3989130435
 21
-9.293
 31
0.0
  0
LINE
  5
3B5
  8
0
  6
CONTINUOUS
 62
     7
 10
-9.3989130435
 20
-9.293
 30
0.0
 11
-9.3989130435
 21
-5.713
 31
0.0
  0
LINE
  5
3B6
  8
0
  6
CONTINUOUS
 62
     7
 10
-9.3989130435
 20
-5.713
 30
0.0
 11
-10.1189130435
 21
-5.713
 31
0.0
  0
LINE
  5
3B7
  8
0
  6
CONTINUOUS
 62
     7
 10
-10.1189130435
 20
-5.713
 30
0.0
 11
-10.1189130435
 21
-9.293
 31
0.0
  0
LINE
  5
3B8
  8
0
  6
CONTINUOUS
 62
     7
 10
7.782826087
 20
-4.29
 30
0.0
 11
8.502826087
 21
-4.29
 31
0.0
  0
LINE
  5
3B9
  8
0
  6
CONTINUOUS
 62
     7
 10
8.502826087
 20
-4.29
 30
0.0
 11
8.502826087
 21
-0.71
 31
0.0
  0
LINE
  5
3BA
  8
0
  6
CONTINUOUS
 62
     7
 10
8.502826087
 20
-0.71
 30
0.0
 11
7.782826087
 21
-0.71
 31
0.0
  0
LINE
  5
3BB
  8
0
  6
CONTINUOUS
 62
     7
 10
7.782826087
 20
-0.71
 30
0.0
 11
7.782826087
 21
-4.29
 31
0.0
  0
LINE
  5
3BC
  8
0
  6
CONTINUOUS
 62
     7
 10
6.7297826087
 20
-4.29
 30
0.0
 11
7.4497826087
 21
-4.29
 31
0.0
  0
LINE
  5
3BD
  8
0
  6
CONTINUOUS
 62
     7
 10
7.4497826087
 20
-4.29
 30
0.0
 11
7.4497826087
 21
-0.71
 31
0.0
  0
LINE
  5
3BE
  8
0
  6
CONTINUOUS
 62
     7
 10
7.4497826087
 20
-0.71
 30
0.0
 11
6.7297826087
 21
-0.71
 31
0.0
  0
LINE
  5
3BF
  8
0
  6
CONTINUOUS
 62
     7
 10
6.7297826087
 20
-0.71
 30
0.0
 11
6.7297826087
 21
-4.29
 31
0.0
  0
LINE
  5
3C0
  8
0
  6
CONTINUOUS
 62
     7
 10
5.6767391304
 20
-4.29
 30
0.0
 11
6.3967391304
 21
-4.29
 31
0.0
  0
LINE
  5
3C1
  8
0
  6
CONTINUOUS
 62
     7
 10
6.3967391304
 20
-4.29
 30
0.0
 11
6.3967391304
 21
-0.71
 31
0.0
  0
LINE
  5
3C2
  8
0
  6
CONTINUOUS
 62
     7
 10
6.3967391304
 20
-0.71
 30
0.0
 11
5.6767391304
 21
-0.71
 31
0.0
  0
LINE
  5
3C3
  8
0
  6
CONTINUOUS
 62
     7
 10
5.6767391304
 20
-0.71
 30
0.0
 11
5.6767391304
 21
-4.29
 31
0.0
  0
LINE
  5
3C4
  8
0
  6
CONTINUOUS
 62
     7
 10
4.6236956522
 20
-4.29
 30
0.0
 11
5.3436956522
 21
-4.29
 31
0.0
  0
LINE
  5
3C5
  8
0
  6
CONTINUOUS
 62
     7
 10
5.3436956522
 20
-4.29
 30
0.0
 11
5.3436956522
 21
-0.71
 31
0.0
  0
LINE
  5
3C6
  8
0
  6
CONTINUOUS
 62
     7
 10
5.3436956522
 20
-0.71
 30
0.0
 11
4.6236956522
 21
-0.71
 31
0.0
  0
LINE
  5
3C7
  8
0
  6
CONTINUOUS
 62
     7
 10
4.6236956522
 20
-0.71
 30
0.0
 11
4.6236956522
 21
-4.29
 31
0.0
  0
LINE
  5
3C8
  8
0
  6
CONTINUOUS
 62
     7
 10
2.5176086957
 20
-4.29
 30
0.0
 11
3.2376086957
 21
-4.29
 31
0.0
  0
LINE
  5
3C9
  8
0
  6
CONTINUOUS
 62
     7
 10
3.2376086957
 20
-4.29
 30
0.0
 11
3.2376086957
 21
-0.71
 31
0.0
  0
LINE
  5
3CA
  8
0
  6
CONTINUOUS
 62
     7
 10
3.2376086957
 20
-0.71
 30
0.0
 11
2.5176086957
 21
-0.71
 31
0.0
  0
LINE
  5
3CB
  8
0
  6
CONTINUOUS
 62
     7
 10
2.5176086957
 20
-0.71
 30
0.0
 11
2.5176086957
 21
-4.29
 31
0.0
  0
LINE
  5
3CC
  8
0
  6
CONTINUOUS
 62
     7
 10
9.4608695948
 20
9.331
 30
0.0
 11
8.9308695948
 21
9.331
 31
0.0
  0
LINE
  5
3CD
  8
0
  6
CONTINUOUS
 62
     7
 10
8.9308695948
 20
5.681
 30
0.0
 11
9.4608695948
 21
5.681
 31
0.0
  0
LINE
  5
3CE
  8
0
  6
CONTINUOUS
 62
     7
 10
9.4608695948
 20
-5.678
 30
0.0
 11
8.9308695948
 21
-5.678
 31
0.0
  0
LINE
  5
3CF
  8
0
  6
CONTINUOUS
 62
     7
 10
8.9308695948
 20
-9.328
 30
0.0
 11
9.4608695948
 21
-9.328
 31
0.0
  0
LINE
  5
3D0
  8
0
  6
CONTINUOUS
 62
     7
 10
-3.1756521652
 20
-5.678
 30
0.0
 11
-3.7056521652
 21
-5.678
 31
0.0
  0
LINE
  5
3D1
  8
0
  6
CONTINUOUS
 62
     7
 10
-3.7056521652
 20
-9.328
 30
0.0
 11
-3.1756521652
 21
-9.328
 31
0.0
  0
LINE
  5
3D2
  8
0
  6
CONTINUOUS
 62
     7
 10
-8.4408695652
 20
-5.678
 30
0.0
 11
-8.9708695652
 21
-5.678
 31
0.0
  0
LINE
  5
3D3
  8
0
  6
CONTINUOUS
 62
     7
 10
-8.9708695652
 20
-9.328
 30
0.0
 11
-8.4408695652
 21
-9.328
 31
0.0
  0
LINE
  5
3D4
  8
0
  6
CONTINUOUS
 62
     7
 10
4.1956521948
 20
-5.678
 30
0.0
 11
3.6656521948
 21
-5.678
 31
0.0
  0
LINE
  5
3D5
  8
0
  6
CONTINUOUS
 62
     7
 10
3.6656521948
 20
-9.328
 30
0.0
 11
4.1956521948
 21
-9.328
 31
0.0
  0
LINE
  5
3D6
  8
0
  6
CONTINUOUS
 62
     7
 10
9.4608695948
 20
-0.675
 30
0.0
 11
8.9308695948
 21
-0.675
 31
0.0
  0
LINE
  5
3D7
  8
0
  6
CONTINUOUS
 62
     7
 10
8.9308695948
 20
-4.325
 30
0.0
 11
9.4608695948
 21
-4.325
 31
0.0
  0
LINE
  5
3D8
  8
0
  6
CONTINUOUS
 62
     7
 10
-3.1756521652
 20
-0.675
 30
0.0
 11
-3.7056521652
 21
-0.675
 31
0.0
  0
LINE
  5
3D9
  8
0
  6
CONTINUOUS
 62
     7
 10
-3.7056521652
 20
-4.325
 30
0.0
 11
-3.1756521652
 21
-4.325
 31
0.0
  0
LINE
  5
3DA
  8
0
  6
CONTINUOUS
 62
     7
 10
-8.4408695652
 20
-0.675
 30
0.0
 11
-8.9708695652
 21
-0.675
 31
0.0
  0
LINE
  5
3DB
  8
0
  6
CONTINUOUS
 62
     7
 10
-8.9708695652
 20
-4.325
 30
0.0
 11
-8.4408695652
 21
-4.325
 31
0.0
  0
LINE
  5
3DC
  8
0
  6
CONTINUOUS
 62
     7
 10
4.1956521948
 20
-0.675
 30
0.0
 11
3.6656521948
 21
-0.675
 31
0.0
  0
LINE
  5
3DD
  8
0
  6
CONTINUOUS
 62
     7
 10
3.6656521948
 20
-4.325
 30
0.0
 11
4.1956521948
 21
-4.325
 31
0.0
  0
LINE
  5
3DE
  8
0
  6
CONTINUOUS
 62
     7
 10
9.4608695948
 20
4.328
 30
0.0
 11
8.9308695948
 21
4.328
 31
0.0
  0
LINE
  5
3DF
  8
0
  6
CONTINUOUS
 62
     7
 10
8.9308695948
 20
0.678
 30
0.0
 11
9.4608695948
 21
0.678
 31
0.0
  0
LINE
  5
3E0
  8
0
  6
CONTINUOUS
 62
     7
 10
-3.1756521652
 20
4.328
 30
0.0
 11
-3.7056521652
 21
4.328
 31
0.0
  0
LINE
  5
3E1
  8
0
  6
CONTINUOUS
 62
     7
 10
-3.7056521652
 20
0.678
 30
0.0
 11
-3.1756521652
 21
0.678
 31
0.0
  0
LINE
  5
3E2
  8
0
  6
CONTINUOUS
 62
     7
 10
-8.4408695652
 20
4.328
 30
0.0
 11
-8.9708695652
 21
4.328
 31
0.0
  0
LINE
  5
3E3
  8
0
  6
CONTINUOUS
 62
     7
 10
-8.9708695652
 20
0.678
 30
0.0
 11
-8.4408695652
 21
0.678
 31
0.0
  0
LINE
  5
3E4
  8
0
  6
CONTINUOUS
 62
     7
 10
4.1956521948
 20
4.328
 30
0.0
 11
3.6656521948
 21
4.328
 31
0.0
  0
LINE
  5
3E5
  8
0
  6
CONTINUOUS
 62
     7
 10
3.6656521948
 20
0.678
 30
0.0
 11
4.1956521948
 21
0.678
 31
0.0
  0
LINE
  5
3E6
  8
0
  6
CONTINUOUS
 62
     7
 10
-3.1756521652
 20
9.331
 30
0.0
 11
-3.7056521652
 21
9.331
 31
0.0
  0
LINE
  5
3E7
  8
0
  6
CONTINUOUS
 62
     7
 10
-3.7056521652
 20
5.681
 30
0.0
 11
-3.1756521652
 21
5.681
 31
0.0
  0
LINE
  5
3E8
  8
0
  6
CONTINUOUS
 62
     7
 10
-8.4408695652
 20
9.331
 30
0.0
 11
-8.9708695652
 21
9.331
 31
0.0
  0
LINE
  5
3E9
  8
0
  6
CONTINUOUS
 62
     7
 10
-8.9708695652
 20
5.681
 30
0.0
 11
-8.4408695652
 21
5.681
 31
0.0
  0
LINE
  5
3EA
  8
0
  6
CONTINUOUS
 62
     7
 10
4.1956521948
 20
9.331
 30
0.0
 11
3.6656521948
 21
9.331
 31
0.0
  0
LINE
  5
3EB
  8
0
  6
CONTINUOUS
 62
     7
 10
3.6656521948
 20
5.681
 30
0.0
 11
4.1956521948
 21
5.681
 31
0.0
  0
LINE
  5
3EC
  8
0
  6
CONTINUOUS
 62
     7
 10
13.393
 20
9.0976079783
 30
0.0
 11
13.393
 21
10.906
 31
0.0
  0
LINE
  5
3ED
  8
0
  6
CONTINUOUS
 62
     7
 10
13.393
 20
4.5976079783
 30
0.0
 11
13.393
 21
7.9143920217
 31
0.0
  0
LINE
  5
3EE
  8
0
  6
CONTINUOUS
 62
     7
 10
13.393
 20
0.5921072538
 30
0.0
 11
13.393
 21
3.4143920217
 31
0.0
  0
LINE
  5
3EF
  8
0
  6
CONTINUOUS
 62
     7
 10
13.393
 20
-3.4143920217
 30
0.0
 11
13.393
 21
-0.5921072538
 31
0.0
  0
LINE
  5
3F0
  8
0
  6
CONTINUOUS
 62
     7
 10
13.393
 20
-7.9143920217
 30
0.0
 11
13.393
 21
-4.5976079783
 31
0.0
  0
LINE
  5
3F1
  8
0
  6
CONTINUOUS
 62
     7
 10
13.393
 20
-10.906
 30
0.0
 11
13.393
 21
-9.0976079783
 31
0.0
  0
LINE
  5
3F2
  8
0
  6
CONTINUOUS
 62
     7
 10
-13.293
 20
-11.006
 30
0.0
 11
13.293
 21
-11.006
 31
0.0
  0
LINE
  5
3F3
  8
0
  6
CONTINUOUS
 62
     7
 10
-13.393
 20
10.906
 30
0.0
 11
-13.393
 21
-10.906
 31
0.0
  0
LINE
  5
3F4
  8
0
  6
CONTINUOUS
 62
     7
 10
13.293
 20
11.006
 30
0.0
 11
-13.293
 21
11.006
 31
0.0
  0
ARC
  5
3F5
  8
0
  6
CONTINUOUS
 62
     7
 10
-13.293
 20
-10.906
 30
0.0
 40
0.1000000000000032
 50
180.0
 51
270.0
  0
ARC
  5
3F6
  8
0
  6
CONTINUOUS
 62
     7
 10
-13.293
 20
10.906
 30
0.0
 40
0.1000000000000032
 50
90.0
 51
180.0
  0
ARC
  5
3F7
  8
0
  6
CONTINUOUS
 62
     7
 10
13.293
 20
10.906
 30
0.0
 40
0.1000000000000032
 50
0.0
 51
90.0
  0
ARC
  5
3F8
  8
0
  6
CONTINUOUS
 62
     7
 10
13.493
 20
9.0976079783
 30
0.0
 40
0.0999999999999996
 50
180.0
 51
260.4059317731
  0
ARC
  5
3F9
  8
0
  6
CONTINUOUS
 62
     7
 10
13.493
 20
7.9143920217
 30
0.0
 40
0.0999999999999968
 50
99.5940682269
 51
180.0
  0
ARC
  5
3FA
  8
0
  6
CONTINUOUS
 62
     7
 10
13.293
 20
4.5976079783
 30
0.0
 40
0.1000000000000041
 50
279.5940682269
 51
360.0
  0
ARC
  5
3FB
  8
0
  6
CONTINUOUS
 62
     7
 10
13.293
 20
3.4143920217
 30
0.0
 40
0.100000000000005
 50
0.0
 51
80.4059317731
  0
ARC
  5
3FC
  8
0
  6
CONTINUOUS
 62
     7
 10
13.493
 20
0.5921072538
 30
0.0
 40
0.0999999999999946
 50
180.0
 51
260.6963512353
  0
ARC
  5
3FD
  8
0
  6
CONTINUOUS
 62
     7
 10
13.493
 20
-0.5921072538
 30
0.0
 40
0.0999999999999998
 50
99.3036487647
 51
180.0
  0
ARC
  5
3FE
  8
0
  6
CONTINUOUS
 62
     7
 10
13.293
 20
-3.4143920217
 30
0.0
 40
0.1000000000000037
 50
279.5940682269
 51
360.0
  0
ARC
  5
3FF
  8
0
  6
CONTINUOUS
 62
     7
 10
13.293
 20
-4.5976079783
 30
0.0
 40
0.1000000000000032
 50
0.0
 51
80.4059317731
  0
ARC
  5
400
  8
0
  6
CONTINUOUS
 62
     7
 10
13.493
 20
-7.9143920217
 30
0.0
 40
0.1000000000000006
 50
180.0
 51
260.4059317731
  0
ARC
  5
401
  8
0
  6
CONTINUOUS
 62
     7
 10
13.493
 20
-9.0976079783
 30
0.0
 40
0.0999999999999968
 50
99.5940682269
 51
180.0
  0
ARC
  5
402
  8
0
  6
CONTINUOUS
 62
     7
 10
13.293
 20
-10.906
 30
0.0
 40
0.1000000000000032
 50
270.0
 51
0.0
  0
ARC
  5
403
  8
0
  6
CONTINUOUS
 62
     7
 10
17.868008858
 20
7.506
 30
0.0
 40
9.12157240890864
 50
168.4586461612
 51
191.5413538388
  0
ARC
  5
404
  8
0
  6
CONTINUOUS
 62
     7
 10
0.5237303315
 20
7.506
 30
0.0
 40
9.121572408908632
 50
348.4586461612
 51
11.5413538388
  0
ARC
  5
405
  8
0
  6
CONTINUOUS
 62
     7
 10
17.868008858
 20
-7.503
 30
0.0
 40
9.121572408908646
 50
168.4586461612
 51
191.5413538388
  0
ARC
  5
406
  8
0
  6
CONTINUOUS
 62
     7
 10
0.5237303315
 20
-7.503
 30
0.0
 40
9.12157240890862
 50
348.4586461612
 51
11.5413538388
  0
ARC
  5
407
  8
0
  6
CONTINUOUS
 62
     7
 10
5.231487098
 20
-7.503
 30
0.0
 40
9.12157240890861
 50
168.4586461612
 51
191.5413538388
  0
ARC
  5
408
  8
0
  6
CONTINUOUS
 62
     7
 10
-12.1127914285
 20
-7.503
 30
0.0
 40
9.121572408908603
 50
348.4586461612
 51
11.5413538388
  0
ARC
  5
409
  8
0
  6
CONTINUOUS
 62
     7
 10
-0.033730302
 20
-7.503
 30
0.0
 40
9.121572408908541
 50
168.4586461612
 51
191.5413538388
  0
ARC
  5
40A
  8
0
  6
CONTINUOUS
 62
     7
 10
-17.3780088285
 20
-7.503
 30
0.0
 40
9.121572408908639
 50
348.4586461612
 51
11.5413538388
  0
ARC
  5
40B
  8
0
  6
CONTINUOUS
 62
     7
 10
12.602791458
 20
-7.503
 30
0.0
 40
9.121572408908559
 50
168.4586461612
 51
191.5413538388
  0
ARC
  5
40C
  8
0
  6
CONTINUOUS
 62
     7
 10
-4.7414870685
 20
-7.503
 30
0.0
 40
9.121572408908593
 50
348.4586461612
 51
11.5413538388
  0
ARC
  5
40D
  8
0
  6
CONTINUOUS
 62
     7
 10
17.868008858
 20
-2.5
 30
0.0
 40
9.121572408908644
 50
168.4586461612
 51
191.5413538388
  0
ARC
  5
40E
  8
0
  6
CONTINUOUS
 62
     7
 10
0.5237303315
 20
-2.5
 30
0.0
 40
9.121572408908627
 50
348.4586461612
 51
11.5413538388
  0
ARC
  5
40F
  8
0
  6
CONTINUOUS
 62
     7
 10
5.231487098
 20
-2.5
 30
0.0
 40
9.121572408908602
 50
168.4586461612
 51
191.5413538388
  0
ARC
  5
410
  8
0
  6
CONTINUOUS
 62
     7
 10
-12.1127914285
 20
-2.5
 30
0.0
 40
9.121572408908603
 50
348.4586461612
 51
11.5413538388
  0
ARC
  5
411
  8
0
  6
CONTINUOUS
 62
     7
 10
-0.033730302
 20
-2.5
 30
0.0
 40
9.121572408908483
 50
168.4586461612
 51
191.5413538388
  0
ARC
  5
412
  8
0
  6
CONTINUOUS
 62
     7
 10
-17.3780088285
 20
-2.5
 30
0.0
 40
9.121572408908643
 50
348.4586461612
 51
11.5413538388
  0
ARC
  5
413
  8
0
  6
CONTINUOUS
 62
     7
 10
12.602791458
 20
-2.5
 30
0.0
 40
9.121572408908596
 50
168.4586461612
 51
191.5413538388
  0
ARC
  5
414
  8
0
  6
CONTINUOUS
 62
     7
 10
-4.7414870685
 20
-2.5
 30
0.0
 40
9.121572408908568
 50
348.4586461612
 51
11.5413538388
  0
ARC
  5
415
  8
0
  6
CONTINUOUS
 62
     7
 10
17.868008858
 20
2.503
 30
0.0
 40
9.121572408908644
 50
168.4586461612
 51
191.5413538388
  0
ARC
  5
416
  8
0
  6
CONTINUOUS
 62
     7
 10
0.5237303315
 20
2.503
 30
0.0
 40
9.121572408908623
 50
348.4586461612
 51
11.5413538388
  0
ARC
  5
417
  8
0
  6
CONTINUOUS
 62
     7
 10
5.231487098
 20
2.503
 30
0.0
 40
9.121572408908603
 50
168.4586461612
 51
191.5413538388
  0
ARC
  5
418
  8
0
  6
CONTINUOUS
 62
     7
 10
-12.1127914285
 20
2.503
 30
0.0
 40
9.12157240890861
 50
348.4586461612
 51
11.5413538388
  0
ARC
  5
419
  8
0
  6
CONTINUOUS
 62
     7
 10
-0.033730302
 20
2.503
 30
0.0
 40
9.121572408908477
 50
168.4586461612
 51
191.5413538388
  0
ARC
  5
41A
  8
0
  6
CONTINUOUS
 62
     7
 10
-17.3780088285
 20
2.503
 30
0.0
 40
9.121572408908643
 50
348.4586461612
 51
11.5413538388
  0
ARC
  5
41B
  8
0
  6
CONTINUOUS
 62
     7
 10
12.602791458
 20
2.503
 30
0.0
 40
9.12157240890855
 50
168.4586461612
 51
191.5413538388
  0
ARC
  5
41C
  8
0
  6
CONTINUOUS
 62
     7
 10
-4.7414870685
 20
2.503
 30
0.0
 40
9.121572408908568
 50
348.4586461612
 51
11.5413538388
  0
ARC
  5
41D
  8
0
  6
CONTINUOUS
 62
     7
 10
5.231487098
 20
7.506
 30
0.0
 40
9.121572408908598
 50
168.4586461612
 51
191.5413538388
  0
ARC
  5
41E
  8
0
  6
CONTINUOUS
 62
     7
 10
-12.1127914285
 20
7.506
 30
0.0
 40
9.121572408908623
 50
348.4586461612
 51
11.5413538388
  0
ARC
  5
41F
  8
0
  6
CONTINUOUS
 62
     7
 10
-0.033730302
 20
7.506
 30
0.0
 40
9.121572408908536
 50
168.4586461612
 51
191.5413538388
  0
ARC
  5
420
  8
0
  6
CONTINUOUS
 62
     7
 10
-17.3780088285
 20
7.506
 30
0.0
 40
9.121572408908518
 50
348.4586461612
 51
11.5413538388
  0
ARC
  5
421
  8
0
  6
CONTINUOUS
 62
     7
 10
12.602791458
 20
7.506
 30
0.0
 40
9.121572408908559
 50
168.4586461612
 51
191.5413538388
  0
ARC
  5
422
  8
0
  6
CONTINUOUS
 62
     7
 10
-4.7414870685
 20
7.506
 30
0.0
 40
9.121572408908603
 50
348.4586461612
 51
11.5413538388
  0
ARC
  5
423
  8
0
  6
CONTINUOUS
 62
     7
 10
13.393
 20
8.506
 30
0.0
 40
0.5000000000000006
 50
279.5940682269
 51
80.4059317731
  0
ARC
  5
424
  8
0
  6
CONTINUOUS
 62
     7
 10
13.393
 20
4.006
 30
0.0
 40
0.5000000000000009
 50
99.5940682269
 51
260.4059317731
  0
ARC
  5
425
  8
0
  6
CONTINUOUS
 62
     7
 10
13.396
 20
0.0
 30
0.0
 40
0.4999999999999999
 50
279.3036487647
 51
80.6963512353
  0
ARC
  5
426
  8
0
  6
CONTINUOUS
 62
     7
 10
13.393
 20
-4.006
 30
0.0
 40
0.5000000000000009
 50
99.5940682269
 51
260.4059317731
  0
ARC
  5
427
  8
0
  6
CONTINUOUS
 62
     7
 10
13.393
 20
-8.506
 30
0.0
 40
0.5000000000000006
 50
279.5940682269
 51
80.4059317731
  0
ENDSEC
  0
EOF
