  0
SECTION
  2
HEADER
  9
$ACADVER
  1
AC1009
  9
$DWGCODEPAGE
  3
ansi_1252
  9
$INSBASE
 10
0.0
 20
0.0
 30
0.0
  9
$EXTMIN
 10
-13.893
 20
-11.006
 30
0.0
  9
$EXTMAX
 10
13.393
 20
11.006
 30
0.0
  9
$LIMMIN
 10
0.0
 20
0.0
  9
$LIMMAX
 10
12.0
 20
9.0
  9
$ORTHOMODE
 70
     0
  9
$REGENMODE
 70
     1
  9
$FILLMODE
 70
     1
  9
$QTEXTMODE
 70
     0
  9
$MIRRTEXT
 70
     1
  9
$DRAGMODE
 70
     2
  9
$LTSCALE
 40
1.0
  9
$OSMODE
 70
    37
  9
$ATTMODE
 70
     1
  9
$TEXTSIZE
 40
0.1377952756
  9
$TRACEWID
 40
0.05
  9
$TEXTSTYLE
  7
STANDARD
  9
$CLAYER
  8
0
  9
$CELTYPE
  6
BYLAYER
  9
$CECOLOR
 62
   256
  9
$DIMSCALE
 40
1.0
  9
$DIMASZ
 40
0.13
  9
$DIMEXO
 40
0.0393700787
  9
$DIMDLI
 40
0.38
  9
$DIMRND
 40
0.0
  9
$DIMDLE
 40
0.0
  9
$DIMEXE
 40
0.0393700787
  9
$DIMTP
 40
0.0
  9
$DIMTM
 40
0.0
  9
$DIMTXT
 40
0.1377952756
  9
$DIMCEN
 40
0.09
  9
$DIMTSZ
 40
0.0
  9
$DIMTOL
 70
     0
  9
$DIMLIM
 70
     0
  9
$DIMTIH
 70
     1
  9
$DIMTOH
 70
     1
  9
$DIMSE1
 70
     0
  9
$DIMSE2
 70
     0
  9
$DIMTAD
 70
     1
  9
$DIMZIN
 70
     0
  9
$DIMBLK
  1

  9
$DIMASO
 70
     1
  9
$DIMSHO
 70
     1
  9
$DIMPOST
  1

  9
$DIMAPOST
  1

  9
$DIMALT
 70
     0
  9
$DIMALTD
 70
     2
  9
$DIMALTF
 40
25.4
  9
$DIMLFAC
 40
1.0
  9
$DIMTOFL
 70
     0
  9
$DIMTVP
 40
0.0
  9
$DIMTIX
 70
     0
  9
$DIMSOXD
 70
     0
  9
$DIMSAH
 70
     0
  9
$DIMBLK1
  1

  9
$DIMBLK2
  1

  9
$DIMSTYLE
  2
STANDARD
  9
$DIMCLRD
 70
     0
  9
$DIMCLRE
 70
     0
  9
$DIMCLRT
 70
     0
  9
$DIMTFAC
 40
1.0
  9
$DIMGAP
 40
0.06
  9
$LUNITS
 70
     2
  9
$LUPREC
 70
     3
  9
$SKETCHINC
 40
0.1
  9
$FILLETRAD
 40
0.5
  9
$AUNITS
 70
     0
  9
$AUPREC
 70
     2
  9
$MENU
  1
.
  9
$ELEVATION
 40
0.0
  9
$PELEVATION
 40
0.0
  9
$THICKNESS
 40
0.0
  9
$LIMCHECK
 70
     0
  9
$CHAMFERA
 40
0.0
  9
$CHAMFERB
 40
0.0
  9
$SKPOLY
 70
     0
  9
$TDCREATE
 40
2457889.71786294
  9
$TDUPDATE
 40
2457889.717935255
  9
$TDINDWG
 40
0.0000000116
  9
$TDUSRTIMER
 40
0.0000000116
  9
$USRTIMER
 70
     1
  9
$ANGBASE
 50
0.0
  9
$ANGDIR
 70
     0
  9
$PDMODE
 70
     0
  9
$PDSIZE
 40
-1.0
  9
$PLINEWID
 40
0.0
  9
$COORDS
 70
     1
  9
$SPLFRAME
 70
     0
  9
$SPLINETYPE
 70
     6
  9
$SPLINESEGS
 70
     8
  9
$ATTDIA
 70
     0
  9
$ATTREQ
 70
     1
  9
$HANDLING
 70
     1
  9
$HANDSEED
  5
425
  9
$SURFTAB1
 70
     6
  9
$SURFTAB2
 70
     6
  9
$SURFTYPE
 70
     6
  9
$SURFU
 70
     6
  9
$SURFV
 70
     6
  9
$UCSNAME
  2

  9
$UCSORG
 10
0.0
 20
0.0
 30
0.0
  9
$UCSXDIR
 10
1.0
 20
0.0
 30
0.0
  9
$UCSYDIR
 10
0.0
 20
1.0
 30
0.0
  9
$PUCSNAME
  2

  9
$PUCSORG
 10
0.0
 20
0.0
 30
0.0
  9
$PUCSXDIR
 10
1.0
 20
0.0
 30
0.0
  9
$PUCSYDIR
 10
0.0
 20
1.0
 30
0.0
  9
$USERI1
 70
     0
  9
$USERI2
 70
     0
  9
$USERI3
 70
     0
  9
$USERI4
 70
     0
  9
$USERI5
 70
     0
  9
$USERR1
 40
0.0
  9
$USERR2
 40
0.0
  9
$USERR3
 40
0.0
  9
$USERR4
 40
0.0
  9
$USERR5
 40
0.0
  9
$WORLDVIEW
 70
     1
  9
$SHADEDGE
 70
     3
  9
$SHADEDIF
 70
    70
  9
$TILEMODE
 70
     1
  9
$MAXACTVP
 70
    64
  9
$PLIMCHECK
 70
     0
  9
$PEXTMIN
 10
1.0000000000E+20
 20
1.0000000000E+20
 30
1.0000000000E+20
  9
$PEXTMAX
 10
-1.0000000000E+20
 20
-1.0000000000E+20
 30
-1.0000000000E+20
  9
$PLIMMIN
 10
0.0
 20
0.0
  9
$PLIMMAX
 10
12.0
 20
9.0
  9
$UNITMODE
 70
     0
  9
$VISRETAIN
 70
     1
  9
$PLINEGEN
 70
     0
  9
$PSLTSCALE
 70
     1
  0
ENDSEC
  0
SECTION
  2
TABLES
  0
TABLE
  2
VPORT
 70
     1
  0
VPORT
  2
*ACTIVE
 70
     0
 10
0.0
 20
0.0
 11
1.0
 21
1.0
 12
-0.25
 22
0.0
 13
0.0
 23
0.0
 14
0.5
 24
0.5
 15
0.5
 25
0.5
 16
0.0
 26
0.0
 36
1.0
 17
0.0
 27
0.0
 37
0.0
 40
22.45224
 41
1.2395965837
 42
50.0
 43
0.0
 44
0.0
 50
0.0
 51
0.0
 71
     0
 72
   100
 73
     1
 74
     3
 75
     0
 76
     0
 77
     0
 78
     0
  0
ENDTAB
  0
TABLE
  2
LTYPE
 70
     6
  0
LTYPE
  2
CONTINUOUS
 70
     0
  3
Solid line
 72
    65
 73
     0
 40
0.0
  0
LTYPE
  2
HIDDEN
 70
     0
  3
Hidden __ __ __ __ __ __ __ __ __ __ __ __ __ __
 72
    65
 73
     2
 40
0.075
 49
0.05
 49
-0.025
  0
LTYPE
  2
PHANTOM
 70
     0
  3
Phantom ______  __  __  ______  __  __  ______
 72
    65
 73
     6
 40
0.5
 49
0.25
 49
-0.05
 49
0.05
 49
-0.05
 49
0.05
 49
-0.05
  0
LTYPE
  2
CENTER
 70
     0
  3
Center ____ _ ____ _ ____ _ ____ _ ____ _ ____
 72
    65
 73
     4
 40
0.4
 49
0.25
 49
-0.05
 49
0.05
 49
-0.05
  0
LTYPE
  2
CENTERX2
 70
     0
  3
Center (2x) ________  __  ________  __  _____
 72
    65
 73
     4
 40
0.8
 49
0.5
 49
-0.1
 49
0.1
 49
-0.1
  0
LTYPE
  2
DOT2
 70
     0
  3
Dot (.5x) ........................................
 72
    65
 73
     2
 40
0.025
 49
0.0
 49
-0.025
  0
ENDTAB
  0
TABLE
  2
LAYER
 70
     1
  0
LAYER
  2
0
 70
     0
 62
     7
  6
CONTINUOUS
  0
ENDTAB
  0
TABLE
  2
STYLE
 70
     1
  0
STYLE
  2
STANDARD
 70
     0
 40
0.0
 41
1.0
 50
0.0
 71
     0
 42
0.1377952756
  3
txt
  4

  0
ENDTAB
  0
TABLE
  2
VIEW
 70
     0
  0
ENDTAB
  0
TABLE
  2
UCS
 70
     0
  0
ENDTAB
  0
TABLE
  2
APPID
 70
     1
  0
APPID
  2
ACAD
 70
     0
  0
ENDTAB
  0
TABLE
  2
DIMSTYLE
 70
     1
  0
DIMSTYLE
  2
STANDARD
 70
     0
  3

  4

  5

  6

  7

 40
1.0
 41
0.18
 42
0.0625
 43
0.38
 44
0.18
 45
0.0
 46
0.0
 47
0.0
 48
0.0
140
0.18
141
0.09
142
0.0
143
25.4
144
1.0
145
0.0
146
1.0
147
0.09
 71
     0
 72
     0
 73
     1
 74
     1
 75
     0
 76
     0
 77
     0
 78
     0
170
     0
171
     2
172
     0
173
     0
174
     0
175
     0
176
     0
177
     0
178
     0
  0
ENDTAB
  0
ENDSEC
  0
SECTION
  2
BLOCKS
  0
BLOCK
  8
0
  2
$MODEL_SPACE
 70
     0
 10
0.0
 20
0.0
 30
0.0
  3
$MODEL_SPACE
  1

  0
ENDBLK
  5
21
  8
0
  0
BLOCK
 67
     1
  8
0
  2
$PAPER_SPACE
 70
     0
 10
0.0
 20
0.0
 30
0.0
  3
$PAPER_SPACE
  1

  0
ENDBLK
  5
1D
 67
     1
  8
0
  0
ENDSEC
  0
SECTION
  2
ENTITIES
  0
CIRCLE
  5
200
  8
0
  6
CONTINUOUS
 62
     7
 10
11.87099993
 20
-5.486
 30
0.0
 40
0.0747499999999999
  0
CIRCLE
  5
201
  8
0
  6
CONTINUOUS
 62
     7
 10
10.81782602
 20
-5.486
 30
0.0
 40
0.0747499999999981
  0
CIRCLE
  5
202
  8
0
  6
CONTINUOUS
 62
     7
 10
9.76465211
 20
-9.526
 30
0.0
 40
0.0747499999999981
  0
CIRCLE
  5
203
  8
0
  6
CONTINUOUS
 62
     7
 10
8.7114782
 20
-5.486
 30
0.0
 40
0.074749999999999
  0
CIRCLE
  5
204
  8
0
  6
CONTINUOUS
 62
     7
 10
7.65830429
 20
-5.486
 30
0.0
 40
0.0747499999999999
  0
CIRCLE
  5
205
  8
0
  6
CONTINUOUS
 62
     7
 10
6.60513038
 20
-9.526
 30
0.0
 40
0.0747499999999999
  0
CIRCLE
  5
206
  8
0
  6
CONTINUOUS
 62
     7
 10
5.55195647
 20
-9.526
 30
0.0
 40
0.0747499999999999
  0
CIRCLE
  5
207
  8
0
  6
CONTINUOUS
 62
     7
 10
4.49878256
 20
-5.486
 30
0.0
 40
0.0747500000000008
  0
CIRCLE
  5
208
  8
0
  6
CONTINUOUS
 62
     7
 10
3.44560865
 20
-9.526
 30
0.0
 40
0.0747499999999999
  0
CIRCLE
  5
209
  8
0
  6
CONTINUOUS
 62
     7
 10
2.39243474
 20
-9.526
 30
0.0
 40
0.0747499999999999
  0
CIRCLE
  5
20A
  8
0
  6
CONTINUOUS
 62
     7
 10
1.33926083
 20
-5.486
 30
0.0
 40
0.0747499999999999
  0
CIRCLE
  5
20B
  8
0
  6
CONTINUOUS
 62
     7
 10
0.28608692
 20
-5.486
 30
0.0
 40
0.0747499999999999
  0
CIRCLE
  5
20C
  8
0
  6
CONTINUOUS
 62
     7
 10
-0.76708699
 20
-9.526
 30
0.0
 40
0.0747500000000034
  0
CIRCLE
  5
20D
  8
0
  6
CONTINUOUS
 62
     7
 10
-1.8202609
 20
-9.526
 30
0.0
 40
0.0747499999999999
  0
CIRCLE
  5
20E
  8
0
  6
CONTINUOUS
 62
     7
 10
-2.87343481
 20
-5.486
 30
0.0
 40
0.0747499999999999
  0
CIRCLE
  5
20F
  8
0
  6
CONTINUOUS
 62
     7
 10
-3.92660872
 20
-5.486
 30
0.0
 40
0.0747500000000008
  0
CIRCLE
  5
210
  8
0
  6
CONTINUOUS
 62
     7
 10
-4.97978263
 20
-9.526
 30
0.0
 40
0.0747499999999999
  0
CIRCLE
  5
211
  8
0
  6
CONTINUOUS
 62
     7
 10
-6.03295654
 20
-5.486
 30
0.0
 40
0.0747500000000016
  0
CIRCLE
  5
212
  8
0
  6
CONTINUOUS
 62
     7
 10
-7.08613045
 20
-5.486
 30
0.0
 40
0.074749999999999
  0
CIRCLE
  5
213
  8
0
  6
CONTINUOUS
 62
     7
 10
-8.13930436
 20
-9.526
 30
0.0
 40
0.0747499999999999
  0
CIRCLE
  5
214
  8
0
  6
CONTINUOUS
 62
     7
 10
-9.19247827
 20
-9.526
 30
0.0
 40
0.0747500000000016
  0
CIRCLE
  5
215
  8
0
  6
CONTINUOUS
 62
     7
 10
-10.24565218
 20
-5.486
 30
0.0
 40
0.0747499999999981
  0
CIRCLE
  5
216
  8
0
  6
CONTINUOUS
 62
     7
 10
-11.29882609
 20
-9.526
 30
0.0
 40
0.0747499999999999
  0
CIRCLE
  5
217
  8
0
  6
CONTINUOUS
 62
     7
 10
-12.352
 20
-9.526
 30
0.0
 40
0.0747500000000016
  0
CIRCLE
  5
218
  8
0
  6
CONTINUOUS
 62
     7
 10
11.87099993
 20
-0.483
 30
0.0
 40
0.0747499999999995
  0
CIRCLE
  5
219
  8
0
  6
CONTINUOUS
 62
     7
 10
10.81782602
 20
-0.483
 30
0.0
 40
0.0747499999999996
  0
CIRCLE
  5
21A
  8
0
  6
CONTINUOUS
 62
     7
 10
9.76465211
 20
-4.523
 30
0.0
 40
0.0747499999999999
  0
CIRCLE
  5
21B
  8
0
  6
CONTINUOUS
 62
     7
 10
8.7114782
 20
-0.483
 30
0.0
 40
0.0747500000000003
  0
CIRCLE
  5
21C
  8
0
  6
CONTINUOUS
 62
     7
 10
7.65830429
 20
-0.483
 30
0.0
 40
0.0747499999999999
  0
CIRCLE
  5
21D
  8
0
  6
CONTINUOUS
 62
     7
 10
6.60513038
 20
-4.523
 30
0.0
 40
0.0747499999999999
  0
CIRCLE
  5
21E
  8
0
  6
CONTINUOUS
 62
     7
 10
5.55195647
 20
-4.523
 30
0.0
 40
0.0747500000000008
  0
CIRCLE
  5
21F
  8
0
  6
CONTINUOUS
 62
     7
 10
4.49878256
 20
-0.483
 30
0.0
 40
0.0747499999999994
  0
CIRCLE
  5
220
  8
0
  6
CONTINUOUS
 62
     7
 10
3.44560865
 20
-4.523
 30
0.0
 40
0.0747499999999999
  0
CIRCLE
  5
221
  8
0
  6
CONTINUOUS
 62
     7
 10
2.39243474
 20
-4.523
 30
0.0
 40
0.0747499999999999
  0
CIRCLE
  5
222
  8
0
  6
CONTINUOUS
 62
     7
 10
1.33926083
 20
-0.483
 30
0.0
 40
0.07475
  0
CIRCLE
  5
223
  8
0
  6
CONTINUOUS
 62
     7
 10
0.28608692
 20
-0.483
 30
0.0
 40
0.07475
  0
CIRCLE
  5
224
  8
0
  6
CONTINUOUS
 62
     7
 10
-0.76708699
 20
-4.523
 30
0.0
 40
0.0747499999999999
  0
CIRCLE
  5
225
  8
0
  6
CONTINUOUS
 62
     7
 10
-1.8202609
 20
-4.523
 30
0.0
 40
0.074749999999999
  0
CIRCLE
  5
226
  8
0
  6
CONTINUOUS
 62
     7
 10
-2.87343481
 20
-0.483
 30
0.0
 40
0.0747499999999998
  0
CIRCLE
  5
227
  8
0
  6
CONTINUOUS
 62
     7
 10
-3.92660872
 20
-0.483
 30
0.0
 40
0.0747500000000004
  0
CIRCLE
  5
228
  8
0
  6
CONTINUOUS
 62
     7
 10
-4.97978263
 20
-4.523
 30
0.0
 40
0.074749999999999
  0
CIRCLE
  5
229
  8
0
  6
CONTINUOUS
 62
     7
 10
-6.03295654
 20
-0.483
 30
0.0
 40
0.0747500000000009
  0
CIRCLE
  5
22A
  8
0
  6
CONTINUOUS
 62
     7
 10
-7.08613045
 20
-0.483
 30
0.0
 40
0.0747499999999993
  0
CIRCLE
  5
22B
  8
0
  6
CONTINUOUS
 62
     7
 10
-8.13930436
 20
-4.523
 30
0.0
 40
0.0747499999999999
  0
CIRCLE
  5
22C
  8
0
  6
CONTINUOUS
 62
     7
 10
-9.19247827
 20
-4.523
 30
0.0
 40
0.0747500000000008
  0
CIRCLE
  5
22D
  8
0
  6
CONTINUOUS
 62
     7
 10
-10.24565218
 20
-0.483
 30
0.0
 40
0.0747499999999996
  0
CIRCLE
  5
22E
  8
0
  6
CONTINUOUS
 62
     7
 10
-11.29882609
 20
-4.523
 30
0.0
 40
0.074749999999999
  0
CIRCLE
  5
22F
  8
0
  6
CONTINUOUS
 62
     7
 10
-12.352
 20
-4.523
 30
0.0
 40
0.0747500000000016
  0
CIRCLE
  5
230
  8
0
  6
CONTINUOUS
 62
     7
 10
11.87099993
 20
4.52
 30
0.0
 40
0.0747499999999999
  0
CIRCLE
  5
231
  8
0
  6
CONTINUOUS
 62
     7
 10
10.81782602
 20
4.52
 30
0.0
 40
0.0747499999999999
  0
CIRCLE
  5
232
  8
0
  6
CONTINUOUS
 62
     7
 10
9.76465211
 20
0.48
 30
0.0
 40
0.0747500000000001
  0
CIRCLE
  5
233
  8
0
  6
CONTINUOUS
 62
     7
 10
8.7114782
 20
4.52
 30
0.0
 40
0.0747500000000008
  0
CIRCLE
  5
234
  8
0
  6
CONTINUOUS
 62
     7
 10
7.65830429
 20
4.52
 30
0.0
 40
0.074749999999999
  0
CIRCLE
  5
235
  8
0
  6
CONTINUOUS
 62
     7
 10
6.60513038
 20
0.48
 30
0.0
 40
0.0747499999999997
  0
CIRCLE
  5
236
  8
0
  6
CONTINUOUS
 62
     7
 10
5.55195647
 20
0.48
 30
0.0
 40
0.0747500000000011
  0
CIRCLE
  5
237
  8
0
  6
CONTINUOUS
 62
     7
 10
4.49878256
 20
4.52
 30
0.0
 40
0.074749999999999
  0
CIRCLE
  5
238
  8
0
  6
CONTINUOUS
 62
     7
 10
3.44560865
 20
0.48
 30
0.0
 40
0.0747500000000005
  0
CIRCLE
  5
239
  8
0
  6
CONTINUOUS
 62
     7
 10
2.39243474
 20
0.48
 30
0.0
 40
0.07475
  0
CIRCLE
  5
23A
  8
0
  6
CONTINUOUS
 62
     7
 10
1.33926083
 20
4.52
 30
0.0
 40
0.0747499999999999
  0
CIRCLE
  5
23B
  8
0
  6
CONTINUOUS
 62
     7
 10
0.28608692
 20
4.52
 30
0.0
 40
0.074749999999999
  0
CIRCLE
  5
23C
  8
0
  6
CONTINUOUS
 62
     7
 10
-0.76708699
 20
0.48
 30
0.0
 40
0.0747499999999999
  0
CIRCLE
  5
23D
  8
0
  6
CONTINUOUS
 62
     7
 10
-1.8202609
 20
0.48
 30
0.0
 40
0.07475
  0
CIRCLE
  5
23E
  8
0
  6
CONTINUOUS
 62
     7
 10
-2.87343481
 20
4.52
 30
0.0
 40
0.0747499999999999
  0
CIRCLE
  5
23F
  8
0
  6
CONTINUOUS
 62
     7
 10
-3.92660872
 20
4.52
 30
0.0
 40
0.0747500000000008
  0
CIRCLE
  5
240
  8
0
  6
CONTINUOUS
 62
     7
 10
-4.97978263
 20
0.48
 30
0.0
 40
0.0747499999999999
  0
CIRCLE
  5
241
  8
0
  6
CONTINUOUS
 62
     7
 10
-6.03295654
 20
4.52
 30
0.0
 40
0.0747500000000016
  0
CIRCLE
  5
242
  8
0
  6
CONTINUOUS
 62
     7
 10
-7.08613045
 20
4.52
 30
0.0
 40
0.0747499999999999
  0
CIRCLE
  5
243
  8
0
  6
CONTINUOUS
 62
     7
 10
-8.13930436
 20
0.48
 30
0.0
 40
0.0747500000000003
  0
CIRCLE
  5
244
  8
0
  6
CONTINUOUS
 62
     7
 10
-9.19247827
 20
0.48
 30
0.0
 40
0.0747500000000007
  0
CIRCLE
  5
245
  8
0
  6
CONTINUOUS
 62
     7
 10
-10.24565218
 20
4.52
 30
0.0
 40
0.0747500000000008
  0
CIRCLE
  5
246
  8
0
  6
CONTINUOUS
 62
     7
 10
-11.29882609
 20
0.48
 30
0.0
 40
0.0747499999999995
  0
CIRCLE
  5
247
  8
0
  6
CONTINUOUS
 62
     7
 10
-12.352
 20
0.48
 30
0.0
 40
0.0747500000000021
  0
CIRCLE
  5
248
  8
0
  6
CONTINUOUS
 62
     7
 10
11.87099993
 20
9.523
 30
0.0
 40
0.0747499999999999
  0
CIRCLE
  5
249
  8
0
  6
CONTINUOUS
 62
     7
 10
10.81782602
 20
9.523
 30
0.0
 40
0.0747499999999981
  0
CIRCLE
  5
24A
  8
0
  6
CONTINUOUS
 62
     7
 10
9.76465211
 20
5.483
 30
0.0
 40
0.0747499999999999
  0
CIRCLE
  5
24B
  8
0
  6
CONTINUOUS
 62
     7
 10
8.7114782
 20
9.523
 30
0.0
 40
0.0747499999999981
  0
CIRCLE
  5
24C
  8
0
  6
CONTINUOUS
 62
     7
 10
7.65830429
 20
9.523
 30
0.0
 40
0.0747499999999981
  0
CIRCLE
  5
24D
  8
0
  6
CONTINUOUS
 62
     7
 10
6.60513038
 20
5.483
 30
0.0
 40
0.0747499999999999
  0
CIRCLE
  5
24E
  8
0
  6
CONTINUOUS
 62
     7
 10
5.55195647
 20
5.483
 30
0.0
 40
0.0747500000000008
  0
CIRCLE
  5
24F
  8
0
  6
CONTINUOUS
 62
     7
 10
4.49878256
 20
9.523
 30
0.0
 40
0.0747499999999981
  0
CIRCLE
  5
250
  8
0
  6
CONTINUOUS
 62
     7
 10
3.44560865
 20
5.483
 30
0.0
 40
0.0747500000000008
  0
CIRCLE
  5
251
  8
0
  6
CONTINUOUS
 62
     7
 10
2.39243474
 20
5.483
 30
0.0
 40
0.074749999999999
  0
CIRCLE
  5
252
  8
0
  6
CONTINUOUS
 62
     7
 10
1.33926083
 20
9.523
 30
0.0
 40
0.0747499999999999
  0
CIRCLE
  5
253
  8
0
  6
CONTINUOUS
 62
     7
 10
0.28608692
 20
9.523
 30
0.0
 40
0.0747499999999999
  0
CIRCLE
  5
254
  8
0
  6
CONTINUOUS
 62
     7
 10
-0.76708699
 20
5.483
 30
0.0
 40
0.074749999999999
  0
CIRCLE
  5
255
  8
0
  6
CONTINUOUS
 62
     7
 10
-1.8202609
 20
5.483
 30
0.0
 40
0.0747500000000008
  0
CIRCLE
  5
256
  8
0
  6
CONTINUOUS
 62
     7
 10
-2.87343481
 20
9.523
 30
0.0
 40
0.0747499999999999
  0
CIRCLE
  5
257
  8
0
  6
CONTINUOUS
 62
     7
 10
-3.92660872
 20
9.523
 30
0.0
 40
0.0747499999999999
  0
CIRCLE
  5
258
  8
0
  6
CONTINUOUS
 62
     7
 10
-4.97978263
 20
5.483
 30
0.0
 40
0.0747499999999981
  0
CIRCLE
  5
259
  8
0
  6
CONTINUOUS
 62
     7
 10
-6.03295654
 20
9.523
 30
0.0
 40
0.0747499999999999
  0
CIRCLE
  5
25A
  8
0
  6
CONTINUOUS
 62
     7
 10
-7.08613045
 20
9.523
 30
0.0
 40
0.0747499999999981
  0
CIRCLE
  5
25B
  8
0
  6
CONTINUOUS
 62
     7
 10
-8.13930436
 20
5.483
 30
0.0
 40
0.0747499999999999
  0
CIRCLE
  5
25C
  8
0
  6
CONTINUOUS
 62
     7
 10
-9.19247827
 20
5.483
 30
0.0
 40
0.0747500000000008
  0
CIRCLE
  5
25D
  8
0
  6
CONTINUOUS
 62
     7
 10
-10.24565218
 20
9.523
 30
0.0
 40
0.0747499999999999
  0
CIRCLE
  5
25E
  8
0
  6
CONTINUOUS
 62
     7
 10
-11.29882609
 20
5.483
 30
0.0
 40
0.0747499999999999
  0
CIRCLE
  5
25F
  8
0
  6
CONTINUOUS
 62
     7
 10
-12.352
 20
5.483
 30
0.0
 40
0.0747500000000025
  0
CIRCLE
  5
260
  8
0
  6
CONTINUOUS
 62
     7
 10
-11.8255434783
 20
7.503
 30
0.0
 40
0.0747499999999981
  0
CIRCLE
  5
261
  8
0
  6
CONTINUOUS
 62
     7
 10
-0.2435
 20
7.503
 30
0.0
 40
0.0747500000000008
  0
CIRCLE
  5
262
  8
0
  6
CONTINUOUS
 62
     7
 10
11.3385434783
 20
7.503
 30
0.0
 40
0.0747500000000008
  0
CIRCLE
  5
263
  8
0
  6
CONTINUOUS
 62
     7
 10
-11.8255434783
 20
2.5
 30
0.0
 40
0.0747499999999999
  0
CIRCLE
  5
264
  8
0
  6
CONTINUOUS
 62
     7
 10
-0.2435
 20
2.5
 30
0.0
 40
0.0747500000000003
  0
CIRCLE
  5
265
  8
0
  6
CONTINUOUS
 62
     7
 10
11.3385434783
 20
2.5
 30
0.0
 40
0.0747500000000025
  0
CIRCLE
  5
266
  8
0
  6
CONTINUOUS
 62
     7
 10
-11.8255434783
 20
-2.503
 30
0.0
 40
0.0747499999999994
  0
CIRCLE
  5
267
  8
0
  6
CONTINUOUS
 62
     7
 10
-0.2435
 20
-2.503
 30
0.0
 40
0.0747500000000003
  0
CIRCLE
  5
268
  8
0
  6
CONTINUOUS
 62
     7
 10
11.3385434783
 20
-2.503
 30
0.0
 40
0.0747500000000021
  0
CIRCLE
  5
269
  8
0
  6
CONTINUOUS
 62
     7
 10
-11.8255434783
 20
-7.506
 30
0.0
 40
0.0747500000000008
  0
CIRCLE
  5
26A
  8
0
  6
CONTINUOUS
 62
     7
 10
-0.2435
 20
-7.506
 30
0.0
 40
0.0747499999999999
  0
CIRCLE
  5
26B
  8
0
  6
CONTINUOUS
 62
     7
 10
11.3385434783
 20
-7.506
 30
0.0
 40
0.0747500000000025
  0
CIRCLE
  5
26C
  8
0
  6
CONTINUOUS
 62
     7
 10
-1.3215
 20
-0.5515
 30
0.0
 40
0.048
  0
CIRCLE
  5
26D
  8
0
  6
CONTINUOUS
 62
     7
 10
-1.3215
 20
0.5485
 30
0.0
 40
0.0479999999999999
  0
CIRCLE
  5
26E
  8
0
  6
CONTINUOUS
 62
     7
 10
-0.2215
 20
0.5485
 30
0.0
 40
0.0479999999999999
  0
CIRCLE
  5
26F
  8
0
  6
CONTINUOUS
 62
     7
 10
-0.2215
 20
-0.5515
 30
0.0
 40
0.0479999999999999
  0
CIRCLE
  5
270
  8
0
  6
CONTINUOUS
 62
     7
 10
-0.7715
 20
-0.0015
 30
0.0
 40
0.2999999999999999
  0
CIRCLE
  5
271
  8
0
  6
CONTINUOUS
 62
     7
 10
-13.393
 20
4.006
 30
0.0
 40
0.0624999999999982
  0
CIRCLE
  5
272
  8
0
  6
CONTINUOUS
 62
     7
 10
-13.393
 20
-4.006
 30
0.0
 40
0.0625000000000009
  0
CIRCLE
  5
273
  8
0
  6
CONTINUOUS
 62
     7
 10
-0.31
 20
10.506
 30
0.0
 40
0.0625000000000018
  0
CIRCLE
  5
274
  8
0
  6
CONTINUOUS
 62
     7
 10
10.69
 20
10.506
 30
0.0
 40
0.0625
  0
CIRCLE
  5
275
  8
0
  6
CONTINUOUS
 62
     7
 10
12.896
 20
8.25
 30
0.0
 40
0.0625
  0
CIRCLE
  5
276
  8
0
  6
CONTINUOUS
 62
     7
 10
12.896
 20
0.0
 30
0.0
 40
0.0625000000000005
  0
CIRCLE
  5
277
  8
0
  6
CONTINUOUS
 62
     7
 10
12.896
 20
-8.25
 30
0.0
 40
0.0625
  0
CIRCLE
  5
278
  8
0
  6
CONTINUOUS
 62
     7
 10
10.69
 20
-10.506
 30
0.0
 40
0.0625000000000018
  0
CIRCLE
  5
279
  8
0
  6
CONTINUOUS
 62
     7
 10
-0.31
 20
-10.506
 30
0.0
 40
0.0625000000000018
  0
CIRCLE
  5
27A
  8
0
  6
CONTINUOUS
 62
     7
 10
-11.31
 20
-10.506
 30
0.0
 40
0.0625000000000018
  0
CIRCLE
  5
27B
  8
0
  6
CONTINUOUS
 62
     7
 10
-11.31
 20
10.506
 30
0.0
 40
0.0625000000000018
  0
LINE
  5
28A
  8
0
  6
CONTINUOUS
 62
     7
 10
12.225
 20
-5.716
 30
0.0
 11
11.505
 21
-5.716
 31
0.0
  0
LINE
  5
28B
  8
0
  6
CONTINUOUS
 62
     7
 10
11.505
 20
-5.716
 30
0.0
 11
11.505
 21
-9.296
 31
0.0
  0
LINE
  5
28C
  8
0
  6
CONTINUOUS
 62
     7
 10
11.505
 20
-9.296
 30
0.0
 11
12.225
 21
-9.296
 31
0.0
  0
LINE
  5
28D
  8
0
  6
CONTINUOUS
 62
     7
 10
12.225
 20
-9.296
 30
0.0
 11
12.225
 21
-5.716
 31
0.0
  0
LINE
  5
28E
  8
0
  6
CONTINUOUS
 62
     7
 10
11.1720869565
 20
-5.716
 30
0.0
 11
10.4520869565
 21
-5.716
 31
0.0
  0
LINE
  5
28F
  8
0
  6
CONTINUOUS
 62
     7
 10
10.4520869565
 20
-5.716
 30
0.0
 11
10.4520869565
 21
-9.296
 31
0.0
  0
LINE
  5
290
  8
0
  6
CONTINUOUS
 62
     7
 10
10.4520869565
 20
-9.296
 30
0.0
 11
11.1720869565
 21
-9.296
 31
0.0
  0
LINE
  5
291
  8
0
  6
CONTINUOUS
 62
     7
 10
11.1720869565
 20
-9.296
 30
0.0
 11
11.1720869565
 21
-5.716
 31
0.0
  0
LINE
  5
292
  8
0
  6
CONTINUOUS
 62
     7
 10
10.119173913
 20
-5.716
 30
0.0
 11
9.399173913
 21
-5.716
 31
0.0
  0
LINE
  5
293
  8
0
  6
CONTINUOUS
 62
     7
 10
9.399173913
 20
-5.716
 30
0.0
 11
9.399173913
 21
-9.296
 31
0.0
  0
LINE
  5
294
  8
0
  6
CONTINUOUS
 62
     7
 10
9.399173913
 20
-9.296
 30
0.0
 11
10.119173913
 21
-9.296
 31
0.0
  0
LINE
  5
295
  8
0
  6
CONTINUOUS
 62
     7
 10
10.119173913
 20
-9.296
 30
0.0
 11
10.119173913
 21
-5.716
 31
0.0
  0
LINE
  5
296
  8
0
  6
CONTINUOUS
 62
     7
 10
9.0662608696
 20
-5.716
 30
0.0
 11
8.3462608696
 21
-5.716
 31
0.0
  0
LINE
  5
297
  8
0
  6
CONTINUOUS
 62
     7
 10
8.3462608696
 20
-5.716
 30
0.0
 11
8.3462608696
 21
-9.296
 31
0.0
  0
LINE
  5
298
  8
0
  6
CONTINUOUS
 62
     7
 10
8.3462608696
 20
-9.296
 30
0.0
 11
9.0662608696
 21
-9.296
 31
0.0
  0
LINE
  5
299
  8
0
  6
CONTINUOUS
 62
     7
 10
9.0662608696
 20
-9.296
 30
0.0
 11
9.0662608696
 21
-5.716
 31
0.0
  0
LINE
  5
29A
  8
0
  6
CONTINUOUS
 62
     7
 10
8.0133478261
 20
-5.716
 30
0.0
 11
7.2933478261
 21
-5.716
 31
0.0
  0
LINE
  5
29B
  8
0
  6
CONTINUOUS
 62
     7
 10
7.2933478261
 20
-5.716
 30
0.0
 11
7.2933478261
 21
-9.296
 31
0.0
  0
LINE
  5
29C
  8
0
  6
CONTINUOUS
 62
     7
 10
7.2933478261
 20
-9.296
 30
0.0
 11
8.0133478261
 21
-9.296
 31
0.0
  0
LINE
  5
29D
  8
0
  6
CONTINUOUS
 62
     7
 10
8.0133478261
 20
-9.296
 30
0.0
 11
8.0133478261
 21
-5.716
 31
0.0
  0
LINE
  5
29E
  8
0
  6
CONTINUOUS
 62
     7
 10
6.9604347826
 20
-5.716
 30
0.0
 11
6.2404347826
 21
-5.716
 31
0.0
  0
LINE
  5
29F
  8
0
  6
CONTINUOUS
 62
     7
 10
6.2404347826
 20
-5.716
 30
0.0
 11
6.2404347826
 21
-9.296
 31
0.0
  0
LINE
  5
2A0
  8
0
  6
CONTINUOUS
 62
     7
 10
6.2404347826
 20
-9.296
 30
0.0
 11
6.9604347826
 21
-9.296
 31
0.0
  0
LINE
  5
2A1
  8
0
  6
CONTINUOUS
 62
     7
 10
6.9604347826
 20
-9.296
 30
0.0
 11
6.9604347826
 21
-5.716
 31
0.0
  0
LINE
  5
2A2
  8
0
  6
CONTINUOUS
 62
     7
 10
5.9075217391
 20
-5.716
 30
0.0
 11
5.1875217391
 21
-5.716
 31
0.0
  0
LINE
  5
2A3
  8
0
  6
CONTINUOUS
 62
     7
 10
5.1875217391
 20
-5.716
 30
0.0
 11
5.1875217391
 21
-9.296
 31
0.0
  0
LINE
  5
2A4
  8
0
  6
CONTINUOUS
 62
     7
 10
5.1875217391
 20
-9.296
 30
0.0
 11
5.9075217391
 21
-9.296
 31
0.0
  0
LINE
  5
2A5
  8
0
  6
CONTINUOUS
 62
     7
 10
5.9075217391
 20
-9.296
 30
0.0
 11
5.9075217391
 21
-5.716
 31
0.0
  0
LINE
  5
2A6
  8
0
  6
CONTINUOUS
 62
     7
 10
4.8546086957
 20
-5.716
 30
0.0
 11
4.1346086957
 21
-5.716
 31
0.0
  0
LINE
  5
2A7
  8
0
  6
CONTINUOUS
 62
     7
 10
4.1346086957
 20
-5.716
 30
0.0
 11
4.1346086957
 21
-9.296
 31
0.0
  0
LINE
  5
2A8
  8
0
  6
CONTINUOUS
 62
     7
 10
4.1346086957
 20
-9.296
 30
0.0
 11
4.8546086957
 21
-9.296
 31
0.0
  0
LINE
  5
2A9
  8
0
  6
CONTINUOUS
 62
     7
 10
4.8546086957
 20
-9.296
 30
0.0
 11
4.8546086957
 21
-5.716
 31
0.0
  0
LINE
  5
2AA
  8
0
  6
CONTINUOUS
 62
     7
 10
3.8016956522
 20
-5.716
 30
0.0
 11
3.0816956522
 21
-5.716
 31
0.0
  0
LINE
  5
2AB
  8
0
  6
CONTINUOUS
 62
     7
 10
3.0816956522
 20
-5.716
 30
0.0
 11
3.0816956522
 21
-9.296
 31
0.0
  0
LINE
  5
2AC
  8
0
  6
CONTINUOUS
 62
     7
 10
3.0816956522
 20
-9.296
 30
0.0
 11
3.8016956522
 21
-9.296
 31
0.0
  0
LINE
  5
2AD
  8
0
  6
CONTINUOUS
 62
     7
 10
3.8016956522
 20
-9.296
 30
0.0
 11
3.8016956522
 21
-5.716
 31
0.0
  0
LINE
  5
2AE
  8
0
  6
CONTINUOUS
 62
     7
 10
2.7487826087
 20
-5.716
 30
0.0
 11
2.0287826087
 21
-5.716
 31
0.0
  0
LINE
  5
2AF
  8
0
  6
CONTINUOUS
 62
     7
 10
2.0287826087
 20
-5.716
 30
0.0
 11
2.0287826087
 21
-9.296
 31
0.0
  0
LINE
  5
2B0
  8
0
  6
CONTINUOUS
 62
     7
 10
2.0287826087
 20
-9.296
 30
0.0
 11
2.7487826087
 21
-9.296
 31
0.0
  0
LINE
  5
2B1
  8
0
  6
CONTINUOUS
 62
     7
 10
2.7487826087
 20
-9.296
 30
0.0
 11
2.7487826087
 21
-5.716
 31
0.0
  0
LINE
  5
2B2
  8
0
  6
CONTINUOUS
 62
     7
 10
1.6958695652
 20
-5.716
 30
0.0
 11
0.9758695652
 21
-5.716
 31
0.0
  0
LINE
  5
2B3
  8
0
  6
CONTINUOUS
 62
     7
 10
0.9758695652
 20
-5.716
 30
0.0
 11
0.9758695652
 21
-9.296
 31
0.0
  0
LINE
  5
2B4
  8
0
  6
CONTINUOUS
 62
     7
 10
0.9758695652
 20
-9.296
 30
0.0
 11
1.6958695652
 21
-9.296
 31
0.0
  0
LINE
  5
2B5
  8
0
  6
CONTINUOUS
 62
     7
 10
1.6958695652
 20
-9.296
 30
0.0
 11
1.6958695652
 21
-5.716
 31
0.0
  0
LINE
  5
2B6
  8
0
  6
CONTINUOUS
 62
     7
 10
0.6429565217
 20
-5.716
 30
0.0
 11
-0.0770434783
 21
-5.716
 31
0.0
  0
LINE
  5
2B7
  8
0
  6
CONTINUOUS
 62
     7
 10
-0.0770434783
 20
-5.716
 30
0.0
 11
-0.0770434783
 21
-9.296
 31
0.0
  0
LINE
  5
2B8
  8
0
  6
CONTINUOUS
 62
     7
 10
-0.0770434783
 20
-9.296
 30
0.0
 11
0.6429565217
 21
-9.296
 31
0.0
  0
LINE
  5
2B9
  8
0
  6
CONTINUOUS
 62
     7
 10
0.6429565217
 20
-9.296
 30
0.0
 11
0.6429565217
 21
-5.716
 31
0.0
  0
LINE
  5
2BA
  8
0
  6
CONTINUOUS
 62
     7
 10
-0.4099565217
 20
-5.716
 30
0.0
 11
-1.1299565217
 21
-5.716
 31
0.0
  0
LINE
  5
2BB
  8
0
  6
CONTINUOUS
 62
     7
 10
-1.1299565217
 20
-5.716
 30
0.0
 11
-1.1299565217
 21
-9.296
 31
0.0
  0
LINE
  5
2BC
  8
0
  6
CONTINUOUS
 62
     7
 10
-1.1299565217
 20
-9.296
 30
0.0
 11
-0.4099565217
 21
-9.296
 31
0.0
  0
LINE
  5
2BD
  8
0
  6
CONTINUOUS
 62
     7
 10
-0.4099565217
 20
-9.296
 30
0.0
 11
-0.4099565217
 21
-5.716
 31
0.0
  0
LINE
  5
2BE
  8
0
  6
CONTINUOUS
 62
     7
 10
-1.4628695652
 20
-5.716
 30
0.0
 11
-2.1828695652
 21
-5.716
 31
0.0
  0
LINE
  5
2BF
  8
0
  6
CONTINUOUS
 62
     7
 10
-2.1828695652
 20
-5.716
 30
0.0
 11
-2.1828695652
 21
-9.296
 31
0.0
  0
LINE
  5
2C0
  8
0
  6
CONTINUOUS
 62
     7
 10
-2.1828695652
 20
-9.296
 30
0.0
 11
-1.4628695652
 21
-9.296
 31
0.0
  0
LINE
  5
2C1
  8
0
  6
CONTINUOUS
 62
     7
 10
-1.4628695652
 20
-9.296
 30
0.0
 11
-1.4628695652
 21
-5.716
 31
0.0
  0
LINE
  5
2C2
  8
0
  6
CONTINUOUS
 62
     7
 10
-2.5157826087
 20
-5.716
 30
0.0
 11
-3.2357826087
 21
-5.716
 31
0.0
  0
LINE
  5
2C3
  8
0
  6
CONTINUOUS
 62
     7
 10
-3.2357826087
 20
-5.716
 30
0.0
 11
-3.2357826087
 21
-9.296
 31
0.0
  0
LINE
  5
2C4
  8
0
  6
CONTINUOUS
 62
     7
 10
-3.2357826087
 20
-9.296
 30
0.0
 11
-2.5157826087
 21
-9.296
 31
0.0
  0
LINE
  5
2C5
  8
0
  6
CONTINUOUS
 62
     7
 10
-2.5157826087
 20
-9.296
 30
0.0
 11
-2.5157826087
 21
-5.716
 31
0.0
  0
LINE
  5
2C6
  8
0
  6
CONTINUOUS
 62
     7
 10
-3.5686956522
 20
-5.716
 30
0.0
 11
-4.2886956522
 21
-5.716
 31
0.0
  0
LINE
  5
2C7
  8
0
  6
CONTINUOUS
 62
     7
 10
-4.2886956522
 20
-5.716
 30
0.0
 11
-4.2886956522
 21
-9.296
 31
0.0
  0
LINE
  5
2C8
  8
0
  6
CONTINUOUS
 62
     7
 10
-4.2886956522
 20
-9.296
 30
0.0
 11
-3.5686956522
 21
-9.296
 31
0.0
  0
LINE
  5
2C9
  8
0
  6
CONTINUOUS
 62
     7
 10
-3.5686956522
 20
-9.296
 30
0.0
 11
-3.5686956522
 21
-5.716
 31
0.0
  0
LINE
  5
2CA
  8
0
  6
CONTINUOUS
 62
     7
 10
-4.6216086957
 20
-5.716
 30
0.0
 11
-5.3416086957
 21
-5.716
 31
0.0
  0
LINE
  5
2CB
  8
0
  6
CONTINUOUS
 62
     7
 10
-5.3416086957
 20
-5.716
 30
0.0
 11
-5.3416086957
 21
-9.296
 31
0.0
  0
LINE
  5
2CC
  8
0
  6
CONTINUOUS
 62
     7
 10
-5.3416086957
 20
-9.296
 30
0.0
 11
-4.6216086957
 21
-9.296
 31
0.0
  0
LINE
  5
2CD
  8
0
  6
CONTINUOUS
 62
     7
 10
-4.6216086957
 20
-9.296
 30
0.0
 11
-4.6216086957
 21
-5.716
 31
0.0
  0
LINE
  5
2CE
  8
0
  6
CONTINUOUS
 62
     7
 10
-5.6745217391
 20
-5.716
 30
0.0
 11
-6.3945217391
 21
-5.716
 31
0.0
  0
LINE
  5
2CF
  8
0
  6
CONTINUOUS
 62
     7
 10
-6.3945217391
 20
-5.716
 30
0.0
 11
-6.3945217391
 21
-9.296
 31
0.0
  0
LINE
  5
2D0
  8
0
  6
CONTINUOUS
 62
     7
 10
-6.3945217391
 20
-9.296
 30
0.0
 11
-5.6745217391
 21
-9.296
 31
0.0
  0
LINE
  5
2D1
  8
0
  6
CONTINUOUS
 62
     7
 10
-5.6745217391
 20
-9.296
 30
0.0
 11
-5.6745217391
 21
-5.716
 31
0.0
  0
LINE
  5
2D2
  8
0
  6
CONTINUOUS
 62
     7
 10
-6.7274347826
 20
-5.716
 30
0.0
 11
-7.4474347826
 21
-5.716
 31
0.0
  0
LINE
  5
2D3
  8
0
  6
CONTINUOUS
 62
     7
 10
-7.4474347826
 20
-5.716
 30
0.0
 11
-7.4474347826
 21
-9.296
 31
0.0
  0
LINE
  5
2D4
  8
0
  6
CONTINUOUS
 62
     7
 10
-7.4474347826
 20
-9.296
 30
0.0
 11
-6.7274347826
 21
-9.296
 31
0.0
  0
LINE
  5
2D5
  8
0
  6
CONTINUOUS
 62
     7
 10
-6.7274347826
 20
-9.296
 30
0.0
 11
-6.7274347826
 21
-5.716
 31
0.0
  0
LINE
  5
2D6
  8
0
  6
CONTINUOUS
 62
     7
 10
-7.7803478261
 20
-5.716
 30
0.0
 11
-8.5003478261
 21
-5.716
 31
0.0
  0
LINE
  5
2D7
  8
0
  6
CONTINUOUS
 62
     7
 10
-8.5003478261
 20
-5.716
 30
0.0
 11
-8.5003478261
 21
-9.296
 31
0.0
  0
LINE
  5
2D8
  8
0
  6
CONTINUOUS
 62
     7
 10
-8.5003478261
 20
-9.296
 30
0.0
 11
-7.7803478261
 21
-9.296
 31
0.0
  0
LINE
  5
2D9
  8
0
  6
CONTINUOUS
 62
     7
 10
-7.7803478261
 20
-9.296
 30
0.0
 11
-7.7803478261
 21
-5.716
 31
0.0
  0
LINE
  5
2DA
  8
0
  6
CONTINUOUS
 62
     7
 10
-8.8332608696
 20
-5.716
 30
0.0
 11
-9.5532608696
 21
-5.716
 31
0.0
  0
LINE
  5
2DB
  8
0
  6
CONTINUOUS
 62
     7
 10
-9.5532608696
 20
-5.716
 30
0.0
 11
-9.5532608696
 21
-9.296
 31
0.0
  0
LINE
  5
2DC
  8
0
  6
CONTINUOUS
 62
     7
 10
-9.5532608696
 20
-9.296
 30
0.0
 11
-8.8332608696
 21
-9.296
 31
0.0
  0
LINE
  5
2DD
  8
0
  6
CONTINUOUS
 62
     7
 10
-8.8332608696
 20
-9.296
 30
0.0
 11
-8.8332608696
 21
-5.716
 31
0.0
  0
LINE
  5
2DE
  8
0
  6
CONTINUOUS
 62
     7
 10
-9.886173913
 20
-5.716
 30
0.0
 11
-10.606173913
 21
-5.716
 31
0.0
  0
LINE
  5
2DF
  8
0
  6
CONTINUOUS
 62
     7
 10
-10.606173913
 20
-5.716
 30
0.0
 11
-10.606173913
 21
-9.296
 31
0.0
  0
LINE
  5
2E0
  8
0
  6
CONTINUOUS
 62
     7
 10
-10.606173913
 20
-9.296
 30
0.0
 11
-9.886173913
 21
-9.296
 31
0.0
  0
LINE
  5
2E1
  8
0
  6
CONTINUOUS
 62
     7
 10
-9.886173913
 20
-9.296
 30
0.0
 11
-9.886173913
 21
-5.716
 31
0.0
  0
LINE
  5
2E2
  8
0
  6
CONTINUOUS
 62
     7
 10
-10.9390869565
 20
-5.716
 30
0.0
 11
-11.6590869565
 21
-5.716
 31
0.0
  0
LINE
  5
2E3
  8
0
  6
CONTINUOUS
 62
     7
 10
-11.6590869565
 20
-5.716
 30
0.0
 11
-11.6590869565
 21
-9.296
 31
0.0
  0
LINE
  5
2E4
  8
0
  6
CONTINUOUS
 62
     7
 10
-11.6590869565
 20
-9.296
 30
0.0
 11
-10.9390869565
 21
-9.296
 31
0.0
  0
LINE
  5
2E5
  8
0
  6
CONTINUOUS
 62
     7
 10
-10.9390869565
 20
-9.296
 30
0.0
 11
-10.9390869565
 21
-5.716
 31
0.0
  0
LINE
  5
2E6
  8
0
  6
CONTINUOUS
 62
     7
 10
-11.992
 20
-5.716
 30
0.0
 11
-12.712
 21
-5.716
 31
0.0
  0
LINE
  5
2E7
  8
0
  6
CONTINUOUS
 62
     7
 10
-12.712
 20
-5.716
 30
0.0
 11
-12.712
 21
-9.296
 31
0.0
  0
LINE
  5
2E8
  8
0
  6
CONTINUOUS
 62
     7
 10
-12.712
 20
-9.296
 30
0.0
 11
-11.992
 21
-9.296
 31
0.0
  0
LINE
  5
2E9
  8
0
  6
CONTINUOUS
 62
     7
 10
-11.992
 20
-9.296
 30
0.0
 11
-11.992
 21
-5.716
 31
0.0
  0
LINE
  5
2EA
  8
0
  6
CONTINUOUS
 62
     7
 10
-1.4628695652
 20
-0.713
 30
0.0
 11
-2.1828695652
 21
-0.713
 31
0.0
  0
LINE
  5
2EB
  8
0
  6
CONTINUOUS
 62
     7
 10
-2.1828695652
 20
-0.713
 30
0.0
 11
-2.1828695652
 21
-4.293
 31
0.0
  0
LINE
  5
2EC
  8
0
  6
CONTINUOUS
 62
     7
 10
-2.1828695652
 20
-4.293
 30
0.0
 11
-1.4628695652
 21
-4.293
 31
0.0
  0
LINE
  5
2ED
  8
0
  6
CONTINUOUS
 62
     7
 10
-1.4628695652
 20
-4.293
 30
0.0
 11
-1.4628695652
 21
-0.713
 31
0.0
  0
LINE
  5
2EE
  8
0
  6
CONTINUOUS
 62
     7
 10
-2.5157826087
 20
-0.713
 30
0.0
 11
-3.2357826087
 21
-0.713
 31
0.0
  0
LINE
  5
2EF
  8
0
  6
CONTINUOUS
 62
     7
 10
-3.2357826087
 20
-0.713
 30
0.0
 11
-3.2357826087
 21
-4.293
 31
0.0
  0
LINE
  5
2F0
  8
0
  6
CONTINUOUS
 62
     7
 10
-3.2357826087
 20
-4.293
 30
0.0
 11
-2.5157826087
 21
-4.293
 31
0.0
  0
LINE
  5
2F1
  8
0
  6
CONTINUOUS
 62
     7
 10
-2.5157826087
 20
-4.293
 30
0.0
 11
-2.5157826087
 21
-0.713
 31
0.0
  0
LINE
  5
2F2
  8
0
  6
CONTINUOUS
 62
     7
 10
-3.5686956522
 20
-0.713
 30
0.0
 11
-4.2886956522
 21
-0.713
 31
0.0
  0
LINE
  5
2F3
  8
0
  6
CONTINUOUS
 62
     7
 10
-4.2886956522
 20
-0.713
 30
0.0
 11
-4.2886956522
 21
-4.293
 31
0.0
  0
LINE
  5
2F4
  8
0
  6
CONTINUOUS
 62
     7
 10
-4.2886956522
 20
-4.293
 30
0.0
 11
-3.5686956522
 21
-4.293
 31
0.0
  0
LINE
  5
2F5
  8
0
  6
CONTINUOUS
 62
     7
 10
-3.5686956522
 20
-4.293
 30
0.0
 11
-3.5686956522
 21
-0.713
 31
0.0
  0
LINE
  5
2F6
  8
0
  6
CONTINUOUS
 62
     7
 10
-4.6216086957
 20
-0.713
 30
0.0
 11
-5.3416086957
 21
-0.713
 31
0.0
  0
LINE
  5
2F7
  8
0
  6
CONTINUOUS
 62
     7
 10
-5.3416086957
 20
-0.713
 30
0.0
 11
-5.3416086957
 21
-4.293
 31
0.0
  0
LINE
  5
2F8
  8
0
  6
CONTINUOUS
 62
     7
 10
-5.3416086957
 20
-4.293
 30
0.0
 11
-4.6216086957
 21
-4.293
 31
0.0
  0
LINE
  5
2F9
  8
0
  6
CONTINUOUS
 62
     7
 10
-4.6216086957
 20
-4.293
 30
0.0
 11
-4.6216086957
 21
-0.713
 31
0.0
  0
LINE
  5
2FA
  8
0
  6
CONTINUOUS
 62
     7
 10
-5.6745217391
 20
-0.713
 30
0.0
 11
-6.3945217391
 21
-0.713
 31
0.0
  0
LINE
  5
2FB
  8
0
  6
CONTINUOUS
 62
     7
 10
-6.3945217391
 20
-0.713
 30
0.0
 11
-6.3945217391
 21
-4.293
 31
0.0
  0
LINE
  5
2FC
  8
0
  6
CONTINUOUS
 62
     7
 10
-6.3945217391
 20
-4.293
 30
0.0
 11
-5.6745217391
 21
-4.293
 31
0.0
  0
LINE
  5
2FD
  8
0
  6
CONTINUOUS
 62
     7
 10
-5.6745217391
 20
-4.293
 30
0.0
 11
-5.6745217391
 21
-0.713
 31
0.0
  0
LINE
  5
2FE
  8
0
  6
CONTINUOUS
 62
     7
 10
-6.7274347826
 20
-0.713
 30
0.0
 11
-7.4474347826
 21
-0.713
 31
0.0
  0
LINE
  5
2FF
  8
0
  6
CONTINUOUS
 62
     7
 10
-7.4474347826
 20
-0.713
 30
0.0
 11
-7.4474347826
 21
-4.293
 31
0.0
  0
LINE
  5
300
  8
0
  6
CONTINUOUS
 62
     7
 10
-7.4474347826
 20
-4.293
 30
0.0
 11
-6.7274347826
 21
-4.293
 31
0.0
  0
LINE
  5
301
  8
0
  6
CONTINUOUS
 62
     7
 10
-6.7274347826
 20
-4.293
 30
0.0
 11
-6.7274347826
 21
-0.713
 31
0.0
  0
LINE
  5
302
  8
0
  6
CONTINUOUS
 62
     7
 10
-10.9390869565
 20
-0.713
 30
0.0
 11
-11.6590869565
 21
-0.713
 31
0.0
  0
LINE
  5
303
  8
0
  6
CONTINUOUS
 62
     7
 10
-11.6590869565
 20
-0.713
 30
0.0
 11
-11.6590869565
 21
-4.293
 31
0.0
  0
LINE
  5
304
  8
0
  6
CONTINUOUS
 62
     7
 10
-11.6590869565
 20
-4.293
 30
0.0
 11
-10.9390869565
 21
-4.293
 31
0.0
  0
LINE
  5
305
  8
0
  6
CONTINUOUS
 62
     7
 10
-10.9390869565
 20
-4.293
 30
0.0
 11
-10.9390869565
 21
-0.713
 31
0.0
  0
LINE
  5
306
  8
0
  6
CONTINUOUS
 62
     7
 10
-11.992
 20
-0.713
 30
0.0
 11
-12.712
 21
-0.713
 31
0.0
  0
LINE
  5
307
  8
0
  6
CONTINUOUS
 62
     7
 10
-12.712
 20
-0.713
 30
0.0
 11
-12.712
 21
-4.293
 31
0.0
  0
LINE
  5
308
  8
0
  6
CONTINUOUS
 62
     7
 10
-12.712
 20
-4.293
 30
0.0
 11
-11.992
 21
-4.293
 31
0.0
  0
LINE
  5
309
  8
0
  6
CONTINUOUS
 62
     7
 10
-11.992
 20
-4.293
 30
0.0
 11
-11.992
 21
-0.713
 31
0.0
  0
LINE
  5
30A
  8
0
  6
CONTINUOUS
 62
     7
 10
11.1720869565
 20
4.29
 30
0.0
 11
10.4520869565
 21
4.29
 31
0.0
  0
LINE
  5
30B
  8
0
  6
CONTINUOUS
 62
     7
 10
10.4520869565
 20
4.29
 30
0.0
 11
10.4520869565
 21
0.71
 31
0.0
  0
LINE
  5
30C
  8
0
  6
CONTINUOUS
 62
     7
 10
10.4520869565
 20
0.71
 30
0.0
 11
11.1720869565
 21
0.71
 31
0.0
  0
LINE
  5
30D
  8
0
  6
CONTINUOUS
 62
     7
 10
11.1720869565
 20
0.71
 30
0.0
 11
11.1720869565
 21
4.29
 31
0.0
  0
LINE
  5
30E
  8
0
  6
CONTINUOUS
 62
     7
 10
-9.886173913
 20
-0.713
 30
0.0
 11
-10.606173913
 21
-0.713
 31
0.0
  0
LINE
  5
30F
  8
0
  6
CONTINUOUS
 62
     7
 10
-10.606173913
 20
-0.713
 30
0.0
 11
-10.606173913
 21
-4.293
 31
0.0
  0
LINE
  5
310
  8
0
  6
CONTINUOUS
 62
     7
 10
-10.606173913
 20
-4.293
 30
0.0
 11
-9.886173913
 21
-4.293
 31
0.0
  0
LINE
  5
311
  8
0
  6
CONTINUOUS
 62
     7
 10
-9.886173913
 20
-4.293
 30
0.0
 11
-9.886173913
 21
-0.713
 31
0.0
  0
LINE
  5
312
  8
0
  6
CONTINUOUS
 62
     7
 10
-8.8332608696
 20
-0.713
 30
0.0
 11
-9.5532608696
 21
-0.713
 31
0.0
  0
LINE
  5
313
  8
0
  6
CONTINUOUS
 62
     7
 10
-9.5532608696
 20
-0.713
 30
0.0
 11
-9.5532608696
 21
-4.293
 31
0.0
  0
LINE
  5
314
  8
0
  6
CONTINUOUS
 62
     7
 10
-9.5532608696
 20
-4.293
 30
0.0
 11
-8.8332608696
 21
-4.293
 31
0.0
  0
LINE
  5
315
  8
0
  6
CONTINUOUS
 62
     7
 10
-8.8332608696
 20
-4.293
 30
0.0
 11
-8.8332608696
 21
-0.713
 31
0.0
  0
LINE
  5
316
  8
0
  6
CONTINUOUS
 62
     7
 10
-7.7803478261
 20
-0.713
 30
0.0
 11
-8.5003478261
 21
-0.713
 31
0.0
  0
LINE
  5
317
  8
0
  6
CONTINUOUS
 62
     7
 10
-8.5003478261
 20
-0.713
 30
0.0
 11
-8.5003478261
 21
-4.293
 31
0.0
  0
LINE
  5
318
  8
0
  6
CONTINUOUS
 62
     7
 10
-8.5003478261
 20
-4.293
 30
0.0
 11
-7.7803478261
 21
-4.293
 31
0.0
  0
LINE
  5
319
  8
0
  6
CONTINUOUS
 62
     7
 10
-7.7803478261
 20
-4.293
 30
0.0
 11
-7.7803478261
 21
-0.713
 31
0.0
  0
LINE
  5
31A
  8
0
  6
CONTINUOUS
 62
     7
 10
-0.4099565217
 20
-0.713
 30
0.0
 11
-1.1299565217
 21
-0.713
 31
0.0
  0
LINE
  5
31B
  8
0
  6
CONTINUOUS
 62
     7
 10
-1.1299565217
 20
-0.713
 30
0.0
 11
-1.1299565217
 21
-4.293
 31
0.0
  0
LINE
  5
31C
  8
0
  6
CONTINUOUS
 62
     7
 10
-1.1299565217
 20
-4.293
 30
0.0
 11
-0.4099565217
 21
-4.293
 31
0.0
  0
LINE
  5
31D
  8
0
  6
CONTINUOUS
 62
     7
 10
-0.4099565217
 20
-4.293
 30
0.0
 11
-0.4099565217
 21
-0.713
 31
0.0
  0
LINE
  5
31E
  8
0
  6
CONTINUOUS
 62
     7
 10
0.6429565217
 20
-0.713
 30
0.0
 11
-0.0770434783
 21
-0.713
 31
0.0
  0
LINE
  5
31F
  8
0
  6
CONTINUOUS
 62
     7
 10
-0.0770434783
 20
-0.713
 30
0.0
 11
-0.0770434783
 21
-4.293
 31
0.0
  0
LINE
  5
320
  8
0
  6
CONTINUOUS
 62
     7
 10
-0.0770434783
 20
-4.293
 30
0.0
 11
0.6429565217
 21
-4.293
 31
0.0
  0
LINE
  5
321
  8
0
  6
CONTINUOUS
 62
     7
 10
0.6429565217
 20
-4.293
 30
0.0
 11
0.6429565217
 21
-0.713
 31
0.0
  0
LINE
  5
322
  8
0
  6
CONTINUOUS
 62
     7
 10
1.6958695652
 20
-0.713
 30
0.0
 11
0.9758695652
 21
-0.713
 31
0.0
  0
LINE
  5
323
  8
0
  6
CONTINUOUS
 62
     7
 10
0.9758695652
 20
-0.713
 30
0.0
 11
0.9758695652
 21
-4.293
 31
0.0
  0
LINE
  5
324
  8
0
  6
CONTINUOUS
 62
     7
 10
0.9758695652
 20
-4.293
 30
0.0
 11
1.6958695652
 21
-4.293
 31
0.0
  0
LINE
  5
325
  8
0
  6
CONTINUOUS
 62
     7
 10
1.6958695652
 20
-4.293
 30
0.0
 11
1.6958695652
 21
-0.713
 31
0.0
  0
LINE
  5
326
  8
0
  6
CONTINUOUS
 62
     7
 10
2.7487826087
 20
-0.713
 30
0.0
 11
2.0287826087
 21
-0.713
 31
0.0
  0
LINE
  5
327
  8
0
  6
CONTINUOUS
 62
     7
 10
2.0287826087
 20
-0.713
 30
0.0
 11
2.0287826087
 21
-4.293
 31
0.0
  0
LINE
  5
328
  8
0
  6
CONTINUOUS
 62
     7
 10
2.0287826087
 20
-4.293
 30
0.0
 11
2.7487826087
 21
-4.293
 31
0.0
  0
LINE
  5
329
  8
0
  6
CONTINUOUS
 62
     7
 10
2.7487826087
 20
-4.293
 30
0.0
 11
2.7487826087
 21
-0.713
 31
0.0
  0
LINE
  5
32A
  8
0
  6
CONTINUOUS
 62
     7
 10
3.8016956522
 20
-0.713
 30
0.0
 11
3.0816956522
 21
-0.713
 31
0.0
  0
LINE
  5
32B
  8
0
  6
CONTINUOUS
 62
     7
 10
3.0816956522
 20
-0.713
 30
0.0
 11
3.0816956522
 21
-4.293
 31
0.0
  0
LINE
  5
32C
  8
0
  6
CONTINUOUS
 62
     7
 10
3.0816956522
 20
-4.293
 30
0.0
 11
3.8016956522
 21
-4.293
 31
0.0
  0
LINE
  5
32D
  8
0
  6
CONTINUOUS
 62
     7
 10
3.8016956522
 20
-4.293
 30
0.0
 11
3.8016956522
 21
-0.713
 31
0.0
  0
LINE
  5
32E
  8
0
  6
CONTINUOUS
 62
     7
 10
4.8546086957
 20
-0.713
 30
0.0
 11
4.1346086957
 21
-0.713
 31
0.0
  0
LINE
  5
32F
  8
0
  6
CONTINUOUS
 62
     7
 10
4.1346086957
 20
-0.713
 30
0.0
 11
4.1346086957
 21
-4.293
 31
0.0
  0
LINE
  5
330
  8
0
  6
CONTINUOUS
 62
     7
 10
4.1346086957
 20
-4.293
 30
0.0
 11
4.8546086957
 21
-4.293
 31
0.0
  0
LINE
  5
331
  8
0
  6
CONTINUOUS
 62
     7
 10
4.8546086957
 20
-4.293
 30
0.0
 11
4.8546086957
 21
-0.713
 31
0.0
  0
LINE
  5
332
  8
0
  6
CONTINUOUS
 62
     7
 10
5.9075217391
 20
-0.713
 30
0.0
 11
5.1875217391
 21
-0.713
 31
0.0
  0
LINE
  5
333
  8
0
  6
CONTINUOUS
 62
     7
 10
5.1875217391
 20
-0.713
 30
0.0
 11
5.1875217391
 21
-4.293
 31
0.0
  0
LINE
  5
334
  8
0
  6
CONTINUOUS
 62
     7
 10
5.1875217391
 20
-4.293
 30
0.0
 11
5.9075217391
 21
-4.293
 31
0.0
  0
LINE
  5
335
  8
0
  6
CONTINUOUS
 62
     7
 10
5.9075217391
 20
-4.293
 30
0.0
 11
5.9075217391
 21
-0.713
 31
0.0
  0
LINE
  5
336
  8
0
  6
CONTINUOUS
 62
     7
 10
6.9604347826
 20
-0.713
 30
0.0
 11
6.2404347826
 21
-0.713
 31
0.0
  0
LINE
  5
337
  8
0
  6
CONTINUOUS
 62
     7
 10
6.2404347826
 20
-0.713
 30
0.0
 11
6.2404347826
 21
-4.293
 31
0.0
  0
LINE
  5
338
  8
0
  6
CONTINUOUS
 62
     7
 10
6.2404347826
 20
-4.293
 30
0.0
 11
6.9604347826
 21
-4.293
 31
0.0
  0
LINE
  5
339
  8
0
  6
CONTINUOUS
 62
     7
 10
6.9604347826
 20
-4.293
 30
0.0
 11
6.9604347826
 21
-0.713
 31
0.0
  0
LINE
  5
33A
  8
0
  6
CONTINUOUS
 62
     7
 10
8.0133478261
 20
-0.713
 30
0.0
 11
7.2933478261
 21
-0.713
 31
0.0
  0
LINE
  5
33B
  8
0
  6
CONTINUOUS
 62
     7
 10
7.2933478261
 20
-0.713
 30
0.0
 11
7.2933478261
 21
-4.293
 31
0.0
  0
LINE
  5
33C
  8
0
  6
CONTINUOUS
 62
     7
 10
7.2933478261
 20
-4.293
 30
0.0
 11
8.0133478261
 21
-4.293
 31
0.0
  0
LINE
  5
33D
  8
0
  6
CONTINUOUS
 62
     7
 10
8.0133478261
 20
-4.293
 30
0.0
 11
8.0133478261
 21
-0.713
 31
0.0
  0
LINE
  5
33E
  8
0
  6
CONTINUOUS
 62
     7
 10
9.0662608696
 20
-0.713
 30
0.0
 11
8.3462608696
 21
-0.713
 31
0.0
  0
LINE
  5
33F
  8
0
  6
CONTINUOUS
 62
     7
 10
8.3462608696
 20
-0.713
 30
0.0
 11
8.3462608696
 21
-4.293
 31
0.0
  0
LINE
  5
340
  8
0
  6
CONTINUOUS
 62
     7
 10
8.3462608696
 20
-4.293
 30
0.0
 11
9.0662608696
 21
-4.293
 31
0.0
  0
LINE
  5
341
  8
0
  6
CONTINUOUS
 62
     7
 10
9.0662608696
 20
-4.293
 30
0.0
 11
9.0662608696
 21
-0.713
 31
0.0
  0
LINE
  5
342
  8
0
  6
CONTINUOUS
 62
     7
 10
10.119173913
 20
-0.713
 30
0.0
 11
9.399173913
 21
-0.713
 31
0.0
  0
LINE
  5
343
  8
0
  6
CONTINUOUS
 62
     7
 10
9.399173913
 20
-0.713
 30
0.0
 11
9.399173913
 21
-4.293
 31
0.0
  0
LINE
  5
344
  8
0
  6
CONTINUOUS
 62
     7
 10
9.399173913
 20
-4.293
 30
0.0
 11
10.119173913
 21
-4.293
 31
0.0
  0
LINE
  5
345
  8
0
  6
CONTINUOUS
 62
     7
 10
10.119173913
 20
-4.293
 30
0.0
 11
10.119173913
 21
-0.713
 31
0.0
  0
LINE
  5
346
  8
0
  6
CONTINUOUS
 62
     7
 10
11.1720869565
 20
-0.713
 30
0.0
 11
10.4520869565
 21
-0.713
 31
0.0
  0
LINE
  5
347
  8
0
  6
CONTINUOUS
 62
     7
 10
10.4520869565
 20
-0.713
 30
0.0
 11
10.4520869565
 21
-4.293
 31
0.0
  0
LINE
  5
348
  8
0
  6
CONTINUOUS
 62
     7
 10
10.4520869565
 20
-4.293
 30
0.0
 11
11.1720869565
 21
-4.293
 31
0.0
  0
LINE
  5
349
  8
0
  6
CONTINUOUS
 62
     7
 10
11.1720869565
 20
-4.293
 30
0.0
 11
11.1720869565
 21
-0.713
 31
0.0
  0
LINE
  5
34A
  8
0
  6
CONTINUOUS
 62
     7
 10
9.0662608696
 20
9.293
 30
0.0
 11
8.3462608696
 21
9.293
 31
0.0
  0
LINE
  5
34B
  8
0
  6
CONTINUOUS
 62
     7
 10
8.3462608696
 20
9.293
 30
0.0
 11
8.3462608696
 21
5.713
 31
0.0
  0
LINE
  5
34C
  8
0
  6
CONTINUOUS
 62
     7
 10
8.3462608696
 20
5.713
 30
0.0
 11
9.0662608696
 21
5.713
 31
0.0
  0
LINE
  5
34D
  8
0
  6
CONTINUOUS
 62
     7
 10
9.0662608696
 20
5.713
 30
0.0
 11
9.0662608696
 21
9.293
 31
0.0
  0
LINE
  5
34E
  8
0
  6
CONTINUOUS
 62
     7
 10
8.0133478261
 20
9.293
 30
0.0
 11
7.2933478261
 21
9.293
 31
0.0
  0
LINE
  5
34F
  8
0
  6
CONTINUOUS
 62
     7
 10
7.2933478261
 20
9.293
 30
0.0
 11
7.2933478261
 21
5.713
 31
0.0
  0
LINE
  5
350
  8
0
  6
CONTINUOUS
 62
     7
 10
7.2933478261
 20
5.713
 30
0.0
 11
8.0133478261
 21
5.713
 31
0.0
  0
LINE
  5
351
  8
0
  6
CONTINUOUS
 62
     7
 10
8.0133478261
 20
5.713
 30
0.0
 11
8.0133478261
 21
9.293
 31
0.0
  0
LINE
  5
352
  8
0
  6
CONTINUOUS
 62
     7
 10
6.9604347826
 20
9.293
 30
0.0
 11
6.2404347826
 21
9.293
 31
0.0
  0
LINE
  5
353
  8
0
  6
CONTINUOUS
 62
     7
 10
6.2404347826
 20
9.293
 30
0.0
 11
6.2404347826
 21
5.713
 31
0.0
  0
LINE
  5
354
  8
0
  6
CONTINUOUS
 62
     7
 10
6.2404347826
 20
5.713
 30
0.0
 11
6.9604347826
 21
5.713
 31
0.0
  0
LINE
  5
355
  8
0
  6
CONTINUOUS
 62
     7
 10
6.9604347826
 20
5.713
 30
0.0
 11
6.9604347826
 21
9.293
 31
0.0
  0
LINE
  5
356
  8
0
  6
CONTINUOUS
 62
     7
 10
5.9075217391
 20
9.293
 30
0.0
 11
5.1875217391
 21
9.293
 31
0.0
  0
LINE
  5
357
  8
0
  6
CONTINUOUS
 62
     7
 10
5.1875217391
 20
9.293
 30
0.0
 11
5.1875217391
 21
5.713
 31
0.0
  0
LINE
  5
358
  8
0
  6
CONTINUOUS
 62
     7
 10
5.1875217391
 20
5.713
 30
0.0
 11
5.9075217391
 21
5.713
 31
0.0
  0
LINE
  5
359
  8
0
  6
CONTINUOUS
 62
     7
 10
5.9075217391
 20
5.713
 30
0.0
 11
5.9075217391
 21
9.293
 31
0.0
  0
LINE
  5
35A
  8
0
  6
CONTINUOUS
 62
     7
 10
4.8546086957
 20
9.293
 30
0.0
 11
4.1346086957
 21
9.293
 31
0.0
  0
LINE
  5
35B
  8
0
  6
CONTINUOUS
 62
     7
 10
4.1346086957
 20
9.293
 30
0.0
 11
4.1346086957
 21
5.713
 31
0.0
  0
LINE
  5
35C
  8
0
  6
CONTINUOUS
 62
     7
 10
4.1346086957
 20
5.713
 30
0.0
 11
4.8546086957
 21
5.713
 31
0.0
  0
LINE
  5
35D
  8
0
  6
CONTINUOUS
 62
     7
 10
4.8546086957
 20
5.713
 30
0.0
 11
4.8546086957
 21
9.293
 31
0.0
  0
LINE
  5
35E
  8
0
  6
CONTINUOUS
 62
     7
 10
3.8016956522
 20
9.293
 30
0.0
 11
3.0816956522
 21
9.293
 31
0.0
  0
LINE
  5
35F
  8
0
  6
CONTINUOUS
 62
     7
 10
3.0816956522
 20
9.293
 30
0.0
 11
3.0816956522
 21
5.713
 31
0.0
  0
LINE
  5
360
  8
0
  6
CONTINUOUS
 62
     7
 10
3.0816956522
 20
5.713
 30
0.0
 11
3.8016956522
 21
5.713
 31
0.0
  0
LINE
  5
361
  8
0
  6
CONTINUOUS
 62
     7
 10
3.8016956522
 20
5.713
 30
0.0
 11
3.8016956522
 21
9.293
 31
0.0
  0
LINE
  5
362
  8
0
  6
CONTINUOUS
 62
     7
 10
2.7487826087
 20
9.293
 30
0.0
 11
2.0287826087
 21
9.293
 31
0.0
  0
LINE
  5
363
  8
0
  6
CONTINUOUS
 62
     7
 10
2.0287826087
 20
9.293
 30
0.0
 11
2.0287826087
 21
5.713
 31
0.0
  0
LINE
  5
364
  8
0
  6
CONTINUOUS
 62
     7
 10
2.0287826087
 20
5.713
 30
0.0
 11
2.7487826087
 21
5.713
 31
0.0
  0
LINE
  5
365
  8
0
  6
CONTINUOUS
 62
     7
 10
2.7487826087
 20
5.713
 30
0.0
 11
2.7487826087
 21
9.293
 31
0.0
  0
LINE
  5
366
  8
0
  6
CONTINUOUS
 62
     7
 10
1.6958695652
 20
9.293
 30
0.0
 11
0.9758695652
 21
9.293
 31
0.0
  0
LINE
  5
367
  8
0
  6
CONTINUOUS
 62
     7
 10
0.9758695652
 20
9.293
 30
0.0
 11
0.9758695652
 21
5.713
 31
0.0
  0
LINE
  5
368
  8
0
  6
CONTINUOUS
 62
     7
 10
0.9758695652
 20
5.713
 30
0.0
 11
1.6958695652
 21
5.713
 31
0.0
  0
LINE
  5
369
  8
0
  6
CONTINUOUS
 62
     7
 10
1.6958695652
 20
5.713
 30
0.0
 11
1.6958695652
 21
9.293
 31
0.0
  0
LINE
  5
36A
  8
0
  6
CONTINUOUS
 62
     7
 10
0.6429565217
 20
9.293
 30
0.0
 11
-0.0770434783
 21
9.293
 31
0.0
  0
LINE
  5
36B
  8
0
  6
CONTINUOUS
 62
     7
 10
-0.0770434783
 20
9.293
 30
0.0
 11
-0.0770434783
 21
5.713
 31
0.0
  0
LINE
  5
36C
  8
0
  6
CONTINUOUS
 62
     7
 10
-0.0770434783
 20
5.713
 30
0.0
 11
0.6429565217
 21
5.713
 31
0.0
  0
LINE
  5
36D
  8
0
  6
CONTINUOUS
 62
     7
 10
0.6429565217
 20
5.713
 30
0.0
 11
0.6429565217
 21
9.293
 31
0.0
  0
LINE
  5
36E
  8
0
  6
CONTINUOUS
 62
     7
 10
-0.4099565217
 20
9.293
 30
0.0
 11
-1.1299565217
 21
9.293
 31
0.0
  0
LINE
  5
36F
  8
0
  6
CONTINUOUS
 62
     7
 10
-1.1299565217
 20
9.293
 30
0.0
 11
-1.1299565217
 21
5.713
 31
0.0
  0
LINE
  5
370
  8
0
  6
CONTINUOUS
 62
     7
 10
-1.1299565217
 20
5.713
 30
0.0
 11
-0.4099565217
 21
5.713
 31
0.0
  0
LINE
  5
371
  8
0
  6
CONTINUOUS
 62
     7
 10
-0.4099565217
 20
5.713
 30
0.0
 11
-0.4099565217
 21
9.293
 31
0.0
  0
LINE
  5
372
  8
0
  6
CONTINUOUS
 62
     7
 10
-1.4628695652
 20
9.293
 30
0.0
 11
-2.1828695652
 21
9.293
 31
0.0
  0
LINE
  5
373
  8
0
  6
CONTINUOUS
 62
     7
 10
-2.1828695652
 20
9.293
 30
0.0
 11
-2.1828695652
 21
5.713
 31
0.0
  0
LINE
  5
374
  8
0
  6
CONTINUOUS
 62
     7
 10
-2.1828695652
 20
5.713
 30
0.0
 11
-1.4628695652
 21
5.713
 31
0.0
  0
LINE
  5
375
  8
0
  6
CONTINUOUS
 62
     7
 10
-1.4628695652
 20
5.713
 30
0.0
 11
-1.4628695652
 21
9.293
 31
0.0
  0
LINE
  5
376
  8
0
  6
CONTINUOUS
 62
     7
 10
-2.5157826087
 20
9.293
 30
0.0
 11
-3.2357826087
 21
9.293
 31
0.0
  0
LINE
  5
377
  8
0
  6
CONTINUOUS
 62
     7
 10
-3.2357826087
 20
9.293
 30
0.0
 11
-3.2357826087
 21
5.713
 31
0.0
  0
LINE
  5
378
  8
0
  6
CONTINUOUS
 62
     7
 10
-3.2357826087
 20
5.713
 30
0.0
 11
-2.5157826087
 21
5.713
 31
0.0
  0
LINE
  5
379
  8
0
  6
CONTINUOUS
 62
     7
 10
-2.5157826087
 20
5.713
 30
0.0
 11
-2.5157826087
 21
9.293
 31
0.0
  0
LINE
  5
37A
  8
0
  6
CONTINUOUS
 62
     7
 10
12.225
 20
9.293
 30
0.0
 11
11.505
 21
9.293
 31
0.0
  0
LINE
  5
37B
  8
0
  6
CONTINUOUS
 62
     7
 10
11.505
 20
9.293
 30
0.0
 11
11.505
 21
5.713
 31
0.0
  0
LINE
  5
37C
  8
0
  6
CONTINUOUS
 62
     7
 10
11.505
 20
5.713
 30
0.0
 11
12.225
 21
5.713
 31
0.0
  0
LINE
  5
37D
  8
0
  6
CONTINUOUS
 62
     7
 10
12.225
 20
5.713
 30
0.0
 11
12.225
 21
9.293
 31
0.0
  0
LINE
  5
37E
  8
0
  6
CONTINUOUS
 62
     7
 10
12.225
 20
4.29
 30
0.0
 11
11.505
 21
4.29
 31
0.0
  0
LINE
  5
37F
  8
0
  6
CONTINUOUS
 62
     7
 10
11.505
 20
4.29
 30
0.0
 11
11.505
 21
0.71
 31
0.0
  0
LINE
  5
380
  8
0
  6
CONTINUOUS
 62
     7
 10
11.505
 20
0.71
 30
0.0
 11
12.225
 21
0.71
 31
0.0
  0
LINE
  5
381
  8
0
  6
CONTINUOUS
 62
     7
 10
12.225
 20
0.71
 30
0.0
 11
12.225
 21
4.29
 31
0.0
  0
LINE
  5
382
  8
0
  6
CONTINUOUS
 62
     7
 10
12.225
 20
-0.713
 30
0.0
 11
11.505
 21
-0.713
 31
0.0
  0
LINE
  5
383
  8
0
  6
CONTINUOUS
 62
     7
 10
11.505
 20
-0.713
 30
0.0
 11
11.505
 21
-4.293
 31
0.0
  0
LINE
  5
384
  8
0
  6
CONTINUOUS
 62
     7
 10
11.505
 20
-4.293
 30
0.0
 11
12.225
 21
-4.293
 31
0.0
  0
LINE
  5
385
  8
0
  6
CONTINUOUS
 62
     7
 10
12.225
 20
-4.293
 30
0.0
 11
12.225
 21
-0.713
 31
0.0
  0
LINE
  5
386
  8
0
  6
CONTINUOUS
 62
     7
 10
-11.992
 20
9.293
 30
0.0
 11
-12.712
 21
9.293
 31
0.0
  0
LINE
  5
387
  8
0
  6
CONTINUOUS
 62
     7
 10
-12.712
 20
9.293
 30
0.0
 11
-12.712
 21
5.713
 31
0.0
  0
LINE
  5
388
  8
0
  6
CONTINUOUS
 62
     7
 10
-12.712
 20
5.713
 30
0.0
 11
-11.992
 21
5.713
 31
0.0
  0
LINE
  5
389
  8
0
  6
CONTINUOUS
 62
     7
 10
-11.992
 20
5.713
 30
0.0
 11
-11.992
 21
9.293
 31
0.0
  0
LINE
  5
38A
  8
0
  6
CONTINUOUS
 62
     7
 10
-10.9390869565
 20
9.293
 30
0.0
 11
-11.6590869565
 21
9.293
 31
0.0
  0
LINE
  5
38B
  8
0
  6
CONTINUOUS
 62
     7
 10
-11.6590869565
 20
9.293
 30
0.0
 11
-11.6590869565
 21
5.713
 31
0.0
  0
LINE
  5
38C
  8
0
  6
CONTINUOUS
 62
     7
 10
-11.6590869565
 20
5.713
 30
0.0
 11
-10.9390869565
 21
5.713
 31
0.0
  0
LINE
  5
38D
  8
0
  6
CONTINUOUS
 62
     7
 10
-10.9390869565
 20
5.713
 30
0.0
 11
-10.9390869565
 21
9.293
 31
0.0
  0
LINE
  5
38E
  8
0
  6
CONTINUOUS
 62
     7
 10
-9.886173913
 20
9.293
 30
0.0
 11
-10.606173913
 21
9.293
 31
0.0
  0
LINE
  5
38F
  8
0
  6
CONTINUOUS
 62
     7
 10
-10.606173913
 20
9.293
 30
0.0
 11
-10.606173913
 21
5.713
 31
0.0
  0
LINE
  5
390
  8
0
  6
CONTINUOUS
 62
     7
 10
-10.606173913
 20
5.713
 30
0.0
 11
-9.886173913
 21
5.713
 31
0.0
  0
LINE
  5
391
  8
0
  6
CONTINUOUS
 62
     7
 10
-9.886173913
 20
5.713
 30
0.0
 11
-9.886173913
 21
9.293
 31
0.0
  0
LINE
  5
392
  8
0
  6
CONTINUOUS
 62
     7
 10
-8.8332608696
 20
9.293
 30
0.0
 11
-9.5532608696
 21
9.293
 31
0.0
  0
LINE
  5
393
  8
0
  6
CONTINUOUS
 62
     7
 10
-9.5532608696
 20
9.293
 30
0.0
 11
-9.5532608696
 21
5.713
 31
0.0
  0
LINE
  5
394
  8
0
  6
CONTINUOUS
 62
     7
 10
-9.5532608696
 20
5.713
 30
0.0
 11
-8.8332608696
 21
5.713
 31
0.0
  0
LINE
  5
395
  8
0
  6
CONTINUOUS
 62
     7
 10
-8.8332608696
 20
5.713
 30
0.0
 11
-8.8332608696
 21
9.293
 31
0.0
  0
LINE
  5
396
  8
0
  6
CONTINUOUS
 62
     7
 10
-7.7803478261
 20
9.293
 30
0.0
 11
-8.5003478261
 21
9.293
 31
0.0
  0
LINE
  5
397
  8
0
  6
CONTINUOUS
 62
     7
 10
-8.5003478261
 20
9.293
 30
0.0
 11
-8.5003478261
 21
5.713
 31
0.0
  0
LINE
  5
398
  8
0
  6
CONTINUOUS
 62
     7
 10
-8.5003478261
 20
5.713
 30
0.0
 11
-7.7803478261
 21
5.713
 31
0.0
  0
LINE
  5
399
  8
0
  6
CONTINUOUS
 62
     7
 10
-7.7803478261
 20
5.713
 30
0.0
 11
-7.7803478261
 21
9.293
 31
0.0
  0
LINE
  5
39A
  8
0
  6
CONTINUOUS
 62
     7
 10
-6.7274347826
 20
9.293
 30
0.0
 11
-7.4474347826
 21
9.293
 31
0.0
  0
LINE
  5
39B
  8
0
  6
CONTINUOUS
 62
     7
 10
-7.4474347826
 20
9.293
 30
0.0
 11
-7.4474347826
 21
5.713
 31
0.0
  0
LINE
  5
39C
  8
0
  6
CONTINUOUS
 62
     7
 10
-7.4474347826
 20
5.713
 30
0.0
 11
-6.7274347826
 21
5.713
 31
0.0
  0
LINE
  5
39D
  8
0
  6
CONTINUOUS
 62
     7
 10
-6.7274347826
 20
5.713
 30
0.0
 11
-6.7274347826
 21
9.293
 31
0.0
  0
LINE
  5
39E
  8
0
  6
CONTINUOUS
 62
     7
 10
-5.6745217391
 20
9.293
 30
0.0
 11
-6.3945217391
 21
9.293
 31
0.0
  0
LINE
  5
39F
  8
0
  6
CONTINUOUS
 62
     7
 10
-6.3945217391
 20
9.293
 30
0.0
 11
-6.3945217391
 21
5.713
 31
0.0
  0
LINE
  5
3A0
  8
0
  6
CONTINUOUS
 62
     7
 10
-6.3945217391
 20
5.713
 30
0.0
 11
-5.6745217391
 21
5.713
 31
0.0
  0
LINE
  5
3A1
  8
0
  6
CONTINUOUS
 62
     7
 10
-5.6745217391
 20
5.713
 30
0.0
 11
-5.6745217391
 21
9.293
 31
0.0
  0
LINE
  5
3A2
  8
0
  6
CONTINUOUS
 62
     7
 10
-4.6216086957
 20
9.293
 30
0.0
 11
-5.3416086957
 21
9.293
 31
0.0
  0
LINE
  5
3A3
  8
0
  6
CONTINUOUS
 62
     7
 10
-5.3416086957
 20
9.293
 30
0.0
 11
-5.3416086957
 21
5.713
 31
0.0
  0
LINE
  5
3A4
  8
0
  6
CONTINUOUS
 62
     7
 10
-5.3416086957
 20
5.713
 30
0.0
 11
-4.6216086957
 21
5.713
 31
0.0
  0
LINE
  5
3A5
  8
0
  6
CONTINUOUS
 62
     7
 10
-4.6216086957
 20
5.713
 30
0.0
 11
-4.6216086957
 21
9.293
 31
0.0
  0
LINE
  5
3A6
  8
0
  6
CONTINUOUS
 62
     7
 10
-3.5686956522
 20
9.293
 30
0.0
 11
-4.2886956522
 21
9.293
 31
0.0
  0
LINE
  5
3A7
  8
0
  6
CONTINUOUS
 62
     7
 10
-4.2886956522
 20
9.293
 30
0.0
 11
-4.2886956522
 21
5.713
 31
0.0
  0
LINE
  5
3A8
  8
0
  6
CONTINUOUS
 62
     7
 10
-4.2886956522
 20
5.713
 30
0.0
 11
-3.5686956522
 21
5.713
 31
0.0
  0
LINE
  5
3A9
  8
0
  6
CONTINUOUS
 62
     7
 10
-3.5686956522
 20
5.713
 30
0.0
 11
-3.5686956522
 21
9.293
 31
0.0
  0
LINE
  5
3AA
  8
0
  6
CONTINUOUS
 62
     7
 10
10.119173913
 20
4.29
 30
0.0
 11
9.399173913
 21
4.29
 31
0.0
  0
LINE
  5
3AB
  8
0
  6
CONTINUOUS
 62
     7
 10
9.399173913
 20
4.29
 30
0.0
 11
9.399173913
 21
0.71
 31
0.0
  0
LINE
  5
3AC
  8
0
  6
CONTINUOUS
 62
     7
 10
9.399173913
 20
0.71
 30
0.0
 11
10.119173913
 21
0.71
 31
0.0
  0
LINE
  5
3AD
  8
0
  6
CONTINUOUS
 62
     7
 10
10.119173913
 20
0.71
 30
0.0
 11
10.119173913
 21
4.29
 31
0.0
  0
LINE
  5
3AE
  8
0
  6
CONTINUOUS
 62
     7
 10
9.0662608696
 20
4.29
 30
0.0
 11
8.3462608696
 21
4.29
 31
0.0
  0
LINE
  5
3AF
  8
0
  6
CONTINUOUS
 62
     7
 10
8.3462608696
 20
4.29
 30
0.0
 11
8.3462608696
 21
0.71
 31
0.0
  0
LINE
  5
3B0
  8
0
  6
CONTINUOUS
 62
     7
 10
8.3462608696
 20
0.71
 30
0.0
 11
9.0662608696
 21
0.71
 31
0.0
  0
LINE
  5
3B1
  8
0
  6
CONTINUOUS
 62
     7
 10
9.0662608696
 20
0.71
 30
0.0
 11
9.0662608696
 21
4.29
 31
0.0
  0
LINE
  5
3B2
  8
0
  6
CONTINUOUS
 62
     7
 10
8.0133478261
 20
4.29
 30
0.0
 11
7.2933478261
 21
4.29
 31
0.0
  0
LINE
  5
3B3
  8
0
  6
CONTINUOUS
 62
     7
 10
7.2933478261
 20
4.29
 30
0.0
 11
7.2933478261
 21
0.71
 31
0.0
  0
LINE
  5
3B4
  8
0
  6
CONTINUOUS
 62
     7
 10
7.2933478261
 20
0.71
 30
0.0
 11
8.0133478261
 21
0.71
 31
0.0
  0
LINE
  5
3B5
  8
0
  6
CONTINUOUS
 62
     7
 10
8.0133478261
 20
0.71
 30
0.0
 11
8.0133478261
 21
4.29
 31
0.0
  0
LINE
  5
3B6
  8
0
  6
CONTINUOUS
 62
     7
 10
6.9604347826
 20
4.29
 30
0.0
 11
6.2404347826
 21
4.29
 31
0.0
  0
LINE
  5
3B7
  8
0
  6
CONTINUOUS
 62
     7
 10
6.2404347826
 20
4.29
 30
0.0
 11
6.2404347826
 21
0.71
 31
0.0
  0
LINE
  5
3B8
  8
0
  6
CONTINUOUS
 62
     7
 10
6.2404347826
 20
0.71
 30
0.0
 11
6.9604347826
 21
0.71
 31
0.0
  0
LINE
  5
3B9
  8
0
  6
CONTINUOUS
 62
     7
 10
6.9604347826
 20
0.71
 30
0.0
 11
6.9604347826
 21
4.29
 31
0.0
  0
LINE
  5
3BA
  8
0
  6
CONTINUOUS
 62
     7
 10
5.9075217391
 20
4.29
 30
0.0
 11
5.1875217391
 21
4.29
 31
0.0
  0
LINE
  5
3BB
  8
0
  6
CONTINUOUS
 62
     7
 10
5.1875217391
 20
4.29
 30
0.0
 11
5.1875217391
 21
0.71
 31
0.0
  0
LINE
  5
3BC
  8
0
  6
CONTINUOUS
 62
     7
 10
5.1875217391
 20
0.71
 30
0.0
 11
5.9075217391
 21
0.71
 31
0.0
  0
LINE
  5
3BD
  8
0
  6
CONTINUOUS
 62
     7
 10
5.9075217391
 20
0.71
 30
0.0
 11
5.9075217391
 21
4.29
 31
0.0
  0
LINE
  5
3BE
  8
0
  6
CONTINUOUS
 62
     7
 10
4.8546086957
 20
4.29
 30
0.0
 11
4.1346086957
 21
4.29
 31
0.0
  0
LINE
  5
3BF
  8
0
  6
CONTINUOUS
 62
     7
 10
4.1346086957
 20
4.29
 30
0.0
 11
4.1346086957
 21
0.71
 31
0.0
  0
LINE
  5
3C0
  8
0
  6
CONTINUOUS
 62
     7
 10
4.1346086957
 20
0.71
 30
0.0
 11
4.8546086957
 21
0.71
 31
0.0
  0
LINE
  5
3C1
  8
0
  6
CONTINUOUS
 62
     7
 10
4.8546086957
 20
0.71
 30
0.0
 11
4.8546086957
 21
4.29
 31
0.0
  0
LINE
  5
3C2
  8
0
  6
CONTINUOUS
 62
     7
 10
3.8016956522
 20
4.29
 30
0.0
 11
3.0816956522
 21
4.29
 31
0.0
  0
LINE
  5
3C3
  8
0
  6
CONTINUOUS
 62
     7
 10
3.0816956522
 20
4.29
 30
0.0
 11
3.0816956522
 21
0.71
 31
0.0
  0
LINE
  5
3C4
  8
0
  6
CONTINUOUS
 62
     7
 10
3.0816956522
 20
0.71
 30
0.0
 11
3.8016956522
 21
0.71
 31
0.0
  0
LINE
  5
3C5
  8
0
  6
CONTINUOUS
 62
     7
 10
3.8016956522
 20
0.71
 30
0.0
 11
3.8016956522
 21
4.29
 31
0.0
  0
LINE
  5
3C6
  8
0
  6
CONTINUOUS
 62
     7
 10
2.7487826087
 20
4.29
 30
0.0
 11
2.0287826087
 21
4.29
 31
0.0
  0
LINE
  5
3C7
  8
0
  6
CONTINUOUS
 62
     7
 10
2.0287826087
 20
4.29
 30
0.0
 11
2.0287826087
 21
0.71
 31
0.0
  0
LINE
  5
3C8
  8
0
  6
CONTINUOUS
 62
     7
 10
2.0287826087
 20
0.71
 30
0.0
 11
2.7487826087
 21
0.71
 31
0.0
  0
LINE
  5
3C9
  8
0
  6
CONTINUOUS
 62
     7
 10
2.7487826087
 20
0.71
 30
0.0
 11
2.7487826087
 21
4.29
 31
0.0
  0
LINE
  5
3CA
  8
0
  6
CONTINUOUS
 62
     7
 10
1.6958695652
 20
4.29
 30
0.0
 11
0.9758695652
 21
4.29
 31
0.0
  0
LINE
  5
3CB
  8
0
  6
CONTINUOUS
 62
     7
 10
0.9758695652
 20
4.29
 30
0.0
 11
0.9758695652
 21
0.71
 31
0.0
  0
LINE
  5
3CC
  8
0
  6
CONTINUOUS
 62
     7
 10
0.9758695652
 20
0.71
 30
0.0
 11
1.6958695652
 21
0.71
 31
0.0
  0
LINE
  5
3CD
  8
0
  6
CONTINUOUS
 62
     7
 10
1.6958695652
 20
0.71
 30
0.0
 11
1.6958695652
 21
4.29
 31
0.0
  0
LINE
  5
3CE
  8
0
  6
CONTINUOUS
 62
     7
 10
0.6429565217
 20
4.29
 30
0.0
 11
-0.0770434783
 21
4.29
 31
0.0
  0
LINE
  5
3CF
  8
0
  6
CONTINUOUS
 62
     7
 10
-0.0770434783
 20
4.29
 30
0.0
 11
-0.0770434783
 21
0.71
 31
0.0
  0
LINE
  5
3D0
  8
0
  6
CONTINUOUS
 62
     7
 10
-0.0770434783
 20
0.71
 30
0.0
 11
0.6429565217
 21
0.71
 31
0.0
  0
LINE
  5
3D1
  8
0
  6
CONTINUOUS
 62
     7
 10
0.6429565217
 20
0.71
 30
0.0
 11
0.6429565217
 21
4.29
 31
0.0
  0
LINE
  5
3D2
  8
0
  6
CONTINUOUS
 62
     7
 10
-0.4099565217
 20
4.29
 30
0.0
 11
-1.1299565217
 21
4.29
 31
0.0
  0
LINE
  5
3D3
  8
0
  6
CONTINUOUS
 62
     7
 10
-1.1299565217
 20
4.29
 30
0.0
 11
-1.1299565217
 21
0.71
 31
0.0
  0
LINE
  5
3D4
  8
0
  6
CONTINUOUS
 62
     7
 10
-1.1299565217
 20
0.71
 30
0.0
 11
-0.4099565217
 21
0.71
 31
0.0
  0
LINE
  5
3D5
  8
0
  6
CONTINUOUS
 62
     7
 10
-0.4099565217
 20
0.71
 30
0.0
 11
-0.4099565217
 21
4.29
 31
0.0
  0
LINE
  5
3D6
  8
0
  6
CONTINUOUS
 62
     7
 10
-1.4628695652
 20
4.29
 30
0.0
 11
-2.1828695652
 21
4.29
 31
0.0
  0
LINE
  5
3D7
  8
0
  6
CONTINUOUS
 62
     7
 10
-2.1828695652
 20
4.29
 30
0.0
 11
-2.1828695652
 21
0.71
 31
0.0
  0
LINE
  5
3D8
  8
0
  6
CONTINUOUS
 62
     7
 10
-2.1828695652
 20
0.71
 30
0.0
 11
-1.4628695652
 21
0.71
 31
0.0
  0
LINE
  5
3D9
  8
0
  6
CONTINUOUS
 62
     7
 10
-1.4628695652
 20
0.71
 30
0.0
 11
-1.4628695652
 21
4.29
 31
0.0
  0
LINE
  5
3DA
  8
0
  6
CONTINUOUS
 62
     7
 10
-8.8332608696
 20
4.29
 30
0.0
 11
-9.5532608696
 21
4.29
 31
0.0
  0
LINE
  5
3DB
  8
0
  6
CONTINUOUS
 62
     7
 10
-9.5532608696
 20
4.29
 30
0.0
 11
-9.5532608696
 21
0.71
 31
0.0
  0
LINE
  5
3DC
  8
0
  6
CONTINUOUS
 62
     7
 10
-9.5532608696
 20
0.71
 30
0.0
 11
-8.8332608696
 21
0.71
 31
0.0
  0
LINE
  5
3DD
  8
0
  6
CONTINUOUS
 62
     7
 10
-8.8332608696
 20
0.71
 30
0.0
 11
-8.8332608696
 21
4.29
 31
0.0
  0
LINE
  5
3DE
  8
0
  6
CONTINUOUS
 62
     7
 10
-9.886173913
 20
4.29
 30
0.0
 11
-10.606173913
 21
4.29
 31
0.0
  0
LINE
  5
3DF
  8
0
  6
CONTINUOUS
 62
     7
 10
-10.606173913
 20
4.29
 30
0.0
 11
-10.606173913
 21
0.71
 31
0.0
  0
LINE
  5
3E0
  8
0
  6
CONTINUOUS
 62
     7
 10
-10.606173913
 20
0.71
 30
0.0
 11
-9.886173913
 21
0.71
 31
0.0
  0
LINE
  5
3E1
  8
0
  6
CONTINUOUS
 62
     7
 10
-9.886173913
 20
0.71
 30
0.0
 11
-9.886173913
 21
4.29
 31
0.0
  0
LINE
  5
3E2
  8
0
  6
CONTINUOUS
 62
     7
 10
-10.9390869565
 20
4.29
 30
0.0
 11
-11.6590869565
 21
4.29
 31
0.0
  0
LINE
  5
3E3
  8
0
  6
CONTINUOUS
 62
     7
 10
-11.6590869565
 20
4.29
 30
0.0
 11
-11.6590869565
 21
0.71
 31
0.0
  0
LINE
  5
3E4
  8
0
  6
CONTINUOUS
 62
     7
 10
-11.6590869565
 20
0.71
 30
0.0
 11
-10.9390869565
 21
0.71
 31
0.0
  0
LINE
  5
3E5
  8
0
  6
CONTINUOUS
 62
     7
 10
-10.9390869565
 20
0.71
 30
0.0
 11
-10.9390869565
 21
4.29
 31
0.0
  0
LINE
  5
3E6
  8
0
  6
CONTINUOUS
 62
     7
 10
-11.992
 20
4.29
 30
0.0
 11
-12.712
 21
4.29
 31
0.0
  0
LINE
  5
3E7
  8
0
  6
CONTINUOUS
 62
     7
 10
-12.712
 20
4.29
 30
0.0
 11
-12.712
 21
0.71
 31
0.0
  0
LINE
  5
3E8
  8
0
  6
CONTINUOUS
 62
     7
 10
-12.712
 20
0.71
 30
0.0
 11
-11.992
 21
0.71
 31
0.0
  0
LINE
  5
3E9
  8
0
  6
CONTINUOUS
 62
     7
 10
-11.992
 20
0.71
 30
0.0
 11
-11.992
 21
4.29
 31
0.0
  0
LINE
  5
3EA
  8
0
  6
CONTINUOUS
 62
     7
 10
11.1720869565
 20
9.293
 30
0.0
 11
10.4520869565
 21
9.293
 31
0.0
  0
LINE
  5
3EB
  8
0
  6
CONTINUOUS
 62
     7
 10
10.4520869565
 20
9.293
 30
0.0
 11
10.4520869565
 21
5.713
 31
0.0
  0
LINE
  5
3EC
  8
0
  6
CONTINUOUS
 62
     7
 10
10.4520869565
 20
5.713
 30
0.0
 11
11.1720869565
 21
5.713
 31
0.0
  0
LINE
  5
3ED
  8
0
  6
CONTINUOUS
 62
     7
 10
11.1720869565
 20
5.713
 30
0.0
 11
11.1720869565
 21
9.293
 31
0.0
  0
LINE
  5
3EE
  8
0
  6
CONTINUOUS
 62
     7
 10
10.119173913
 20
9.293
 30
0.0
 11
9.399173913
 21
9.293
 31
0.0
  0
LINE
  5
3EF
  8
0
  6
CONTINUOUS
 62
     7
 10
9.399173913
 20
9.293
 30
0.0
 11
9.399173913
 21
5.713
 31
0.0
  0
LINE
  5
3F0
  8
0
  6
CONTINUOUS
 62
     7
 10
9.399173913
 20
5.713
 30
0.0
 11
10.119173913
 21
5.713
 31
0.0
  0
LINE
  5
3F1
  8
0
  6
CONTINUOUS
 62
     7
 10
10.119173913
 20
5.713
 30
0.0
 11
10.119173913
 21
9.293
 31
0.0
  0
LINE
  5
3F2
  8
0
  6
CONTINUOUS
 62
     7
 10
-7.7803478261
 20
4.29
 30
0.0
 11
-8.5003478261
 21
4.29
 31
0.0
  0
LINE
  5
3F3
  8
0
  6
CONTINUOUS
 62
     7
 10
-8.5003478261
 20
4.29
 30
0.0
 11
-8.5003478261
 21
0.71
 31
0.0
  0
LINE
  5
3F4
  8
0
  6
CONTINUOUS
 62
     7
 10
-8.5003478261
 20
0.71
 30
0.0
 11
-7.7803478261
 21
0.71
 31
0.0
  0
LINE
  5
3F5
  8
0
  6
CONTINUOUS
 62
     7
 10
-7.7803478261
 20
0.71
 30
0.0
 11
-7.7803478261
 21
4.29
 31
0.0
  0
LINE
  5
3F6
  8
0
  6
CONTINUOUS
 62
     7
 10
-6.7274347826
 20
4.29
 30
0.0
 11
-7.4474347826
 21
4.29
 31
0.0
  0
LINE
  5
3F7
  8
0
  6
CONTINUOUS
 62
     7
 10
-7.4474347826
 20
4.29
 30
0.0
 11
-7.4474347826
 21
0.71
 31
0.0
  0
LINE
  5
3F8
  8
0
  6
CONTINUOUS
 62
     7
 10
-7.4474347826
 20
0.71
 30
0.0
 11
-6.7274347826
 21
0.71
 31
0.0
  0
LINE
  5
3F9
  8
0
  6
CONTINUOUS
 62
     7
 10
-6.7274347826
 20
0.71
 30
0.0
 11
-6.7274347826
 21
4.29
 31
0.0
  0
LINE
  5
3FA
  8
0
  6
CONTINUOUS
 62
     7
 10
-5.6745217391
 20
4.29
 30
0.0
 11
-6.3945217391
 21
4.29
 31
0.0
  0
LINE
  5
3FB
  8
0
  6
CONTINUOUS
 62
     7
 10
-6.3945217391
 20
4.29
 30
0.0
 11
-6.3945217391
 21
0.71
 31
0.0
  0
LINE
  5
3FC
  8
0
  6
CONTINUOUS
 62
     7
 10
-6.3945217391
 20
0.71
 30
0.0
 11
-5.6745217391
 21
0.71
 31
0.0
  0
LINE
  5
3FD
  8
0
  6
CONTINUOUS
 62
     7
 10
-5.6745217391
 20
0.71
 30
0.0
 11
-5.6745217391
 21
4.29
 31
0.0
  0
LINE
  5
3FE
  8
0
  6
CONTINUOUS
 62
     7
 10
-4.6216086957
 20
4.29
 30
0.0
 11
-5.3416086957
 21
4.29
 31
0.0
  0
LINE
  5
3FF
  8
0
  6
CONTINUOUS
 62
     7
 10
-5.3416086957
 20
4.29
 30
0.0
 11
-5.3416086957
 21
0.71
 31
0.0
  0
LINE
  5
400
  8
0
  6
CONTINUOUS
 62
     7
 10
-5.3416086957
 20
0.71
 30
0.0
 11
-4.6216086957
 21
0.71
 31
0.0
  0
LINE
  5
401
  8
0
  6
CONTINUOUS
 62
     7
 10
-4.6216086957
 20
0.71
 30
0.0
 11
-4.6216086957
 21
4.29
 31
0.0
  0
LINE
  5
402
  8
0
  6
CONTINUOUS
 62
     7
 10
-3.5686956522
 20
4.29
 30
0.0
 11
-4.2886956522
 21
4.29
 31
0.0
  0
LINE
  5
403
  8
0
  6
CONTINUOUS
 62
     7
 10
-4.2886956522
 20
4.29
 30
0.0
 11
-4.2886956522
 21
0.71
 31
0.0
  0
LINE
  5
404
  8
0
  6
CONTINUOUS
 62
     7
 10
-4.2886956522
 20
0.71
 30
0.0
 11
-3.5686956522
 21
0.71
 31
0.0
  0
LINE
  5
405
  8
0
  6
CONTINUOUS
 62
     7
 10
-3.5686956522
 20
0.71
 30
0.0
 11
-3.5686956522
 21
4.29
 31
0.0
  0
LINE
  5
406
  8
0
  6
CONTINUOUS
 62
     7
 10
-2.5157826087
 20
4.29
 30
0.0
 11
-3.2357826087
 21
4.29
 31
0.0
  0
LINE
  5
407
  8
0
  6
CONTINUOUS
 62
     7
 10
-3.2357826087
 20
4.29
 30
0.0
 11
-3.2357826087
 21
0.71
 31
0.0
  0
LINE
  5
408
  8
0
  6
CONTINUOUS
 62
     7
 10
-3.2357826087
 20
0.71
 30
0.0
 11
-2.5157826087
 21
0.71
 31
0.0
  0
LINE
  5
409
  8
0
  6
CONTINUOUS
 62
     7
 10
-2.5157826087
 20
0.71
 30
0.0
 11
-2.5157826087
 21
4.29
 31
0.0
  0
LINE
  5
40A
  8
0
  6
CONTINUOUS
 62
     7
 10
-13.393
 20
-11.006
 30
0.0
 11
13.293
 21
-11.006
 31
0.0
  0
LINE
  5
40B
  8
0
  6
CONTINUOUS
 62
     7
 10
-13.393
 20
-9.0976079783
 30
0.0
 11
-13.393
 21
-11.006
 31
0.0
  0
LINE
  5
40C
  8
0
  6
CONTINUOUS
 62
     7
 10
-13.393
 20
-4.5976079783
 30
0.0
 11
-13.393
 21
-7.9143920217
 31
0.0
  0
LINE
  5
40D
  8
0
  6
CONTINUOUS
 62
     7
 10
-13.393
 20
-0.5916079783
 30
0.0
 11
-13.393
 21
-3.4143920217
 31
0.0
  0
LINE
  5
40E
  8
0
  6
CONTINUOUS
 62
     7
 10
-13.393
 20
3.4143920217
 30
0.0
 11
-13.393
 21
0.5916079783
 31
0.0
  0
LINE
  5
40F
  8
0
  6
CONTINUOUS
 62
     7
 10
-13.393
 20
7.9143920217
 30
0.0
 11
-13.393
 21
4.5976079783
 31
0.0
  0
LINE
  5
410
  8
0
  6
CONTINUOUS
 62
     7
 10
-13.393
 20
10.906
 30
0.0
 11
-13.393
 21
9.0976079783
 31
0.0
  0
LINE
  5
411
  8
0
  6
CONTINUOUS
 62
     7
 10
13.293
 20
11.006
 30
0.0
 11
-13.293
 21
11.006
 31
0.0
  0
LINE
  5
412
  8
0
  6
CONTINUOUS
 62
     7
 10
13.393
 20
-10.906
 30
0.0
 11
13.393
 21
10.906
 31
0.0
  0
ARC
  5
413
  8
0
  6
CONTINUOUS
 62
     7
 10
-13.293
 20
-7.9143920217
 30
0.0
 40
0.1000000000000035
 50
180.0
 51
260.4059317731
  0
ARC
  5
414
  8
0
  6
CONTINUOUS
 62
     7
 10
-13.493
 20
-4.5976079783
 30
0.0
 40
0.1
 50
0.0
 51
80.4059317731
  0
ARC
  5
415
  8
0
  6
CONTINUOUS
 62
     7
 10
-13.493
 20
-3.4143920217
 30
0.0
 40
0.0999999999999999
 50
279.5940682269
 51
0.0
  0
ARC
  5
416
  8
0
  6
CONTINUOUS
 62
     7
 10
-13.293
 20
-0.5916079783
 30
0.0
 40
0.1000000000000032
 50
99.5940682269
 51
180.0
  0
ARC
  5
417
  8
0
  6
CONTINUOUS
 62
     7
 10
-13.293
 20
0.5916079783
 30
0.0
 40
0.1000000000000032
 50
180.0
 51
260.4059317731
  0
ARC
  5
418
  8
0
  6
CONTINUOUS
 62
     7
 10
-13.493
 20
3.4143920217
 30
0.0
 40
0.0999999999999996
 50
0.0
 51
80.4059317731
  0
ARC
  5
419
  8
0
  6
CONTINUOUS
 62
     7
 10
-13.493
 20
4.5976079783
 30
0.0
 40
0.0999999999999996
 50
279.5940682269
 51
0.0
  0
ARC
  5
41A
  8
0
  6
CONTINUOUS
 62
     7
 10
-13.293
 20
7.9143920217
 30
0.0
 40
0.0999999999999997
 50
99.5940682269
 51
180.0
  0
ARC
  5
41B
  8
0
  6
CONTINUOUS
 62
     7
 10
-13.293
 20
9.0976079783
 30
0.0
 40
0.1000000000000032
 50
180.0
 51
260.4059317731
  0
ARC
  5
41C
  8
0
  6
CONTINUOUS
 62
     7
 10
-13.293
 20
10.906
 30
0.0
 40
0.1000000000000014
 50
90.0
 51
180.0
  0
ARC
  5
41D
  8
0
  6
CONTINUOUS
 62
     7
 10
13.293
 20
10.906
 30
0.0
 40
0.0999999999999961
 50
360.0
 51
90.0
  0
ARC
  5
41E
  8
0
  6
CONTINUOUS
 62
     7
 10
13.293
 20
-10.906
 30
0.0
 40
0.0999999999999996
 50
270.0
 51
0.0
  0
ARC
  5
41F
  8
0
  6
CONTINUOUS
 62
     7
 10
-13.293
 20
-9.0976079783
 30
0.0
 40
0.1000000000000032
 50
99.5940682269
 51
180.0
  0
ARC
  5
420
  8
0
  6
CONTINUOUS
 62
     7
 10
-13.393
 20
-8.506
 30
0.0
 40
0.5000000000000003
 50
279.5940682269
 51
80.4059317731
  0
ARC
  5
421
  8
0
  6
CONTINUOUS
 62
     7
 10
-13.393
 20
-4.006
 30
0.0
 40
0.4999999999999997
 50
99.5940682269
 51
260.4059317731
  0
ARC
  5
422
  8
0
  6
CONTINUOUS
 62
     7
 10
-13.393
 20
0.0
 30
0.0
 40
0.4999999999999998
 50
279.5940682269
 51
80.4059317731
  0
ARC
  5
423
  8
0
  6
CONTINUOUS
 62
     7
 10
-13.393
 20
4.006
 30
0.0
 40
0.5
 50
99.5940682269
 51
260.4059317731
  0
ARC
  5
424
  8
0
  6
CONTINUOUS
 62
     7
 10
-13.393
 20
8.506
 30
0.0
 40
0.5000000000000014
 50
279.5940682269
 51
80.4059317731
  0
ENDSEC
  0
EOF
